<svg width="1440" height="908" viewBox="0 0 1440 908" fill="none" xmlns="http://www.w3.org/2000/svg">
<path d="M-83.1227 339.722C-12.6497 265.372 149.693 199.961 302.827 267.392C494.243 351.681 771.183 799.599 1112.27 725.214C1385.14 665.705 1498.28 422.579 1523.91 343.132" stroke="#DFEEFF" stroke-width="2"/>
<path d="M-94.198 269.288C-23.7251 194.939 155.93 120.528 309.064 187.96C500.48 272.249 763.415 800.886 1104.5 726.5C1377.37 666.991 1487.2 316.446 1512.84 237" stroke="#DFEEFF" stroke-width="2"/>
<path d="M-71.2083 415.491C-0.735396 341.141 174.214 268.989 327.347 336.421C518.764 420.71 776.747 806.013 1117.83 731.627C1390.7 672.119 1510.19 498.348 1535.83 418.902" stroke="#DFEEFF" stroke-width="2"/>
</svg>
