<svg width="501" height="500" viewBox="0 0 501 500" fill="none" xmlns="http://www.w3.org/2000/svg">
<path d="M77.5001 154.489H162.61V65.7693L77.5001 65.7693L77.5001 154.489Z" fill="#E0E0E0"/>
<path d="M83.2701 154.489H168.38V65.7693L83.2701 65.7693L83.2701 154.489Z" fill="#FAFAFA"/>
<path d="M83.24 65.7393H168.41V154.509H83.24V65.7393ZM168.36 65.7893H83.3V154.459H168.36V65.7893Z" fill="#E0E0E0"/>
<path d="M94.7099 142.56H156.94V77.6896L94.7099 77.6896V142.56Z" fill="white"/>
<path d="M156.94 143C157.38 143.656 157.897 144.257 158.48 144.79C159.48 145.84 160.87 147.25 162.48 148.79C164.09 150.33 165.48 151.7 166.55 152.68C167.09 153.248 167.694 153.751 168.35 154.18C167.91 153.53 167.397 152.932 166.82 152.4C165.82 151.35 164.42 149.93 162.82 148.4C161.22 146.87 159.82 145.48 158.75 144.5C158.209 143.929 157.601 143.426 156.94 143Z" fill="#E0E0E0"/>
<path d="M94.71 142.829C94.0559 143.268 93.4581 143.785 92.93 144.369C91.88 145.369 90.46 146.759 88.93 148.319C87.4 149.879 86.01 151.319 85.03 152.389C84.4595 152.924 83.9589 153.529 83.54 154.189C84.1858 153.747 84.7796 153.234 85.31 152.659C86.31 151.659 87.79 150.269 89.31 148.659C90.83 147.049 92.24 145.659 93.21 144.589C93.7812 144.067 94.2851 143.476 94.71 142.829Z" fill="#E0E0E0"/>
<path d="M94.88 77.8595C94.4373 77.2115 93.9241 76.6145 93.35 76.0795C92.35 75.0795 90.96 73.6095 89.35 72.0795C87.74 70.5495 86.35 69.1595 85.29 68.1895C84.7481 67.6236 84.1443 67.1204 83.49 66.6895C83.9228 67.3421 84.4332 67.9398 85.01 68.4695C86.01 69.5195 87.41 70.9395 89.01 72.4695C90.61 73.9995 92.01 75.3895 93.08 76.3595C93.6144 76.9333 94.2192 77.4372 94.88 77.8595Z" fill="#E0E0E0"/>
<path d="M157.11 77.9994C157.765 77.5617 158.366 77.0481 158.9 76.4694C159.9 75.4694 161.36 74.0794 162.9 72.4694C164.44 70.8594 165.81 69.4694 166.79 68.4094C167.355 67.8667 167.858 67.263 168.29 66.6094C167.627 67.0589 167.025 67.5934 166.5 68.1994C165.45 69.1994 164.03 70.5894 162.5 72.1994C160.97 73.8094 159.58 75.1994 158.6 76.2694C158.038 76.7861 157.538 77.3667 157.11 77.9994Z" fill="#E0E0E0"/>
<path d="M94.88 142.559C94.8886 142.453 94.8886 142.346 94.88 142.239C94.88 142.019 94.88 141.729 94.88 141.339C94.88 140.529 94.88 139.339 94.88 137.839C94.88 134.759 94.88 130.289 94.94 124.619C94.94 113.259 95.01 97.0693 95.06 77.6893L94.82 77.9293H156.87L156.6 77.6493C156.6 101.459 156.6 123.729 156.6 142.519L156.84 142.279L111.91 142.399L99.28 142.469H95.95H95.08H95.91H99.21L111.78 142.539L156.86 142.659H157.1V142.419C157.1 123.629 157.1 101.359 157.1 77.5493V77.2793H156.81H94.76H94.52V77.5193C94.52 96.9593 94.61 113.199 94.64 124.599C94.64 130.249 94.64 134.709 94.71 137.769C94.71 139.269 94.71 140.419 94.71 141.219C94.71 141.599 94.71 141.889 94.71 142.099C94.71 142.309 94.88 142.559 94.88 142.559Z" fill="#E0E0E0"/>
<path d="M115.45 120.51H136.21V99.7498H115.45V120.51Z" fill="#EBEBEB"/>
<path d="M53.6101 463.569H156.05L156.05 269.919H53.6101L53.6101 463.569Z" fill="#E0E0E0"/>
<path d="M83.9999 463.569H186.44L186.44 269.919H83.9999L83.9999 463.569Z" fill="#F5F5F5"/>
<path d="M91.55 279.079H179.5V309.779H91.55V279.079ZM178.4 280.159H92.63V308.699H178.4V280.159Z" fill="#E0E0E0"/>
<path d="M146.65 285.739H123.18C121.867 285.739 120.608 285.218 119.68 284.289C118.752 283.361 118.23 282.102 118.23 280.789V279.619H151.6V280.789C151.6 282.102 151.079 283.361 150.15 284.289C149.222 285.218 147.963 285.739 146.65 285.739Z" fill="#EBEBEB"/>
<path d="M91.55 318.069H179.5V348.769H91.55V318.069ZM178.4 319.159H92.63V347.689H178.4V319.159Z" fill="#E0E0E0"/>
<path d="M146.65 324.729H123.18C121.867 324.729 120.608 324.208 119.68 323.28C118.752 322.351 118.23 321.092 118.23 319.779V318.609H151.6V319.779C151.6 321.092 151.079 322.351 150.15 323.28C149.222 324.208 147.963 324.729 146.65 324.729Z" fill="#EBEBEB"/>
<path d="M91.55 357.069H179.5V387.759H91.55V357.069ZM178.4 358.149H92.63V386.679H178.4V358.149Z" fill="#E0E0E0"/>
<path d="M146.65 363.72H123.18C121.867 363.72 120.608 363.198 119.68 362.27C118.752 361.342 118.23 360.083 118.23 358.77V357.6H151.6V358.77C151.6 360.083 151.079 361.342 150.15 362.27C149.222 363.198 147.963 363.72 146.65 363.72Z" fill="#EBEBEB"/>
<path d="M91.55 396.06H179.5V426.76H91.55V396.06ZM178.4 397.14H92.63V425.68H178.4V397.14Z" fill="#E0E0E0"/>
<path d="M146.65 402.72H123.18C121.867 402.72 120.608 402.198 119.68 401.27C118.752 400.342 118.23 399.083 118.23 397.77V396.6H151.6V397.77C151.6 399.083 151.079 400.342 150.15 401.27C149.222 402.198 147.963 402.72 146.65 402.72Z" fill="#EBEBEB"/>
<path d="M79.72 272.319H190.99V262.669H79.72V272.319Z" fill="#EBEBEB"/>
<path d="M46.26 272.319H79.72V262.669H46.26V272.319Z" fill="#E0E0E0"/>
<path d="M181.07 473.46H186.45V463.57H181.07V473.46Z" fill="#E0E0E0"/>
<path d="M147.81 473.46H153.19V463.57H147.81V473.46Z" fill="#E0E0E0"/>
<path d="M87.0499 473.46H92.4299V463.57H87.0499V473.46Z" fill="#E0E0E0"/>
<path d="M56.67 473.46H62.05V463.57H56.67V473.46Z" fill="#E0E0E0"/>
<path d="M303.263 46.7035L297.072 78.5879L344.368 87.7728L350.56 55.8885L303.263 46.7035Z" fill="#F5F5F5"/>
<path d="M350.65 56.3091C350.488 56.4386 350.314 56.5524 350.13 56.6491L348.59 57.5491L342.87 60.7791L323.87 71.3391L323.72 71.4291L323.6 71.2891L323.32 70.9591L309.11 54.1591L304.87 48.9991C304.39 48.4191 304.01 47.9491 303.73 47.5891C303.587 47.4317 303.46 47.2609 303.35 47.0791C303.509 47.2203 303.656 47.3741 303.79 47.5391L305 48.8891L309.37 53.8891C313.06 58.1991 318.11 64.0891 323.68 70.6091C323.779 70.7141 323.873 70.8242 323.96 70.9391L323.69 70.8891L342.69 60.4391L348.5 57.3991L350.08 56.5691C350.263 56.4686 350.454 56.3817 350.65 56.3091Z" fill="#E0E0E0"/>
<path d="M297.16 78.9994C297.08 78.8994 301.49 75.2194 307 70.7794C312.51 66.3394 317 62.7794 317.11 62.8994C317.22 63.0194 312.78 66.6694 307.27 71.1194C301.76 75.5694 297.23 79.0994 297.16 78.9994Z" fill="#E0E0E0"/>
<path d="M332.91 65.5699C333.02 65.5099 335.69 70.5699 338.91 76.7799C342.13 82.9899 344.6 88.1399 344.49 88.1899C344.38 88.2399 341.71 83.1899 338.49 76.9799C335.27 70.7699 332.8 65.6199 332.91 65.5699Z" fill="#E0E0E0"/>
<path d="M452.244 89.0784L418.466 106.045L429.902 128.814L463.681 111.847L452.244 89.0784Z" fill="#F5F5F5"/>
<path d="M452.5 89.3096C452.462 89.4678 452.408 89.6219 452.34 89.7696C452.21 90.0996 452.03 90.5296 451.81 91.0696L449.81 95.8096L443.09 111.46L443.03 111.59H442.89L442.56 111.52L425.69 107.9L420.58 106.76L419.2 106.44C419.036 106.407 418.876 106.36 418.72 106.3C418.885 106.307 419.049 106.331 419.21 106.37L420.61 106.63L425.74 107.63L442.63 111.15L442.97 111.22L442.77 111.32C445.43 105.23 447.83 99.7296 449.59 95.7196L451.67 90.9996L452.26 89.7296C452.328 89.5828 452.408 89.4423 452.5 89.3096Z" fill="#E0E0E0"/>
<path d="M430.14 129C430.05 129 431.02 124.58 432.31 119.18C433.6 113.78 434.73 109.42 434.82 109.44C434.91 109.46 433.94 113.86 432.65 119.26C431.36 124.66 430.23 129.06 430.14 129Z" fill="#E0E0E0"/>
<path d="M445.9 103.56C445.9 103.47 450.01 105.31 454.98 107.66C459.95 110.01 463.98 111.99 463.92 112.07C463.86 112.15 459.81 110.32 454.84 107.97C449.87 105.62 445.86 103.64 445.9 103.56Z" fill="#E0E0E0"/>
<path d="M290.864 186.954L286.966 206.01L315.241 211.793L319.138 192.738L290.864 186.954Z" fill="#F5F5F5"/>
<path d="M319.16 192.999L318.85 193.199L317.92 193.719L314.5 195.609L303.08 201.819L302.98 201.869L302.91 201.789L302.75 201.589C299.47 197.589 296.5 194.059 294.34 191.439L291.81 188.349L291.13 187.499C291.043 187.406 290.969 187.302 290.91 187.189C291.005 187.274 291.092 187.368 291.17 187.469L291.89 188.289L294.48 191.289C296.66 193.899 299.65 197.459 302.95 201.389L303.12 201.589H302.95L314.41 195.449L317.89 193.619L318.84 193.129C318.942 193.075 319.049 193.031 319.16 192.999Z" fill="#E0E0E0"/>
<path d="M286.99 206.25C286.99 206.19 289.61 204.02 292.93 201.39C296.25 198.76 298.99 196.67 299.04 196.73C299.09 196.79 296.42 198.96 293.1 201.59C289.78 204.22 287.04 206.31 286.99 206.25Z" fill="#E0E0E0"/>
<path d="M308.5 198.409C308.56 198.409 310.13 201.409 312 205.159C313.87 208.909 315.34 211.999 315.28 212.029C315.22 212.059 313.64 209.029 311.77 205.279C309.9 201.529 308.42 198.449 308.5 198.409Z" fill="#E0E0E0"/>
<path d="M358.45 166.349L403.71 161.159L408.29 191.809L361.34 196.419L358.45 166.349Z" fill="#EBEBEB"/>
<path d="M358.5 166.359L378.08 146.699C378.483 146.297 379.012 146.046 379.578 145.988C380.145 145.929 380.714 146.068 381.19 146.379L403.76 161.159" fill="#E0E0E0"/>
<path d="M361.34 196.419C361.28 196.419 364.48 192.029 368.49 186.709C372.5 181.389 375.8 177.119 375.86 177.169C375.92 177.219 372.72 181.559 368.71 186.879C364.7 192.199 361.4 196.469 361.34 196.419Z" fill="#E0E0E0"/>
<path d="M408.29 191.82C408.23 191.87 404.29 188.37 399.47 184C394.65 179.63 390.79 176 390.84 176C390.89 176 394.84 179.45 399.66 183.82C404.48 188.19 408.34 191.76 408.29 191.82Z" fill="#E0E0E0"/>
<path d="M360.92 167.79L359.32 153.65L398.94 148.92L400.98 163.76L382.89 181.53L360.92 167.79Z" fill="#FAFAFA"/>
<path d="M360.91 167.789L361.34 168.019L362.53 168.729L367 171.459L383 181.349H382.73L400.79 163.539L400.72 163.759C400.33 160.929 399.91 157.959 399.5 154.939C399.22 152.939 398.94 150.939 398.67 148.939L398.96 149.159L359.33 153.799L359.48 153.609C359.94 158.029 360.31 161.549 360.57 163.999C360.683 165.186 360.773 166.116 360.84 166.789C360.84 167.089 360.84 167.329 360.9 167.519C360.913 167.602 360.913 167.686 360.9 167.769C360.893 167.693 360.893 167.616 360.9 167.539L360.8 166.839C360.713 166.173 360.593 165.253 360.44 164.079C360.15 161.619 359.72 158.079 359.19 153.649V153.489H359.35L398.95 148.659H399.21V148.909C399.477 150.909 399.753 152.909 400.04 154.909C400.46 157.909 400.87 160.909 401.26 163.729V163.859L401.16 163.949L383.04 181.699L382.92 181.809L382.78 181.719L366.78 171.619L362.39 168.809L361.25 168.069C361.13 167.984 361.016 167.891 360.91 167.789Z" fill="#E0E0E0"/>
<path d="M393.43 156.72C393.43 156.86 387.43 157.66 379.92 158.51C372.41 159.36 366.37 159.94 366.36 159.79C366.35 159.64 372.36 158.85 379.87 158C387.38 157.15 393.42 156.57 393.43 156.72Z" fill="#E0E0E0"/>
<path d="M393.86 160.71C393.86 160.86 387.86 161.66 380.35 162.51C372.84 163.36 366.8 163.93 366.79 163.79C366.78 163.65 372.79 162.84 380.3 161.99C387.81 161.14 393.85 160.57 393.86 160.71Z" fill="#E0E0E0"/>
<path d="M394.36 165.32C394.36 165.46 388.36 166.32 380.85 167.12C373.34 167.92 367.3 168.54 367.28 168.4C367.26 168.26 373.28 167.4 380.79 166.6C388.3 165.8 394.34 165.18 394.36 165.32Z" fill="#E0E0E0"/>
<path d="M394.85 169.92C394.85 170.07 389.1 170.84 381.97 171.65C374.84 172.46 369.04 173 368.97 172.86C368.9 172.72 374.72 171.94 381.86 171.13C389 170.32 394.84 169.78 394.85 169.92Z" fill="#E0E0E0"/>
<path d="M390.21 174.51C389.477 174.746 388.718 174.897 387.95 174.96C386.54 175.17 384.59 175.42 382.44 175.69C380.29 175.96 378.32 176.16 376.9 176.28C376.136 176.396 375.36 176.419 374.59 176.35C375.328 176.121 376.09 175.973 376.86 175.91C378.27 175.7 380.22 175.44 382.37 175.17C384.52 174.9 386.49 174.71 387.9 174.59C388.664 174.474 389.44 174.447 390.21 174.51Z" fill="#E0E0E0"/>
<path d="M385.5 179C384.585 179.349 383.619 179.541 382.64 179.57C381.674 179.739 380.686 179.739 379.72 179.57C380.63 179.206 381.6 179.013 382.58 179C383.545 178.824 384.535 178.824 385.5 179Z" fill="#E0E0E0"/>
<path d="M360.88 404.06C361.925 398.511 361.486 392.785 359.607 387.461C357.728 382.137 354.476 377.403 350.18 373.74C350.18 373.74 347.7 372.83 347.91 375.61C348.04 377.27 346.44 379.61 345.12 378.61C342.81 376.83 343.54 373.22 342.55 370.48C341.38 367.28 337.97 365.57 334.85 364.2C329.09 361.68 323.24 359.2 317.05 358.11C310.86 357.02 304.25 357.28 298.61 360.06C299.983 362.813 301.35 365.57 302.71 368.33C302.83 368.692 303.02 369.027 303.269 369.315C303.519 369.604 303.822 369.84 304.163 370.011C304.504 370.182 304.875 370.284 305.256 370.311C305.636 370.339 306.018 370.291 306.38 370.17L313.88 369.62C314.97 369.54 316.37 369.62 316.69 370.71C317.01 371.8 315.63 372.77 314.47 373.18L306.61 376C309.22 379.785 312.817 382.784 317.01 384.67C321.199 386.539 325.551 388.022 330.01 389.1C331.382 389.62 332.875 389.735 334.31 389.43C336.6 388.69 338.18 385.83 340.57 386.18C340.432 387.495 340.035 388.769 339.402 389.929C338.768 391.09 337.911 392.113 336.88 392.94C346.15 396.58 352.61 401.03 360.88 404.07" fill="#407BFF"/>
<path d="M368.83 445.211C368.802 445.132 368.779 445.052 368.76 444.971C368.76 444.781 368.67 444.551 368.6 444.261C368.47 443.601 368.28 442.691 368.03 441.521C367.55 439.111 366.86 435.681 366.03 431.451C365.61 429.321 365.15 426.991 364.65 424.451C364.41 423.201 364.15 421.901 363.89 420.571L363.49 418.571C363.39 417.904 363.29 417.204 363.19 416.471C362.32 410.831 361.3 404.531 358.56 398.531C355.82 392.531 351.32 387.901 347.07 384.111C343.242 380.795 339.159 377.786 334.86 375.111C331.21 372.771 328.17 371.021 326.08 369.791L323.67 368.371L323.05 367.991L322.85 367.851C322.85 367.851 322.93 367.851 323.08 367.951L323.72 368.291L326.17 369.631C328.28 370.821 331.35 372.541 335.03 374.841C339.37 377.507 343.49 380.517 347.35 383.841C349.619 385.82 351.741 387.963 353.7 390.251C355.804 392.717 357.573 395.45 358.96 398.381C361.74 404.461 362.75 410.801 363.6 416.451L363.89 418.551L364.28 420.551C364.53 421.881 364.78 423.181 365.02 424.431C365.49 426.931 365.93 429.261 366.34 431.431L368.22 441.521C368.43 442.691 368.6 443.611 368.71 444.271L368.83 444.991C368.838 445.064 368.838 445.137 368.83 445.211Z" fill="#263238"/>
<path d="M383.37 341.34C381.37 344.34 375.7 342.87 375.37 339.34C375.04 335.81 380.29 333.25 382.85 335.78C383.746 325.287 382.674 314.72 379.69 304.62C379.099 306.692 378.103 308.626 376.76 310.31C375.31 311.89 372.98 312.88 370.97 312.12C368.25 311.12 367.45 307.37 368.58 304.69C369.71 302.01 372.16 300.16 374.5 298.44C372.624 294.922 370.048 291.825 366.93 289.34C363.812 286.854 360.218 285.034 356.37 283.99C353.37 288.87 350.3 293.86 348.94 299.43C347.58 305 348.2 311.37 351.94 315.74C353.52 317.6 355.61 319.05 356.84 321.16C358.07 323.27 357.98 326.49 355.84 327.63C353.3 328.96 350.43 326.45 348.99 323.96C347.55 321.47 346.08 318.43 343.24 317.96C342.511 327.899 344.494 337.849 348.976 346.75C353.458 355.65 360.271 363.168 368.69 368.5L368.4 368.23C375.1 360.332 380.186 351.196 383.37 341.34ZM370.37 319.42C371.884 318.039 373.688 317.014 375.65 316.42C376.042 316.271 376.471 316.248 376.877 316.356C377.282 316.463 377.644 316.696 377.91 317.02C378.17 317.349 378.357 317.73 378.457 318.137C378.557 318.544 378.568 318.968 378.49 319.38C378.331 320.208 377.989 320.991 377.49 321.67C376.75 322.818 375.714 323.744 374.49 324.35C373.864 324.642 373.181 324.794 372.49 324.794C371.799 324.794 371.116 324.642 370.49 324.35C370.054 324.147 369.678 323.833 369.399 323.44C369.12 323.048 368.948 322.589 368.9 322.11C368.938 321.586 369.086 321.076 369.334 320.612C369.582 320.149 369.925 319.743 370.34 319.42H370.37Z" fill="#407BFF"/>
<path d="M372.57 445.21C372.558 445.107 372.558 445.003 372.57 444.9C372.57 444.67 372.57 444.36 372.57 443.98C372.57 443.15 372.49 441.98 372.44 440.46C372.31 437.38 372.14 432.97 371.92 427.53C371.44 416.61 370.67 401.53 369.44 384.89C368.21 368.25 366.79 353.22 365.6 342.36C365.02 336.92 364.49 332.53 364.12 329.5C363.95 328 363.81 326.83 363.72 326C363.72 325.62 363.65 325.32 363.62 325.09C363.604 324.988 363.604 324.883 363.62 324.78L363.68 325.08C363.68 325.31 363.76 325.61 363.81 325.99C363.93 326.81 364.09 327.99 364.3 329.47C364.72 332.47 365.3 336.89 365.92 342.32C367.2 353.18 368.69 368.22 369.92 384.86C371.15 401.5 371.86 416.59 372.27 427.52C372.47 432.98 372.58 437.4 372.64 440.46C372.64 441.97 372.64 443.15 372.64 443.98V444.89C372.625 444.999 372.602 445.106 372.57 445.21Z" fill="#263238"/>
<path d="M340.55 426.82L348.53 460.67H390.37L399.21 426.82H340.55Z" fill="#455A64"/>
<path d="M353.71 453.561C353.71 454.201 356.94 473.611 356.94 473.611H382.39L385.19 453.561H353.71Z" fill="#455A64"/>
<path d="M389.21 460.52C389.21 460.64 380.08 460.74 368.82 460.74C357.56 460.74 348.43 460.64 348.43 460.52C348.43 460.4 357.56 460.29 368.82 460.29C380.08 460.29 389.21 460.39 389.21 460.52Z" fill="#263238"/>
<path d="M393.56 446.87C393.56 446.99 382.8 447.09 369.56 447.09C356.32 447.09 345.56 446.99 345.56 446.87C345.56 446.75 356.33 446.65 369.56 446.65C382.79 446.65 393.56 446.75 393.56 446.87Z" fill="#263238"/>
<path d="M391.68 451.58C391.68 451.71 381.54 451.81 369.05 451.81C356.56 451.81 346.41 451.71 346.41 451.58C346.41 451.45 356.55 451.36 369.05 451.36C381.55 451.36 391.68 451.46 391.68 451.58Z" fill="#263238"/>
<path d="M391.5 456.3C391.5 456.42 381.73 456.52 369.68 456.52C357.63 456.52 347.86 456.42 347.86 456.3C347.86 456.18 357.63 456.08 369.68 456.08C381.73 456.08 391.5 456.18 391.5 456.3Z" fill="#263238"/>
<path d="M394.78 442.29C394.78 442.41 383.53 442.51 369.65 442.51C355.77 442.51 344.53 442.41 344.53 442.29C344.53 442.17 355.77 442.07 369.65 442.07C383.53 442.07 394.78 442.17 394.78 442.29Z" fill="#263238"/>
<path d="M395.58 438.52C395.58 438.64 384.12 438.74 369.99 438.74C355.86 438.74 344.39 438.64 344.39 438.52C344.39 438.4 355.85 438.29 369.99 438.29C384.13 438.29 395.58 438.39 395.58 438.52Z" fill="#263238"/>
<path d="M463.5 473.64C463.5 473.79 368.12 473.9 250.5 473.9C132.88 473.9 37.5 473.79 37.5 473.64C37.5 473.49 132.86 473.38 250.5 473.38C368.14 473.38 463.5 473.5 463.5 473.64Z" fill="#263238"/>
<path d="M242.8 430.8L240.09 466.74L224.46 466.42L222.32 429.02L242.8 430.8Z" fill="#FFBE9D"/>
<path d="M240.58 462V463C240.58 463 258.14 470.25 258.3 473.59L223.3 473.09L223.95 461.45C226.52 462.73 229.336 463.442 232.205 463.537C235.075 463.632 237.931 463.108 240.58 462Z" fill="#407BFF"/>
<path d="M246.09 468.57C245.96 468.57 245.76 467.84 246.16 467.02C246.56 466.2 247.27 465.89 247.33 466.02C247.39 466.15 246.95 466.58 246.63 467.26C246.31 467.94 246.24 468.56 246.09 468.57Z" fill="#263238"/>
<path d="M227.43 465.27C227.096 465.374 226.811 465.595 226.627 465.893C226.443 466.19 226.373 466.544 226.43 466.89C226.522 467.227 226.738 467.517 227.034 467.703C227.331 467.888 227.686 467.955 228.03 467.89C228.387 467.783 228.692 467.548 228.887 467.231C229.082 466.914 229.155 466.536 229.09 466.17C228.967 465.822 228.714 465.535 228.383 465.371C228.053 465.207 227.671 465.178 227.32 465.29" fill="white"/>
<path d="M240.69 463.15C240.69 463.32 239.83 463.39 238.98 463.93C238.13 464.47 237.67 465.17 237.52 465.1C237.37 465.03 237.63 464.05 238.67 463.42C239.71 462.79 240.73 463 240.69 463.15Z" fill="#263238"/>
<path d="M244.34 464.719C244.34 464.889 243.64 465.169 243.05 465.879C242.46 466.589 242.28 467.359 242.11 467.349C241.94 467.339 241.84 466.349 242.59 465.499C243.34 464.649 244.34 464.559 244.34 464.719Z" fill="#263238"/>
<path d="M223.3 473.16L223.45 470.51L257.21 472C257.754 472.42 258.133 473.018 258.28 473.69L223.3 473.16Z" fill="#263238"/>
<path d="M324.73 118.51C324.73 118.51 331.28 112.04 333.02 110.95C334.76 109.86 336.9 107.41 338.25 106.85C339.797 106.049 341.291 105.147 342.72 104.15L345.38 100.86C345.38 100.86 347.38 100.65 346.94 102.86L351.89 101.86C351.89 101.86 353.22 103.01 351.11 104.37C350.084 105.156 348.794 105.514 347.51 105.37L345.43 107.69L345.79 108.91L357.79 110.48C357.731 111.026 357.473 111.532 357.066 111.901C356.658 112.27 356.13 112.476 355.58 112.48C353.58 112.48 346.34 112.17 346.34 112.17L357.5 116.38C357.5 116.38 358.09 118.09 354.6 117.59C351.54 117.029 348.515 116.291 345.54 115.38L344.54 116.26L347.59 118.04L350.44 121.72C349.831 121.992 349.151 122.061 348.5 121.915C347.85 121.769 347.264 121.416 346.83 120.91L344.99 119.11H342.32C342.32 119.11 335.06 124.18 332.63 123L330.57 125.07L324.73 118.51Z" fill="#FFBE9D"/>
<path d="M346 109.72C346.06 109.72 346.27 110.17 346.41 110.97C346.587 112.037 346.505 113.131 346.17 114.16C345.83 115.204 345.155 116.107 344.25 116.73C343.58 117.21 343.09 117.36 343.06 117.3C343.03 117.24 343.44 116.97 344.06 116.44C344.823 115.793 345.394 114.949 345.71 114C346.41 111.73 345.81 109.74 346 109.72Z" fill="#EB996E"/>
<path d="M335.78 118.28C336.863 118.15 337.895 117.747 338.78 117.11C339.741 116.375 340.526 115.435 341.08 114.36C341.772 112.969 342.322 111.512 342.72 110.01V109.95L342.78 109.89C344.211 108.652 345.34 107.102 346.08 105.36C346.443 104.478 346.678 103.548 346.78 102.6C346.819 102.196 346.696 101.794 346.44 101.48C346.167 101.232 345.809 101.1 345.44 101.11L345.62 101C344.064 103.39 342.068 105.463 339.74 107.11C339.073 107.579 338.371 107.997 337.64 108.36C337.383 108.506 337.107 108.617 336.82 108.69C336.82 108.62 337.91 108.11 339.56 106.86C341.789 105.164 343.701 103.089 345.21 100.73L345.28 100.62H345.4C345.661 100.6 345.923 100.634 346.169 100.722C346.416 100.81 346.641 100.949 346.83 101.13C347.008 101.332 347.143 101.569 347.227 101.825C347.311 102.081 347.343 102.351 347.32 102.62C347.225 103.631 346.979 104.622 346.59 105.56C345.814 107.383 344.622 109 343.11 110.28L343.2 110.16C342.773 111.684 342.186 113.159 341.45 114.56C340.853 115.677 340 116.637 338.96 117.36C338.286 117.839 337.508 118.151 336.69 118.27C336.391 118.34 336.08 118.343 335.78 118.28Z" fill="#EB996E"/>
<path d="M236.04 166.46L283.79 146.23L325 116.41L333.34 125.27C333.34 125.27 304.46 155.35 296.94 161.49C289.42 167.63 248.79 193.49 248.79 193.49L236.04 166.46Z" fill="#407BFF"/>
<path d="M263.5 172.57C262.28 172.289 261.003 172.387 259.84 172.85C259.46 173.04 259.07 173.46 259.28 173.85C259.41 174.08 259.72 174.14 259.98 174.19C264.72 174.92 268.98 176.34 273.71 177.08L274.51 176.74C271.099 174.745 267.377 173.335 263.5 172.57Z" fill="#FAFAFA"/>
<path d="M272.07 169.68C272.845 172.033 273.85 174.304 275.07 176.46L275.54 176.19C275.636 173.792 275.495 171.391 275.12 169.02C274.838 166.72 273.861 164.561 272.32 162.83C271.509 165.029 271.422 167.428 272.07 169.68Z" fill="#FAFAFA"/>
<path d="M279.86 167C278.86 169.79 277.91 172.47 276.86 175.26L278.86 173.21C280.721 170.876 282.206 168.264 283.26 165.47C283.384 165.152 283.442 164.812 283.43 164.47C283.418 164.295 283.36 164.126 283.261 163.98C283.163 163.834 283.028 163.717 282.87 163.64C282.681 163.592 282.483 163.59 282.293 163.635C282.103 163.681 281.927 163.772 281.78 163.9C280.851 164.724 280.183 165.802 279.86 167Z" fill="#FAFAFA"/>
<path d="M313.5 133.78C314.612 133.773 315.694 133.423 316.6 132.78C316.89 132.54 317.14 132.08 316.88 131.78C316.785 131.706 316.675 131.654 316.557 131.628C316.439 131.602 316.317 131.603 316.2 131.63C311.95 132.01 307.97 131.69 303.72 132.07L303.1 132.53C306.471 133.531 309.988 133.954 313.5 133.78Z" fill="#FAFAFA"/>
<path d="M306.65 138.129C305.493 136.258 304.153 134.506 302.65 132.899L302.3 133.239C302.732 135.33 303.369 137.373 304.2 139.339C304.933 141.27 306.243 142.928 307.95 144.089C308.164 142.015 307.708 139.926 306.65 138.129Z" fill="#FAFAFA"/>
<path d="M300.5 142.11C300.77 139.49 301.02 136.97 301.29 134.35L300.04 136.53C298.935 138.95 298.213 141.527 297.9 144.17C297.858 144.481 297.882 144.798 297.97 145.1C298.016 145.251 298.103 145.387 298.221 145.493C298.339 145.599 298.484 145.67 298.64 145.7C298.813 145.701 298.984 145.659 299.137 145.579C299.291 145.499 299.422 145.382 299.52 145.24C300.15 144.317 300.491 143.227 300.5 142.11Z" fill="#FAFAFA"/>
<path d="M140.66 376.3L104.49 388.17L98.49 372.79L134.13 355.58L140.66 376.3Z" fill="#FFBE9D"/>
<path d="M109.31 386.74L108.31 387.15C108.31 387.15 108.31 407.22 105.13 408.72L91.5 374.36L103.12 370.28C102.912 373.307 103.357 376.344 104.425 379.183C105.493 382.023 107.159 384.6 109.31 386.74Z" fill="#407BFF"/>
<path d="M100.81 375.22C100.578 374.925 100.245 374.727 99.8755 374.664C99.5059 374.601 99.126 374.678 98.8099 374.88C98.5035 375.103 98.2957 375.436 98.2304 375.809C98.165 376.182 98.2474 376.566 98.4599 376.88C98.7079 377.187 99.0604 377.391 99.4498 377.454C99.8393 377.517 100.238 377.433 100.57 377.22C100.857 376.956 101.031 376.592 101.057 376.203C101.083 375.814 100.959 375.43 100.71 375.13" fill="white"/>
<path d="M91.5 374.359L94.3 373.359L106.3 406.649C106.3 406.649 106.3 408.449 105.1 408.699L91.5 374.359Z" fill="#263238"/>
<path d="M108.24 387.309C108.07 387.369 107.66 386.559 106.79 385.949C105.92 385.339 105.05 385.179 105.05 384.999C105.05 384.819 106.12 384.679 107.16 385.439C108.2 386.199 108.41 387.279 108.24 387.309Z" fill="#263238"/>
<path d="M108.18 391.51C108.03 391.61 107.46 391 106.52 390.71C105.58 390.42 104.77 390.55 104.71 390.38C104.65 390.21 105.56 389.73 106.71 390.11C107.86 390.49 108.34 391.44 108.18 391.51Z" fill="#263238"/>
<path d="M104.68 395.27C104.58 395.13 105.33 394.56 106.42 394.63C107.51 394.7 108.19 395.33 108.07 395.46C107.95 395.59 107.28 395.3 106.38 395.25C105.48 395.2 104.76 395.43 104.68 395.27Z" fill="#263238"/>
<path d="M238.11 294C238.11 294 211.59 348 204.47 352.15C197.35 356.3 115.37 385.48 115.37 385.48L109.06 366L183.25 326.82C183.25 326.82 192.94 300.4 196.55 280.33C198.76 268.03 203.83 260.82 211.12 251.24C213.35 248.31 217.12 244.12 219.05 242.83L252.38 249.14L238.11 294Z" fill="#263238"/>
<path d="M261.55 250.82L225.76 244.82L218.5 286.9L225.77 375.27C225.77 375.27 220.77 405.99 221.62 426.2C222.39 445.26 223.13 452.45 223.13 452.45C223.13 452.45 238.52 452.52 242.02 452.52C243.49 452.52 256.64 356.87 256.64 356.87L261.55 250.82Z" fill="#263238"/>
<path d="M245.16 273.899C245.094 274.111 245.014 274.319 244.92 274.519C244.73 274.969 244.48 275.519 244.16 276.279L241.33 282.709C238.95 288.199 235.7 295.709 232.12 303.989C228.54 312.269 224.9 319.679 222.12 324.929C220.73 327.549 219.58 329.659 218.74 331.099L217.74 332.749C217.639 332.948 217.519 333.136 217.38 333.309C217.447 333.097 217.537 332.892 217.65 332.699C217.88 332.269 218.17 331.699 218.53 330.999L221.75 324.759C224.43 319.469 227.96 312.069 231.59 303.759C235.22 295.449 238.5 287.999 240.99 282.559C242.23 279.859 243.25 277.679 243.99 276.189L244.84 274.479C244.923 274.274 245.03 274.079 245.16 273.899Z" fill="#455A64"/>
<path d="M112.98 370C113.04 370.13 112.58 370.47 111.98 370.77C111.38 371.07 110.81 371.21 110.74 371.08C110.67 370.95 111.14 370.6 111.74 370.3C112.34 370 112.91 369.89 112.98 370Z" fill="#455A64"/>
<path d="M121.93 365.689C122 365.819 121.04 366.409 119.81 367.009C119.093 367.45 118.293 367.74 117.46 367.859C117.39 367.729 118.35 367.139 119.58 366.539C120.297 366.099 121.097 365.809 121.93 365.689Z" fill="#455A64"/>
<path d="M130.88 361.33C130.95 361.46 129.99 362.05 128.76 362.66C128.042 363.101 127.243 363.394 126.41 363.52C126.34 363.39 127.3 362.79 128.53 362.19C129.248 361.749 130.047 361.456 130.88 361.33Z" fill="#455A64"/>
<path d="M139.8 357C138.479 358.031 136.962 358.779 135.34 359.2C136.651 358.154 138.173 357.404 139.8 357Z" fill="#455A64"/>
<path d="M148.7 352.52C148.77 352.65 147.82 353.25 146.59 353.87C145.878 354.317 145.081 354.613 144.25 354.74C144.18 354.61 145.13 354.01 146.36 353.4C147.073 352.952 147.869 352.653 148.7 352.52Z" fill="#455A64"/>
<path d="M157.59 348.05C157.66 348.18 156.71 348.78 155.49 349.4C154.779 349.854 153.983 350.157 153.15 350.29C153.753 349.704 154.467 349.245 155.25 348.94C155.961 348.487 156.757 348.184 157.59 348.05Z" fill="#455A64"/>
<path d="M166.5 343.5C165.2 344.565 163.691 345.345 162.07 345.79C162.665 345.192 163.376 344.722 164.16 344.41C164.872 343.955 165.667 343.645 166.5 343.5Z" fill="#455A64"/>
<path d="M175.24 338.85C175.31 338.98 174.38 339.6 173.17 340.25C172.474 340.72 171.687 341.04 170.86 341.19C171.45 340.59 172.154 340.114 172.93 339.79C173.626 339.319 174.413 338.999 175.24 338.85Z" fill="#455A64"/>
<path d="M183.91 334C183.98 334.12 183.08 334.78 181.91 335.47C181.225 335.96 180.445 336.301 179.62 336.47C180.184 335.854 180.864 335.354 181.62 335C182.303 334.507 183.084 334.166 183.91 334Z" fill="#455A64"/>
<path d="M189.32 326.56C189.412 327.39 189.354 328.23 189.15 329.04C189.101 329.348 189.067 329.658 189.05 329.97C189.046 330.036 189.046 330.103 189.05 330.17C189.058 330.279 189.03 330.388 188.97 330.48C188.895 330.601 188.804 330.712 188.7 330.81C188.34 331.13 188.08 331.23 188.03 331.18C187.98 331.13 188.17 330.91 188.42 330.56C188.486 330.478 188.54 330.387 188.58 330.29C188.585 330.263 188.585 330.236 188.58 330.21C188.568 330.133 188.568 330.056 188.58 329.98C188.55 329.647 188.55 329.312 188.58 328.98C188.636 328.126 188.889 327.298 189.32 326.56Z" fill="#455A64"/>
<path d="M191.63 316.88C191.683 317.722 191.564 318.565 191.28 319.36C191.158 320.194 190.865 320.994 190.42 321.71C190.368 320.868 190.487 320.024 190.77 319.23C190.897 318.397 191.19 317.598 191.63 316.88Z" fill="#455A64"/>
<path d="M194.18 307.27C194.082 308.941 193.643 310.575 192.89 312.07C192.845 311.228 192.978 310.386 193.28 309.6C193.418 308.77 193.724 307.977 194.18 307.27Z" fill="#455A64"/>
<path d="M196.85 297.68C196.746 299.354 196.286 300.987 195.5 302.47C195.47 301.63 195.613 300.792 195.92 300.01C196.069 299.178 196.385 298.385 196.85 297.68Z" fill="#455A64"/>
<path d="M199.61 288.12C199.633 288.962 199.479 289.8 199.16 290.58C199.007 291.409 198.687 292.198 198.22 292.9C198.336 291.226 198.81 289.596 199.61 288.12Z" fill="#455A64"/>
<path d="M202.5 278.59C202.349 280.261 201.852 281.882 201.04 283.35C201.03 282.506 201.194 281.668 201.52 280.89C201.684 280.064 202.018 279.28 202.5 278.59Z" fill="#455A64"/>
<path d="M205.82 269.22C205.685 270.044 205.443 270.848 205.1 271.61C204.895 272.424 204.524 273.186 204.01 273.85C204.05 273.004 204.257 272.175 204.62 271.41C204.807 270.582 205.223 269.823 205.82 269.22Z" fill="#455A64"/>
<path d="M211.18 260.84C210.943 261.65 210.542 262.403 210 263.05C209.23 264.18 208.5 265.05 208.38 264.96C208.62 264.149 209.025 263.397 209.57 262.75C210.34 261.62 211.07 260.76 211.18 260.84Z" fill="#455A64"/>
<path d="M217.04 252.8C217.16 252.89 216.59 253.8 215.77 254.95C214.95 256.1 214.2 256.88 214.08 256.8C214.353 256.001 214.785 255.266 215.35 254.64C216.17 253.54 216.93 252.71 217.04 252.8Z" fill="#455A64"/>
<path d="M221.59 246.849C221.7 246.939 221.45 247.449 221.03 247.999C220.61 248.549 220.18 248.909 220.03 248.829C219.88 248.749 220.17 248.229 220.59 247.679C221.01 247.129 221.5 246.759 221.59 246.849Z" fill="#455A64"/>
<path d="M225.82 320.83C225.68 320.83 225.52 320.3 225.47 319.61C225.42 318.92 225.47 318.35 225.63 318.34C225.79 318.33 225.93 318.88 225.98 319.57C226.03 320.26 225.97 320.82 225.82 320.83Z" fill="#455A64"/>
<path d="M226.6 331.16C226.287 330.343 226.134 329.474 226.15 328.6C225.995 327.738 226.019 326.853 226.22 326C226.533 326.817 226.686 327.686 226.67 328.56C226.819 329.423 226.796 330.307 226.6 331.16Z" fill="#455A64"/>
<path d="M227.29 341.5C226.976 340.681 226.83 339.807 226.86 338.93C226.723 338.065 226.757 337.182 226.96 336.33C227.265 337.151 227.408 338.024 227.38 338.9C227.516 339.765 227.486 340.647 227.29 341.5Z" fill="#455A64"/>
<path d="M227.79 351.83C227.495 351.007 227.369 350.133 227.42 349.26C227.29 348.392 227.341 347.507 227.57 346.66C227.989 348.351 228.064 350.109 227.79 351.83Z" fill="#455A64"/>
<path d="M228.03 362.18C227.763 361.344 227.661 360.465 227.73 359.59C227.632 358.721 227.706 357.84 227.95 357C228.324 358.704 228.351 360.465 228.03 362.18Z" fill="#455A64"/>
<path d="M227.96 372.53C227.722 371.685 227.647 370.802 227.74 369.93C227.665 369.058 227.767 368.181 228.04 367.35C228.28 368.191 228.355 369.07 228.26 369.94C228.335 370.814 228.233 371.695 227.96 372.53Z" fill="#455A64"/>
<path d="M227.55 382.88C227.335 382.031 227.29 381.147 227.42 380.28C227.376 379.404 227.505 378.527 227.8 377.7C228.017 378.549 228.064 379.433 227.94 380.3C227.978 381.177 227.846 382.053 227.55 382.88Z" fill="#455A64"/>
<path d="M226.82 393.21C226.608 391.478 226.741 389.721 227.21 388.04C227.411 388.893 227.435 389.778 227.28 390.64C227.295 391.518 227.138 392.391 226.82 393.21Z" fill="#455A64"/>
<path d="M225.95 403.52C225.775 402.662 225.775 401.778 225.95 400.92C225.94 400.047 226.103 399.18 226.43 398.37C226.599 399.229 226.599 400.112 226.43 400.97C226.44 401.843 226.277 402.71 225.95 403.52Z" fill="#455A64"/>
<path d="M225.13 413.85C224.942 412.995 224.921 412.112 225.07 411.25C225.049 410.372 225.202 409.498 225.52 408.68C225.708 409.537 225.732 410.423 225.59 411.29C225.61 412.165 225.453 413.036 225.13 413.85Z" fill="#455A64"/>
<path d="M224.57 424.19C224.359 423.34 224.312 422.457 224.43 421.59C224.39 420.716 224.519 419.844 224.81 419.02C225.027 419.865 225.075 420.745 224.95 421.61C225 422.486 224.871 423.364 224.57 424.19Z" fill="#455A64"/>
<path d="M224.5 434.549C224.234 433.713 224.142 432.832 224.23 431.959C224.141 431.085 224.223 430.202 224.47 429.359C224.734 430.196 224.829 431.076 224.75 431.949C224.831 432.824 224.746 433.706 224.5 434.549Z" fill="#455A64"/>
<path d="M225.05 444.88C224.733 444.064 224.58 443.194 224.6 442.32C224.444 441.457 224.468 440.572 224.67 439.72C225.141 441.397 225.27 443.152 225.05 444.88Z" fill="#455A64"/>
<path d="M226.03 452.519C225.89 452.519 225.69 452.009 225.59 451.319C225.49 450.629 225.51 450.069 225.66 450.049C225.81 450.029 226 450.569 226.1 451.249C226.2 451.929 226.17 452.499 226.03 452.519Z" fill="#455A64"/>
<path d="M236.95 251C236.818 251.357 236.636 251.693 236.41 252C235.864 252.882 235.27 253.733 234.63 254.55C232.551 257.315 229.883 259.583 226.82 261.19C223.698 262.766 220.133 263.235 216.71 262.52C215.686 262.295 214.699 261.924 213.78 261.42C213.435 261.257 213.118 261.041 212.84 260.78C214.101 261.387 215.426 261.85 216.79 262.16C220.127 262.749 223.564 262.244 226.59 260.72C229.583 259.138 232.221 256.96 234.34 254.32C236.01 252.34 236.88 251 236.95 251Z" fill="#455A64"/>
<path d="M254.81 251.64C254.777 252.607 254.63 253.567 254.37 254.5C253.846 256.779 253.13 259.01 252.23 261.17C251.327 263.329 250.239 265.407 248.98 267.38C248.496 268.221 247.915 269.003 247.25 269.71C247.663 268.839 248.134 267.997 248.66 267.19C250.987 263.178 252.786 258.883 254.01 254.41C254.218 253.47 254.485 252.545 254.81 251.64Z" fill="#455A64"/>
<path d="M250.5 252.48C250.5 252.56 250.02 252.6 249.69 253.19C249.606 253.341 249.553 253.507 249.536 253.679C249.519 253.852 249.537 254.025 249.59 254.19C249.686 254.372 249.83 254.525 250.006 254.631C250.182 254.737 250.384 254.794 250.59 254.794C250.796 254.794 250.998 254.737 251.174 254.631C251.35 254.525 251.494 254.372 251.59 254.19C251.64 254.024 251.656 253.851 251.637 253.679C251.619 253.507 251.565 253.341 251.48 253.19C251.15 252.61 250.65 252.57 250.67 252.49C250.69 252.41 250.79 252.42 251.01 252.49C251.324 252.57 251.6 252.758 251.79 253.02C251.938 253.218 252.038 253.447 252.083 253.69C252.128 253.932 252.117 254.182 252.05 254.42C251.929 254.708 251.725 254.954 251.464 255.127C251.204 255.3 250.898 255.392 250.585 255.392C250.272 255.392 249.967 255.3 249.706 255.127C249.445 254.954 249.242 254.708 249.12 254.42C249.051 254.182 249.038 253.932 249.083 253.689C249.129 253.446 249.23 253.217 249.38 253.02C249.565 252.755 249.838 252.563 250.15 252.48C250.41 252.41 250.5 252.45 250.5 252.48Z" fill="#455A64"/>
<path d="M200.98 122.2C197.726 120.598 193.969 120.35 190.532 121.51C187.095 122.67 184.258 125.143 182.64 128.39C181.05 131.6 180.64 135.48 178.27 138.14C176.12 140.51 172.83 141.38 169.8 142.41C166.77 143.44 163.55 145.02 162.36 148C161.36 150.54 162.03 153.66 160.48 155.91C158.93 158.16 155.71 158.59 152.93 158.77C153.083 159.393 153.431 159.951 153.925 160.361C154.418 160.771 155.029 161.013 155.67 161.05C153.637 162.224 151.286 162.727 148.95 162.49C149.69 165.87 152.67 168.42 155.95 169.49C159.23 170.56 162.77 170.55 166.22 170.33C170.13 170.09 174.31 169.54 177.22 166.93C180.73 163.79 181.84 158.11 186.15 156.19C188.35 155.19 190.96 155.47 193.15 154.45C196.15 153.05 197.65 149.55 197.98 146.24C198.31 142.93 197.77 139.59 197.98 136.24C198.19 132.89 199.51 129.39 202.4 127.75L200.98 122.2Z" fill="#263238"/>
<path d="M201.74 121.22C202.03 120.58 201.29 119.85 200.58 119.88C199.876 120.001 199.244 120.383 198.81 120.95C197.024 122.788 195.865 125.143 195.5 127.68C195.33 128.949 195.453 130.24 195.86 131.453C196.268 132.667 196.948 133.771 197.85 134.68C198.235 135.115 198.771 135.387 199.35 135.44C199.652 135.42 199.944 135.326 200.201 135.165C200.457 135.004 200.67 134.783 200.82 134.52C201.114 133.993 201.311 133.417 201.4 132.82C202.181 128.962 202.47 125.02 202.26 121.09L201.74 121.22Z" fill="#407BFF"/>
<path d="M198.7 134.61C198.7 127.46 199.85 119.87 204.46 114.42C208.57 109.57 215.52 106.42 221.8 105.42C225.122 105.076 228.479 105.472 231.63 106.58C235.72 107.9 238.13 111.78 240.69 115.24C245.81 122.16 247.49 132.61 245.69 135.98L217.2 159.44C210.93 157.66 203.94 154.92 201.2 149.02C199.28 145 198.72 139 198.7 134.61Z" fill="#263238"/>
<path d="M208.26 120.62L227.16 110.53C233.44 108.25 239.7 115.14 241.71 121.53C243.95 128.61 246.4 137.35 246.88 142.94C247.88 154.16 239.88 157.58 239.88 157.58L243.74 170.26L248.17 184.36L219.48 167.36L205.79 125.31C205.54 124.361 205.655 123.352 206.112 122.484C206.57 121.616 207.336 120.95 208.26 120.62Z" fill="#FFBE9D"/>
<path d="M241.41 128.85C241.505 129.212 241.453 129.596 241.266 129.92C241.079 130.244 240.771 130.481 240.41 130.58C240.237 130.638 240.055 130.661 239.873 130.648C239.692 130.634 239.515 130.583 239.353 130.499C239.191 130.415 239.048 130.299 238.933 130.158C238.817 130.017 238.731 129.855 238.68 129.68C238.588 129.318 238.641 128.934 238.828 128.611C239.015 128.288 239.32 128.05 239.68 127.95C239.853 127.893 240.035 127.871 240.216 127.885C240.397 127.9 240.574 127.95 240.735 128.034C240.896 128.118 241.039 128.234 241.155 128.374C241.271 128.514 241.358 128.676 241.41 128.85Z" fill="#263238"/>
<path d="M240.7 125.34C240.6 125.58 239.31 125.21 237.87 125.75C236.43 126.29 235.64 127.4 235.42 127.28C235.2 127.16 235.42 126.85 235.7 126.34C236.167 125.681 236.822 125.179 237.58 124.9C238.329 124.617 239.149 124.581 239.92 124.8C240.5 125 240.75 125.24 240.7 125.34Z" fill="#263238"/>
<path d="M227.81 132.82C227.902 133.182 227.849 133.565 227.662 133.889C227.475 134.212 227.169 134.449 226.81 134.55C226.637 134.607 226.454 134.629 226.272 134.615C226.09 134.601 225.913 134.55 225.751 134.466C225.588 134.382 225.445 134.267 225.328 134.127C225.211 133.987 225.123 133.825 225.07 133.65C224.978 133.288 225.031 132.905 225.218 132.581C225.404 132.258 225.71 132.021 226.07 131.92C226.243 131.864 226.426 131.843 226.607 131.858C226.789 131.873 226.966 131.924 227.127 132.008C227.289 132.091 227.433 132.206 227.55 132.346C227.667 132.485 227.755 132.646 227.81 132.82Z" fill="#263238"/>
<path d="M226.43 129.72C226.31 129.94 225.06 129.43 223.58 129.8C222.1 130.17 221.18 131.19 220.97 131.04C220.76 130.89 220.97 130.61 221.36 130.15C221.885 129.546 222.583 129.12 223.36 128.93C224.134 128.732 224.951 128.788 225.69 129.09C226.26 129.33 226.5 129.62 226.43 129.72Z" fill="#263238"/>
<path d="M234.5 140.19C235.226 139.763 236.002 139.427 236.81 139.19C237.19 139.05 237.53 138.89 237.53 138.61C237.465 138.208 237.277 137.838 236.99 137.55C236.41 136.71 235.79 135.84 235.15 134.93C232.57 131.19 230.6 128.07 230.75 127.93C230.9 127.79 233.12 130.78 235.7 134.52L237.5 137.16C237.852 137.562 238.054 138.075 238.07 138.61C238.046 138.757 237.99 138.897 237.905 139.02C237.821 139.143 237.709 139.245 237.58 139.32C237.385 139.428 237.176 139.512 236.96 139.57C236.17 139.88 235.343 140.088 234.5 140.19Z" fill="#263238"/>
<path d="M239.9 157.57C234.84 158.904 229.51 158.811 224.5 157.3C224.5 157.3 230.16 163.89 240.72 160.2L239.9 157.57Z" fill="#EB996E"/>
<path d="M230.27 144.19C230.403 143.805 230.63 143.459 230.93 143.183C231.231 142.907 231.595 142.711 231.99 142.61C232.535 142.435 233.117 142.409 233.676 142.533C234.235 142.658 234.751 142.93 235.17 143.32C235.494 143.698 235.665 144.183 235.65 144.68C235.6 144.95 235.65 144.81 235.51 145.02C235.049 145.81 234.399 146.472 233.62 146.95C233.193 147.177 232.709 147.269 232.229 147.216C231.749 147.162 231.296 146.965 230.93 146.65C230.604 146.341 230.37 145.947 230.254 145.513C230.137 145.079 230.143 144.621 230.27 144.19Z" fill="#EB996E"/>
<path d="M230.37 142.309C230.61 142.229 231.01 143.85 232.68 144.66C234.35 145.47 236.03 144.86 236.1 145.08C236.17 145.3 235.79 145.49 235.1 145.69C234.155 145.937 233.154 145.845 232.27 145.429C231.425 145.024 230.769 144.307 230.44 143.429C230.18 142.769 230.26 142.329 230.37 142.309Z" fill="#263238"/>
<path d="M225.98 126C225.98 126.45 224.4 126.62 222.7 127.27C221 127.92 219.7 128.74 219.39 128.43C219.24 128.28 219.39 127.84 219.87 127.31C220.502 126.63 221.287 126.113 222.16 125.8C223.031 125.474 223.966 125.358 224.89 125.46C225.59 125.59 226 125.83 225.98 126Z" fill="#263238"/>
<path d="M239.12 121.56C238.94 121.96 237.83 121.86 236.59 122.15C235.35 122.44 234.37 122.94 234.04 122.65C233.89 122.5 233.97 122.12 234.35 121.65C234.86 121.106 235.528 120.735 236.26 120.59C236.987 120.418 237.751 120.481 238.44 120.77C238.97 121.05 239.2 121.36 239.12 121.56Z" fill="#263238"/>
<path d="M211.89 137.78C211.72 137.78 205.4 137.29 206.89 143.32C208.38 149.35 214.13 146.59 214.1 146.42C214.07 146.25 211.89 137.78 211.89 137.78Z" fill="#FFBE9D"/>
<path d="M211.71 144.589C211.71 144.589 211.62 144.689 211.46 144.819C211.237 144.989 210.957 145.064 210.68 145.029C209.99 144.959 209.2 144.079 208.9 143.029C208.755 142.515 208.728 141.975 208.82 141.449C208.829 141.247 208.888 141.05 208.991 140.876C209.094 140.702 209.237 140.555 209.41 140.449C209.523 140.389 209.652 140.369 209.778 140.393C209.903 140.417 210.017 140.482 210.1 140.579C210.22 140.729 210.21 140.859 210.25 140.859C210.29 140.859 210.35 140.729 210.25 140.489C210.177 140.353 210.061 140.244 209.92 140.179C209.822 140.137 209.717 140.115 209.61 140.115C209.503 140.115 209.398 140.137 209.3 140.179C209.064 140.289 208.861 140.458 208.71 140.671C208.559 140.883 208.466 141.131 208.44 141.389C208.296 141.971 208.296 142.578 208.44 143.159C208.547 143.702 208.81 144.201 209.198 144.596C209.585 144.99 210.079 145.263 210.62 145.379C210.793 145.384 210.965 145.35 211.124 145.281C211.283 145.212 211.425 145.109 211.54 144.979C211.73 144.739 211.73 144.599 211.71 144.589Z" fill="#EB996E"/>
<path d="M210.19 147.08C210.19 147.08 209.99 147.4 210.19 147.93C210.234 148.093 210.313 148.245 210.422 148.375C210.531 148.504 210.667 148.608 210.82 148.68C211.018 148.743 211.229 148.758 211.434 148.724C211.64 148.689 211.834 148.605 212 148.48C212.174 148.375 212.32 148.229 212.425 148.055C212.529 147.88 212.59 147.683 212.6 147.48C212.59 147.144 212.45 146.825 212.21 146.59C211.8 146.2 211.41 146.25 211.42 146.28C211.43 146.31 211.74 146.37 212.05 146.74C212.218 146.95 212.31 147.211 212.31 147.48C212.295 147.638 212.243 147.79 212.158 147.924C212.073 148.058 211.957 148.169 211.82 148.25C211.694 148.347 211.547 148.415 211.392 148.447C211.236 148.48 211.075 148.478 210.92 148.44C210.679 148.329 210.492 148.128 210.4 147.88C210.299 147.622 210.228 147.354 210.19 147.08Z" fill="#FAFAFA"/>
<path d="M242.26 121.629C240.938 120.143 239.193 119.097 237.26 118.629C235.36 118.079 233.37 117.819 231.47 117.249C227.06 115.916 223.301 112.994 220.92 109.049C222.259 107.962 223.831 107.199 225.514 106.819C227.196 106.439 228.944 106.453 230.62 106.859C233.984 107.71 236.953 109.691 239.03 112.469C241.092 115.241 242.525 118.428 243.23 121.809" fill="#263238"/>
<path d="M206.55 118.82C209.99 113.51 217.86 109.14 224.16 109.73C224.52 115.02 222.06 121.65 219.62 126.36C217.18 131.07 216.77 138.46 208.82 137.9C208.27 137.9 207.82 138.47 207.27 138.31C206.835 138.122 206.48 137.785 206.27 137.36C204.61 134.542 203.758 131.321 203.807 128.051C203.856 124.781 204.805 121.587 206.55 118.82Z" fill="#263238"/>
<path d="M224.04 110.13C224.065 110.595 224.038 111.061 223.96 111.52C223.86 112.41 223.72 113.69 223.5 115.28C222.982 119.431 222.081 123.525 220.81 127.51C220.08 129.702 219.146 131.822 218.02 133.84C217.231 135.596 215.931 137.073 214.29 138.08C213.709 138.392 213.06 138.555 212.4 138.555C211.741 138.555 211.091 138.392 210.51 138.08C210.202 137.907 209.933 137.672 209.72 137.39C209.58 137.19 209.53 137.07 209.55 137.06C210.1 137.706 210.863 138.134 211.702 138.267C212.54 138.399 213.398 138.226 214.12 137.78C215.657 136.763 216.866 135.321 217.6 133.63C218.686 131.622 219.596 129.524 220.32 127.36C221.571 123.399 222.514 119.347 223.14 115.24C223.38 113.74 223.59 112.49 223.76 111.51C223.813 111.043 223.906 110.581 224.04 110.13Z" fill="#263238"/>
<path d="M158.06 153.3C157.983 153.102 157.936 152.893 157.92 152.68C157.856 152.075 157.89 151.464 158.02 150.87C158.232 149.921 158.644 149.027 159.23 148.25C160.001 147.206 161.062 146.409 162.28 145.96C163.788 145.515 165.392 145.515 166.9 145.96C168.527 146.474 170.273 146.474 171.9 145.96C173.637 145.186 175.051 143.832 175.9 142.13C176.831 140.3 177.431 138.32 177.67 136.28C177.931 134.206 178.332 132.151 178.87 130.13C179.438 128.24 180.384 126.485 181.65 124.97C183.437 122.815 185.812 121.226 188.486 120.396C191.16 119.567 194.017 119.534 196.71 120.3C197.29 120.468 197.858 120.675 198.41 120.92C198.606 121.001 198.794 121.101 198.97 121.22C198.97 121.27 198.17 120.87 196.65 120.5C194.521 119.967 192.3 119.919 190.15 120.36C186.954 121.013 184.081 122.751 182.02 125.28C180.805 126.752 179.897 128.452 179.35 130.28C178.833 132.283 178.445 134.317 178.19 136.37C177.938 138.464 177.315 140.495 176.35 142.37C175.44 144.156 173.937 145.57 172.1 146.37C171.221 146.705 170.278 146.838 169.34 146.76C168.484 146.679 167.635 146.535 166.8 146.33C165.369 145.876 163.837 145.848 162.39 146.25C161.226 146.658 160.205 147.395 159.45 148.37C158.872 149.104 158.45 149.948 158.21 150.85C158.019 151.652 157.968 152.481 158.06 153.3Z" fill="#263238"/>
<path d="M200.27 119.82C200.381 119.494 200.536 119.185 200.73 118.9C201.228 118.095 201.83 117.358 202.52 116.71C204.831 114.58 207.693 113.139 210.78 112.55C213.838 111.993 216.959 111.876 220.05 112.2C221.23 112.31 222.18 112.42 222.84 112.52C223.181 112.539 223.518 112.606 223.84 112.72C222.562 112.739 221.283 112.689 220.01 112.57C216.955 112.357 213.885 112.521 210.87 113.06C207.871 113.638 205.075 114.989 202.76 116.98C201.851 117.855 201.018 118.805 200.27 119.82Z" fill="#455A64"/>
<path d="M208.58 110.45C209.319 110.045 210.114 109.755 210.94 109.59C212.9 109.081 214.915 108.815 216.94 108.8C218.059 108.783 219.176 108.867 220.28 109.05C221.223 109.195 222.089 109.653 222.74 110.35C223.179 110.825 223.431 111.443 223.45 112.09C223.45 112.54 223.31 112.77 223.29 112.76C223.27 112.75 223.29 112.51 223.29 112.1C223.196 111.53 222.923 111.004 222.51 110.6C221.886 110.003 221.087 109.625 220.23 109.52C219.154 109.366 218.067 109.303 216.98 109.33C214.995 109.343 213.015 109.55 211.07 109.95C210.249 110.16 209.418 110.327 208.58 110.45Z" fill="#455A64"/>
<path d="M197.79 143.999C197.708 143.875 197.651 143.735 197.62 143.589C197.476 143.196 197.382 142.786 197.34 142.369C197.189 140.812 197.487 139.243 198.2 137.849C199.229 135.78 200.78 134.015 202.7 132.729C205.041 131.226 207.461 129.851 209.95 128.609C214.348 126.186 218.065 122.696 220.76 118.459C221.582 117.183 222.304 115.846 222.92 114.459C223.121 113.937 223.358 113.429 223.63 112.939C223.612 113.084 223.575 113.225 223.52 113.359C223.43 113.629 223.32 114.039 223.11 114.539C222.564 115.971 221.894 117.353 221.11 118.669C218.456 123.031 214.705 126.621 210.23 129.079C207.757 130.29 205.347 131.625 203.01 133.079C201.137 134.307 199.606 135.989 198.56 137.969C197.843 139.3 197.497 140.799 197.56 142.309C197.62 143.449 197.85 143.999 197.79 143.999Z" fill="#455A64"/>
<path d="M221.5 184.35C221.42 184.35 221.43 183.35 221.15 181.71C220.793 179.6 220.069 177.569 219.01 175.71C218.06 173.808 216.534 172.254 214.65 171.27C213.834 170.957 212.963 170.817 212.09 170.86C212.308 170.74 212.552 170.675 212.8 170.67C213.48 170.602 214.165 170.698 214.8 170.95C216.826 171.872 218.472 173.465 219.46 175.46C220.55 177.359 221.251 179.456 221.52 181.63C221.676 182.53 221.669 183.451 221.5 184.35Z" fill="#263238"/>
<path d="M224.98 166.9L248.65 185L241.86 164L247.6 166.94C247.6 166.94 257.84 185.88 261.1 195.41C262.368 199.111 263.312 202.915 263.92 206.78C264.68 213.63 260.86 221.29 260.86 221.29L264.13 246C264.59 248.66 262.86 251.23 261.69 251.23L224.62 246.23C219.79 245.28 217.81 242.75 218.1 239.95L218.66 234.77L202.82 181.77C201.89 184.91 200.92 174.15 207.99 171.56C210.98 170.43 220.43 166 224.98 166.9Z" fill="#407BFF"/>
<path d="M251.5 177.21C251.5 177.21 251.62 177.33 251.8 177.59L252.57 178.72C253.23 179.72 254.17 181.14 255.28 182.95C258.287 187.61 260.706 192.625 262.48 197.88C264.239 203.187 264.621 208.855 263.59 214.35C263.258 216.004 262.738 217.614 262.04 219.15C261.81 219.7 261.56 220.09 261.42 220.37C261.354 220.513 261.27 220.648 261.17 220.77C261.17 220.77 261.42 220.16 261.86 219.07C262.479 217.523 262.945 215.918 263.25 214.28C264.161 208.833 263.736 203.246 262.01 198C260.245 192.786 257.897 187.787 255.01 183.1L252.44 178.79L251.74 177.61C251.645 177.486 251.564 177.352 251.5 177.21Z" fill="#263238"/>
<path d="M255.25 242.38C254.569 243.447 254.221 244.693 254.25 245.96C254.3 246.39 254.57 246.96 255 246.85C255.27 246.85 255.44 246.54 255.57 246.3C257.94 242.04 260.18 238.41 262.57 234.15L262.46 233.31C259.546 235.89 257.106 238.959 255.25 242.38Z" fill="#FAFAFA"/>
<path d="M254.63 232.23C257.168 232.378 259.714 232.271 262.23 231.91L262.17 231.48C259.883 230.471 257.506 229.681 255.07 229.12C252.779 228.581 250.379 228.756 248.19 229.62C250.005 231.152 252.261 232.066 254.63 232.23Z" fill="#FAFAFA"/>
<path d="M254.82 223.86L261.95 229.86L260.38 227C258.804 224.407 256.834 222.076 254.54 220.09C254.272 219.847 253.955 219.666 253.61 219.56C253.437 219.505 253.253 219.499 253.077 219.541C252.901 219.584 252.739 219.673 252.61 219.8C252.497 219.965 252.427 220.155 252.404 220.354C252.381 220.552 252.407 220.753 252.48 220.94C252.955 222.123 253.769 223.139 254.82 223.86Z" fill="#FAFAFA"/>
<path d="M233.93 216.44C235.93 217.75 237.93 218.17 240.08 219.03H240.5C239.094 217.164 237.503 215.445 235.75 213.9C233.976 212.351 231.771 211.381 229.43 211.12C230.318 213.332 231.896 215.198 233.93 216.44Z" fill="#FAFAFA"/>
<path d="M239.18 210.459C240.31 213.249 241.41 215.909 242.54 218.709L242.63 215.829C242.443 212.805 241.792 209.827 240.7 206.999C240.569 206.666 240.376 206.36 240.13 206.099C240.001 205.973 239.839 205.883 239.663 205.841C239.487 205.799 239.303 205.805 239.13 205.859C238.955 205.95 238.805 206.082 238.694 206.245C238.582 206.407 238.512 206.594 238.49 206.789C238.354 208.054 238.594 209.331 239.18 210.459Z" fill="#FAFAFA"/>
<path d="M253.2 207.73C253.174 208.005 253.106 208.275 253 208.53C252.915 208.836 252.805 209.133 252.67 209.42C252.513 209.812 252.336 210.196 252.14 210.57C251.621 211.547 251.008 212.472 250.31 213.33C248.587 215.43 246.399 217.1 243.92 218.21C242.909 218.647 241.857 218.982 240.78 219.21C240.058 219.379 239.321 219.479 238.58 219.51C238.312 219.551 238.038 219.551 237.77 219.51C237.77 219.41 238.92 219.36 240.7 218.89C241.731 218.609 242.735 218.238 243.7 217.78C244.884 217.221 246.012 216.552 247.07 215.78C248.11 214.969 249.068 214.058 249.93 213.06C250.628 212.239 251.254 211.359 251.8 210.43C252.75 208.8 253.11 207.7 253.2 207.73Z" fill="#263238"/>
<g opacity="0.3">
<path d="M235.5 219.88C237.127 221.032 239.064 221.666 241.057 221.698C243.05 221.73 245.007 221.159 246.67 220.06C250.23 217.83 251.96 213.98 252.42 210.06C250.663 212.996 248.189 215.438 245.229 217.156C242.269 218.874 238.921 219.811 235.5 219.88Z" fill="black"/>
</g>
<g opacity="0.3">
<path d="M213.56 196.24L209.06 202.64C210 206.19 211.24 209.53 212.18 213.07C214.229 207.705 214.708 201.867 213.56 196.24Z" fill="black"/>
</g>
<path d="M148.43 271.44L141.96 281.72L127.63 286C127.579 285.521 127.626 285.037 127.767 284.577C127.908 284.116 128.14 283.689 128.45 283.32C129.45 282.4 125.45 283.7 125.45 283.7L122.45 289.94C122.45 289.94 120.45 289.8 120.56 288.05C120.67 286.3 122.94 280.8 122.94 280.8L124.01 280.62C123.845 280.142 123.796 279.632 123.868 279.131C123.939 278.63 124.128 278.153 124.42 277.74C124.529 276.02 125.088 274.358 126.04 272.92C126.841 271.62 127.832 270.447 128.98 269.44L141.5 264.28L148.43 271.44Z" fill="#FFBE9D"/>
<path d="M138.4 279.4C136.961 280.379 135.393 281.154 133.74 281.7C132.146 282.389 130.463 282.85 128.74 283.07C128.74 282.94 130.93 282.28 133.59 281.27C136.25 280.26 138.34 279.28 138.4 279.4Z" fill="#EB996E"/>
<path d="M130.5 278.12C129.342 278.801 128.111 279.348 126.83 279.75C125.607 280.296 124.325 280.698 123.01 280.95C124.162 280.266 125.391 279.719 126.67 279.32C127.897 278.775 129.182 278.373 130.5 278.12Z" fill="#EB996E"/>
<path d="M130.26 275C129.308 275.511 128.326 275.966 127.32 276.36C126.383 276.9 125.414 277.385 124.42 277.81C126.02 276.279 128.065 275.295 130.26 275Z" fill="#EB996E"/>
<path d="M130.32 271.859C129.59 272.323 128.808 272.699 127.99 272.979C127.233 273.401 126.432 273.736 125.6 273.979C126.212 273.342 126.966 272.859 127.8 272.569C128.571 272.134 129.435 271.891 130.32 271.859Z" fill="#EB996E"/>
<path d="M215.33 172.51C216.016 173.051 216.611 173.699 217.09 174.43C218.326 176.15 219.243 178.077 219.8 180.12C220.353 182.161 220.533 184.285 220.33 186.39C220.287 187.264 220.102 188.126 219.78 188.94C219.69 188.94 219.89 187.94 219.96 186.36C220.15 182.218 219.042 178.121 216.79 174.64C215.92 173.31 215.26 172.57 215.33 172.51Z" fill="#263238"/>
<path d="M210.96 171.2C214.26 171.2 217.3 174.25 217.58 177.54C217.92 181.44 217.96 187.22 216.03 191.75C212.8 199.31 180.03 238.18 180.03 238.18L148.44 271.44L140.3 263.29C140.3 263.29 157.09 235.85 159.37 232.54C164.11 225.63 176.04 213.46 180.77 205.38C185.5 197.3 196.07 182.48 199.26 179.25C202.45 176.02 205.13 171.21 210.96 171.2Z" fill="#407BFF"/>
<path d="M191.42 209.07C190.123 209.142 188.878 209.605 187.85 210.4C187.53 210.7 187.26 211.24 187.58 211.55C187.692 211.632 187.822 211.687 187.959 211.712C188.096 211.736 188.236 211.728 188.37 211.69C193.32 211.05 197.9 210.69 202.85 210.04L203.23 209.46C199.346 208.646 195.349 208.514 191.42 209.07Z" fill="#FAFAFA"/>
<path d="M199.41 202.39C200.756 204.472 202.314 206.41 204.06 208.17L204.33 207.71C203.869 205.36 203.165 203.064 202.23 200.86C201.288 198.644 199.685 196.772 197.64 195.5C197.481 197.927 198.101 200.341 199.41 202.39Z" fill="#FAFAFA"/>
<path d="M206.42 197.08C206.22 200.15 206.05 203.08 205.85 206.17L207.2 203.57C208.381 200.701 209.107 197.664 209.35 194.57C209.386 194.203 209.345 193.831 209.23 193.48C209.169 193.306 209.061 193.153 208.918 193.036C208.775 192.92 208.603 192.845 208.42 192.82C208.219 192.829 208.023 192.886 207.848 192.987C207.674 193.088 207.527 193.23 207.42 193.4C206.731 194.501 206.383 195.782 206.42 197.08Z" fill="#FAFAFA"/>
<path d="M213.5 195.6C213.445 195.753 213.367 195.898 213.27 196.03C213.07 196.34 212.83 196.73 212.53 197.19C211.87 198.19 210.88 199.62 209.63 201.35C207.11 204.82 203.51 209.52 199.45 214.64C195.39 219.76 191.62 224.32 188.85 227.64C187.47 229.27 186.33 230.58 185.54 231.48L184.61 232.48C184.39 232.71 184.27 232.83 184.26 232.81C184.25 232.79 184.34 232.67 184.53 232.41L185.39 231.33L188.57 227.39L199.05 214.39C203.11 209.28 206.75 204.62 209.34 201.21C210.58 199.54 211.6 198.21 212.34 197.15C212.66 196.71 212.93 196.34 213.16 196.04C213.252 195.878 213.367 195.73 213.5 195.6Z" fill="#263238"/>
<path d="M161.57 229.56C165.37 230.697 169.34 231.164 173.3 230.94C174.597 230.987 175.877 230.638 176.97 229.94C177.32 229.67 177.63 229.16 177.34 228.82C177.234 228.73 177.108 228.665 176.973 228.63C176.838 228.596 176.697 228.592 176.56 228.62C171.56 228.83 166.98 228.83 162 229.04" fill="#FAFAFA"/>
<path d="M164.78 236.92C163.617 234.732 162.229 232.671 160.64 230.77L160.32 231.21C160.588 233.588 161.097 235.934 161.84 238.21C162.59 240.501 164.029 242.506 165.96 243.95C166.325 241.54 165.911 239.078 164.78 236.92Z" fill="#FAFAFA"/>
<path d="M157.37 242.53C157.83 239.48 158.25 236.53 158.71 233.53L157.14 236C155.722 238.766 154.741 241.735 154.23 244.8C154.155 245.16 154.155 245.531 154.23 245.89C154.275 246.068 154.367 246.23 154.498 246.359C154.628 246.488 154.792 246.578 154.97 246.62C155.173 246.632 155.376 246.593 155.561 246.508C155.746 246.422 155.907 246.293 156.03 246.13C156.828 245.092 157.294 243.837 157.37 242.53Z" fill="#FAFAFA"/>
<path d="M399 62.8198L403.63 68.7998L405.23 78.6398L408.73 76.1798L412.23 81.3898L443.25 52.0098L399 62.8198Z" fill="#407BFF"/>
<path opacity="0.3" d="M408.68 76.2396L407.1 77.3196L405.98 71.8096L408.68 76.2396Z" fill="black"/>
<path opacity="0.3" d="M403.63 68.7998L443.25 52.0098L406.22 71.2498L405.23 78.6398L403.63 68.7998Z" fill="black"/>
<path d="M443.25 52C443.109 52.1176 442.955 52.2182 442.79 52.3L441.43 53.07L436.36 55.81L419.5 64.68L406.01 71.68L406.1 71.39C407.8 74.48 409.34 76.96 410.44 78.67C410.97 79.49 411.39 80.15 411.73 80.67C411.898 80.8926 412.039 81.1343 412.15 81.39C411.952 81.1922 411.774 80.9743 411.62 80.74C411.29 80.31 410.82 79.66 410.24 78.82C409.07 77.14 407.47 74.69 405.72 71.61L405.61 71.42L405.81 71.31L419.26 64.24L436.14 55.51L441.29 52.92L442.7 52.23C442.87 52.1239 443.056 52.0463 443.25 52Z" fill="#263238"/>
<path d="M443.25 52C443.31 52.13 434.43 56 423.42 60.73C412.41 65.46 403.42 69.11 403.42 68.98C403.42 68.85 412.24 64.98 423.25 60.25C434.26 55.52 443.2 51.88 443.25 52Z" fill="#263238"/>
<path d="M405.23 78.6395C405.092 77.4375 405.126 76.222 405.33 75.0295C405.369 73.823 405.578 72.628 405.95 71.4795C406.088 72.6781 406.054 73.8903 405.85 75.0795C405.817 76.2899 405.608 77.4892 405.23 78.6395Z" fill="#263238"/>
<path d="M367.2 103C367.2 103.14 366.69 103.33 365.99 103.43C365.29 103.53 364.73 103.43 364.72 103.34C364.71 103.25 365.25 103 365.92 102.91C366.59 102.82 367.17 102.84 367.2 103Z" fill="#263238"/>
<path d="M376.11 99C376.19 99.11 375.37 99.88 374.19 100.58C373.508 101.077 372.709 101.391 371.87 101.49C371.81 101.35 372.77 100.81 373.92 100.13C374.585 99.6392 375.325 99.2578 376.11 99Z" fill="#263238"/>
<path d="M382.56 91.66C382.391 92.4854 382.012 93.2534 381.46 93.89C380.67 95.02 379.83 95.76 379.72 95.67C380.054 94.9145 380.499 94.2134 381.04 93.59C381.81 92.5 382.43 91.59 382.56 91.66Z" fill="#263238"/>
<path d="M384.91 82.2402C385.229 83.0265 385.305 83.8901 385.13 84.7202C385.121 85.569 384.872 86.3979 384.41 87.1102C384.367 86.2916 384.434 85.471 384.61 84.6702C384.615 83.8513 384.716 83.0358 384.91 82.2402Z" fill="#263238"/>
<path d="M378.96 75.4803C379.811 75.3066 380.695 75.4678 381.43 75.9303C382.73 76.5803 383.31 77.6503 383.21 77.7003C383.11 77.7503 382.36 76.9703 381.21 76.3903C380.06 75.8103 378.94 75.6403 378.96 75.4803Z" fill="#263238"/>
<path d="M371.16 80.2495C371.201 79.3863 371.557 78.5679 372.16 77.9495C372.637 77.2256 373.375 76.7135 374.22 76.5195C374.3 76.6495 373.39 77.2595 372.57 78.2795C371.75 79.2995 371.3 80.2995 371.16 80.2495Z" fill="#263238"/>
<path d="M372.77 89.5096C372.049 89.0326 371.507 88.3289 371.23 87.5096C370.802 86.7692 370.633 85.9069 370.75 85.0596C371.145 85.7774 371.479 86.5266 371.75 87.2996C372.25 88.5296 372.9 89.3996 372.77 89.5096Z" fill="#263238"/>
<path d="M381.33 93.8295C380.503 94.0113 379.64 93.9452 378.85 93.6395C378.012 93.4972 377.235 93.1071 376.62 92.5195C377.431 92.6361 378.226 92.8441 378.99 93.1395C379.795 93.2737 380.581 93.5054 381.33 93.8295Z" fill="#263238"/>
<path d="M390.84 91.8301C390.231 92.4016 389.483 92.8048 388.67 93.0001C387.908 93.3657 387.062 93.5178 386.22 93.4401C386.93 93.0253 387.694 92.7122 388.49 92.5101C389.236 92.1695 390.028 91.9404 390.84 91.8301Z" fill="#263238"/>
<path d="M398.82 86.1396C398.92 86.2396 398.14 87.0296 397.08 87.8896C396.495 88.4809 395.794 88.944 395.02 89.2496C394.93 89.1296 395.71 88.3396 396.76 87.4896C397.347 86.9038 398.048 86.4444 398.82 86.1396Z" fill="#263238"/>
<path d="M403.7 80.5799C403.83 80.6399 403.7 81.2099 403.25 81.7899C402.8 82.3699 402.39 82.7199 402.25 82.6299C402.11 82.5399 402.41 82.0399 402.8 81.4899C403.19 80.9399 403.57 80.5199 403.7 80.5799Z" fill="#263238"/>
</svg>
