<svg width="64" height="64" viewBox="0 0 64 64" fill="none" xmlns="http://www.w3.org/2000/svg">
<g id="tabler-icon-user-circle">
<path id="Vector" d="M16.448 50.264C17.108 48.0673 18.4586 46.1418 20.2993 44.7733C22.1401 43.4047 24.3729 42.666 26.6667 42.6667H37.3333C39.63 42.6659 41.8656 43.4064 43.7077 44.7781C45.5498 46.1498 46.8999 48.0794 47.5573 50.28M8 32C8 35.1517 8.62078 38.2726 9.82689 41.1844C11.033 44.0962 12.8008 46.742 15.0294 48.9706C17.258 51.1992 19.9038 52.967 22.8156 54.1731C25.7274 55.3792 28.8483 56 32 56C35.1517 56 38.2726 55.3792 41.1844 54.1731C44.0962 52.967 46.742 51.1992 48.9706 48.9706C51.1992 46.742 52.967 44.0962 54.1731 41.1844C55.3792 38.2726 56 35.1517 56 32C56 28.8483 55.3792 25.7274 54.1731 22.8156C52.967 19.9038 51.1992 17.258 48.9706 15.0294C46.742 12.8008 44.0962 11.033 41.1844 9.82689C38.2726 8.62078 35.1517 8 32 8C28.8483 8 25.7274 8.62078 22.8156 9.82689C19.9038 11.033 17.258 12.8008 15.0294 15.0294C12.8008 17.258 11.033 19.9038 9.82689 22.8156C8.62078 25.7274 8 28.8483 8 32ZM24 26.6667C24 28.7884 24.8429 30.8232 26.3431 32.3235C27.8434 33.8238 29.8783 34.6667 32 34.6667C34.1217 34.6667 36.1566 33.8238 37.6569 32.3235C39.1571 30.8232 40 28.7884 40 26.6667C40 24.5449 39.1571 22.5101 37.6569 21.0098C36.1566 19.5095 34.1217 18.6667 32 18.6667C29.8783 18.6667 27.8434 19.5095 26.3431 21.0098C24.8429 22.5101 24 24.5449 24 26.6667Z" stroke="#B5B6C4" stroke-width="2.66667" stroke-linecap="round" stroke-linejoin="round"/>
</g>
</svg>
