<svg width="500" height="500" viewBox="0 0 500 500" fill="none" xmlns="http://www.w3.org/2000/svg">
<path d="M80.2901 198.31C97.2673 198.31 111.03 184.547 111.03 167.57C111.03 150.593 97.2673 136.83 80.2901 136.83C63.3128 136.83 49.55 150.593 49.55 167.57C49.55 184.547 63.3128 198.31 80.2901 198.31Z" fill="#EBEBEB"/>
<path d="M108.64 162.311C109.16 162.311 109.74 163.091 110.17 164.681C110.681 166.935 110.762 169.266 110.41 171.551C109.934 174.995 108.807 178.317 107.09 181.341C104.983 185.143 102.043 188.418 98.4887 190.921C94.9347 193.424 90.8597 195.089 86.57 195.791C83.1468 196.386 79.6418 196.328 76.24 195.621C73.9681 195.181 71.7999 194.316 69.85 193.071C68.5 192.141 67.94 191.321 68.14 190.841C68.59 189.781 71.86 190.371 76.74 190.121C82.9018 189.902 88.8798 187.966 94 184.531C98.9584 180.871 102.793 175.897 105.07 170.171C107 165.661 107.49 162.381 108.64 162.311Z" fill="#E0E0E0"/>
<path d="M81.7001 175C84.892 174.807 87.9037 173.455 90.1701 171.2C91.5513 169.816 92.3464 167.954 92.3901 166C92.3395 165.088 91.9834 164.221 91.3793 163.537C90.7751 162.853 89.9581 162.392 89.0601 162.23C87.7599 162.205 86.4889 162.617 85.4501 163.4C84.4137 164.198 83.2463 164.811 82.0001 165.21C80.2001 165.62 78.3501 164.9 76.6501 164.21C74.9501 163.52 73.1201 162.74 71.3001 163.07C70.6778 163.112 70.0781 163.319 69.5629 163.671C69.0478 164.022 68.636 164.505 68.3701 165.07C68.3701 165.07 67.4501 167.07 69.3001 169.75C70.742 171.616 72.6404 173.079 74.8123 173.999C76.9842 174.919 79.3564 175.263 81.7001 175Z" fill="white"/>
<path d="M67.7301 157.531C67.4655 157.033 67.0563 156.628 66.5565 156.367C66.0567 156.106 65.4897 156.003 64.9301 156.071C64.5721 156.074 64.2234 156.186 63.9301 156.391C63.4979 156.723 63.1643 157.167 62.9652 157.674C62.7661 158.182 62.709 158.734 62.8001 159.271C62.8859 159.631 63.0449 159.969 63.2673 160.264C63.4896 160.56 63.7705 160.806 64.0924 160.988C64.4143 161.171 64.7702 161.284 65.138 161.323C65.5058 161.361 65.8776 161.323 66.2301 161.211C66.5728 161.071 66.8841 160.864 67.1458 160.603C67.4075 160.341 67.6143 160.029 67.754 159.687C67.8937 159.344 67.9635 158.977 67.9594 158.606C67.9553 158.236 67.8774 157.871 67.7301 157.531Z" fill="white"/>
<path d="M97 157.63C96.7358 157.131 96.3271 156.724 95.8274 156.462C95.3278 156.199 94.7605 156.094 94.2 156.16C93.8429 156.168 93.4957 156.279 93.2 156.48C92.7661 156.813 92.4315 157.258 92.2324 157.767C92.0332 158.277 91.9771 158.831 92.07 159.37C92.1558 159.729 92.3149 160.068 92.5372 160.363C92.7596 160.658 93.0404 160.905 93.3623 161.087C93.6842 161.269 94.0402 161.383 94.408 161.421C94.7758 161.459 95.1475 161.421 95.5 161.31C95.8427 161.17 96.1541 160.963 96.4158 160.701C96.6774 160.439 96.8842 160.128 97.0239 159.785C97.1636 159.442 97.2335 159.075 97.2294 158.705C97.2253 158.335 97.1473 157.969 97 157.63Z" fill="white"/>
<path d="M432.181 91.5389C436.442 72.7809 424.691 54.1197 405.933 49.8579C387.175 45.5962 368.513 57.3478 364.252 76.1059C359.99 94.8639 371.742 113.525 390.5 117.787C409.258 122.049 427.919 110.297 432.181 91.5389Z" fill="#EBEBEB"/>
<path d="M429.3 79.291C429.82 79.291 430.4 80.171 430.82 81.961C431.331 84.4987 431.371 87.1086 430.94 89.661C430.363 93.5056 429.075 97.209 427.14 100.581C424.763 104.817 421.468 108.466 417.497 111.263C413.526 114.059 408.979 115.931 404.19 116.741C400.362 117.434 396.437 117.404 392.62 116.651C390.073 116.189 387.631 115.271 385.41 113.941C383.87 112.941 383.21 112.081 383.41 111.601C383.86 110.531 387.53 111.341 393.12 111.151C396.34 111.061 399.537 110.577 402.64 109.711C410.131 107.718 416.659 103.106 421.04 96.711C422.896 94.0819 424.427 91.2379 425.6 88.241C427.66 83.081 428.14 79.351 429.3 79.291Z" fill="#E0E0E0"/>
<path d="M408.69 79.5212C408.79 79.5212 408.26 81.0012 406.54 82.7112C404.275 84.9612 401.259 86.2939 398.07 86.4527C394.882 86.6114 391.747 85.5851 389.27 83.5712C387.39 82.0412 386.72 80.6612 386.82 80.5712C386.92 80.4812 387.82 81.6512 389.71 82.9412C392.129 84.6635 395.057 85.5195 398.023 85.3707C400.988 85.2218 403.816 84.0769 406.05 82.1212C407.79 80.6912 408.54 79.4212 408.69 79.5212Z" fill="white"/>
<path d="M384 72.47C383.704 71.9052 383.243 71.4439 382.679 71.1473C382.114 70.8508 381.473 70.7331 380.84 70.81C380.453 70.8229 380.078 70.9479 379.76 71.17C379.272 71.5489 378.896 72.0532 378.672 72.6292C378.449 73.2051 378.386 73.831 378.49 74.44C378.58 74.8508 378.756 75.2379 379.006 75.5763C379.256 75.9147 379.574 76.1967 379.94 76.4042C380.306 76.6116 380.711 76.7398 381.13 76.7805C381.549 76.8211 381.971 76.7732 382.37 76.64C382.753 76.476 383.1 76.2374 383.39 75.9381C383.68 75.6387 383.907 75.2847 384.059 74.8966C384.21 74.5084 384.283 74.094 384.273 73.6774C384.263 73.2608 384.17 72.8503 384 72.47Z" fill="white"/>
<path d="M420.55 75.8306C420.433 74.9322 420.239 74.0456 419.97 73.1806C419.599 72.3235 419.018 71.5738 418.28 71.0006C417.363 70.3253 416.25 69.9703 415.111 69.9901C413.973 70.01 412.873 70.4037 411.98 71.1106C411.257 71.7164 410.703 72.4982 410.37 73.3806C410.13 74.2553 409.963 75.1483 409.87 76.0506C409.77 76.1106 409.21 74.9906 409.66 73.1606C409.974 71.9532 410.674 70.8818 411.654 70.1102C412.635 69.3385 413.841 68.9091 415.088 68.8876C416.335 68.866 417.555 69.2535 418.561 69.9909C419.568 70.7282 420.305 71.7748 420.66 72.9706C421.18 74.7506 420.65 75.8806 420.55 75.8306Z" fill="white"/>
<path d="M389.42 441C388.5 437.37 390.9 433.75 393.58 431.14C396.26 428.53 399.45 426.19 400.85 422.72C403.13 417.11 400.15 409.8 404.01 405.13C406.28 402.38 410.32 401.48 412.34 398.54C413.265 396.909 413.885 395.123 414.17 393.27C416.351 383.931 421 375.349 427.63 368.42C428.03 376.756 426.179 385.046 422.27 392.42C420.7 395.36 418.78 398.23 418.27 401.52C417.4 406.87 420.36 412.39 419.01 417.64C417.48 423.64 410.7 427.64 410.35 433.81C410.05 439.03 414.58 443.65 414.21 448.87C413.926 451.091 413.117 453.213 411.85 455.06C407.77 461.76 401.8 466.36 392.8 466.15L381.8 466.48L389.42 441Z" fill="#EBEBEB"/>
<path d="M379.52 466.731C378.523 466.875 377.508 466.848 376.52 466.651C375.299 466.463 374.1 466.155 372.94 465.731C371.344 465.164 369.854 464.336 368.53 463.281C367.737 462.629 367.118 461.791 366.73 460.841C366.398 459.776 366.229 458.666 366.23 457.551C366.216 456.364 366.139 455.179 366 454.001C365.792 452.739 365.34 451.53 364.67 450.441C363.38 448.151 361.24 445.981 360.56 442.871C359.88 439.761 360.38 436.521 360.91 433.211C361.44 429.901 361.96 426.301 360.71 422.851C359.46 419.401 357.15 416.271 355.96 412.371C354.77 408.471 355.37 404.221 355.14 400.051C355.07 397.935 354.591 395.854 353.73 393.921C352.85 391.971 351.63 390.121 350.67 388.061C348.74 383.891 348.42 379.181 347.91 374.571C347.664 372.244 347.414 369.894 347.16 367.521C347.01 365.132 346.611 362.766 345.97 360.461C345.246 358.129 344.378 355.844 343.37 353.621C342.855 352.467 342.437 351.273 342.12 350.051C341.938 348.791 341.825 347.522 341.78 346.251C341.674 343.702 341.788 341.149 342.12 338.621C342.43 336.081 342.91 333.561 343.19 331.011L343.25 330.571L343.31 330.061L343.76 330.291C346.082 331.485 348.101 333.196 349.66 335.291C351.18 337.356 352.396 339.629 353.27 342.041C355.09 346.781 355.72 351.751 356.62 356.491C357.52 361.231 358.67 365.901 361.08 369.861C362.28 371.861 363.73 373.631 365 375.551C366.351 377.427 367.273 379.578 367.7 381.851C368.32 386.521 365.7 390.601 366.24 394.731C366.491 396.764 367.172 398.721 368.24 400.471C369.24 402.241 370.4 403.881 371.51 405.531C372.638 407.139 373.618 408.846 374.44 410.631C375.202 412.382 375.649 414.254 375.76 416.161C376.01 419.881 375.46 423.411 375.71 426.741C376 429.912 376.907 432.997 378.38 435.821C379.7 438.541 381.17 441.001 382.38 443.391C382.992 444.534 383.542 445.709 384.03 446.911C384.467 448.038 384.785 449.207 384.98 450.401C385.296 452.488 385.313 454.609 385.03 456.701C384.715 459.61 383.608 462.377 381.83 464.701C381.559 465.059 381.258 465.394 380.93 465.701C380.709 465.932 380.465 466.14 380.2 466.321C379.79 466.621 379.57 466.751 379.57 466.751C380.361 466.135 381.08 465.43 381.71 464.651C383.415 462.323 384.452 459.574 384.71 456.701C384.975 454.64 384.941 452.552 384.61 450.501C384.396 449.332 384.061 448.189 383.61 447.091C383.15 445.951 382.61 444.791 381.95 443.611C380.71 441.241 379.23 438.791 377.88 436.061C376.361 433.191 375.42 430.052 375.11 426.821C374.84 423.411 375.38 419.881 375.11 416.241C374.993 414.398 374.553 412.591 373.81 410.901C372.996 409.15 372.025 407.477 370.91 405.901C369.8 404.271 368.62 402.621 367.6 400.811C366.488 398.982 365.782 396.936 365.53 394.811C365.03 390.401 367.6 386.291 366.96 381.951C366.542 379.783 365.651 377.734 364.35 375.951C363.1 374.061 361.64 372.261 360.41 370.241C357.93 366.171 356.74 361.421 355.85 356.651C354.96 351.881 354.31 346.961 352.52 342.311C351.668 339.968 350.486 337.759 349.01 335.751C347.517 333.727 345.581 332.072 343.35 330.911L343.86 330.641C343.86 330.781 343.86 330.931 343.86 331.081C343.57 333.661 343.09 336.181 342.78 338.701C342.456 341.19 342.346 343.702 342.45 346.211C342.491 347.442 342.594 348.67 342.76 349.891C343.074 351.071 343.482 352.225 343.98 353.341C344.99 355.59 345.865 357.897 346.6 360.251C347.247 362.596 347.649 365.002 347.8 367.431C348.05 369.801 348.3 372.161 348.54 374.481C349.04 379.121 349.36 383.751 351.22 387.771C352.14 389.771 353.37 391.631 354.28 393.651C355.163 395.659 355.651 397.818 355.72 400.011C355.93 404.261 355.36 408.421 356.49 412.201C357.62 415.981 360 419.101 361.19 422.661C362.38 426.221 361.91 429.991 361.37 433.281C360.83 436.571 360.26 439.821 360.96 442.761C361.66 445.701 363.66 447.881 364.96 450.241C365.65 451.369 366.109 452.623 366.31 453.931C366.451 455.129 366.522 456.334 366.52 457.541C366.513 458.627 366.668 459.709 366.98 460.751C367.346 461.653 367.926 462.452 368.67 463.081C369.961 464.133 371.418 464.964 372.98 465.541C374.118 465.988 375.297 466.323 376.5 466.541C377.243 466.674 377.995 466.751 378.75 466.771C379.25 466.721 379.52 466.731 379.52 466.731Z" fill="#E0E0E0"/>
<path d="M345.41 336.631C345.41 336.631 345.41 336.741 345.52 336.971C345.63 337.201 345.66 337.561 345.76 337.971C345.97 338.841 346.22 340.151 346.63 341.791C347.04 343.431 348.04 345.281 348.88 347.571C349.873 350.135 350.734 352.749 351.46 355.401C352.28 358.351 353.01 361.621 353.77 365.121C354.53 368.621 355.33 372.371 357.24 375.911C358.13 377.711 359.14 379.521 359.94 381.511C360.717 383.552 361.238 385.681 361.49 387.851C362.018 392.339 362.786 396.795 363.79 401.201C365.95 410.251 368.01 418.871 369.88 426.721L375 447.521C376.42 453.401 377.57 458.191 378.38 461.521C378.75 463.141 379.05 464.421 379.27 465.351C379.35 465.751 379.42 466.081 379.48 466.351C379.491 466.464 379.491 466.578 379.48 466.691C379.424 466.588 379.383 466.476 379.36 466.361C379.28 466.101 379.19 465.781 379.08 465.361L378.08 461.571C377.22 458.211 375.99 453.441 374.48 447.571C372.97 441.701 371.2 434.571 369.23 426.791L363.08 401.271C362.071 396.846 361.304 392.369 360.78 387.861C360.543 385.747 360.043 383.671 359.29 381.681C358.52 379.741 357.53 377.941 356.63 376.121C354.71 372.511 353.93 368.651 353.18 365.121C352.43 361.591 351.75 358.351 350.96 355.411C350.17 352.471 349.33 349.851 348.49 347.591C347.65 345.331 346.74 343.441 346.34 341.751C345.94 340.061 345.77 338.751 345.6 337.881C345.53 337.471 345.47 337.141 345.43 336.881C345.415 336.798 345.409 336.715 345.41 336.631Z" fill="#E0E0E0"/>
<path d="M377.57 466.76C370.39 462.43 368.4 449.43 371.45 441.62C374.5 433.81 379.8 426.7 380.65 418.37C381.31 411.96 379.25 405.37 380.78 399.11C382.84 390.67 391.14 384.17 391.09 375.47C391.09 370.6 388.32 365.99 388.57 361.12C388.87 355.12 393.48 350.43 396.35 345.18C400.75 337.18 401.09 327.63 402.63 318.6C404.17 309.57 407.63 299.92 415.7 295.52C416.84 303.2 418.82 308.46 418.13 318.85C417.88 322.58 413.51 329.7 412.87 337.85C412.49 342.73 412.22 347.63 411.87 352.52C411.52 357.41 411.22 362.12 409.49 366.57C408.16 369.97 406.04 373.06 405.05 376.57C403.19 383.19 405.54 390.38 404.05 397.09C402.77 402.77 398.8 407.65 397.97 413.41C396.79 421.51 401.97 429.97 399.26 437.69C397.9 441.52 394.73 444.58 393.81 448.54C393.1 451.61 393.81 454.86 393.19 457.95C392.19 462.95 382.64 466.73 377.57 466.39" fill="#E0E0E0"/>
<path d="M413.67 303.121C413.686 303.267 413.686 303.415 413.67 303.561C413.67 303.881 413.58 304.291 413.5 304.821C413.33 305.921 413.14 307.551 412.75 309.651C412.36 311.751 411.23 314.141 410.35 317.001C409.47 319.861 408.48 323.161 407.65 326.851C406.82 330.541 406.1 334.631 405.35 339.031C404.6 343.431 403.79 348.221 401.58 352.791C400.58 355.081 399.41 357.381 398.58 359.791C397.739 362.306 397.215 364.916 397.02 367.561C396.587 373.187 395.849 378.785 394.81 384.331C392.54 395.681 390.38 406.501 388.41 416.331C386.44 426.161 384.47 434.961 382.9 442.401C381.33 449.841 380 455.821 379.05 460.001C378.6 462.001 378.24 463.631 377.99 464.771C377.87 465.281 377.77 465.691 377.69 466.011C377.664 466.151 377.623 466.289 377.57 466.421C377.575 466.277 377.592 466.133 377.62 465.991C377.68 465.671 377.76 465.261 377.85 464.741C378.07 463.601 378.38 461.991 378.78 459.951L382.33 442.341C383.86 434.891 385.68 426.051 387.69 416.241C389.7 406.431 391.79 395.591 394.04 384.241C395.07 378.714 395.807 373.136 396.25 367.531C396.454 364.83 396.999 362.166 397.87 359.601C398.76 357.091 399.92 354.791 400.94 352.511C403.14 348.011 403.94 343.301 404.73 338.921C405.52 334.541 406.24 330.431 407.12 326.731C408 323.031 408.96 319.731 409.93 316.871C410.9 314.011 412 311.641 412.44 309.581C412.88 307.521 413.11 305.881 413.32 304.781L413.56 303.541C413.582 303.398 413.619 303.257 413.67 303.121Z" fill="#EBEBEB"/>
<path d="M481.76 465.641C481.76 465.781 377.99 465.901 250.01 465.901C122.03 465.901 18.24 465.781 18.24 465.641C18.24 465.501 122 465.381 250 465.381C378 465.381 481.76 465.491 481.76 465.641Z" fill="#455A64"/>
<path d="M241.48 204.051C229.35 215.261 220.66 239.331 218.29 255.371C215.92 271.411 214.7 288.371 205.89 301.971C203.45 305.741 200.34 309.601 200.63 314.071C201.03 320.341 207.96 324.181 214.22 324.711C220.48 325.241 226.84 323.711 233.01 324.841C244.36 326.951 253.23 337.841 264.77 337.701C273.37 337.631 280.87 331.151 284.71 323.451C288.55 315.751 289.42 306.971 290.24 298.451C292.71 272.661 294.54 254.091 297.01 228.301" fill="#407BFF"/>
<path d="M214.16 299C213.173 298.424 212.334 297.626 211.71 296.67C211.085 295.714 210.691 294.625 210.56 293.49C210.71 293.49 211.14 294.88 212.14 296.39C213.14 297.9 214.26 298.87 214.16 299Z" fill="#FAFAFA"/>
<path d="M263.42 326.83C263.197 326.856 262.972 326.856 262.75 326.83L260.84 326.72C259.18 326.6 256.84 326.41 253.84 326.1C247.93 325.49 239.79 324.39 230.9 322.61C226.691 321.873 222.546 320.813 218.5 319.44C215.185 318.282 212.128 316.488 209.5 314.16C207.728 312.583 206.286 310.669 205.26 308.53C204.99 307.949 204.76 307.351 204.57 306.74C204.493 306.53 204.443 306.312 204.42 306.09C204.42 306.09 204.7 306.97 205.42 308.44C206.49 310.513 207.946 312.363 209.71 313.89C212.336 316.141 215.367 317.872 218.64 318.99C222.678 320.329 226.809 321.369 231 322.1C239.87 323.87 248 325.03 253.88 325.73L260.88 326.52L262.78 326.72C262.997 326.732 263.212 326.768 263.42 326.83Z" fill="#FAFAFA"/>
<path d="M258.61 313.64C257.522 313.294 256.52 312.722 255.67 311.96C254.947 311.414 254.278 310.801 253.67 310.13L253.6 310.04V309.97C253.76 309.59 253.89 309.37 253.94 309.39C253.99 309.41 253.94 309.65 253.89 310.06V309.9L256.01 311.55C256.941 312.162 257.812 312.862 258.61 313.64Z" fill="#FAFAFA"/>
<path d="M229.59 227.191C229.59 227.331 228.78 227.271 228.14 226.591C227.5 225.911 227.45 225.131 227.59 225.121C227.73 225.111 227.98 225.691 228.51 226.231C229.04 226.771 229.62 227.051 229.59 227.191Z" fill="#FAFAFA"/>
<path d="M225.7 239.572C225.7 239.712 224.61 239.732 223.7 238.872C222.79 238.012 222.64 236.932 222.78 236.932C222.92 236.932 223.23 237.772 224.05 238.492C224.87 239.212 225.72 239.422 225.7 239.572Z" fill="#FAFAFA"/>
<path d="M222.51 253.481C222.51 253.551 222.23 253.621 221.77 253.561C221.177 253.464 220.623 253.205 220.17 252.811C219.707 252.431 219.361 251.929 219.17 251.361C219.03 250.921 219.06 250.631 219.17 250.621C219.28 250.611 219.59 251.621 220.56 252.411C221.53 253.201 222.52 253.331 222.51 253.481Z" fill="#FAFAFA"/>
<path d="M219.8 267.181C219.72 267.301 218.98 266.991 218.14 266.481C217.3 265.971 216.68 265.481 216.75 265.331C216.82 265.181 217.57 265.521 218.41 266.031C219.25 266.541 219.87 267.061 219.8 267.181Z" fill="#FAFAFA"/>
<path d="M217.28 282.861C217.2 282.981 216.33 282.531 215.58 281.601C214.83 280.671 214.58 279.721 214.71 279.681C214.84 279.641 215.29 280.421 215.99 281.271C216.69 282.121 217.36 282.741 217.28 282.861Z" fill="#FAFAFA"/>
<path d="M199.68 424L194 449.64L183.66 468.64C183.482 468.963 183.373 469.32 183.34 469.688C183.306 470.055 183.349 470.425 183.466 470.776C183.582 471.126 183.77 471.448 184.016 471.723C184.263 471.997 184.564 472.217 184.9 472.37C185.288 472.553 185.715 472.639 186.143 472.619C186.572 472.6 186.99 472.477 187.36 472.26C192.18 469.48 209.83 459.16 210.14 457.26C210.5 455.06 217.93 430.59 217.93 430.59L199.68 424Z" fill="#407BFF"/>
<g opacity="0.6">
<path d="M184.9 472.381L210.56 455.551L210.3 456.631C210.072 457.567 209.519 458.393 208.74 458.961C206.65 460.461 200.74 464.501 187.44 472.291C187.058 472.517 186.625 472.643 186.181 472.659C185.738 472.675 185.297 472.579 184.9 472.381Z" fill="white"/>
</g>
<g opacity="0.6">
<path d="M207.34 446.002C206.961 446.156 206.653 446.448 206.479 446.818C206.305 447.189 206.277 447.611 206.4 448.002C206.54 448.378 206.82 448.687 207.181 448.863C207.542 449.04 207.956 449.072 208.34 448.952C208.735 448.791 209.056 448.489 209.241 448.104C209.425 447.72 209.461 447.281 209.34 446.872C209.154 446.495 208.83 446.204 208.435 446.061C208.04 445.917 207.604 445.932 207.22 446.102" fill="white"/>
</g>
<path d="M193.47 462.66C193.123 461.675 192.517 460.801 191.717 460.129C190.917 459.457 189.951 459.012 188.92 458.84C188.92 458.77 189.28 458.65 189.92 458.72C190.733 458.83 191.495 459.178 192.11 459.72C192.738 460.244 193.2 460.939 193.44 461.72C193.59 462.27 193.54 462.66 193.47 462.66Z" fill="#263238"/>
<path d="M190.81 465.63C190.67 465.71 190.05 464.68 188.81 463.98C188.026 463.623 187.221 463.312 186.4 463.05C186.852 462.903 187.332 462.865 187.802 462.94C188.271 463.014 188.716 463.2 189.1 463.48C190.51 464.29 191 465.6 190.81 465.63Z" fill="#263238"/>
<path d="M197.93 459.111C197.033 458.12 196.064 457.198 195.03 456.351C193.887 455.66 192.693 455.055 191.46 454.541C192.862 454.608 194.215 455.073 195.361 455.883C196.507 456.692 197.398 457.812 197.93 459.111Z" fill="#263238"/>
<path d="M200.31 451.451C200.2 451.591 198.94 450.651 197.12 450.141C195.3 449.631 193.74 449.701 193.72 449.531C194.889 449.226 196.12 449.243 197.28 449.582C198.44 449.92 199.487 450.566 200.31 451.451Z" fill="#263238"/>
<path d="M202.17 444.001C201.143 443.37 200.037 442.879 198.88 442.541C197.689 442.375 196.481 442.375 195.29 442.541C195.29 442.481 195.62 442.221 196.29 442.031C197.175 441.797 198.102 441.773 198.998 441.961C199.893 442.148 200.733 442.542 201.45 443.111C202 443.541 202.22 443.911 202.17 444.001Z" fill="#263238"/>
<path d="M199.28 441.091C199.263 440.747 199.332 440.403 199.48 440.091C199.784 439.227 200.257 438.432 200.87 437.751C201.27 437.21 201.841 436.819 202.49 436.641C202.71 436.605 202.936 436.636 203.137 436.731C203.339 436.825 203.507 436.979 203.62 437.171C203.812 437.559 203.855 438.004 203.74 438.421C203.47 439.265 202.916 439.988 202.171 440.468C201.427 440.948 200.539 441.154 199.66 441.051C198.793 440.93 197.982 440.553 197.331 439.969C196.679 439.384 196.216 438.62 196 437.771C195.947 437.557 195.94 437.334 195.98 437.117C196.019 436.9 196.105 436.693 196.23 436.511C196.377 436.345 196.573 436.228 196.79 436.178C197.007 436.128 197.234 436.146 197.44 436.231C198.035 436.525 198.542 436.97 198.91 437.521C199.47 438.243 199.897 439.06 200.17 439.931C200.301 440.248 200.359 440.59 200.34 440.931C199.921 439.801 199.331 438.742 198.59 437.791C198.25 437.33 197.804 436.956 197.29 436.701C197.179 436.651 197.054 436.638 196.935 436.665C196.816 436.693 196.709 436.758 196.63 436.851C196.554 436.976 196.505 437.115 196.487 437.26C196.468 437.405 196.479 437.551 196.52 437.691C196.73 438.417 197.145 439.066 197.714 439.563C198.283 440.059 198.983 440.381 199.73 440.491C200.473 440.579 201.223 440.411 201.858 440.014C202.492 439.618 202.973 439.017 203.22 438.311C203.322 438.03 203.322 437.722 203.22 437.441C203.162 437.332 203.071 437.243 202.959 437.189C202.848 437.135 202.722 437.119 202.6 437.141C202.052 437.296 201.564 437.613 201.2 438.051C200.382 438.94 199.731 439.97 199.28 441.091Z" fill="#263238"/>
<path d="M279.7 433.431L278.92 454.001C278.92 454.001 299.55 461.701 299.77 465.511L259.87 465.431L259.77 433.361L279.7 433.431Z" fill="#407BFF"/>
<g opacity="0.6">
<path d="M266.58 452.231C266.196 452.348 265.868 452.602 265.659 452.945C265.451 453.288 265.376 453.697 265.45 454.091C265.552 454.479 265.798 454.812 266.139 455.022C266.48 455.233 266.888 455.304 267.28 455.221C267.694 455.1 268.047 454.826 268.268 454.455C268.488 454.084 268.561 453.643 268.47 453.221C268.327 452.831 268.04 452.51 267.668 452.324C267.297 452.139 266.868 452.102 266.47 452.221" fill="white"/>
</g>
<g opacity="0.6">
<path d="M259.87 465.412L259.98 462.182L298.2 463.462C298.2 463.462 299.97 464.242 299.77 465.462L259.87 465.412Z" fill="white"/>
</g>
<path d="M279.56 453.781C279.56 453.981 278.56 454.061 277.62 454.691C276.68 455.321 276.15 456.131 275.97 456.051C275.79 455.971 276.08 454.851 277.26 454.111C278.44 453.371 279.61 453.601 279.56 453.781Z" fill="#263238"/>
<path d="M283.75 455.521C283.75 455.711 282.95 456.041 282.28 456.861C281.61 457.681 281.43 458.561 281.28 458.551C281.13 458.541 280.97 457.441 281.81 456.431C282.65 455.421 283.74 455.341 283.75 455.521Z" fill="#263238"/>
<path d="M286.11 460.54C285.94 460.54 285.67 459.6 286.17 458.54C286.67 457.48 287.58 457.05 287.67 457.21C287.76 457.37 287.18 457.94 286.78 458.82C286.38 459.7 286.31 460.52 286.11 460.54Z" fill="#263238"/>
<path d="M279.22 449.08C279.14 449.26 278.22 448.99 277.14 449.08C276.06 449.17 275.14 449.5 275.08 449.33C275.02 449.16 275.81 448.47 277.08 448.4C278.35 448.33 279.32 448.93 279.22 449.08Z" fill="#263238"/>
<g opacity="0.3">
<path d="M279.54 437.5L279.4 441.16L259.79 440.95L259.77 437.65L279.54 437.5Z" fill="black"/>
</g>
<path d="M279.3 444.932C278.646 445.114 277.954 445.114 277.3 444.932C276.579 444.808 275.876 444.593 275.21 444.292C274.817 444.114 274.436 443.91 274.07 443.682C273.846 443.558 273.644 443.399 273.47 443.212C273.351 443.076 273.278 442.906 273.261 442.726C273.245 442.547 273.287 442.366 273.38 442.212C273.474 442.073 273.6 441.96 273.749 441.883C273.897 441.807 274.063 441.768 274.23 441.772C274.483 441.77 274.736 441.804 274.98 441.872C275.405 441.977 275.82 442.121 276.22 442.302C276.893 442.606 277.514 443.015 278.06 443.512C278.99 444.372 279.3 445.102 279.24 445.142C279.18 445.182 278.7 444.592 277.76 443.882C277.211 443.475 276.613 443.139 275.98 442.882C275.606 442.735 275.222 442.618 274.83 442.532C274.41 442.422 274.05 442.412 273.94 442.602C273.83 442.792 273.89 442.702 273.94 442.822C274.072 442.959 274.224 443.077 274.39 443.172C274.727 443.394 275.077 443.595 275.44 443.772C276.058 444.082 276.704 444.333 277.37 444.522C278.023 444.608 278.668 444.745 279.3 444.932Z" fill="#263238"/>
<path d="M279.05 445.211C278.669 444.642 278.483 443.965 278.52 443.281C278.49 442.54 278.584 441.8 278.8 441.091C278.931 440.672 279.102 440.267 279.31 439.881C279.42 439.618 279.595 439.389 279.819 439.214C280.043 439.038 280.309 438.924 280.59 438.881C280.765 438.893 280.934 438.951 281.08 439.049C281.226 439.148 281.343 439.283 281.42 439.441C281.521 439.674 281.592 439.919 281.63 440.171C281.695 440.619 281.695 441.073 281.63 441.521C281.515 442.267 281.22 442.974 280.77 443.581C279.99 444.581 279.17 444.841 279.16 444.781C279.15 444.721 279.77 444.311 280.37 443.311C280.718 442.742 280.936 442.104 281.01 441.441C281.064 441.056 281.064 440.666 281.01 440.281C280.95 439.861 280.79 439.521 280.63 439.561C280.47 439.601 280.1 439.871 279.93 440.211C279.734 440.555 279.57 440.917 279.44 441.291C279.209 441.934 279.074 442.608 279.04 443.291C279 444.451 279.15 445.181 279.05 445.211Z" fill="#263238"/>
<path d="M240.76 207.781C240.76 207.781 228.14 227.711 226.32 235.341C224.5 242.971 190.32 427.121 190.32 427.121L227.22 438.221L259.44 287.561L250 437.111C249.989 437.249 250.006 437.388 250.052 437.519C250.097 437.649 250.169 437.769 250.263 437.871C250.357 437.972 250.471 438.053 250.598 438.108C250.725 438.163 250.861 438.192 251 438.191L288.09 437.051C288.347 437.052 288.594 436.953 288.78 436.776C288.966 436.599 289.077 436.358 289.09 436.101C290 421.571 301.28 240.101 299.21 234.831C297.05 229.311 291.39 210.151 291.39 210.151L240.76 207.781Z" fill="#263238"/>
<path d="M213.54 146.061C211.54 147.531 211.45 150.431 211.88 152.861C212.31 155.291 213.09 157.861 212.24 160.131C211.554 161.542 210.69 162.859 209.67 164.051C208.78 165.341 208.1 166.981 208.67 168.461C209.67 171.211 213.98 171.461 215.07 174.171C215.69 175.721 214.98 177.471 214.13 178.901C213.28 180.331 212.23 181.761 212.13 183.431C212.116 184.06 212.236 184.686 212.48 185.267C212.724 185.847 213.087 186.37 213.546 186.801C214.006 187.232 214.551 187.562 215.146 187.768C215.741 187.975 216.372 188.054 217 188.001C218.8 187.731 220.21 186.381 221.74 185.401C223.27 184.421 225.42 183.821 226.81 185.001C228.44 186.391 227.81 189.001 227.81 191.111C227.797 192.277 228.095 193.425 228.673 194.437C229.251 195.45 230.089 196.29 231.1 196.871C232.136 197.406 233.334 197.539 234.462 197.243C235.59 196.948 236.569 196.245 237.21 195.271C237.77 194.271 238.01 192.881 239.08 192.451C240.42 191.901 241.72 193.311 243.13 193.661C243.927 193.79 244.745 193.654 245.458 193.275C246.171 192.896 246.741 192.294 247.08 191.561C247.725 190.07 247.869 188.41 247.49 186.831C246.35 180.561 241.7 175.621 238.61 170.051C236.115 165.553 234.624 160.569 234.24 155.441C234 152.281 234.24 149.101 233.91 145.951C233.773 142.769 232.732 139.692 230.91 137.081C228.98 134.581 225.72 132.921 222.63 133.591" fill="#407BFF"/>
<path d="M254.43 72.1502C244.8 71.8802 235.56 79.4302 233.91 88.9202C233.05 93.8502 233.97 99.2002 231.7 103.65C228.7 109.54 220.82 112.26 219.05 118.65C217.57 123.98 221.05 129.76 219.58 135.09C218.49 138.94 215.04 141.66 213.36 145.29C212.55 147.054 212.195 148.993 212.33 150.929C212.464 152.865 213.083 154.736 214.13 156.37C215.216 157.978 216.723 159.255 218.488 160.061C220.252 160.867 222.204 161.171 224.13 160.94C226.56 160.59 228.76 159.35 231.13 158.59C236.13 156.93 241.65 157.54 246.91 158.27C252.17 159 257.57 159.85 262.73 158.64C267.89 157.43 272.85 153.64 273.62 148.34C274.12 144.93 272.84 141.55 271.79 138.27C264.87 116.59 268 93.0002 263.16 70.7402" fill="#407BFF"/>
<path d="M280.07 82.7207C280.92 88.4407 282.47 94.1007 284.93 97.6407C286.93 100.491 290.79 102.131 291.38 105.551C291.87 108.441 290.15 111.311 290.43 114.221C290.87 118.811 295.93 121.611 297.36 125.991C298.56 129.641 296.91 133.771 294.13 136.411C291.35 139.051 287.63 140.461 283.92 141.461C278.63 142.881 272.22 143.321 268.42 139.361C265.82 136.661 265.23 132.641 264.91 128.901C264.02 118.901 264.06 108.831 264.09 98.7907" fill="#407BFF"/>
<path d="M245.49 92.3507C245.204 90.0596 245.382 87.7344 246.012 85.5132C246.642 83.292 247.713 81.2202 249.16 79.4208C250.606 77.6215 252.4 76.1312 254.434 75.0386C256.468 73.946 258.701 73.2734 261 73.0607C270.18 72.1907 278.34 79.0607 279.71 88.1407C280.92 96.1407 281.96 104.201 281.92 107.141C281.81 115.981 276.64 119.421 274.54 120.451C273.787 120.729 273.006 120.924 272.21 121.031C272.203 121.041 272.199 121.053 272.199 121.066C272.199 121.078 272.203 121.09 272.21 121.101L274.21 131.241C275.1 137.891 271.39 143.821 264.75 144.791C258.11 145.761 252.89 140.651 251.87 134.001L245.49 92.3507Z" fill="#FFBE9D"/>
<path d="M277.91 92.0007C277.77 92.2107 276.6 91.5807 275.11 91.8107C273.62 92.0407 272.62 92.9407 272.44 92.8107C272.26 92.6807 272.44 92.3907 272.9 91.9707C273.478 91.426 274.213 91.0763 275 90.9707C275.778 90.8506 276.574 90.9839 277.27 91.3507C277.78 91.6107 278 91.9107 277.91 92.0007Z" fill="#263238"/>
<path d="M264.43 94.6416C264.29 94.8516 263.12 94.2216 261.62 94.4416C260.12 94.6616 259.14 95.5716 258.95 95.4416C258.76 95.3116 258.95 95.0216 259.42 94.6016C260 94.0603 260.734 93.7111 261.52 93.6016C262.299 93.4839 263.095 93.6207 263.79 93.9916C264.3 94.2416 264.51 94.5516 264.43 94.6416Z" fill="#263238"/>
<path d="M270 103.26C270.751 102.9 271.543 102.634 272.36 102.47C272.74 102.38 273.09 102.25 273.12 101.98C273.093 101.58 272.947 101.197 272.7 100.88L271.14 98.1404C268.97 94.2304 267.34 90.9904 267.5 90.9004C267.66 90.8104 269.5 93.9004 271.72 97.8304L273.23 100.6C273.531 101.029 273.676 101.548 273.64 102.07C273.603 102.212 273.535 102.343 273.442 102.455C273.349 102.567 273.232 102.658 273.1 102.72C272.895 102.806 272.68 102.867 272.46 102.9C271.659 103.127 270.832 103.248 270 103.26Z" fill="#263238"/>
<path d="M272.12 121C272.12 121 266.42 122.32 258.56 119C258.56 119 261.95 126.3 272.65 123.7L272.12 121Z" fill="#EB996E"/>
<path d="M269.92 107C269.584 106.683 269.172 106.457 268.724 106.343C268.276 106.23 267.807 106.232 267.36 106.35C267.034 106.428 266.727 106.571 266.457 106.77C266.187 106.97 265.96 107.221 265.79 107.51C265.625 107.788 265.55 108.11 265.575 108.432C265.6 108.754 265.724 109.061 265.93 109.31C266.206 109.536 266.543 109.677 266.898 109.714C267.254 109.752 267.612 109.684 267.93 109.52C268.597 109.165 269.188 108.683 269.67 108.1C269.821 107.958 269.944 107.789 270.03 107.6C270.092 107.511 270.123 107.403 270.118 107.295C270.112 107.186 270.071 107.083 270 107" fill="#EB996E"/>
<path d="M265.78 104.941C266.02 104.941 266.26 106.511 267.78 107.461C269.3 108.411 271.03 107.981 271.08 108.211C271.13 108.441 270.74 108.581 270.01 108.711C269.063 108.858 268.094 108.671 267.27 108.181C266.484 107.685 265.921 106.904 265.7 106.001C265.54 105.381 265.66 105.001 265.78 104.941Z" fill="#263238"/>
<path d="M263.66 90.3713C263.57 90.8013 262.05 90.8213 260.33 91.2913C258.61 91.7613 257.25 92.4413 256.97 92.1113C256.84 91.9513 257.03 91.5313 257.54 91.1113C258.233 90.516 259.052 90.0868 259.936 89.8563C260.82 89.6258 261.745 89.6001 262.64 89.7813C263.33 89.8913 263.7 90.1713 263.66 90.3713Z" fill="#407BFF"/>
<path d="M276.65 87.8803C276.44 88.2603 275.35 88.0603 274.11 88.2203C272.87 88.3803 271.86 88.7803 271.56 88.4603C271.43 88.3103 271.56 87.9403 271.96 87.5503C272.522 87.066 273.221 86.7689 273.96 86.7003C274.69 86.6033 275.432 86.7399 276.08 87.0903C276.55 87.3703 276.74 87.7003 276.65 87.8803Z" fill="#407BFF"/>
<path d="M273.72 93.8611C273.662 94.22 273.746 94.5874 273.956 94.8846C274.165 95.1819 274.482 95.3852 274.84 95.4511C275.011 95.4912 275.189 95.4971 275.363 95.4686C275.536 95.44 275.703 95.3775 275.852 95.2846C276.002 95.1918 276.131 95.0704 276.234 94.9274C276.336 94.7844 276.41 94.6225 276.45 94.4511C276.503 94.0916 276.415 93.7255 276.204 93.4292C275.994 93.133 275.677 92.9295 275.32 92.8611C274.975 92.7832 274.614 92.8445 274.314 93.0318C274.014 93.2191 273.801 93.5172 273.72 93.8611Z" fill="#263238"/>
<path d="M260.32 96.5017C260.265 96.8605 260.352 97.2266 260.563 97.5219C260.774 97.8171 261.093 98.0181 261.45 98.0817C261.621 98.1217 261.798 98.1275 261.971 98.0988C262.144 98.0701 262.309 98.0075 262.458 97.9146C262.607 97.8216 262.735 97.7002 262.837 97.5573C262.939 97.4143 263.011 97.2527 263.05 97.0817C263.108 96.7229 263.024 96.3555 262.814 96.0582C262.605 95.761 262.287 95.5576 261.93 95.4917C261.758 95.4518 261.58 95.4463 261.405 95.4755C261.231 95.5047 261.064 95.568 260.915 95.6619C260.765 95.7558 260.636 95.8783 260.534 96.0224C260.431 96.1665 260.359 96.3294 260.32 96.5017Z" fill="#263238"/>
<path d="M246.46 134.311L273.62 128.741L279.53 128.541L279.11 146.541C279.11 146.541 264.17 151.181 263.62 151.471C263.07 151.761 253.29 151.471 253.29 151.471L246.46 134.311Z" fill="#FFBE9D"/>
<path d="M257.17 77.2913C255.539 79.2527 254.457 81.611 254.034 84.1263C253.611 86.6417 253.861 89.2242 254.76 91.6113C256.02 94.8013 258.47 97.7413 258.26 101.161C258 105.401 253.67 108.721 253.91 112.971C254.17 117.751 260.29 120.771 260.3 125.551C260.31 130.331 257.35 132.271 251.66 133.311C248.01 133.971 245.99 129.461 244.18 126.221C242.37 122.981 241.78 119.221 241.41 115.541C240.798 109.42 240.701 103.259 241.12 97.1213C241.47 92.1213 242.2 87.1213 244.77 82.8313C246.106 80.6573 247.876 78.7828 249.97 77.3253C252.065 75.8677 254.437 74.8586 256.94 74.3613" fill="#407BFF"/>
<path d="M281.42 86.1608C279.59 88.9508 273.79 87.2308 270.28 85.3108C268.455 86.4826 266.246 86.8968 264.121 86.4655C261.996 86.0341 260.123 84.7912 258.9 83.0008C256.9 85.5508 252.82 84.7108 251.34 81.8308C249.86 78.9508 250.69 74.9908 252.73 72.4708C254.791 70.1131 257.63 68.5731 260.73 68.1308C264.274 67.4457 267.941 67.8137 271.279 69.1891C274.616 70.5646 277.478 72.8874 279.51 75.8708C281.43 78.7808 282.59 82.7108 281.45 86.2008" fill="#407BFF"/>
<path d="M171.23 152.76L165.28 140.67L162.49 134.57C161.79 133.04 162.82 132.33 163.68 133.29C164.01 133.66 167.81 138.41 167.81 138.41L163.81 129.89C162.55 127.2 164.36 127.16 165.06 128.08C165.76 129 170.55 136.93 170.55 136.93C165.48 126.37 166.23 125.22 167.03 124.93C167.83 124.64 172.37 134.26 172.37 134.26C172.828 132.976 173.554 131.803 174.5 130.82C176.83 128.47 181.65 129.47 182.11 130.69C182.57 131.91 181.03 132.57 181.03 132.57C180.309 132.214 179.5 132.075 178.702 132.173C177.904 132.271 177.152 132.6 176.538 133.119C175.925 133.639 175.477 134.327 175.25 135.099C175.023 135.87 175.026 136.691 175.26 137.46C176.26 140.6 180.2 139.39 180.26 137.01C180.42 131.79 182.46 133.09 182.46 133.09L182.81 144.47L185.69 149.69L208.32 179.54L215 168.84L232.07 185.6L220.44 198.6C218.743 200.542 216.601 202.045 214.198 202.98C211.795 203.916 209.201 204.257 206.638 203.974C204.075 203.691 201.618 202.793 199.476 201.356C197.335 199.919 195.573 197.985 194.34 195.72L171.23 152.76Z" fill="#FFBE9D"/>
<path d="M337.74 131.291C316.2 130.051 281.47 127.291 278.74 128.221C278.74 128.221 281.16 144.221 266.51 146.531C251.86 148.841 246.51 134.311 246.51 134.311C246.51 134.311 231.51 138.581 225.95 147.801C220.39 157.021 213.56 167.341 213.56 167.341L233.7 187.141L239.33 180.961L243.4 194.481L240.81 207.781L291.49 210.151L294.99 151.901L337.79 148.381L337.74 131.291Z" fill="#455A64"/>
<path d="M233.66 161.781C233.81 161.781 236.08 168.861 238.72 177.691C241.36 186.521 243.38 193.691 243.23 193.761C243.08 193.831 240.81 186.691 238.17 177.851C235.53 169.011 233.51 161.831 233.66 161.781Z" fill="#263238"/>
<path d="M304.69 139.17C304.8 139.32 301.42 141.32 298.59 145.17C295.76 149.02 294.71 152.74 294.53 152.67C294.612 151.821 294.828 150.991 295.17 150.21C295.886 148.279 296.88 146.464 298.12 144.82C299.364 143.177 300.835 141.719 302.49 140.49C303.144 139.93 303.888 139.483 304.69 139.17Z" fill="#263238"/>
<path d="M256.94 173.131C256.911 173.086 256.894 173.034 256.89 172.981C256.88 172.959 256.875 172.935 256.875 172.911C256.875 172.887 256.88 172.863 256.89 172.841C256.896 172.786 256.92 172.735 256.958 172.695C256.996 172.656 257.046 172.629 257.1 172.621C257.162 172.614 257.225 172.622 257.283 172.643C257.342 172.663 257.396 172.697 257.44 172.741C257.474 172.774 257.511 172.804 257.55 172.831C257.712 173.001 257.91 173.133 258.13 173.216C258.35 173.299 258.586 173.332 258.82 173.311C258.99 173.279 259.152 173.211 259.295 173.113C259.438 173.015 259.559 172.888 259.65 172.741C259.747 172.595 259.812 172.432 259.843 172.26C259.874 172.088 259.87 171.911 259.83 171.741C259.775 171.468 259.635 171.22 259.43 171.031C259.202 170.853 258.94 170.723 258.66 170.651C258.29 170.521 258.07 170.451 258 170.411C257.847 170.353 257.703 170.275 257.57 170.181C257.417 170.076 257.286 169.942 257.186 169.785C257.087 169.629 257.02 169.454 256.99 169.271V169.111C256.935 168.697 257.043 168.278 257.29 167.941C257.525 167.596 257.882 167.353 258.29 167.261C258.472 167.231 258.658 167.231 258.84 167.261C259.22 167.289 259.576 167.456 259.84 167.731C259.879 167.782 259.91 167.84 259.93 167.901C259.944 167.953 259.944 168.009 259.93 168.061C259.913 168.113 259.882 168.159 259.842 168.196C259.802 168.233 259.753 168.258 259.7 168.271C259.664 168.289 259.625 168.299 259.585 168.299C259.545 168.299 259.505 168.289 259.47 168.271C259.337 168.148 259.178 168.055 259.005 168C258.833 167.945 258.65 167.928 258.47 167.951C258.217 168.005 257.994 168.156 257.85 168.371C257.761 168.49 257.7 168.627 257.67 168.772C257.641 168.917 257.644 169.067 257.68 169.211C257.713 169.391 257.809 169.554 257.95 169.671C258.166 169.826 258.406 169.944 258.66 170.021C258.949 170.106 259.23 170.217 259.5 170.351C259.773 170.464 260.014 170.642 260.204 170.868C260.393 171.094 260.526 171.363 260.59 171.651C260.605 171.777 260.605 171.905 260.59 172.031C260.596 172.488 260.436 172.932 260.14 173.281C259.855 173.646 259.452 173.9 259 174.001C258.694 174.064 258.377 174.047 258.08 173.951C257.623 173.804 257.225 173.517 256.94 173.131Z" fill="white"/>
<path d="M266.32 172.001C266.33 172.044 266.331 172.088 266.324 172.132C266.316 172.175 266.299 172.216 266.275 172.253C266.25 172.29 266.219 172.321 266.182 172.344C266.145 172.368 266.103 172.384 266.06 172.391C266.002 172.412 265.938 172.412 265.88 172.391C265.815 172.365 265.758 172.321 265.716 172.264C265.673 172.208 265.647 172.141 265.64 172.071C265.64 172.021 265.52 170.851 265.31 168.571C264.94 170.101 264.65 171.311 264.45 172.191C264.4 172.381 264.38 172.491 264.37 172.511C264.357 172.584 264.324 172.652 264.275 172.707C264.225 172.762 264.161 172.801 264.09 172.821H264C263.93 172.814 263.863 172.788 263.807 172.745C263.75 172.703 263.707 172.646 263.68 172.581L262.2 169.201C262.31 170.501 262.39 171.711 262.44 172.801C262.44 173.021 262.37 173.151 262.17 173.191C262.112 173.211 262.048 173.211 261.99 173.191C261.925 173.165 261.868 173.121 261.826 173.064C261.783 173.008 261.757 172.941 261.75 172.871C261.75 172.871 261.62 171.301 261.39 168.241C261.33 167.451 261.3 167.031 261.3 166.971C261.284 166.923 261.284 166.87 261.3 166.821C261.315 166.761 261.348 166.707 261.395 166.666C261.441 166.625 261.499 166.599 261.56 166.591H261.66C261.709 166.588 261.758 166.6 261.801 166.625C261.844 166.65 261.878 166.687 261.9 166.731L263.02 169.341L263.88 171.341L265.13 166.081C265.122 166.048 265.122 166.014 265.13 165.981C265.152 165.926 265.187 165.877 265.232 165.839C265.278 165.8 265.332 165.774 265.39 165.761C265.442 165.746 265.498 165.746 265.55 165.761C265.61 165.777 265.665 165.808 265.709 165.852C265.753 165.896 265.784 165.951 265.8 166.011C265.8 166.091 265.8 166.191 265.8 166.291C266.133 169.678 266.307 171.581 266.32 172.001Z" fill="white"/>
<path d="M268.65 171.52C268.65 171.75 268.56 171.89 268.38 171.93C268.318 171.95 268.252 171.95 268.19 171.93C268.127 171.901 268.073 171.856 268.033 171.8C267.992 171.744 267.967 171.679 267.96 171.61L267.52 165.71C267.515 165.667 267.515 165.623 267.52 165.58C267.529 165.513 267.559 165.451 267.606 165.403C267.653 165.354 267.714 165.322 267.78 165.31C267.835 165.295 267.894 165.295 267.95 165.31C268.006 165.322 268.058 165.35 268.099 165.391C268.139 165.432 268.168 165.484 268.18 165.54C268.486 169.393 268.643 171.387 268.65 171.52Z" fill="white"/>
<path d="M273.48 170.85L270.67 171.44C270.608 171.459 270.542 171.459 270.48 171.44C270.423 171.406 270.373 171.361 270.334 171.308C270.294 171.255 270.266 171.194 270.25 171.13C270.25 171.023 270.103 169.057 269.81 165.23C269.81 165.23 269.81 165.15 269.81 165.11C269.819 165.043 269.849 164.981 269.896 164.933C269.943 164.884 270.004 164.852 270.07 164.84H270.23C270.29 164.857 270.344 164.89 270.386 164.936C270.429 164.982 270.458 165.039 270.47 165.1C270.47 165.36 270.55 165.9 270.61 166.72C270.81 169.23 270.91 170.56 270.93 170.72L273.31 170.22C273.372 170.205 273.437 170.205 273.5 170.22C273.569 170.231 273.632 170.263 273.682 170.311C273.732 170.359 273.766 170.422 273.78 170.49C273.795 170.584 273.773 170.68 273.719 170.758C273.665 170.836 273.583 170.89 273.49 170.91L273.48 170.85Z" fill="white"/>
<path d="M274.35 163.911L277.02 163.351C277.073 163.341 277.127 163.341 277.18 163.351C277.254 163.353 277.325 163.381 277.38 163.43C277.435 163.48 277.47 163.547 277.48 163.621C277.49 163.664 277.49 163.708 277.48 163.751C277.462 163.821 277.426 163.885 277.375 163.936C277.324 163.987 277.26 164.023 277.19 164.041L274.79 164.551L274.97 166.891L276.7 166.521H276.89C276.958 166.531 277.021 166.563 277.07 166.611C277.118 166.66 277.15 166.723 277.16 166.791C277.17 166.827 277.17 166.865 277.16 166.901C277.146 166.974 277.111 167.041 277.06 167.094C277.008 167.148 276.942 167.185 276.87 167.201L275.03 167.591L275.2 169.781L277.58 169.281C277.639 169.266 277.701 169.266 277.76 169.281C277.832 169.287 277.899 169.317 277.952 169.366C278.004 169.415 278.039 169.48 278.05 169.551V169.661C278.037 169.735 278.002 169.804 277.951 169.859C277.899 169.914 277.833 169.953 277.76 169.971L274.98 170.551C274.915 170.571 274.845 170.571 274.78 170.551C274.717 170.522 274.663 170.477 274.623 170.421C274.583 170.365 274.557 170.3 274.55 170.231C274.55 170.231 274.38 168.231 274.08 164.331C274.075 164.291 274.075 164.251 274.08 164.211C274.085 164.138 274.115 164.069 274.164 164.015C274.213 163.961 274.278 163.924 274.35 163.911Z" fill="white"/>
<path d="M282.23 162.271C282.282 162.256 282.337 162.256 282.39 162.271C282.448 162.289 282.5 162.321 282.542 162.365C282.584 162.409 282.614 162.462 282.63 162.521C282.93 166.241 283.09 168.241 283.11 168.521C283.144 169.088 283.048 169.656 282.83 170.181C282.682 170.519 282.451 170.815 282.16 171.042C281.868 171.269 281.524 171.42 281.16 171.481C280.777 171.532 280.387 171.495 280.02 171.374C279.652 171.253 279.317 171.05 279.04 170.781C279.006 170.732 278.983 170.678 278.97 170.621C278.955 170.562 278.955 170.5 278.97 170.441C278.988 170.385 279.021 170.335 279.065 170.297C279.109 170.258 279.162 170.232 279.22 170.221C279.271 170.211 279.324 170.213 279.374 170.227C279.424 170.241 279.471 170.266 279.51 170.301C279.717 170.51 279.971 170.667 280.251 170.758C280.531 170.848 280.829 170.87 281.12 170.821C281.336 170.772 281.539 170.675 281.712 170.536C281.886 170.397 282.025 170.221 282.12 170.021C282.395 169.428 282.483 168.765 282.37 168.121C282.293 168.313 282.184 168.492 282.05 168.651C281.801 168.925 281.472 169.114 281.11 169.191H280.92C280.687 169.199 280.456 169.155 280.243 169.062C280.03 168.968 279.841 168.828 279.69 168.651C279.244 168.152 278.946 167.539 278.83 166.881C278.76 166.541 278.7 166.191 278.66 165.821C278.59 165.241 278.55 164.411 278.53 163.321C278.525 163.287 278.525 163.254 278.53 163.221C278.533 163.151 278.559 163.085 278.605 163.032C278.65 162.98 278.712 162.944 278.78 162.931C278.836 162.916 278.894 162.916 278.95 162.931C279.005 162.943 279.055 162.972 279.094 163.013C279.133 163.054 279.16 163.105 279.17 163.161C279.236 163.594 279.276 164.032 279.29 164.471C279.316 165.14 279.379 165.808 279.48 166.471C279.57 166.994 279.764 167.493 280.05 167.941C280.146 168.116 280.293 168.258 280.472 168.349C280.65 168.44 280.851 168.475 281.05 168.451H281.16C281.488 168.264 281.734 167.96 281.85 167.601C282.086 167.068 282.212 166.493 282.22 165.911L281.97 162.631C281.965 162.581 281.965 162.53 281.97 162.481C281.99 162.425 282.024 162.376 282.07 162.339C282.116 162.302 282.171 162.278 282.23 162.271Z" fill="white"/>
<path d="M259.48 123.15C261.39 125.74 260.68 129.4 259.42 132.35C258.16 135.3 256.42 138.2 256.42 141.41C256.42 144.41 257.96 147.21 259.15 150C260.34 152.79 261.15 156.09 259.72 158.76C258.16 161.66 254.37 163.01 253.29 166.12C252.01 169.82 255.29 174.22 253.35 177.64C252.05 179.99 248.65 180.64 246.28 179.32C245.136 178.608 244.175 177.638 243.472 176.489C242.769 175.34 242.343 174.043 242.23 172.7C242.03 170.008 242.298 167.301 243.02 164.7C243.86 160.91 244.71 156.58 242.44 153.43C241.1 151.58 238.8 150.43 238.06 148.23C237.18 145.67 238.89 142.95 240.81 141.04C242.73 139.13 245.05 137.37 245.81 134.78C246.271 132.754 246.164 130.639 245.5 128.67C244.847 126.702 244.51 124.643 244.5 122.57C244.64 120.51 245.79 118.35 247.76 117.73C250.54 116.85 253.18 119.24 255.12 121.41" fill="#407BFF"/>
<path d="M233.65 219.701C233.65 220.431 266.07 219.701 266.07 219.701L267.33 211.791L241.48 204.031C241.48 204.031 234 213.151 233.65 219.701Z" fill="#407BFF"/>
<path d="M267.33 211.811L291.68 206.211C291.68 206.211 298.3 217.531 297.01 228.211L266.07 219.671L267.33 211.811Z" fill="#407BFF"/>
<path d="M270.43 218.241C272.621 219.442 274.436 221.228 275.672 223.4C276.908 225.571 277.517 228.044 277.43 230.541C277.35 232.121 276.98 233.691 277.01 235.271C276.973 236.063 277.117 236.852 277.43 237.58C277.744 238.308 278.219 238.954 278.82 239.471C280.14 240.471 282.33 240.771 282.49 242.391C282.491 243.1 282.223 243.783 281.74 244.301C280.33 246.111 277.99 247.511 275.74 246.881C273.28 246.191 272.1 243.431 271.44 240.951C269.44 233.321 269.21 225.341 269.01 217.451" fill="#407BFF"/>
<g opacity="0.3">
<path d="M271 218.58C273.11 219.749 274.837 221.505 275.971 223.634C277.105 225.764 277.598 228.176 277.39 230.58C277.31 232.16 276.94 233.73 276.97 235.31C276.933 236.102 277.077 236.891 277.391 237.619C277.704 238.347 278.179 238.993 278.78 239.51C280.1 240.51 282.29 240.81 282.45 242.43C282.452 243.139 282.184 243.822 281.7 244.34C280.29 246.15 277.95 247.55 275.7 246.92C273.24 246.23 272.06 243.47 271.4 240.99C269.4 233.36 270.13 227.87 269.93 219.99" fill="black"/>
</g>
<path d="M264 218.07C259.185 228.665 258.473 240.67 262 251.76C262.295 253.092 263.014 254.292 264.05 255.18C265.84 256.45 268.3 255.72 270.35 254.96C272.98 253.96 275.9 252.72 276.89 250.09C277.371 248.623 277.354 247.037 276.84 245.58C275.96 242.66 273.99 240.12 273.33 237.15C272.74 234.46 273.26 231.67 273.12 228.93C272.983 226.519 272.338 224.164 271.226 222.02C270.114 219.876 268.562 217.992 266.67 216.49" fill="#407BFF"/>
<g opacity="0.3">
<path d="M263.33 219.002C263.442 219.577 263.679 220.121 264.025 220.594C264.371 221.068 264.816 221.459 265.33 221.742C265.854 222.013 266.439 222.146 267.029 222.126C267.619 222.107 268.195 221.937 268.7 221.632C269.196 221.32 269.591 220.87 269.834 220.337C270.078 219.804 270.16 219.211 270.07 218.632C269.125 219.512 267.882 220.002 266.59 220.002C265.296 220.002 264.052 219.5 263.12 218.602" fill="black"/>
</g>
<path d="M271.36 214.852C270.59 212.682 267.81 210.582 265.53 210.902H265.58C264.905 210.908 264.243 211.088 263.658 211.424C263.073 211.761 262.585 212.242 262.24 212.822C261.811 213.792 261.664 214.863 261.818 215.913C261.971 216.963 262.418 217.948 263.107 218.754C263.795 219.561 264.698 220.157 265.71 220.473C266.723 220.789 267.804 220.813 268.83 220.542C269.882 220.076 270.724 219.235 271.191 218.184C271.659 217.133 271.719 215.945 271.36 214.852Z" fill="#407BFF"/>
<path d="M262.72 218.7C263.107 218.869 263.47 219.087 263.8 219.35C264.716 220.003 265.782 220.416 266.9 220.55C267.657 220.632 268.421 220.504 269.11 220.18C269.872 219.776 270.451 219.096 270.73 218.28C271.062 217.338 271.145 216.326 270.969 215.343C270.794 214.36 270.367 213.439 269.73 212.67C269.082 211.913 268.225 211.363 267.266 211.091C266.307 210.819 265.289 210.836 264.34 211.14C263.573 211.408 262.89 211.875 262.363 212.494C261.836 213.112 261.483 213.86 261.34 214.66C261.178 215.77 261.434 216.9 262.06 217.83C262.312 218.162 262.582 218.479 262.87 218.78C262.87 218.78 262.76 218.78 262.58 218.62C262.326 218.426 262.097 218.201 261.9 217.95C261.162 217.003 260.828 215.802 260.97 214.61C261.109 213.728 261.482 212.899 262.05 212.209C262.618 211.52 263.36 210.995 264.2 210.69C265.24 210.336 266.363 210.304 267.422 210.596C268.482 210.889 269.428 211.493 270.14 212.33C270.844 213.166 271.313 214.174 271.501 215.251C271.689 216.328 271.589 217.435 271.21 218.46C270.884 219.379 270.213 220.136 269.34 220.57C268.577 220.906 267.736 221.024 266.91 220.91C265.74 220.751 264.637 220.266 263.73 219.51C263.365 219.277 263.026 219.006 262.72 218.7Z" fill="#263238"/>
<path d="M266.7 210.801C266.75 210.871 266.26 211.221 265.7 211.951C264.933 212.899 264.436 214.035 264.26 215.241C264.115 216.452 264.305 217.68 264.81 218.791C265.19 219.651 265.58 220.121 265.52 220.171C265.46 220.221 264.98 219.831 264.52 218.961C263.873 217.814 263.613 216.488 263.78 215.181C263.962 213.875 264.553 212.66 265.47 211.711C266.09 211.001 266.67 210.751 266.7 210.801Z" fill="#263238"/>
<path d="M276.63 243.79C276.63 243.79 276.56 244.04 276.35 244.44C276.048 245.004 275.696 245.539 275.3 246.04C274.005 247.724 272.395 249.141 270.56 250.21C268.713 251.288 266.676 252.001 264.56 252.31C263.924 252.4 263.282 252.44 262.64 252.43C262.19 252.43 261.94 252.43 261.94 252.36C261.94 252.29 262.94 252.25 264.49 251.94C268.583 251.138 272.286 248.978 275 245.81C276 244.6 276.55 243.75 276.63 243.79Z" fill="#263238"/>
<path d="M268.5 255.641C268.45 255.771 267.39 255.301 266.75 254.101C266.516 253.769 266.364 253.388 266.305 252.987C266.246 252.585 266.282 252.176 266.41 251.791C266.56 251.791 266.62 252.791 267.2 253.851C267.78 254.911 268.58 255.511 268.5 255.641Z" fill="#263238"/>
<path d="M273.23 252.73C273.23 252.86 272.15 252.58 271.48 251.53C270.81 250.48 270.95 249.41 271.09 249.44C271.23 249.47 271.32 250.35 271.91 251.24C272.5 252.13 273.29 252.59 273.23 252.73Z" fill="#263238"/>
<path d="M276 251.651C275.858 250.888 275.661 250.136 275.41 249.401C274.9 248.231 274.33 247.301 274.47 247.211C275.132 247.721 275.627 248.417 275.89 249.211C276.135 249.757 276.252 250.353 276.23 250.951C276.18 251.401 276.05 251.671 276 251.651Z" fill="#263238"/>
<path d="M269.86 243.811C269.676 243.569 269.524 243.303 269.41 243.021C269.034 242.287 268.7 241.533 268.41 240.761C266.477 235.663 265.745 230.188 266.27 224.761C266.38 223.761 266.5 222.891 266.62 222.321C266.646 222.02 266.723 221.726 266.85 221.451C266.93 221.451 266.75 222.731 266.64 224.791C266.494 227.461 266.594 230.139 266.94 232.791C267.301 235.446 267.91 238.061 268.76 240.601C269.43 242.591 269.94 243.771 269.86 243.811Z" fill="#263238"/>
<g opacity="0.3">
<path d="M266.65 222.291C264.67 227.984 264.67 234.178 266.65 239.871C266.75 240.161 266.88 240.491 267.17 240.591C267.26 240.612 267.353 240.614 267.444 240.599C267.535 240.583 267.622 240.55 267.7 240.501C267.778 240.452 267.846 240.387 267.899 240.312C267.952 240.236 267.99 240.151 268.01 240.061C268.086 239.691 268.062 239.308 267.94 238.951C266.71 233.801 265.79 227.641 266.72 222.421" fill="black"/>
</g>
<path d="M246.66 213.001C247.345 212.821 248.052 212.74 248.76 212.761C250.454 212.709 252.149 212.793 253.83 213.011C255.524 213.225 257.196 213.583 258.83 214.081C259.531 214.236 260.205 214.496 260.83 214.851C260.83 215.001 257.72 214.031 253.83 213.531C249.94 213.031 246.67 213.141 246.66 213.001Z" fill="#263238"/>
<path d="M281.58 213.191C281.58 213.341 279.24 213.571 276.41 214.141C273.58 214.711 271.32 215.401 271.27 215.261C272.835 214.447 274.525 213.896 276.27 213.631C278.005 213.201 279.798 213.052 281.58 213.191Z" fill="#263238"/>
<path d="M291.57 220.25C290.57 219.979 289.588 219.645 288.63 219.25C286.283 218.415 283.889 217.721 281.46 217.17C279.026 216.632 276.561 216.241 274.08 216C273.044 215.954 272.013 215.847 270.99 215.68C272.027 215.565 273.073 215.565 274.11 215.68C276.62 215.804 279.115 216.139 281.57 216.68C284.026 217.224 286.431 217.977 288.76 218.93C289.741 219.268 290.683 219.711 291.57 220.25Z" fill="#263238"/>
<g opacity="0.3">
<path d="M282.49 208.441C283.03 216.881 287.78 223.251 294.94 227.761L297.01 228.261C297.17 227.941 296.9 227.071 296.78 226.731C295.292 222.503 293.477 218.397 291.35 214.451C290.35 212.681 289.94 208.331 288.47 206.951L282.47 208.441" fill="black"/>
</g>
<path d="M264 256.881C264.14 256.881 263.08 264.311 261.63 273.441C260.18 282.571 258.9 289.941 258.76 289.921C258.62 289.901 259.67 282.481 261.12 273.351C262.57 264.221 263.89 256.851 264 256.881Z" fill="#455A64"/>
<path d="M249.22 212.361C249.17 212.361 248.95 212.131 248.77 211.621C248.544 210.951 248.506 210.232 248.66 209.541C248.821 208.843 249.166 208.2 249.66 207.681C250.04 207.291 250.35 207.151 250.38 207.201C249.81 207.918 249.413 208.756 249.22 209.651C249.028 210.546 249.045 211.474 249.27 212.361H249.22Z" fill="#FAFAFA"/>
<path d="M251.67 219.771C251.67 219.771 251.29 219.601 250.95 219.061C250.514 218.338 250.361 217.48 250.519 216.651C250.678 215.822 251.138 215.082 251.81 214.571C252.32 214.191 252.72 214.121 252.74 214.181C252.76 214.241 252.45 214.441 252.05 214.851C251.531 215.361 251.18 216.017 251.043 216.731C250.905 217.446 250.988 218.185 251.28 218.851C251.5 219.421 251.73 219.711 251.67 219.771Z" fill="#FAFAFA"/>
<path d="M259.57 219.661C259.57 219.711 259.23 219.601 258.88 219.211C258.449 218.686 258.21 218.03 258.2 217.351C258.173 216.67 258.386 216.002 258.8 215.461C259.13 215.061 259.43 214.931 259.47 214.981C259.51 215.031 259.32 215.261 259.11 215.661C258.841 216.177 258.707 216.753 258.719 217.335C258.732 217.917 258.89 218.486 259.18 218.991C259.41 219.381 259.62 219.591 259.57 219.661Z" fill="#FAFAFA"/>
<path d="M239.88 219.931C239.596 219.191 239.454 218.404 239.46 217.611C239.254 213.765 240.491 209.981 242.93 207.001C243.399 206.367 243.974 205.819 244.63 205.381C244.69 205.451 244.06 206.081 243.22 207.231C242.132 208.732 241.282 210.391 240.7 212.151C240.127 213.911 239.833 215.75 239.83 217.601C239.83 219.001 240 219.911 239.88 219.931Z" fill="#FAFAFA"/>
<path d="M256.07 214.68C256.07 214.68 255.74 214.51 255.49 214.01C255.186 213.334 255.112 212.578 255.278 211.855C255.444 211.133 255.842 210.485 256.41 210.01C256.86 209.67 257.22 209.61 257.24 209.66C257.26 209.71 257 209.91 256.66 210.28C256.231 210.762 255.929 211.342 255.78 211.97C255.641 212.598 255.658 213.25 255.83 213.87C256 214.35 256.14 214.63 256.07 214.68Z" fill="#FAFAFA"/>
<path d="M278.56 213.001C278.42 213.001 278.56 212.131 278.41 211.131C278.26 210.131 277.92 209.371 278.05 209.291C278.18 209.211 278.78 209.931 278.93 211.061C279.08 212.191 278.69 213.001 278.56 213.001Z" fill="#FAFAFA"/>
<path d="M280.42 216.34C280.36 216.47 279.66 216.13 279.42 215.29C279.18 214.45 279.51 213.76 279.64 213.82C279.77 213.88 279.64 214.46 279.92 215.13C280.2 215.8 280.51 216.22 280.42 216.34Z" fill="#FAFAFA"/>
<path d="M283.87 224.641C283.69 224.641 284.32 223.041 284.18 221.111C284.04 219.181 283.18 217.771 283.3 217.691C284.151 218.617 284.647 219.815 284.7 221.071C284.85 222.322 284.556 223.585 283.87 224.641Z" fill="#FAFAFA"/>
<path d="M266.68 233.24C266.68 233.24 266.42 233.57 265.82 233.85C265.039 234.201 264.185 234.358 263.33 234.31C262.473 234.271 261.637 234.031 260.89 233.61C260.33 233.27 260.06 232.96 260.1 232.91C261.109 233.434 262.219 233.734 263.354 233.791C264.489 233.848 265.623 233.66 266.68 233.24Z" fill="#FAFAFA"/>
<path d="M272.51 228.122C271.501 227.847 270.453 227.746 269.41 227.822C268.395 228.045 267.423 228.43 266.53 228.962C266.53 228.962 266.67 228.592 267.15 228.212C267.791 227.727 268.546 227.414 269.342 227.302C270.138 227.19 270.95 227.283 271.7 227.572C272.26 227.802 272.54 228.062 272.51 228.122Z" fill="#FAFAFA"/>
<path d="M268.44 241.51C268.49 241.51 268.33 242.02 267.85 242.68C267.197 243.533 266.35 244.219 265.38 244.68C264.417 245.154 263.353 245.387 262.28 245.36C261.834 245.383 261.389 245.29 260.99 245.09C262.429 245.138 263.859 244.837 265.156 244.212C266.454 243.586 267.581 242.656 268.44 241.5V241.51Z" fill="#FAFAFA"/>
<path d="M273.66 238.451C273.66 238.611 272.31 238.391 270.77 238.821C269.851 239.154 268.953 239.542 268.08 239.981C268.737 239.179 269.626 238.601 270.626 238.326C271.626 238.052 272.686 238.096 273.66 238.451Z" fill="#FAFAFA"/>
<path d="M234.16 219.89C233.489 219.292 233.018 218.502 232.811 217.627C232.603 216.753 232.669 215.836 233 215C233.15 215 233 216.18 233.34 217.52C233.68 218.86 234.28 219.79 234.16 219.89Z" fill="#FAFAFA"/>
<path d="M397.68 168.932C396.774 167.963 396.239 166.706 396.17 165.382C396.108 164.067 395.876 162.766 395.48 161.512C395.317 161.041 395.026 160.626 394.64 160.312C394.445 160.157 394.214 160.056 393.968 160.02C393.722 159.983 393.471 160.011 393.24 160.102C393.003 160.23 392.805 160.421 392.667 160.653C392.53 160.886 392.458 161.151 392.46 161.422C392.54 163.29 392.72 165.153 393 167.002L397.68 168.932Z" fill="#FFBE9D"/>
<path d="M397.68 168.93C397.68 168.93 397.29 168.79 396.47 168.51C395.65 168.23 394.4 167.8 392.92 167.21H392.81V167.12C392.62 166.104 392.484 165.08 392.4 164.05C392.4 163.5 392.31 162.94 392.26 162.36C392.244 162.057 392.244 161.753 392.26 161.45C392.267 161.097 392.367 160.752 392.55 160.45C392.674 160.243 392.848 160.07 393.056 159.948C393.263 159.826 393.499 159.758 393.74 159.75C394.192 159.748 394.63 159.911 394.97 160.21C395.512 160.758 395.88 161.454 396.03 162.21C396.36 163.6 396.33 164.86 396.5 165.88C396.624 166.977 397.053 168.016 397.74 168.88L397.53 168.76C397.355 168.608 397.197 168.437 397.06 168.25C396.583 167.547 396.266 166.748 396.13 165.91C395.91 164.86 395.9 163.6 395.56 162.3C395.429 161.635 395.106 161.023 394.63 160.54C394.528 160.416 394.398 160.319 394.251 160.256C394.104 160.193 393.944 160.166 393.784 160.178C393.624 160.189 393.469 160.239 393.333 160.323C393.197 160.407 393.082 160.523 393 160.66C392.761 161.15 392.694 161.707 392.81 162.24L392.94 163.92C393.04 164.99 393.11 166.06 393.26 166.92L393.14 166.79C394.48 167.36 395.56 167.9 396.38 168.29L397.68 168.93Z" fill="#EB996E"/>
<path d="M397.065 201.175C404.875 170.126 386.037 138.625 354.988 130.814C323.939 123.004 292.438 141.842 284.628 172.891C276.817 203.939 295.656 235.441 326.704 243.251C357.753 251.062 389.254 232.223 397.065 201.175Z" fill="#407BFF"/>
<g opacity="0.3">
<path d="M394.3 181.221C394.99 181.221 395.79 182.711 396.3 185.651C396.952 189.834 396.894 194.097 396.13 198.261C395.96 199.601 395.58 200.951 395.26 202.391C394.94 203.831 394.42 205.281 393.94 206.801C392.79 210.002 391.358 213.094 389.66 216.041C385.736 222.913 380.347 228.837 373.877 233.392C367.406 237.948 360.012 241.023 352.22 242.401C348.875 243.013 345.481 243.321 342.08 243.321C339.135 243.291 336.199 243.017 333.3 242.501C329.126 241.818 325.097 240.438 321.38 238.421C318.79 236.921 317.62 235.651 317.89 235.011C318.49 233.551 324.52 235.231 333.97 235.171C336.526 235.144 339.08 234.984 341.62 234.691C344.497 234.329 347.347 233.774 350.15 233.031C362.979 229.784 374.158 221.914 381.54 210.931C383.177 208.54 384.657 206.044 385.97 203.461C386.54 202.221 387.15 201.031 387.64 199.851C388.13 198.671 388.64 197.541 388.99 196.421C392.27 187.541 392.72 181.291 394.3 181.221Z" fill="black"/>
</g>
<g opacity="0.3">
<path d="M338.2 133.47C338.2 133.66 336.93 133.73 334.69 133.9C331.537 134.136 328.409 134.638 325.34 135.4C323.235 135.943 321.165 136.611 319.14 137.4C316.827 138.307 314.582 139.377 312.42 140.6C302.408 146.186 294.804 155.264 291.06 166.1C290.222 168.439 289.553 170.835 289.06 173.27C288.644 175.401 288.36 177.555 288.21 179.72C287.993 182.872 288.047 186.037 288.37 189.18C288.6 191.42 288.75 192.68 288.56 192.72C288.37 192.76 287.91 191.59 287.37 189.35C286.646 186.169 286.31 182.912 286.37 179.65C286.401 177.39 286.588 175.135 286.93 172.9C287.344 170.329 287.959 167.795 288.77 165.32C292.472 153.79 300.536 144.165 311.24 138.5C313.537 137.277 315.924 136.23 318.38 135.37C320.543 134.628 322.755 134.037 325 133.6C328.199 132.968 331.463 132.73 334.72 132.89C337 133 338.22 133.31 338.2 133.47Z" fill="white"/>
</g>
<g opacity="0.3">
<path d="M293.17 206.852C292.58 207.252 290.88 205.722 290 203.162C289.12 200.602 289.51 198.362 290.22 198.312C290.93 198.262 291.69 200.102 292.47 202.312C293.25 204.522 293.78 206.452 293.17 206.852Z" fill="white"/>
</g>
<path d="M358.22 179.83C358.059 180.383 357.798 180.901 357.45 181.36C356.605 182.682 355.597 183.891 354.45 184.96C350.673 188.583 345.716 190.721 340.49 190.982C335.263 191.243 330.118 189.609 326 186.38C324.765 185.425 323.65 184.324 322.68 183.1C322.29 182.677 321.981 182.186 321.77 181.65C321.92 181.52 323.31 183.55 326.44 185.79C328.269 187.071 330.273 188.081 332.39 188.79C337.604 190.614 343.325 190.327 348.33 187.99C350.368 187.066 352.261 185.85 353.95 184.38C356.88 181.88 358.05 179.72 358.22 179.83Z" fill="white"/>
<path d="M376.49 171.692C376.28 171.692 376.25 169.912 374.74 167.692C373.862 166.389 372.708 165.297 371.36 164.492C369.75 163.465 367.85 162.989 365.947 163.133C364.043 163.277 362.237 164.035 360.8 165.292C359.591 166.293 358.615 167.545 357.94 168.962C356.78 171.422 357.03 173.222 356.82 173.212C356.61 173.202 356.65 172.792 356.62 171.992C356.613 170.854 356.83 169.726 357.26 168.672C357.895 167.09 358.895 165.682 360.18 164.562C361.743 163.121 363.747 162.251 365.867 162.091C367.987 161.931 370.098 162.492 371.86 163.682C373.299 164.592 374.499 165.833 375.36 167.302C375.946 168.276 376.334 169.357 376.5 170.482C376.6 171.252 376.55 171.692 376.49 171.692Z" fill="white"/>
<path d="M321 173.571C320.8 173.571 320.77 171.801 319.26 169.571C318.378 168.271 317.22 167.182 315.87 166.381C314.264 165.347 312.365 164.866 310.461 165.011C308.556 165.155 306.751 165.917 305.32 167.181C304.104 168.177 303.124 169.431 302.45 170.851C301.3 173.311 301.54 175.101 301.34 175.091C301.14 175.081 301.16 174.671 301.14 173.871C301.133 172.736 301.35 171.611 301.78 170.561C302.406 168.975 303.408 167.564 304.7 166.451C306.264 165.012 308.267 164.142 310.385 163.98C312.504 163.819 314.616 164.376 316.38 165.561C317.819 166.471 319.019 167.712 319.88 169.181C320.468 170.158 320.856 171.242 321.02 172.371C321.12 173.131 321.07 173.571 321 173.571Z" fill="white"/>
<path d="M399 164.761C397 167.021 394.92 169.141 393.13 171.561C392.68 172.171 392.21 172.971 392.57 173.641C392.711 173.866 392.915 174.045 393.157 174.155C393.399 174.265 393.667 174.302 393.93 174.261C394.454 174.169 394.946 173.945 395.36 173.611C397.57 172.041 399.03 169.611 400.44 167.321C400.686 167.023 400.859 166.672 400.946 166.295C401.033 165.919 401.031 165.527 400.94 165.151C400.852 164.983 400.728 164.836 400.576 164.722C400.425 164.608 400.249 164.529 400.063 164.492C399.877 164.454 399.685 164.459 399.501 164.506C399.317 164.552 399.146 164.64 399 164.761Z" fill="#FFBE9D"/>
<path d="M399 164.761C399 164.761 399.24 164.321 400 164.381C400.231 164.4 400.453 164.481 400.643 164.615C400.832 164.748 400.983 164.93 401.08 165.141C401.174 165.426 401.205 165.728 401.173 166.026C401.14 166.325 401.043 166.613 400.89 166.871C400.204 168.152 399.443 169.39 398.61 170.581C397.613 172.094 396.287 173.363 394.73 174.291C394.256 174.528 393.712 174.585 393.2 174.451C392.934 174.376 392.697 174.224 392.519 174.014C392.341 173.804 392.23 173.545 392.2 173.271C392.185 172.779 392.329 172.295 392.61 171.891C392.842 171.544 393.093 171.211 393.36 170.891C394.36 169.611 395.36 168.521 396.21 167.621L398.21 165.521C398.443 165.25 398.705 165.006 398.99 164.791C398.821 165.108 398.609 165.401 398.36 165.661C397.93 166.191 397.28 166.941 396.47 167.871C395.66 168.801 394.71 169.871 393.73 171.181C393.26 171.821 392.65 172.521 392.73 173.251C392.753 173.425 392.829 173.588 392.947 173.718C393.065 173.848 393.219 173.94 393.39 173.981C393.78 174.087 394.196 174.037 394.55 173.841C396.027 172.946 397.296 171.746 398.27 170.321C399.21 169.031 399.99 167.771 400.6 166.741C400.741 166.528 400.836 166.288 400.879 166.037C400.922 165.786 400.912 165.528 400.85 165.281C400.779 165.106 400.664 164.953 400.517 164.836C400.37 164.719 400.196 164.641 400.01 164.611C399.666 164.54 399.308 164.593 399 164.761Z" fill="#EB996E"/>
<path d="M400.38 168.22C398.56 170.61 396.59 172.86 394.97 175.38C394.55 176.02 394.14 176.85 394.54 177.5C394.698 177.714 394.913 177.877 395.162 177.971C395.41 178.065 395.68 178.086 395.94 178.03C396.453 177.899 396.927 177.645 397.32 177.29C399.43 175.57 400.73 173.09 401.98 170.68C402.208 170.367 402.36 170.005 402.422 169.623C402.485 169.241 402.457 168.849 402.34 168.48C402.242 168.311 402.107 168.167 401.945 168.059C401.782 167.951 401.597 167.881 401.404 167.856C401.211 167.831 401.014 167.851 400.829 167.914C400.645 167.977 400.477 168.082 400.34 168.22" fill="#FFBE9D"/>
<path d="M400.38 168.222C400.38 168.222 400.59 167.762 401.38 167.772C401.612 167.777 401.839 167.844 402.038 167.965C402.236 168.086 402.399 168.257 402.51 168.462C402.622 168.74 402.674 169.04 402.66 169.34C402.646 169.641 402.567 169.934 402.43 170.202C401.841 171.524 401.173 172.81 400.43 174.052C399.53 175.623 398.289 176.972 396.8 178.002C396.346 178.283 395.801 178.376 395.28 178.262C395.009 178.205 394.76 178.07 394.566 177.872C394.372 177.674 394.241 177.424 394.19 177.152C394.149 176.663 394.261 176.174 394.51 175.752C394.73 175.352 394.97 175.012 395.2 174.672C396.12 173.322 397.05 172.182 397.83 171.232C398.61 170.282 399.18 169.612 399.7 169.002C399.913 168.715 400.158 168.453 400.43 168.222C400.282 168.546 400.09 168.849 399.86 169.122C399.46 169.692 398.86 170.482 398.11 171.462C397.36 172.442 396.49 173.602 395.6 174.942C395.17 175.602 394.6 176.342 394.7 177.072C394.731 177.245 394.815 177.404 394.94 177.528C395.065 177.652 395.226 177.733 395.4 177.762C395.797 177.835 396.208 177.757 396.55 177.542C397.961 176.551 399.147 175.273 400.03 173.792C400.88 172.442 401.58 171.132 402.12 170.062C402.247 169.841 402.327 169.597 402.355 169.344C402.382 169.09 402.357 168.834 402.28 168.592C402.197 168.423 402.073 168.279 401.919 168.172C401.765 168.066 401.586 168 401.4 167.982C401.042 167.936 400.68 168.021 400.38 168.222Z" fill="#EB996E"/>
<path d="M401.59 172.862C400.19 174.692 398.68 176.412 397.44 178.352C397.12 178.842 396.81 179.472 397.11 179.972C397.231 180.133 397.397 180.257 397.586 180.328C397.776 180.399 397.982 180.414 398.18 180.372C398.574 180.277 398.939 180.084 399.24 179.812C400.76 178.38 401.974 176.655 402.81 174.742C402.984 174.502 403.099 174.226 403.146 173.934C403.193 173.642 403.17 173.343 403.08 173.062C403.001 172.943 402.898 172.843 402.777 172.767C402.657 172.692 402.521 172.643 402.38 172.624C402.239 172.605 402.096 172.617 401.959 172.658C401.823 172.698 401.697 172.768 401.59 172.862Z" fill="#FFBE9D"/>
<path d="M401.59 172.86C401.59 172.86 401.73 172.5 402.34 172.5C402.523 172.499 402.702 172.547 402.859 172.641C403.016 172.734 403.144 172.869 403.23 173.03C403.318 173.249 403.359 173.484 403.35 173.72C403.342 173.956 403.284 174.188 403.18 174.4C402.725 175.414 402.207 176.4 401.63 177.35C400.944 178.565 399.99 179.608 398.84 180.4C398.479 180.625 398.045 180.7 397.63 180.61C397.41 180.565 397.209 180.456 397.052 180.295C396.895 180.135 396.79 179.931 396.75 179.71C396.769 178.991 397.046 178.302 397.53 177.77C398.24 176.77 398.95 175.86 399.53 175.14C400.137 174.33 400.805 173.567 401.53 172.86C401.029 173.751 400.443 174.591 399.78 175.37C399.22 176.12 398.55 177.01 397.87 178.04C397.54 178.55 397.12 179.12 397.19 179.63C397.26 180.14 397.99 180.29 398.52 179.95C399.595 179.198 400.498 178.226 401.17 177.1C401.82 176.1 402.36 175.1 402.78 174.25C402.876 174.087 402.937 173.906 402.96 173.719C402.982 173.531 402.965 173.341 402.91 173.16C402.85 173.034 402.758 172.926 402.645 172.846C402.531 172.765 402.399 172.715 402.26 172.7C402.026 172.685 401.792 172.741 401.59 172.86Z" fill="#EB996E"/>
<path d="M91.55 393.161C83.55 395.971 73.02 393.461 66.14 388.431C59.26 383.401 54.31 376.211 49.92 368.911C48.05 365.801 46.22 362.551 45.63 358.911C45.04 355.271 45.91 351.291 48.69 348.911C53.01 345.271 59.69 347.121 64.55 349.911C72.2133 354.376 78.6755 360.638 83.3793 368.157C88.0831 375.676 90.8873 384.226 91.55 393.071" fill="#407BFF"/>
<path d="M82.92 412.411C78.09 418.781 69.79 421.621 61.8 421.991C53.81 422.361 45.92 420.151 38.46 417.281C35.75 416.281 32.79 414.821 31.86 412.071C31.5674 411.01 31.543 409.892 31.7891 408.818C32.0352 407.745 32.5441 406.749 33.27 405.921C34.75 404.288 36.5975 403.03 38.66 402.251C46 399.121 54.43 399.001 62.16 401.001C69.89 403.001 76.65 407.491 82.92 412.431" fill="#407BFF"/>
<path d="M91.67 358.711C85 358.841 80 353.001 77 347.071C72.8007 338.773 71.3976 329.341 73 320.181C73.6 316.781 74.89 313.111 77.94 311.471C80.99 309.831 85.05 310.901 87.65 313.271C90.25 315.641 91.65 319.021 92.65 322.371C96.22 333.941 95.45 347.231 91.65 358.711" fill="#407BFF"/>
<path d="M113.54 395.53C102.19 376.21 100.3 352.53 107 331.19C108.09 327.73 110.14 323.76 113.77 323.53C117.77 323.27 120.3 327.75 121.41 331.62C125.3 345.2 124.48 359.62 123.62 373.71C123.09 382.4 120.1 389.82 113.54 395.53Z" fill="#407BFF"/>
<path d="M125.34 403.471C127.455 396.852 131.028 390.793 135.796 385.739C140.564 380.685 146.406 376.766 152.89 374.271C155.89 373.131 159.73 372.481 161.98 374.791C164.23 377.101 163.51 380.791 162.09 383.661C159.81 388.221 156.09 391.891 152.4 395.401C149.04 398.601 145.55 401.821 141.29 403.681C137.03 405.541 129.23 406.011 125.34 403.471Z" fill="#407BFF"/>
<path d="M55 353.84C55 353.84 55.06 353.91 55.2 354.02L55.81 354.49L58.19 356.27L59.91 357.55C60.53 358.03 61.18 358.55 61.91 359.16C63.32 360.33 64.98 361.6 66.65 363.16L69.33 365.59C70.25 366.44 71.14 367.4 72.11 368.35C74.11 370.23 75.95 372.42 77.99 374.68C82.2708 379.724 86.181 385.071 89.69 390.68C93.1115 396.325 96.1194 402.21 98.69 408.29C99.81 411.12 100.92 413.79 101.69 416.38C102.11 417.67 102.57 418.9 102.92 420.1C103.27 421.3 103.58 422.48 103.92 423.59C104.59 425.79 104.98 427.84 105.4 429.59C105.6 430.49 105.81 431.31 105.96 432.08C106.11 432.85 106.21 433.56 106.33 434.2C106.55 435.43 106.73 436.41 106.85 437.12L107 437.88C107 438.05 107.06 438.14 107.07 438.13C107.085 438.044 107.085 437.956 107.07 437.87C107.07 437.67 107.01 437.41 106.97 437.1C106.87 436.39 106.72 435.41 106.54 434.16C106.44 433.52 106.34 432.81 106.22 432.04C106.1 431.27 105.89 430.43 105.7 429.53C105.31 427.74 104.95 425.68 104.29 423.46C103.99 422.34 103.67 421.17 103.29 419.96C102.91 418.75 102.5 417.51 102.09 416.21C101.3 413.61 100.2 410.92 99.09 408.07C96.5308 401.956 93.5226 396.04 90.09 390.37C86.5629 384.751 82.6219 379.403 78.3 374.37C76.3 372.11 74.3 369.92 72.36 368.05C71.36 367.1 70.48 366.14 69.55 365.3L66.84 362.88C65.15 361.31 63.47 360.06 62.04 358.88C61.32 358.32 60.66 357.77 60.04 357.3L58.28 356.07L55.84 354.37L55.2 354L55 353.84Z" fill="#263238"/>
<path d="M39.9399 407.391C40.204 407.377 40.4656 407.333 40.7199 407.261C41.2299 407.171 41.9599 406.981 42.9299 406.821C45.6447 406.306 48.3908 405.972 51.1499 405.821C60.2712 405.268 69.3982 406.806 77.8347 410.317C86.2712 413.828 93.7943 419.22 99.8299 426.081C101.671 428.142 103.368 430.327 104.91 432.621C105.48 433.421 105.91 434.081 106.15 434.501C106.285 434.73 106.439 434.947 106.61 435.151C106.513 434.906 106.393 434.672 106.25 434.451C105.98 434.001 105.63 433.321 105.09 432.511C103.592 430.163 101.921 427.93 100.09 425.831C94.0801 418.844 86.5183 413.361 78.0098 409.821C69.5012 406.28 60.2821 404.78 51.0899 405.441C48.3211 405.629 45.5701 406.024 42.8599 406.621C41.8599 406.821 41.1599 407.041 40.6599 407.171C40.4156 407.229 40.1752 407.303 39.9399 407.391Z" fill="#263238"/>
<path d="M81.8599 319.18C81.8439 319.279 81.8439 319.38 81.8599 319.48L82.0399 320.35L82.7899 323.68C83.4399 326.56 84.4399 330.73 85.6899 335.87C88.1899 346.15 91.8299 360.31 95.6099 376.01C97.4899 383.86 99.1999 391.36 100.67 398.2C102.14 405.04 103.33 411.2 104.25 416.43C104.74 419.03 105.11 421.43 105.46 423.43C105.81 425.43 106.09 427.29 106.3 428.75C106.51 430.21 106.7 431.31 106.82 432.12C106.893 432.48 106.943 432.77 106.97 432.99C106.983 433.092 107.006 433.192 107.04 433.29C107.055 433.19 107.055 433.089 107.04 432.99C107.04 432.76 106.98 432.47 106.94 432.11C106.84 431.3 106.7 430.16 106.52 428.72C106.34 427.28 106.09 425.46 105.76 423.38C105.43 421.3 105.1 418.94 104.63 416.33C103.76 411.11 102.57 404.92 101.16 398.06C99.7499 391.2 98.0299 383.71 96.1599 375.85C92.3799 360.15 88.6799 346.01 86.0899 335.75C84.7999 330.65 83.7599 326.51 83.0199 323.6L82.1799 320.3C82.0799 319.94 82.0099 319.66 81.9499 319.44C81.9272 319.351 81.8971 319.264 81.8599 319.18Z" fill="#263238"/>
<path d="M107.92 431.772C107.959 431.697 107.983 431.615 107.99 431.532C108.04 431.342 108.09 431.112 108.15 430.842C108.29 430.182 108.48 429.282 108.71 428.152C109.19 425.812 109.83 422.422 110.56 418.212C112.01 409.812 113.74 398.142 114.8 385.212C115.31 378.712 115.6 372.512 115.73 366.872C115.86 361.232 115.73 356.142 115.59 351.872C115.59 349.742 115.4 347.812 115.31 346.122C115.22 344.432 115.1 342.972 114.99 341.792C114.88 340.612 114.8 339.722 114.74 339.052C114.74 338.762 114.68 338.532 114.66 338.342C114.67 338.262 114.67 338.181 114.66 338.102C114.66 338.102 114.66 338.182 114.66 338.342C114.66 338.502 114.66 338.772 114.66 339.062C114.66 339.732 114.75 340.652 114.82 341.802C114.89 342.952 114.98 344.442 115.04 346.142C115.1 347.842 115.22 349.752 115.25 351.882C115.37 356.142 115.38 361.222 115.25 366.882C115.12 372.542 114.8 378.702 114.25 385.182C113.19 398.182 111.52 409.812 110.16 418.182C109.49 422.392 108.91 425.792 108.49 428.182C108.29 429.322 108.14 430.182 108.03 430.882C108.03 431.172 107.95 431.402 107.92 431.592C107.914 431.651 107.914 431.712 107.92 431.772Z" fill="#263238"/>
<path d="M107.08 434.221C107.2 434.007 107.3 433.783 107.38 433.551L108.13 431.611L108.66 430.201L109.39 428.571C109.65 427.981 109.93 427.361 110.22 426.691C110.51 426.021 110.89 425.361 111.22 424.641L112.38 422.391L113.76 420.011C114.67 418.351 115.85 416.691 116.99 414.891C119.64 411.1 122.505 407.464 125.57 404.001C128.67 400.562 131.945 397.285 135.38 394.181C137.01 392.811 138.51 391.431 140.02 390.281L142.16 388.561L144.16 387.061C145.45 386.061 146.66 385.271 147.73 384.551C148.8 383.831 149.73 383.211 150.48 382.751L152.24 381.631C152.454 381.512 152.655 381.371 152.84 381.211C152.614 381.302 152.397 381.412 152.19 381.541L150.37 382.541C149.58 382.981 148.64 383.541 147.56 384.271C146.48 385.001 145.25 385.761 143.94 386.721L141.88 388.201L139.7 389.901C138.17 391.041 136.7 392.411 135.01 393.781C131.541 396.88 128.243 400.165 125.13 403.621C122.059 407.113 119.2 410.786 116.57 414.621C115.44 416.441 114.27 418.111 113.37 419.801L112.01 422.201L110.88 424.481C110.53 425.211 110.16 425.891 109.88 426.561L109.08 428.461C108.84 429.061 108.61 429.611 108.39 430.121L107.9 431.551C107.63 432.371 107.41 433.021 107.25 433.551C107.175 433.769 107.118 433.993 107.08 434.221Z" fill="#263238"/>
<path d="M59.1799 376.25C59.1799 376.33 60.5599 376.34 62.7599 376.46C68.5225 376.759 74.2178 377.839 79.6899 379.67C80.8064 380.102 81.9446 380.476 83.0999 380.79C82.8362 380.603 82.5508 380.448 82.2499 380.33C81.6799 380.06 80.8499 379.71 79.8099 379.33C74.3692 377.289 68.6198 376.193 62.8099 376.09C61.6899 376.09 60.8099 376.09 60.1699 376.14C59.8362 376.124 59.502 376.161 59.1799 376.25Z" fill="#263238"/>
<path d="M50.62 418.072C51.8661 415.545 53.436 413.192 55.29 411.072C57.2846 409.041 59.5411 407.285 62 405.852C61.1812 406.058 60.4011 406.396 59.69 406.852C56.1307 408.903 53.2729 411.98 51.49 415.682C51.071 416.425 50.7771 417.233 50.62 418.072Z" fill="#263238"/>
<path d="M79.82 334.871C79.71 334.981 81.82 337.051 84.08 339.871C86.34 342.691 87.98 345.131 88.08 345.051C87.1426 343.048 85.9236 341.189 84.46 339.531C83.1446 337.764 81.5819 336.194 79.82 334.871Z" fill="#263238"/>
<path d="M86.67 323C86.1727 324.452 85.8373 325.954 85.67 327.48C85.3262 328.979 85.1551 330.512 85.16 332.05C86.0212 329.104 86.5281 326.066 86.67 323Z" fill="#263238"/>
<path d="M107.91 360.191C108.851 362.6 109.96 364.939 111.23 367.191C112.345 369.523 113.615 371.778 115.03 373.941C114.082 371.536 112.973 369.197 111.71 366.941C110.599 364.607 109.329 362.352 107.91 360.191Z" fill="#263238"/>
<path d="M120.55 347.57C119.453 349.164 118.508 350.859 117.73 352.63C116.791 354.323 116.008 356.097 115.39 357.93C116.487 356.336 117.431 354.642 118.21 352.87C119.149 351.178 119.932 349.404 120.55 347.57Z" fill="#263238"/>
<path d="M139.12 390.72C139.12 390.88 141.41 390.44 144.22 390.25C147.03 390.06 149.32 390.16 149.34 390C147.651 389.597 145.903 389.499 144.18 389.71C142.447 389.749 140.735 390.09 139.12 390.72Z" fill="#263238"/>
<path d="M126.44 428.871L120.12 462.111C119.915 463.175 119.346 464.135 118.51 464.825C117.674 465.515 116.624 465.892 115.54 465.891H96.87C95.7675 465.894 94.7001 465.504 93.8591 464.791C93.018 464.078 92.4582 463.089 92.28 462.001L86.78 428.871H126.44Z" fill="#263238"/>
<path d="M124.38 439.671H88.68L86.78 428.871H126.44L124.38 439.671Z" fill="#455A64"/>
<path d="M124.38 439.67L123.63 443.61H89.2299L88.6799 439.67H124.38Z" fill="#FAFAFA"/>
<path d="M177.88 106.451C200.01 106.451 217.95 88.5106 217.95 66.3805C217.95 44.2505 200.01 26.3105 177.88 26.3105C155.75 26.3105 137.81 44.2505 137.81 66.3805C137.81 88.5106 155.75 106.451 177.88 106.451Z" fill="#407BFF"/>
<g opacity="0.3">
<path d="M214.84 62.3711C215.18 62.3711 215.6 63.3711 215.84 65.4211C216.135 68.2759 215.993 71.1589 215.42 73.9711C215.045 75.9305 214.513 77.8567 213.83 79.7311C213.01 81.8867 212.007 83.9677 210.83 85.9511C208.141 90.5644 204.489 94.5441 200.123 97.6192C195.757 100.694 190.78 102.793 185.53 103.771C183.268 104.2 180.973 104.434 178.67 104.471C176.662 104.484 174.655 104.337 172.67 104.031C169.83 103.62 167.068 102.781 164.48 101.541C162.68 100.621 161.82 99.8711 161.95 99.5411C162.25 98.7811 166.35 100.191 173.01 100.351C174.809 100.386 176.609 100.316 178.4 100.141C180.422 99.9233 182.427 99.5657 184.4 99.0711C193.552 96.8702 201.517 91.258 206.67 83.3811C207.814 81.6782 208.836 79.8972 209.73 78.0511C210.485 76.4213 211.153 74.7523 211.73 73.0511C214 66.7311 214 62.3911 214.84 62.3711Z" fill="black"/>
</g>
<g opacity="0.3">
<path d="M176.06 29.3603C176.06 29.8003 172.54 29.5903 167.23 30.9703C164.145 31.7776 161.182 32.9951 158.42 34.5903C151.605 38.4339 146.417 44.6203 143.82 52.0003C142.744 55.0014 142.071 58.1321 141.82 61.3103C141.39 66.7703 142.21 70.1903 141.82 70.3103C141.66 70.3103 141.27 69.5503 140.82 68.0003C140.259 65.7981 139.983 63.5328 140 61.2603C140.005 57.8645 140.542 54.4903 141.59 51.2603C144.144 43.1829 149.792 36.4452 157.3 32.5203C160.3 30.9184 163.532 29.798 166.88 29.2003C169.115 28.7866 171.393 28.6623 173.66 28.8303C175.22 29.0003 176.08 29.1903 176.06 29.3603Z" fill="white"/>
</g>
<g opacity="0.3">
<path d="M144.93 80.0812C144.34 80.4812 142.99 79.4912 142.37 77.6712C141.75 75.8512 142.19 74.2312 142.89 74.1812C143.59 74.1312 144.31 75.3412 144.83 76.8212C145.35 78.3012 145.54 79.6912 144.93 80.0812Z" fill="white"/>
</g>
<path d="M189.9 61.4111C189.99 61.4111 189.37 63.0911 187.39 65.0411C184.789 67.6143 181.33 69.1388 177.676 69.3232C174.022 69.5077 170.427 68.3392 167.58 66.0411C165.43 64.3011 164.64 62.7311 164.73 62.6911C164.82 62.6511 165.86 63.9511 168.02 65.4511C170.806 67.4612 174.193 68.4633 177.625 68.2925C181.056 68.1216 184.327 66.788 186.9 64.5111C188.9 62.7811 189.75 61.3111 189.9 61.4111Z" fill="white"/>
<path d="M161.5 53.3012C161.16 52.6494 160.63 52.1166 159.979 51.7736C159.329 51.4306 158.59 51.2937 157.86 51.3812C157.416 51.403 156.986 51.5485 156.62 51.8012C156.057 52.2353 155.624 52.8151 155.366 53.4778C155.109 54.1405 155.038 54.8609 155.16 55.5612C155.272 56.0286 155.48 56.468 155.769 56.8521C156.058 57.2362 156.423 57.5568 156.841 57.794C157.259 58.0312 157.722 58.18 158.2 58.2311C158.678 58.2822 159.161 58.2346 159.62 58.0912C160.061 57.9031 160.459 57.6294 160.793 57.2858C161.126 56.9422 161.388 56.5357 161.563 56.0899C161.738 55.6441 161.823 55.168 161.812 54.6892C161.801 54.2104 161.695 53.7386 161.5 53.3012Z" fill="white"/>
<path d="M199.63 53.4215C199.289 52.7733 198.76 52.2437 198.112 51.9027C197.464 51.5617 196.727 51.4253 196 51.5115C195.555 51.5317 195.125 51.6773 194.76 51.9315C194.199 52.3674 193.766 52.947 193.507 53.6089C193.248 54.2708 193.173 54.9904 193.29 55.6915C193.402 56.1601 193.61 56.6006 193.899 56.9855C194.189 57.3704 194.555 57.6916 194.975 57.9289C195.394 58.1662 195.858 58.3147 196.337 58.365C196.816 58.4154 197.3 58.3665 197.76 58.2215C198.201 58.0326 198.6 57.7578 198.933 57.413C199.266 57.0683 199.528 56.6606 199.702 56.2137C199.876 55.7669 199.959 55.2898 199.947 54.8104C199.935 54.331 199.827 53.8588 199.63 53.4215Z" fill="white"/>
<path d="M176.973 256.376C181.326 237.639 169.666 218.92 150.929 214.567C132.192 210.214 113.473 221.874 109.12 240.611C104.767 259.348 116.427 278.066 135.164 282.42C153.901 286.773 172.619 275.113 176.973 256.376Z" fill="#407BFF"/>
<g opacity="0.3">
<path d="M175.17 245C175.69 245 176.28 245.89 176.7 247.68C177.201 250.219 177.241 252.827 176.82 255.38C176.242 259.233 174.946 262.944 173 266.32C170.624 270.554 167.33 274.203 163.361 276.999C159.392 279.795 154.847 281.668 150.06 282.48C146.232 283.174 142.307 283.143 138.49 282.39C135.944 281.926 133.502 281.008 131.28 279.68C129.74 278.68 129.07 277.82 129.28 277.34C129.72 276.27 133.4 277.08 138.99 276.89C142.21 276.794 145.406 276.31 148.51 275.45C156.001 273.457 162.529 268.845 166.91 262.45C168.763 259.821 170.291 256.977 171.46 253.98C173.53 248.82 174 245.08 175.17 245Z" fill="black"/>
</g>
<g opacity="0.3">
<path d="M141.47 216.341C141.47 216.761 138.41 216.631 133.82 217.861C131.158 218.574 128.603 219.637 126.22 221.021C120.356 224.353 115.879 229.674 113.6 236.021C112.66 238.599 112.062 241.288 111.82 244.021C111.41 248.751 112.08 251.731 111.66 251.821C111.39 251.921 110.04 249.021 109.98 243.951C109.964 240.985 110.42 238.035 111.33 235.211C112.427 231.711 114.204 228.462 116.561 225.651C118.917 222.84 121.805 220.523 125.06 218.831C127.682 217.442 130.507 216.476 133.43 215.971C138.43 215.231 141.52 216.061 141.47 216.341Z" fill="white"/>
</g>
<g opacity="0.3">
<path d="M114.42 260.421C113.83 260.821 112.58 259.981 112.03 258.421C111.48 256.861 111.94 255.421 112.65 255.331C113.36 255.241 114.05 256.331 114.49 257.571C114.93 258.811 115 260.001 114.42 260.421Z" fill="white"/>
</g>
<path d="M153.5 244.191C153.6 244.191 153.07 245.671 151.35 247.381C149.088 249.635 146.07 250.971 142.88 251.129C139.691 251.288 136.555 250.259 134.08 248.241C132.2 246.711 131.53 245.331 131.62 245.241C131.71 245.151 132.62 246.321 134.52 247.611C136.939 249.331 139.866 250.187 142.83 250.04C145.795 249.893 148.623 248.752 150.86 246.801C152.6 245.361 153.35 244.091 153.5 244.191Z" fill="white"/>
<path d="M128.82 237.141C128.524 236.575 128.061 236.112 127.495 235.815C126.928 235.519 126.285 235.402 125.65 235.481C125.266 235.496 124.895 235.621 124.58 235.841C124.091 236.219 123.715 236.724 123.491 237.3C123.267 237.876 123.205 238.502 123.31 239.111C123.401 239.522 123.577 239.909 123.826 240.247C124.076 240.586 124.394 240.868 124.76 241.075C125.126 241.283 125.531 241.411 125.95 241.452C126.369 241.492 126.791 241.444 127.19 241.311C127.573 241.147 127.92 240.908 128.21 240.609C128.5 240.31 128.727 239.956 128.879 239.568C129.031 239.18 129.104 238.765 129.094 238.348C129.083 237.932 128.991 237.521 128.82 237.141Z" fill="white"/>
<path d="M165.36 240.5C165.236 239.602 165.039 238.715 164.77 237.85C164.412 236.976 163.833 236.211 163.09 235.63C162.173 234.954 161.06 234.599 159.921 234.619C158.783 234.639 157.683 235.033 156.79 235.74C156.067 236.346 155.513 237.127 155.18 238.01C154.94 238.884 154.773 239.777 154.68 240.68C154.58 240.74 154.02 239.63 154.47 237.79C154.756 236.72 155.342 235.755 156.16 235.01C157.202 234.11 158.526 233.605 159.902 233.581C161.277 233.557 162.618 234.017 163.69 234.88C164.531 235.597 165.149 236.541 165.47 237.6C166 239.42 165.46 240.55 165.36 240.5Z" fill="white"/>
<path d="M370.07 332.471C388.555 332.471 403.54 317.486 403.54 299.001C403.54 280.516 388.555 265.531 370.07 265.531C351.585 265.531 336.6 280.516 336.6 299.001C336.6 317.486 351.585 332.471 370.07 332.471Z" fill="#407BFF"/>
<g opacity="0.3">
<path d="M400.94 295.65C401.46 295.65 402.04 296.5 402.47 298.22C402.972 300.664 403.026 303.178 402.63 305.64C402.096 309.355 400.865 312.934 399 316.19C396.718 320.283 393.544 323.81 389.713 326.509C385.882 329.207 381.492 331.009 376.87 331.78C373.175 332.44 369.39 332.4 365.71 331.66C363.254 331.21 360.901 330.312 358.77 329.01C357.29 328.01 356.66 327.19 356.86 326.71C357.31 325.64 360.86 326.37 366.21 326.16C369.289 326.056 372.344 325.583 375.31 324.75C382.46 322.836 388.697 318.445 392.91 312.36C394.693 309.846 396.167 307.127 397.3 304.26C399.29 299.29 399.79 295.71 400.94 295.65Z" fill="black"/>
</g>
<g opacity="0.3">
<path d="M368.55 268.071C368.55 268.501 365.61 268.381 361.21 269.571C358.654 270.264 356.2 271.29 353.91 272.621C348.28 275.833 343.988 280.956 341.81 287.061C340.899 289.544 340.32 292.137 340.09 294.771C339.69 299.311 340.32 302.171 339.9 302.271C339.63 302.361 338.32 299.581 338.25 294.701C338.227 291.844 338.662 289.001 339.54 286.281C340.594 282.913 342.303 279.786 344.57 277.081C346.837 274.376 349.617 272.147 352.75 270.521C355.276 269.179 358 268.25 360.82 267.771C365.63 267.001 368.6 267.791 368.55 268.071Z" fill="white"/>
</g>
<g opacity="0.3">
<path d="M342.55 310.45C341.96 310.84 340.74 310.04 340.21 308.5C339.68 306.96 340.14 305.57 340.85 305.5C341.56 305.43 342.24 306.43 342.67 307.64C343.1 308.85 343.16 310.05 342.55 310.45Z" fill="white"/>
</g>
<path d="M371.6 307.11C375.077 306.902 378.359 305.434 380.83 302.98C382.17 301.52 383.4 299.3 383.25 297.33C383.195 296.337 382.809 295.391 382.152 294.644C381.496 293.897 380.608 293.392 379.63 293.21C378.211 293.186 376.825 293.637 375.69 294.49C374.572 295.348 373.313 296.004 371.97 296.43C369.97 296.87 367.97 296.09 366.14 295.31C364.31 294.53 362.3 293.71 360.32 294.06C359.643 294.108 358.991 294.335 358.43 294.718C357.87 295.101 357.421 295.626 357.13 296.24C357.13 296.24 356.13 298.42 358.13 301.34C359.689 303.379 361.748 304.982 364.108 305.992C366.468 307.003 369.048 307.388 371.6 307.11Z" fill="white"/>
<path d="M356.39 288.07C356.11 287.531 355.674 287.09 355.138 286.804C354.603 286.518 353.993 286.402 353.39 286.47C353.031 286.495 352.686 286.616 352.39 286.82C351.92 287.185 351.557 287.671 351.341 288.226C351.124 288.78 351.062 289.383 351.16 289.97C351.263 290.356 351.441 290.717 351.686 291.033C351.93 291.348 352.234 291.612 352.582 291.809C352.929 292.005 353.312 292.13 353.708 292.177C354.105 292.224 354.506 292.191 354.89 292.08C355.254 291.918 355.582 291.685 355.856 291.395C356.129 291.105 356.342 290.763 356.481 290.39C356.621 290.017 356.685 289.619 356.669 289.221C356.653 288.823 356.558 288.431 356.39 288.07Z" fill="white"/>
<path d="M388.24 288.17C387.959 287.633 387.522 287.194 386.987 286.91C386.451 286.626 385.842 286.511 385.24 286.58C384.882 286.602 384.537 286.719 384.24 286.92C383.77 287.283 383.407 287.767 383.191 288.32C382.974 288.873 382.912 289.474 383.01 290.06C383.104 290.451 383.277 290.818 383.519 291.139C383.761 291.46 384.066 291.728 384.416 291.926C384.766 292.124 385.153 292.248 385.553 292.29C385.953 292.332 386.357 292.291 386.74 292.17C387.103 292.008 387.43 291.776 387.703 291.486C387.975 291.197 388.187 290.856 388.327 290.484C388.466 290.112 388.53 289.715 388.515 289.318C388.501 288.921 388.407 288.531 388.24 288.17Z" fill="white"/>
</svg>
