<svg width="36" height="48" viewBox="0 0 36 48" fill="none" xmlns="http://www.w3.org/2000/svg">
<g id="Group">
<path id="Vector" fill-rule="evenodd" clip-rule="evenodd" d="M36 12.6315V44.2103C36 46.3035 34.3322 48 32.2758 48H3.72416C1.66702 48 0 46.3035 0 44.2103V3.78975C0 1.6965 1.66702 0 3.72416 0H23.5859L36 12.6315Z" fill="#CB0606"/>
<path id="Vector_2" fill-rule="evenodd" clip-rule="evenodd" d="M35.9999 11.9242V13.4963H25.8515C23.7503 13.4963 22.7812 11.7563 22.7812 9.6105V0H24.3182L35.9999 11.9242Z" fill="#FB8D8D"/>
<path id="Vector_3" fill-rule="evenodd" clip-rule="evenodd" d="M27.6289 25.5352C27.3086 25.4272 27 25.3725 26.7025 25.3725C26.3645 25.3725 26.1324 25.4437 26.0053 25.5862C25.8789 25.7287 25.8157 25.9807 25.8157 26.343V27.0352H27.2359V28.4257H25.8157V34.152H24.095V28.4257H23.2083V27.0352H24.095V26.343C24.095 25.461 24.3096 24.8235 24.7386 24.4297C25.1677 24.036 25.8128 23.8395 26.6753 23.8395C27.0801 23.8395 27.5092 23.8957 27.9625 24.009L27.6289 25.5352ZM20.4216 33.4597C20.1013 33.7357 19.7633 33.9555 19.4077 34.1182C19.0521 34.281 18.648 34.362 18.1947 34.362C17.3146 34.362 16.6408 34.0387 16.1743 33.3922C15.707 32.745 15.4742 31.8315 15.4742 30.651C15.4742 29.4435 15.7306 28.5052 16.2441 27.8355C16.7577 27.1665 17.4784 26.8312 18.4078 26.8312C18.7369 26.8312 19.0742 26.9002 19.4209 27.0382C19.7677 27.1762 20.055 27.3517 20.2813 27.564V24.0495H22.0019V34.152H20.4216V33.4597ZM20.2813 29.0092C20.099 28.842 19.8735 28.6935 19.6046 28.5645C19.3357 28.4362 19.0609 28.3717 18.781 28.3717C18.3189 28.3717 17.9479 28.5742 17.6679 28.9785C17.3873 29.3835 17.2477 29.9317 17.2477 30.624C17.2477 31.3072 17.3623 31.8427 17.5908 32.232C17.82 32.6212 18.1742 32.8155 18.6546 32.8155C18.939 32.8155 19.2292 32.7487 19.5245 32.6152C19.8199 32.4817 20.0726 32.3175 20.2813 32.1232V29.0092ZM12.927 33.9007C12.5045 34.2082 12.0005 34.362 11.4135 34.362C10.6399 34.362 9.98011 34.116 9.4335 33.6225V36.8317H7.71284V27.0352H9.29978V27.7335C9.62011 27.453 9.9566 27.2325 10.31 27.072C10.6634 26.9115 11.0689 26.8312 11.5266 26.8312C12.4112 26.8312 13.0849 27.1477 13.547 27.7815C14.0092 28.4145 14.2406 29.3347 14.2406 30.5422C14.2406 31.3072 14.1275 31.9807 13.9004 32.5642C13.6734 33.1477 13.3494 33.5932 12.927 33.9007ZM12.1137 28.9515C11.8778 28.5645 11.5266 28.3717 11.0601 28.3717C10.7802 28.3717 10.4922 28.4385 10.1968 28.5712C9.90076 28.7047 9.64656 28.869 9.4335 29.0632V32.1772C9.6157 32.3452 9.84125 32.493 10.1102 32.622C10.379 32.751 10.6553 32.8155 10.9404 32.8155C11.4113 32.8155 11.7838 32.6107 12.0571 32.2012C12.3304 31.7917 12.467 31.248 12.467 30.57C12.467 29.8777 12.3488 29.3385 12.1137 28.9515Z" fill="white"/>
</g>
</svg>
