<svg width="36" height="48" viewBox="0 0 36 48" fill="none" xmlns="http://www.w3.org/2000/svg">
<g id="Group">
<path id="Vector" fill-rule="evenodd" clip-rule="evenodd" d="M36 12.6315V44.2103C36 46.3035 34.3322 48 32.2758 48H3.72416C1.66702 48 0 46.3035 0 44.2103V3.78975C0 1.6965 1.66702 0 3.72416 0H23.5859L36 12.6315Z" fill="#E28500"/>
<path id="Vector_2" fill-rule="evenodd" clip-rule="evenodd" d="M27.1459 36.1366C26.5728 36.6001 25.653 36.8318 24.3856 36.8318C23.3409 36.8318 22.4277 36.6286 21.6452 36.2213L22.1521 34.7896C22.8766 35.1331 23.6215 35.3056 24.3856 35.3056C25.0968 35.3056 25.5913 35.2013 25.8697 34.9936C26.1474 34.7851 26.2863 34.4348 26.2863 33.9413V33.3578C25.7169 33.8873 25.0299 34.1521 24.2255 34.1521C23.3725 34.1521 22.701 33.8401 22.2124 33.2161C21.7231 32.5913 21.4784 31.6936 21.4784 30.5221C21.4784 29.7893 21.593 29.1436 21.8223 28.5856C22.0508 28.0268 22.3865 27.5948 22.8288 27.2896C23.2711 26.9843 23.8059 26.8313 24.4326 26.8313C24.8015 26.8313 25.1703 26.9138 25.5391 27.0788C25.9079 27.2446 26.2172 27.4531 26.4663 27.7066L26.6926 27.0353H28.0062V34.0163C28.0062 34.9658 27.7197 35.6731 27.1459 36.1366ZM26.2863 29.0093C25.8146 28.5841 25.3018 28.3718 24.7456 28.3718C24.3283 28.3718 23.9749 28.5661 23.6855 28.9553C23.3967 29.3438 23.252 29.8576 23.252 30.4951C23.252 31.2188 23.3798 31.7528 23.6355 32.0963C23.8912 32.4398 24.2233 32.6116 24.6325 32.6116C25.2011 32.6116 25.7529 32.3791 26.2863 31.9133V29.0093ZM19.2046 33.9008C18.7828 34.2083 18.2781 34.3621 17.6911 34.3621C16.9182 34.3621 16.2577 34.1161 15.7111 33.6226V36.8318H13.9912V27.0353H15.5774V27.7336C15.8977 27.4531 16.2342 27.2326 16.5876 27.0721C16.941 26.9116 17.3465 26.8313 17.805 26.8313C18.6895 26.8313 19.3625 27.1478 19.8246 27.7816C20.2875 28.4146 20.5182 29.3348 20.5182 30.5423C20.5182 31.3073 20.405 31.9808 20.178 32.5643C19.9517 33.1478 19.627 33.5933 19.2046 33.9008ZM18.3913 28.9516C18.1554 28.5646 17.805 28.3718 17.3377 28.3718C17.0578 28.3718 16.7698 28.4386 16.4744 28.5713C16.1791 28.7048 15.9241 28.8691 15.7111 29.0633V32.1773C15.8933 32.3453 16.1188 32.4931 16.3877 32.6221C16.6566 32.7511 16.9336 32.8156 17.2179 32.8156C17.6889 32.8156 18.0614 32.6108 18.3347 32.2013C18.608 31.7918 18.7446 31.2481 18.7446 30.5701C18.7446 29.8778 18.6271 29.3386 18.3913 28.9516ZM11.4572 25.9831C11.0921 25.9831 10.8437 25.9066 10.71 25.7528C10.577 25.5991 10.5102 25.3793 10.5102 25.0943C10.5102 24.7778 10.5815 24.5506 10.7233 24.4126C10.8658 24.2746 11.1104 24.2056 11.4572 24.2056C11.8033 24.2056 12.0516 24.2723 12.2 24.4058C12.3491 24.5393 12.4233 24.7688 12.4233 25.0943C12.4233 25.4251 12.344 25.6553 12.1838 25.7866C12.0237 25.9178 11.7812 25.9831 11.4572 25.9831ZM10.6101 27.0353H12.33V34.4573C12.33 35.3078 12.1434 35.9161 11.7702 36.2821C11.397 36.6488 10.7857 36.8318 9.93639 36.8318C9.74537 36.8318 9.49411 36.8101 9.18333 36.7673C8.87182 36.7246 8.63231 36.6781 8.46333 36.6286L8.83656 35.1083C9.16129 35.2396 9.49631 35.3056 9.84309 35.3056C10.1899 35.3056 10.4044 35.1968 10.4867 34.9793C10.569 34.7626 10.6101 34.4033 10.6101 33.9008V27.0353Z" fill="white"/>
<path id="Vector_3" fill-rule="evenodd" clip-rule="evenodd" d="M35.9999 11.9242V13.4963H25.8515C23.7503 13.4963 22.7812 11.7563 22.7812 9.6105V0H24.3182L35.9999 11.9242Z" fill="#FFCF8B"/>
</g>
</svg>
