<svg width="36" height="48" viewBox="0 0 36 48" fill="none" xmlns="http://www.w3.org/2000/svg">
<g id="Group">
<path id="Vector" fill-rule="evenodd" clip-rule="evenodd" d="M36 12.6315V44.2103C36 46.3035 34.3322 48 32.2758 48H3.72416C1.66702 48 0 46.3035 0 44.2103V3.78975C0 1.6965 1.66702 0 3.72416 0H23.5859L36 12.6315Z" fill="#D15AE3"/>
<path id="Vector_2" fill-rule="evenodd" clip-rule="evenodd" d="M27.8573 36.1365C27.2842 36.6 26.3637 36.8318 25.0971 36.8318C24.0523 36.8318 23.1391 36.6285 22.3567 36.2213L22.8636 34.7895C23.588 35.133 24.3322 35.3055 25.0971 35.3055C25.8082 35.3055 26.3027 35.2013 26.5804 34.9935C26.8581 34.785 26.997 34.4348 26.997 33.9413V33.3578C26.4283 33.8873 25.7414 34.152 24.9369 34.152C24.0832 34.152 23.4124 33.84 22.9231 33.216C22.4345 32.5913 22.1899 31.6935 22.1899 30.522C22.1899 29.7893 22.3045 29.1435 22.533 28.5855C22.7622 28.0268 23.098 27.5948 23.5402 27.2895C23.9825 26.9843 24.5167 26.8313 25.1433 26.8313C25.5129 26.8313 25.8817 26.9138 26.2505 27.0788C26.6193 27.2445 26.9287 27.453 27.177 27.7065L27.404 27.0353H28.7176V34.0163C28.7176 34.9658 28.4311 35.673 27.8573 36.1365ZM26.997 29.0093C26.526 28.584 26.0125 28.3718 25.4571 28.3718C25.039 28.3718 24.6856 28.566 24.3969 28.9553C24.1082 29.3438 23.9634 29.8575 23.9634 30.495C23.9634 31.2188 24.0913 31.7528 24.3469 32.0963C24.6026 32.4398 24.9347 32.6115 25.3439 32.6115C25.9126 32.6115 26.4636 32.379 26.997 31.9133V29.0093ZM19.2092 30.2303C19.2092 29.4885 19.1438 28.9935 19.0123 28.7445C18.8816 28.4963 18.6332 28.3718 18.2688 28.3718C17.7582 28.3718 17.1425 28.7153 16.4225 29.403V34.152H14.7019V27.0353H16.4225V27.9578C16.7869 27.5865 17.1756 27.306 17.5892 27.1163C18.0021 26.9265 18.4069 26.8313 18.8022 26.8313C19.5185 26.8313 20.0519 27.0308 20.4031 27.4283C20.7535 27.8265 20.9291 28.4843 20.9291 29.403V34.152H19.2092V30.2303ZM12.0746 33.9008C11.6522 34.2083 11.1482 34.362 10.5611 34.362C9.78751 34.362 9.12775 34.116 8.58114 33.6225V36.8318H6.86049V27.0353H8.44743V27.7335C8.76775 27.453 9.10424 27.2325 9.45763 27.072C9.81102 26.9115 10.2166 26.8313 10.6743 26.8313C11.5589 26.8313 12.2326 27.1478 12.6947 27.7815C13.1568 28.4145 13.3882 29.3348 13.3882 30.5423C13.3882 31.3073 13.2751 31.9808 13.0481 32.5643C12.8218 33.1478 12.4971 33.5933 12.0746 33.9008ZM11.2613 28.9515C11.0255 28.5645 10.6743 28.3718 10.2078 28.3718C9.92784 28.3718 9.63984 28.4385 9.34449 28.5713C9.04841 28.7048 8.7942 28.869 8.58114 29.0633V32.1773C8.76335 32.3453 8.9889 32.493 9.25779 32.622C9.52669 32.751 9.80294 32.8155 10.088 32.8155C10.5589 32.8155 10.9314 32.6108 11.2047 32.2013C11.478 31.7918 11.6147 31.248 11.6147 30.57C11.6147 29.8778 11.4971 29.3385 11.2613 28.9515Z" fill="white"/>
<path id="Vector_3" fill-rule="evenodd" clip-rule="evenodd" d="M35.9999 11.9242V13.4963H25.8515C23.7503 13.4963 22.7812 11.7563 22.7812 9.6105V0H24.3182L35.9999 11.9242Z" fill="#ED91FA"/>
</g>
</svg>
