<svg width="36" height="48" viewBox="0 0 36 48" fill="none" xmlns="http://www.w3.org/2000/svg">
<g id="Group">
<path id="Vector" fill-rule="evenodd" clip-rule="evenodd" d="M36 12.6315V44.2103C36 46.3035 34.3322 48 32.2758 48H3.72416C1.66702 48 0 46.3035 0 44.2103V3.78975C0 1.6965 1.66702 0 3.72416 0H23.5859L36 12.6315Z" fill="#067FCB"/>
<path id="Vector_2" fill-rule="evenodd" clip-rule="evenodd" d="M27.1067 28.5106C26.898 28.4086 26.6291 28.3583 26.3 28.3583C25.7137 28.3583 25.2957 28.5413 25.0466 28.9073C24.7975 29.2741 24.6734 29.8418 24.6734 30.6106C24.6734 31.3793 24.8012 31.9411 25.0569 32.2966C25.3126 32.6513 25.749 32.8291 26.3668 32.8291C26.6335 32.8291 26.8782 32.7908 27.1001 32.7136C27.3227 32.6371 27.5335 32.4668 27.7334 32.2051L29.0338 33.1343C28.7671 33.5371 28.4159 33.8423 27.9802 34.0501C27.5446 34.2578 26.9935 34.3621 26.3272 34.3621C25.1979 34.3621 24.3442 34.0493 23.7668 33.4223C23.1886 32.7961 22.8998 31.8676 22.8998 30.6376C22.8998 29.4391 23.1797 28.5053 23.7396 27.8356C24.3001 27.1666 25.1399 26.8313 26.2603 26.8313C26.8606 26.8313 27.3947 26.9311 27.8634 27.1298C28.3329 27.3293 28.6892 27.6368 28.9339 28.0523L27.654 28.9823C27.4983 28.7693 27.3161 28.6126 27.1067 28.5106ZM18.3256 34.3621C16.0855 34.3621 14.9651 33.1118 14.9651 30.6106C14.9651 29.4076 15.234 28.4768 15.7718 27.8183C16.3096 27.1606 17.1611 26.8313 18.3256 26.8313C19.4813 26.8313 20.3284 27.1606 20.8662 27.8183C21.404 28.4768 21.6729 29.4076 21.6729 30.6106C21.6729 31.7956 21.404 32.7173 20.8662 33.3751C20.3284 34.0336 19.4813 34.3621 18.3256 34.3621ZM19.5327 28.8976C19.2925 28.5376 18.8906 28.3583 18.3256 28.3583C17.7658 28.3583 17.361 28.5421 17.1126 28.9111C16.8636 29.2793 16.7387 29.8463 16.7387 30.6106C16.7387 31.3703 16.8621 31.9298 17.109 32.2898C17.3558 32.6491 17.7614 32.8291 18.3256 32.8291C18.881 32.8291 19.2815 32.6513 19.5261 32.2966C19.77 31.9411 19.8927 31.3793 19.8927 30.6106C19.8927 29.8283 19.773 29.2568 19.5327 28.8976ZM11.7986 33.4598C11.4783 33.7358 11.1403 33.9556 10.7847 34.1183C10.4291 34.2811 10.0243 34.3621 9.571 34.3621C8.69084 34.3621 8.01786 34.0388 7.55133 33.3923C7.08406 32.7451 6.85117 31.8316 6.85117 30.6511C6.85117 29.4436 7.10757 28.5053 7.62113 27.8356C8.13468 27.1666 8.85541 26.8313 9.7848 26.8313C10.1132 26.8313 10.4512 26.9003 10.7979 27.0383C11.1447 27.1763 11.4312 27.3518 11.6583 27.5641V24.0496H13.3782V34.1521H11.7986V33.4598ZM11.6583 29.0093C11.4761 28.8421 11.2505 28.6936 10.9816 28.5646C10.7127 28.4363 10.4379 28.3718 10.158 28.3718C9.6959 28.3718 9.32488 28.5743 9.04423 28.9786C8.76431 29.3836 8.62472 29.9318 8.62472 30.6241C8.62472 31.3073 8.73859 31.8428 8.96782 32.2321C9.19704 32.6213 9.55117 32.8156 10.0317 32.8156C10.316 32.8156 10.6055 32.7488 10.9015 32.6153C11.1969 32.4818 11.4489 32.3176 11.6583 32.1233V29.0093Z" fill="white"/>
<path id="Vector_3" fill-rule="evenodd" clip-rule="evenodd" d="M35.9999 11.9242V13.4963H25.8515C23.7503 13.4963 22.7812 11.7563 22.7812 9.6105V0H24.3182L35.9999 11.9242Z" fill="#7CC9F9"/>
</g>
</svg>
