<svg width="36" height="48" viewBox="0 0 36 48" fill="none" xmlns="http://www.w3.org/2000/svg">
<g id="Group">
<path id="Vector" fill-rule="evenodd" clip-rule="evenodd" d="M36 12.6315V44.2103C36 46.3035 34.3322 48 32.2758 48H3.72416C1.66702 48 0 46.3035 0 44.2103V3.78975C0 1.6965 1.66702 0 3.72416 0H23.5859L36 12.6315Z" fill="#B3B3B3"/>
<path id="Vector_2" fill-rule="evenodd" clip-rule="evenodd" d="M24.1336 32.6797C24.2688 32.838 24.4613 32.9167 24.7104 32.9167C25.0256 32.9167 25.3393 32.8515 25.6501 32.7202L25.9505 34.152C25.4877 34.2922 25.0013 34.362 24.49 34.362C23.6811 34.362 23.0985 34.1767 22.7429 33.8062C22.3873 33.435 22.2095 32.8335 22.2095 32.001V28.4257H21.3227V27.0352H22.2095V25.0537H23.9301V27.0352H25.5567V28.4257H23.9301V31.7775C23.9301 32.2207 23.9977 32.5215 24.1336 32.6797ZM19.1487 34.152L17.7624 31.8855L16.3084 34.152H14.4019L16.8154 30.6375L14.4416 27.0352H16.4487L17.8425 29.2875L19.2758 27.0352H21.1758L18.7689 30.5422L21.189 34.152H19.1487ZM11.1678 33.8062C10.8122 33.435 10.6344 32.8335 10.6344 32.001V28.4257H9.7476V27.0352H10.6344V25.0537H12.3543V27.0352H13.9816V28.4257H12.3543V31.7775C12.3543 32.2207 12.4219 32.5215 12.5578 32.6797C12.6937 32.838 12.8855 32.9167 13.1345 32.9167C13.4505 32.9167 13.7634 32.8515 14.075 32.7202L14.3747 34.152C13.9126 34.2922 13.4255 34.362 12.9149 34.362C12.1052 34.362 11.5234 34.1767 11.1678 33.8062Z" fill="white"/>
<path id="Vector_3" fill-rule="evenodd" clip-rule="evenodd" d="M35.9999 11.9242V13.4963H25.8515C23.7503 13.4963 22.7812 11.7563 22.7812 9.6105V0H24.3182L35.9999 11.9242Z" fill="#D6D6D6"/>
</g>
</svg>
