<svg width="36" height="48" viewBox="0 0 36 48" fill="none" xmlns="http://www.w3.org/2000/svg">
<g id="Group">
<path id="Vector" fill-rule="evenodd" clip-rule="evenodd" d="M36 12.6315V44.2103C36 46.3035 34.3322 48 32.2758 48H3.72416C1.66702 48 0 46.3035 0 44.2103V3.78975C0 1.6965 1.66702 0 3.72416 0H23.5859L36 12.6315Z" fill="#79AC00"/>
<path id="Vector_2" fill-rule="evenodd" clip-rule="evenodd" d="M23.2266 28.2631C22.8703 28.2631 22.6014 28.3253 22.4192 28.4498C22.237 28.5743 22.1459 28.7333 22.1459 28.9276C22.1459 29.1136 22.2282 29.2613 22.3928 29.3723C22.5573 29.4833 22.8821 29.5996 23.3662 29.7218C24.1619 29.9206 24.7298 30.1186 25.07 30.3151C25.4102 30.5123 25.668 30.7561 25.8436 31.0478C26.0192 31.3396 26.1066 31.6981 26.1066 32.1233C26.1066 32.5936 25.9898 32.9963 25.7569 33.3308C25.5233 33.6661 25.192 33.9211 24.7629 34.0973C24.3338 34.2743 23.8438 34.3621 23.2928 34.3621C21.8307 34.3621 20.8352 33.9481 20.3062 33.1208L21.5861 32.2051C21.7947 32.4946 22.0364 32.6873 22.3097 32.7848C22.5831 32.8823 22.8755 32.9311 23.1862 32.9311C24.004 32.9311 24.4132 32.6888 24.4132 32.2051C24.4132 31.9921 24.2978 31.8286 24.0664 31.7131C23.835 31.5976 23.4728 31.4791 22.9798 31.3568C22.0504 31.1491 21.3973 30.8543 21.0196 30.4748C20.6413 30.0946 20.4524 29.6018 20.4524 28.9958C20.4524 28.3673 20.689 27.8491 21.1629 27.4418C21.636 27.0353 22.3325 26.8313 23.2531 26.8313C23.8798 26.8313 24.4323 26.9333 24.9098 27.1366C25.3874 27.3406 25.7555 27.6458 26.0133 28.0523L24.7269 28.9823C24.4198 28.5031 23.9195 28.2631 23.2266 28.2631ZM17.1052 24.0496H18.8258V34.1521H17.1052V24.0496ZM13.8982 34.1521L12.5119 31.8856L11.0579 34.1521H9.15138L11.5649 30.6376L9.19106 27.0353H11.1982L12.5912 29.2876L14.0253 27.0353H15.9253L13.5184 30.5423L15.9385 34.1521H13.8982Z" fill="white"/>
<path id="Vector_3" fill-rule="evenodd" clip-rule="evenodd" d="M35.9999 11.9242V13.4963H25.8515C23.7503 13.4963 22.7812 11.7563 22.7812 9.6105V0H24.3182L35.9999 11.9242Z" fill="#B4E441"/>
</g>
</svg>
