<svg width="352" height="250" viewBox="19 0 353 210" fill="none" xmlns="http://www.w3.org/2000/svg">
<circle cx="59" cy="40" r="40" fill="#B8DFFF"/>
<path d="M57.9976 60.5469C55.1851 60.5469 52.6851 60.0651 50.4976 59.1016C48.3231 58.138 46.6043 56.7969 45.3413 55.0781C44.0783 53.3594 43.4077 51.3737 43.3296 49.1211H50.6733C50.7384 50.2018 51.0965 51.1458 51.7476 51.9531C52.3986 52.7474 53.2645 53.3659 54.3452 53.8086C55.4259 54.2513 56.6369 54.4727 57.978 54.4727C59.4103 54.4727 60.6799 54.2253 61.7866 53.7305C62.8934 53.2227 63.7593 52.5195 64.3843 51.6211C65.0093 50.7227 65.3153 49.6875 65.3022 48.5156C65.3153 47.3047 65.0028 46.237 64.3647 45.3125C63.7267 44.388 62.8022 43.6654 61.5913 43.1445C60.3934 42.6237 58.9481 42.3633 57.2554 42.3633H53.7202V36.7773H57.2554C58.6486 36.7773 59.866 36.5365 60.9077 36.0547C61.9624 35.5729 62.7892 34.8958 63.3882 34.0234C63.9871 33.138 64.2801 32.1159 64.2671 30.957C64.2801 29.8242 64.0262 28.8411 63.5054 28.0078C62.9976 27.1615 62.2749 26.5039 61.3374 26.0352C60.4129 25.5664 59.3257 25.332 58.0757 25.332C56.8517 25.332 55.7189 25.5534 54.6772 25.9961C53.6356 26.4388 52.7957 27.0703 52.1577 27.8906C51.5197 28.6979 51.1812 29.6615 51.1421 30.7812H44.1694C44.2215 28.5417 44.866 26.5755 46.103 24.8828C47.353 23.1771 49.0197 21.849 51.103 20.8984C53.1864 19.9349 55.5236 19.4531 58.1147 19.4531C60.784 19.4531 63.1017 19.9544 65.0679 20.957C67.047 21.9466 68.577 23.2812 69.6577 24.9609C70.7384 26.6406 71.2788 28.4961 71.2788 30.5273C71.2918 32.7799 70.6278 34.668 69.2866 36.1914C67.9585 37.7148 66.2137 38.7109 64.0522 39.1797V39.4922C66.8647 39.8828 69.0197 40.9245 70.5171 42.6172C72.0275 44.2969 72.7762 46.3867 72.7632 48.8867C72.7632 51.1263 72.1252 53.1315 70.8491 54.9023C69.5861 56.6602 67.8413 58.0404 65.6147 59.043C63.4012 60.0456 60.8621 60.5469 57.9976 60.5469Z" fill="#F0F7FF"/>
<path d="M193.462 28.201C193.543 25.2129 190.841 22.9102 188.113 21.8136C185.385 20.7171 182.361 20.3059 179.929 18.6405C177.779 17.1671 176.334 14.8643 174.513 12.9797C170.044 8.36051 163.069 6.44842 156.935 8.15491C150.8 9.86139 145.746 15.1248 144.194 21.4162C143.146 25.6652 143.865 30.6956 147.151 33.5192C150.968 36.7951 156.619 36.0686 161.504 35.0475C166.389 34.0263 171.919 33.0189 176.005 35.9453C178.464 37.7134 179.875 40.585 181.38 43.2372C182.885 45.8963 184.774 48.6103 187.616 49.604C190.458 50.6046 194.322 48.8775 194.436 45.8141" fill="#263238"/>
<path d="M193.267 29.8389C192.944 32.3403 194.718 34.5814 196.486 36.3496C198.253 38.1177 200.249 39.9887 200.564 42.497C200.927 45.4234 198.838 48.3018 199.442 51.1871C199.825 53.0169 201.223 54.4287 202.07 56.0872C203.259 58.4174 203.319 61.2409 202.594 63.7561C201.868 66.2782 200.706 71.9048 198.985 73.8648C194.235 79.279 186.675 83.953 179.727 85.5841C172.786 87.2083 165.569 87.222 158.46 86.7766C152.641 86.4133 145.941 86.6875 141.096 78.5183C138.583 74.2897 137.34 68.6631 136.003 63.9069C134.854 59.8154 133.859 55.4293 135.056 51.3516C135.754 48.9734 137.152 46.8626 137.844 44.4776C138.704 41.5033 138.388 38.3233 138.731 35.2462C139.477 28.5778 143.536 22.3893 149.288 19.1271C155.04 15.8717 162.337 15.6387 168.284 18.5171" fill="#263238"/>
<path d="M141.513 40.0982C142.057 31.5795 147.614 21.135 155.94 22.0533L181.918 28.8107C184.444 29.0917 186.346 31.2916 186.292 33.8891L183.369 97.8172C183.43 97.8309 183.49 97.8446 183.551 97.8583C183.551 97.8583 177.631 115.889 160.449 110.379C157.042 109.29 155.49 105.486 154.811 101.58L154.636 101.6C154.636 101.134 154.623 100.702 154.616 100.264C154.052 95.7543 154.515 91.4847 154.515 91.4847C154.468 86.3241 154.475 84.2064 154.468 84.2544C154.468 84.2544 143.798 82.4245 141.621 68.2107C140.539 61.1449 140.908 49.5627 141.513 40.0982Z" fill="#FFBE9D"/>
<path d="M145.699 48.6582C145.666 49.6177 146.432 50.4469 147.42 50.5018C148.401 50.5566 149.227 49.8233 149.268 48.8638C149.301 47.9043 148.535 47.0751 147.554 47.0202C146.573 46.9654 145.74 47.6987 145.706 48.6582H145.699Z" fill="#263238"/>
<path d="M143.966 46.1293C144.187 46.3691 145.545 45.348 147.467 45.3617C149.388 45.3411 150.793 46.3554 151.001 46.1156C151.102 46.0128 150.88 45.581 150.269 45.1218C149.664 44.6695 148.636 44.224 147.44 44.224C146.244 44.224 145.236 44.6764 144.658 45.1355C144.066 45.5947 143.865 46.0265 143.972 46.1293H143.966Z" fill="#263238"/>
<path d="M164.588 48.6585C164.555 49.618 165.321 50.4473 166.308 50.5021C167.289 50.5569 168.116 49.8236 168.149 48.8641C168.183 47.9047 167.417 47.0754 166.436 47.0206C165.455 46.9658 164.628 47.6991 164.588 48.6585Z" fill="#263238"/>
<path d="M162.854 46.5407C163.076 46.7805 164.433 45.7594 166.355 45.7731C168.277 45.7525 169.681 46.7668 169.89 46.527C169.99 46.4242 169.769 45.9924 169.157 45.5332C168.552 45.0741 167.524 44.6354 166.328 44.6354C165.132 44.6354 164.124 45.0878 163.546 45.5469C162.955 46.0061 162.753 46.4379 162.861 46.5407H162.854Z" fill="#263238"/>
<path d="M155.852 61.0626C155.859 60.953 154.67 60.7405 152.735 60.4801C152.244 60.4253 151.78 60.3293 151.7 59.9867C151.586 59.6234 151.794 59.0889 152.029 58.5063C152.493 57.2933 152.977 56.0254 153.487 54.6959C155.517 49.2749 156.981 44.8133 156.766 44.7311C156.551 44.6489 154.73 48.9802 152.708 54.4012C152.217 55.7376 151.754 57.0123 151.31 58.2322C151.122 58.801 150.799 59.4453 151.048 60.1991C151.182 60.5761 151.539 60.8433 151.854 60.9324C152.17 61.0284 152.446 61.0352 152.688 61.0489C154.636 61.1586 155.846 61.1723 155.852 61.0626Z" fill="#263238"/>
<path d="M154.468 84.2546C154.468 84.2546 163.835 84.8919 173.128 79.2242C173.128 79.2242 168.418 89.0451 154.482 87.6881L154.468 84.2614V84.2546Z" fill="#EB996E"/>
<path d="M156.652 65.7845C157.344 64.8525 158.561 64.3453 159.757 64.4824C160.59 64.5784 161.43 64.9896 161.94 65.6817C162.444 66.3739 162.552 67.3608 162.088 68.0187C161.571 68.7589 160.482 68.9302 159.568 68.663C158.655 68.3957 157.862 67.7789 157.116 67.1621C156.908 66.9907 156.699 66.8126 156.572 66.5795C156.444 66.3465 156.417 66.045 156.572 65.8531" fill="#EB996E"/>
<path d="M161.504 62.4265C161.195 62.4059 161.181 64.5373 159.394 66.0382C157.606 67.5528 155.382 67.3061 155.369 67.6008C155.342 67.731 155.866 68.012 156.8 68.0463C157.72 68.0805 159.064 67.779 160.16 66.8606C161.248 65.9354 161.725 64.7018 161.793 63.8314C161.873 62.9405 161.645 62.4128 161.497 62.4265H161.504Z" fill="#263238"/>
<path d="M162.001 43.107C162.189 43.6415 164.111 43.3948 166.362 43.6758C168.62 43.9088 170.441 44.5873 170.736 44.1144C170.871 43.8883 170.555 43.3811 169.823 42.8671C169.097 42.3531 167.934 41.8597 166.577 41.702C165.226 41.5513 163.983 41.7637 163.164 42.1064C162.337 42.4422 161.92 42.8603 162.001 43.1138V43.107Z" fill="#263238"/>
<path d="M144.685 40.4617C145.021 40.9072 146.345 40.448 147.937 40.4275C149.53 40.3521 150.874 40.7358 151.189 40.2698C151.324 40.0437 151.115 39.5982 150.524 39.1733C149.946 38.7552 148.972 38.4057 147.883 38.44C146.788 38.4742 145.841 38.8717 145.283 39.3309C144.718 39.7901 144.53 40.2424 144.685 40.4617Z" fill="#263238"/>
<path d="M191.648 75.5441C187.817 76.3323 183.645 75.1329 180.782 72.419C177.919 69.7051 176.441 65.5519 176.932 61.5975C177.362 58.1092 179.21 54.5592 178.02 51.2558C176.455 46.8902 170.454 45.547 168.862 41.1882C167.934 38.6594 168.767 35.6919 167.719 33.2109C166.731 30.8808 164.326 29.5307 161.981 28.6672C159.636 27.8036 157.129 27.2074 155.16 25.6448C153.192 24.0823 151.969 21.1422 153.239 18.956C163.627 20.2238 173.868 22.7664 183.671 26.4947C185.943 27.3582 188.335 28.3999 189.672 30.4627C191.097 32.6421 191.023 35.4588 190.908 38.0768C190.324 50.8309 189.739 63.585 189.161 76.3391" fill="#263238"/>
<path d="M190.774 80.4303C190.774 80.4303 190.855 80.3892 190.996 80.2864C191.164 80.1562 191.365 79.9985 191.614 79.8066C192.152 79.3749 192.944 78.7375 193.919 77.8603C194.886 76.9762 196.062 75.8523 197.191 74.3445C198.313 72.8436 199.415 70.8973 199.798 68.4986C200.215 66.1685 199.906 63.2284 198.004 61.0216C197.064 59.9388 195.861 59.1301 194.759 58.198C193.637 57.2865 192.709 56.1214 192.225 54.6754C191.197 51.7764 191.654 48.4251 191.258 44.9984C190.814 41.5923 189.625 38.0697 187.307 35.2119C186.151 33.8001 184.767 32.5733 183.174 31.7715C181.595 30.9217 179.882 30.5721 178.303 30.0924C176.703 29.6401 175.238 28.9685 174.029 27.9404C172.806 26.933 171.805 25.7131 170.924 24.4521C169.177 21.9163 167.881 19.2161 166.214 16.9682C165.388 15.8443 164.48 14.8231 163.472 13.9939C162.458 13.1715 161.349 12.5615 160.22 12.1846C157.976 11.4033 155.597 11.6637 154.038 12.8151C152.493 14.0144 151.928 15.7415 151.841 17.0642C151.774 18.428 152.231 19.456 152.681 19.9906C152.903 20.2647 153.098 20.4497 153.245 20.5457C153.386 20.6553 153.46 20.7033 153.467 20.6964C153.467 20.6896 153.413 20.6211 153.286 20.4977C153.151 20.388 152.97 20.1962 152.775 19.9152C152.372 19.3738 151.982 18.3869 152.076 17.0847C152.19 15.8169 152.782 14.1858 154.233 13.1029C155.705 12.0612 157.942 11.8351 160.079 12.6095C161.154 12.9796 162.216 13.5758 163.177 14.3708C164.138 15.1658 165.011 16.1732 165.811 17.2766C167.424 19.4903 168.694 22.1836 170.468 24.7879C171.361 26.0763 172.383 27.3511 173.666 28.4133C174.929 29.4962 176.522 30.2295 178.141 30.6886C179.754 31.1752 181.42 31.5248 182.905 32.3334C184.411 33.101 185.734 34.2661 186.843 35.6231C189.061 38.3644 190.236 41.7774 190.667 45.0875C191.07 48.3977 190.599 51.8038 191.701 54.881C192.212 56.4161 193.26 57.7046 194.416 58.6298C195.558 59.5824 196.741 60.3637 197.628 61.3711C199.415 63.3997 199.751 66.1685 199.375 68.4301C199.039 70.7465 198.004 72.6449 196.922 74.1389C195.834 75.6398 194.705 76.7775 193.764 77.6821C192.817 78.5867 192.051 79.2515 191.54 79.7107C191.029 80.1699 190.761 80.4166 190.774 80.4372V80.4303Z" fill="#455A64"/>
<path d="M193.314 82.1919C196.177 79.3683 201.068 81.8218 203.467 85.0635C205.866 88.3051 207.573 92.4788 211.222 94.103C214.87 95.7341 219.614 94.3292 222.672 96.9266C226.892 100.504 224.52 108.79 229.089 111.901C230.903 113.135 233.289 113.094 235.224 114.108C239.786 116.507 239.733 123.072 239.027 128.26C238.039 135.538 236.951 143.084 233.013 149.238C229.076 155.393 221.409 159.724 214.588 157.346C208.037 155.064 204.67 147.854 202.009 141.336C198.32 132.317 194.631 123.305 190.949 114.286C188.819 109.071 186.662 103.773 185.97 98.1671C185.278 92.561 186.212 86.5027 189.706 82.1165" fill="#263238"/>
<path d="M195.148 75.9691C197.232 75.7155 198.817 78.3129 198.266 80.3758C197.722 82.4386 195.773 83.8162 193.798 84.5221C192.689 84.9196 191.493 85.1594 190.344 84.9264C189.195 84.6934 188.1 83.919 187.73 82.7813C187.34 81.5888 187.643 80.7801 188.684 80.1154C190.055 79.245 190.855 78.5596 191.937 77.9497C193.59 77.0176 193.489 76.8943 195.142 75.9691" fill="#006FCC"/>
<path d="M147.285 98.8249L155.369 92.5814L185.808 90.6008L187.031 94.7608L177.133 157.791L184.941 232.979H142.474L147.285 98.8249Z" fill="#42AEFD"/>
<g opacity="0.3">
<path d="M179.882 206.306C178.914 205.251 177.315 203.791 175.897 203.764C165.73 203.537 155.342 202.496 145.169 202.27L144.355 233C146.788 228.628 149.093 224.077 149.731 219.088C150.013 216.908 150.369 214.304 152.318 213.372C153.42 212.844 154.71 213.05 155.906 213.29C159.582 214.03 163.231 214.996 166.967 215.236C170.703 215.476 174.614 214.914 177.752 212.837C178.827 212.125 179.828 211.199 180.332 209.993C180.836 208.787 180.755 207.266 179.875 206.306H179.882Z" fill="black"/>
</g>
<path d="M153.87 100.1L152.93 91.0876C152.762 89.4976 153.904 88.0858 155.463 87.9419L183.49 85.3582C184.249 85.2896 184.908 85.8859 184.935 86.6603L185.251 97.3789L177.133 111.421L168.794 114.129H158.594L152.728 107.741L153.877 100.093L153.87 100.1Z" fill="#42AEFD"/>
<path d="M181.111 93.9383C181.111 93.9383 180.708 93.8972 179.989 93.8218C179.27 93.7533 178.222 93.6916 176.932 93.767C175.642 93.8424 174.116 94.0617 172.443 94.4249C170.77 94.7813 168.949 95.2884 167.02 95.7613C165.092 96.241 163.231 96.6248 161.504 96.7619C159.777 96.9058 158.204 96.7756 156.928 96.4466C155.651 96.1314 154.69 95.6311 154.072 95.2336C153.763 95.028 153.534 94.8567 153.386 94.7333C153.239 94.6031 153.165 94.5346 153.178 94.5277C153.198 94.5003 153.514 94.7539 154.139 95.1171C154.771 95.4735 155.725 95.9189 156.981 96.1999C158.231 96.4946 159.777 96.5906 161.47 96.4329C163.17 96.2822 165.011 95.8847 166.933 95.4118C168.855 94.932 170.683 94.4386 172.369 94.0959C174.056 93.7464 175.601 93.5477 176.912 93.5066C178.215 93.4586 179.277 93.5614 179.996 93.671C180.359 93.7327 180.634 93.7875 180.822 93.8355C181.011 93.8835 181.105 93.9109 181.105 93.9246L181.111 93.9383Z" fill="#263238"/>
<g opacity="0.3">
<path d="M154.535 95.357C153.783 97.461 153.763 100.065 155.288 101.683C156.531 102.999 158.52 103.327 160.274 102.971C162.028 102.615 163.607 101.676 165.146 100.737C169.003 98.3931 172.927 95.9738 177.308 94.9801C177.59 94.9184 177.886 94.8499 178.094 94.6443C178.303 94.4387 178.35 94.0412 178.121 93.8698C178.02 93.7945 177.886 93.7739 177.758 93.7602C173.881 93.3627 170.031 94.4798 166.234 95.3502C162.431 96.2205 158.372 96.8373 154.71 95.4872" fill="black"/>
</g>
<path d="M159.891 87.6472C159.918 87.6952 159.347 87.8391 158.93 88.5793C158.487 89.3057 158.514 90.5325 158.547 91.862C158.621 94.528 159.051 96.6594 158.95 96.6799C158.903 96.6868 158.742 96.1659 158.574 95.3024C158.406 94.4389 158.245 93.219 158.204 91.8689C158.191 91.1904 158.184 90.553 158.245 89.9568C158.305 89.3674 158.473 88.826 158.729 88.4422C158.984 88.0584 159.286 87.8254 159.521 87.7226C159.75 87.6198 159.898 87.6198 159.898 87.6404L159.891 87.6472Z" fill="#263238"/>
<path d="M167.296 95.4804C167.189 95.4667 167.437 93.5066 167.094 91.1148C166.772 88.723 165.992 86.9068 166.1 86.8657C166.14 86.8452 166.382 87.2769 166.671 88.0239C166.96 88.771 167.269 89.8469 167.444 91.06C167.612 92.2799 167.605 93.397 167.531 94.192C167.457 94.9938 167.343 95.4735 167.296 95.4667V95.4804Z" fill="#263238"/>
<path d="M176.32 86.1186C176.354 86.0981 176.609 86.4818 176.858 87.1809C177.1 87.8731 177.295 88.9011 177.227 90.0387C177.153 91.1764 176.824 92.1633 176.495 92.8212C176.166 93.4791 175.857 93.8218 175.83 93.8012C175.729 93.7533 176.757 92.2181 176.885 90.0113C177.046 87.8114 176.226 86.1529 176.334 86.1186H176.32Z" fill="#263238"/>
<path d="M137.024 102.882C137.024 102.882 127.469 109.407 124.963 121.194C122.987 130.46 117.585 179.407 117.585 179.407L108.117 198.205L114.299 213.201C119.594 213.584 124.848 212.049 129.149 208.869L133.308 205.792L140.935 194.251L137.031 102.882H137.024Z" fill="#EBEBEB"/>
<path d="M153.225 94.2401L137.024 102.882L133.201 115.691L129.794 152.829L136.211 196.369L124.963 232.849L144.362 232.993L144.819 211.611L146.754 142.392L148.663 98.3041L153.225 94.2401Z" fill="#EBEBEB"/>
<path d="M145.377 151.938C145.377 151.938 145.262 151.767 145.074 151.424C144.873 151.047 144.604 150.547 144.268 149.91C143.932 149.245 143.609 148.388 143.186 147.415C142.984 146.922 142.823 146.38 142.622 145.811C142.427 145.243 142.212 144.64 142.05 143.995C140.525 138.869 139.517 131.461 139.732 123.291C139.752 122.661 139.779 122.03 139.82 121.407V121.297L139.927 121.256C140.888 120.845 141.835 120.44 142.763 120.043L142.722 120.344C141.748 119.549 140.801 118.768 139.893 118.021L139.833 117.973V117.905C139.699 114.827 140.431 112.059 141.123 109.646C141.835 107.227 142.615 105.144 143.3 103.437C143.986 101.724 144.584 100.387 145.007 99.4759C145.222 99.0236 145.39 98.6741 145.504 98.441C145.625 98.208 145.692 98.0915 145.699 98.0915C145.706 98.0915 145.659 98.2217 145.558 98.4616C145.444 98.7289 145.296 99.0784 145.108 99.517C144.711 100.442 144.147 101.792 143.495 103.506C142.843 105.226 142.084 107.309 141.399 109.722C140.733 112.12 140.028 114.889 140.169 117.87L140.109 117.754C141.022 118.501 141.97 119.268 142.944 120.063L143.173 120.248L142.904 120.365C141.977 120.762 141.036 121.167 140.068 121.585L140.176 121.434C140.135 122.044 140.109 122.675 140.088 123.298C139.88 131.433 140.841 138.807 142.299 143.927C142.454 144.578 142.662 145.174 142.843 145.743C143.032 146.312 143.186 146.853 143.381 147.347C143.784 148.32 144.086 149.183 144.402 149.855C144.711 150.499 144.96 151.013 145.148 151.397C145.316 151.753 145.397 151.938 145.39 151.945L145.377 151.938Z" fill="#263238"/>
<path d="M132.67 177.94C132.67 177.94 132.603 177.755 132.516 177.405C132.422 177.015 132.294 176.501 132.133 175.85C131.965 175.171 131.77 174.342 131.588 173.369C131.4 172.396 131.152 171.299 130.963 170.066C130.748 168.839 130.527 167.489 130.345 166.036C130.13 164.583 129.982 163.02 129.808 161.382C129.519 158.093 129.324 154.467 129.317 150.664C129.337 146.853 129.546 143.228 129.848 139.938C130.029 138.3 130.177 136.738 130.399 135.285C130.587 133.832 130.816 132.482 131.031 131.255C131.225 130.021 131.474 128.925 131.669 127.952C131.857 126.978 132.052 126.149 132.227 125.478C132.388 124.827 132.516 124.306 132.616 123.922C132.711 123.566 132.764 123.38 132.778 123.387C132.791 123.387 132.758 123.579 132.69 123.942C132.61 124.333 132.502 124.854 132.368 125.512C132.22 126.19 132.045 127.026 131.871 128C131.696 128.973 131.461 130.076 131.286 131.303C131.084 132.53 130.869 133.88 130.695 135.333C130.486 136.779 130.345 138.341 130.177 139.972C129.895 143.248 129.693 146.867 129.68 150.664C129.68 154.46 129.868 158.079 130.144 161.355C130.305 162.993 130.446 164.549 130.648 166.001C130.816 167.454 131.024 168.805 131.225 170.031C131.4 171.265 131.629 172.368 131.803 173.341C131.971 174.315 132.146 175.151 132.294 175.829C132.428 176.487 132.536 177.008 132.61 177.399C132.677 177.762 132.711 177.947 132.697 177.954L132.67 177.94Z" fill="#263238"/>
<path d="M137.051 211.377C137.091 211.398 136.816 212.049 136.265 213.043C135.714 214.037 134.867 215.359 133.785 216.709C132.704 218.059 131.595 219.17 130.748 219.91C129.901 220.657 129.33 221.061 129.303 221.027C129.27 220.986 129.781 220.513 130.58 219.725C131.373 218.937 132.441 217.813 133.517 216.483C134.585 215.147 135.459 213.865 136.057 212.913C136.655 211.96 137.011 211.357 137.058 211.384L137.051 211.377Z" fill="#263238"/>
<path d="M211.491 101.82C218.412 104.554 223.545 110.613 225.185 117.994C230.48 141.823 239.551 173.513 239.692 183.738C239.874 196.759 234.29 205.676 227.006 207.32C221.241 208.623 169.003 205.703 169.003 205.703L166.557 185.849L208.863 179.496L203.071 146.483L208.803 100.758L211.491 101.82Z" fill="#EBEBEB"/>
<path d="M208.796 100.757L197.097 95.8846L184.767 88.5173L184.686 90.6692C186.198 93.3078 186.715 96.4123 186.151 99.4141L175.89 154.015L178.215 193.908L182.993 233H220.091L203.057 192.119L209.071 137.032L208.789 100.771L208.796 100.757Z" fill="#EBEBEB"/>
<path d="M219.635 207.649C219.635 207.649 219.547 207.67 219.379 207.684C219.198 207.704 218.949 207.725 218.633 207.759C217.975 207.834 217.001 207.828 215.744 207.862C213.224 207.876 209.575 207.807 205.026 207.656C195.935 207.348 183.275 206.724 168.989 205.881H168.848L168.828 205.724C168.539 203.359 168.23 200.865 167.914 198.329C167.39 194.046 166.873 189.865 166.382 185.869L166.362 185.698L166.53 185.671C179.452 183.752 190.747 182.08 198.831 180.88C202.856 180.298 206.081 179.832 208.319 179.51C209.414 179.359 210.268 179.242 210.866 179.153C211.141 179.119 211.363 179.091 211.524 179.071C211.672 179.057 211.746 179.05 211.753 179.05C211.759 179.05 211.679 179.071 211.531 179.098L210.872 179.215C210.274 179.311 209.428 179.448 208.332 179.626C206.101 179.976 202.883 180.476 198.865 181.1C190.781 182.326 179.492 184.046 166.577 186.013L166.725 185.821C167.215 189.824 167.733 193.998 168.264 198.281C168.573 200.81 168.882 203.304 169.171 205.676L169.01 205.518C183.295 206.375 195.948 207.039 205.033 207.41C209.575 207.595 213.224 207.697 215.744 207.725C217.001 207.711 217.975 207.738 218.633 207.691C218.949 207.677 219.198 207.663 219.379 207.649C219.547 207.643 219.635 207.643 219.635 207.649Z" fill="#263238"/>
<path d="M202.728 143.146C202.728 143.146 202.769 143.276 202.822 143.516C202.876 143.797 202.943 144.146 203.024 144.571C203.199 145.544 203.434 146.86 203.723 148.471C204.294 151.815 205.067 156.345 205.92 161.355C206.74 166.372 207.479 170.908 208.03 174.26C208.279 175.877 208.48 177.2 208.628 178.18C208.689 178.612 208.736 178.961 208.776 179.249C208.803 179.496 208.816 179.626 208.803 179.626C208.789 179.626 208.756 179.503 208.709 179.263C208.655 178.982 208.581 178.632 208.5 178.207C208.326 177.234 208.084 175.918 207.788 174.308C207.203 171.011 206.417 166.461 205.577 161.423C204.737 156.386 203.992 151.829 203.481 148.519C203.239 146.901 203.037 145.578 202.89 144.598C202.836 144.167 202.789 143.81 202.748 143.529C202.722 143.283 202.715 143.152 202.728 143.152V143.146Z" fill="#263238"/>
<path d="M190.149 92.3623C190.149 92.3623 190.169 92.4034 190.196 92.4925L190.304 92.89C190.391 93.2464 190.539 93.7604 190.68 94.4457C190.982 95.8027 191.332 97.8039 191.574 100.319C191.815 102.834 191.923 105.877 191.795 109.283C191.681 112.689 191.325 116.459 190.821 120.454L190.808 120.578L190.687 120.598C189.47 120.831 188.173 121.071 186.863 121.325L186.991 121.085C187.206 121.681 187.434 122.325 187.609 122.997C188.852 127.63 188.308 132.311 187.172 136.231C186.016 140.185 184.256 143.461 182.677 146.099C181.084 148.738 179.64 150.773 178.645 152.178C178.155 152.857 177.765 153.391 177.483 153.782C177.355 153.947 177.254 154.084 177.174 154.193C177.1 154.282 177.066 154.33 177.059 154.323C177.053 154.317 177.086 154.269 177.147 154.166C177.221 154.049 177.315 153.912 177.429 153.734C177.698 153.337 178.067 152.788 178.538 152.089C179.492 150.664 180.903 148.608 182.469 145.962C184.014 143.317 185.741 140.048 186.863 136.128C187.972 132.242 188.496 127.623 187.273 123.079C187.105 122.428 186.877 121.791 186.668 121.208L186.594 121.002L186.796 120.961C188.106 120.715 189.403 120.475 190.619 120.242L190.478 120.393C190.989 116.404 191.359 112.648 191.493 109.256C191.641 105.863 191.56 102.834 191.345 100.326C191.137 97.8176 190.821 95.8164 190.559 94.4526C190.438 93.7672 190.31 93.2464 190.243 92.89C190.209 92.7255 190.189 92.5953 190.162 92.4857C190.149 92.3966 190.142 92.3486 190.149 92.3417V92.3623Z" fill="#263238"/>
<path d="M190.149 148.368V139.657C190.149 139.657 190.263 137.505 188.483 137.958C186.709 138.41 187.038 141.802 187.038 141.802C187.038 141.802 186.702 155.036 187.482 154.927C188.261 154.817 188.557 153.796 188.557 153.796V148.704L190.143 148.361L190.149 148.368Z" fill="#0A3F70"/>
<path d="M197.534 148.909C197.534 149.005 195.485 149.088 192.958 149.088C190.431 149.088 188.382 149.005 188.382 148.909C188.382 148.813 190.431 148.731 192.958 148.731C195.485 148.731 197.534 148.813 197.534 148.909Z" fill="#263238"/>
<path d="M214.427 106.987C214.427 106.987 214.091 107.131 213.473 107.35C212.861 107.583 211.974 107.926 210.933 108.467C208.863 109.543 206.162 111.49 204.065 114.437C203.535 115.163 203.084 115.924 202.715 116.678C202.372 117.452 202.097 118.227 201.902 118.987C201.498 120.502 201.324 121.914 201.223 123.106C201.122 124.292 201.102 125.265 201.095 125.93C201.095 126.601 201.095 126.971 201.068 126.971C201.042 126.971 200.995 126.601 200.954 125.937C200.921 125.265 200.9 124.292 200.968 123.092C201.042 121.893 201.189 120.461 201.586 118.912C201.774 118.137 202.049 117.342 202.399 116.541C202.782 115.752 203.232 114.978 203.776 114.238C205.913 111.236 208.688 109.283 210.812 108.255C211.88 107.734 212.787 107.419 213.419 107.227C214.057 107.049 214.413 106.973 214.42 107.001L214.427 106.987Z" fill="#263238"/>
<path d="M63.8418 179.407L124.963 202.496L176.482 210.528L115.226 180.071L63.8418 179.407Z" fill="#263238"/>
<path d="M90.001 204.298C89.5172 200.981 88.4018 197.753 86.7488 194.854C86.4262 194.285 86.0701 193.716 85.9155 193.079C85.7543 192.442 85.8282 191.701 86.2582 191.222C87.0444 190.351 88.4757 190.735 89.4433 191.393C91.439 192.757 92.7762 194.95 93.5557 197.266C94.3351 199.583 94.6241 202.036 94.8996 204.469" fill="#FFBE9D"/>
<path d="M113.822 198.363H110.784C110.18 197.712 109.259 197.136 108.117 196.8C107.418 196.595 106.726 196.979 106.108 197.595C107.465 195.313 108.93 192.798 109.212 192.113C109.756 190.776 108.554 189.769 106.585 189.769C104.616 189.769 95.9745 202.263 95.9745 202.263C95.9745 202.263 101.343 192.216 101.868 190.68C103.171 186.843 99.0521 186.555 97.5604 188.405C95.7058 190.701 88.2135 202.263 88.2135 202.263C88.2135 202.263 86.7889 204.606 87.7767 206.834C88.7645 209.068 91.6068 208.17 91.6068 208.17C91.6068 208.17 91.5867 210.123 93.616 211.275C95.8133 212.522 98.696 211.076 98.696 211.076L109.877 213.639C109.877 213.639 111.651 213.454 113.922 213.228C119.587 212.652 124.143 208.225 124.969 202.482L113.828 198.356L113.822 198.363Z" fill="#FFBE9D"/>
<path d="M106.283 197.43C106.41 197.506 104.918 199.898 102.99 202.756C102.022 204.188 101.129 205.469 100.47 206.388C99.8116 207.306 99.3748 207.861 99.3412 207.834C99.3009 207.806 99.657 207.203 100.269 206.244C100.88 205.291 101.74 203.982 102.708 202.55C103.675 201.118 104.562 199.829 105.207 198.904C105.496 198.5 105.752 198.143 105.98 197.814C106.168 197.554 106.256 197.43 106.283 197.424V197.43Z" fill="#EB996E"/>
<path d="M105.617 210.15C105.57 210.123 105.946 209.403 106.612 208.286C107.27 207.162 108.211 205.627 109.246 203.934C109.756 203.085 110.254 202.276 110.664 201.529C111.087 200.809 111.06 200.021 110.912 199.411C110.583 198.171 109.898 197.636 109.958 197.595C109.971 197.581 110.146 197.691 110.395 197.965C110.637 198.239 110.959 198.692 111.154 199.343C111.349 199.973 111.409 200.878 110.953 201.68C110.549 202.454 110.066 203.27 109.548 204.119C108.513 205.819 107.539 207.327 106.82 208.416C106.101 209.499 105.658 210.171 105.617 210.15Z" fill="#EB996E"/>
<path d="M111.497 211.281C111.45 211.268 111.638 210.569 112.088 209.5C112.33 208.938 112.599 208.314 112.888 207.642C113.177 206.943 113.513 206.176 113.707 205.34C113.909 204.531 113.775 203.667 113.351 203.112C113.15 202.838 112.847 202.674 112.552 202.53C112.263 202.393 111.974 202.304 111.718 202.29C111.215 202.317 110.791 202.598 110.516 202.722C110.233 202.865 110.065 202.934 110.059 202.913C110.045 202.893 110.186 202.783 110.448 202.605C110.583 202.516 110.744 202.406 110.952 202.297C111.161 202.194 111.389 202.057 111.718 202.043C112.034 202.036 112.35 202.125 112.673 202.262C112.982 202.399 113.338 202.571 113.607 202.907C114.124 203.565 114.265 204.524 114.05 205.422C113.842 206.306 113.492 207.08 113.183 207.779C112.868 208.478 112.565 209.088 112.317 209.609C111.806 210.644 111.544 211.295 111.497 211.281Z" fill="#EB996E"/>
<path d="M113.553 200.494C113.553 200.494 113.734 200.515 114.03 200.638C114.326 200.761 114.736 200.988 115.199 201.337C116.113 202.022 117.208 203.345 117.605 205.127C117.995 206.909 117.551 208.581 117.007 209.602C116.738 210.123 116.456 210.5 116.241 210.74C116.026 210.98 115.885 211.096 115.871 211.076C115.824 211.035 116.321 210.514 116.785 209.486C117.256 208.471 117.625 206.881 117.262 205.202C116.893 203.523 115.891 202.242 115.045 201.529C114.191 200.796 113.526 200.542 113.553 200.487V200.494Z" fill="#EB996E"/>
<path d="M93.8714 193.936C93.952 193.99 92.8164 195.841 91.3381 198.068C89.8598 200.296 88.5965 202.057 88.5159 202.002C88.4352 201.947 89.5709 200.097 91.0492 197.869C92.5275 195.642 93.7907 193.881 93.8714 193.936Z" fill="#EB996E"/>
<path d="M166.369 186.596L159.38 184.978L152.667 178.529C151.854 177.748 150.793 177.282 149.677 177.213L137.468 176.494C136.251 176.425 135.049 176.83 134.121 177.631L125.393 185.156L163.472 204.092L168.7 204.565L166.375 186.589L166.369 186.596Z" fill="#FFBE9D"/>
<path d="M145.672 183.265C145.659 183.32 144.765 183.155 143.321 182.963C141.896 182.806 139.799 182.6 137.79 183.546C136.789 184.005 135.929 184.643 135.156 185.225C134.384 185.814 133.691 186.363 133.08 186.788C132.468 187.213 131.944 187.507 131.568 187.685C131.192 187.857 130.97 187.932 130.963 187.912C130.936 187.857 131.77 187.48 132.932 186.582C133.517 186.143 134.189 185.575 134.955 184.965C135.727 184.362 136.594 183.697 137.643 183.224C138.677 182.724 139.779 182.545 140.76 182.511C141.748 182.484 142.622 182.593 143.347 182.71C144.073 182.833 144.658 182.963 145.054 183.066C145.451 183.169 145.672 183.238 145.666 183.258L145.672 183.265Z" fill="#EB996E"/>
<path d="M148.172 190.201C148.152 190.255 147.675 190.036 146.855 189.947C146.042 189.851 144.893 189.947 143.717 190.393C142.541 190.838 141.553 191.455 140.841 191.9C140.129 192.346 139.678 192.62 139.652 192.579C139.625 192.538 140.021 192.195 140.7 191.695C141.385 191.201 142.366 190.53 143.589 190.064C144.819 189.604 146.042 189.536 146.882 189.7C147.735 189.858 148.185 190.173 148.165 190.208L148.172 190.201Z" fill="#EB996E"/>
<path d="M163.889 191.352C163.802 191.407 162.821 189.92 161.524 188.151C160.234 186.376 159.112 184.992 159.192 184.923C159.259 184.862 160.503 186.15 161.806 187.939C163.116 189.721 163.97 191.304 163.896 191.359L163.889 191.352Z" fill="#EB996E"/>
<path d="M144.664 177.241L160.146 162.534C160.818 161.896 160.765 160.8 160.039 160.231C159.474 159.792 158.681 159.82 158.151 160.306L140.001 176.912" fill="#E8505B"/>
<g opacity="0.3">
<path d="M144.664 177.241L160.146 162.534C160.818 161.896 160.765 160.8 160.039 160.231C159.474 159.792 158.681 159.82 158.151 160.306L140.001 176.912" fill="#0A3F70"/>
</g>
<path d="M312.687 157.757C312.687 157.757 332.355 152.973 333 152.13L316.826 109.646C314.568 103.711 310.758 98.4477 305.618 94.8291C303.273 93.1774 300.706 91.8479 297.964 90.8953C287.455 87.2493 278.86 87.8866 278.86 87.8866L251.559 86.4063C243.079 86.9135 235.828 89.4492 230.023 92.4852C220.817 97.2963 213.721 105.459 209.797 115.218L197.561 146.421L228.444 153.007L229.62 186.52L224.963 232.76H310.241L309.643 159.463L312.687 157.757Z" fill="#7AC5FF"/>
<g opacity="0.3">
<path d="M329.633 146.586C329.66 146.682 324.56 148.375 318.237 150.376C311.914 152.377 306.767 153.919 306.74 153.823C306.713 153.727 311.813 152.034 318.136 150.033C324.459 148.032 329.607 146.49 329.633 146.586Z" fill="white"/>
</g>
<path d="M240.418 116.719C240.418 116.719 240.21 116.472 239.894 115.986C239.585 115.499 239.101 114.814 238.489 113.991C237.878 113.162 237.092 112.223 236.178 111.229C235.244 110.242 234.175 109.214 232.973 108.214C231.763 107.227 230.547 106.377 229.405 105.658C228.256 104.952 227.187 104.369 226.267 103.93C225.346 103.492 224.593 103.156 224.063 102.95C223.532 102.738 223.243 102.601 223.25 102.58C223.256 102.56 223.559 102.642 224.11 102.82C224.654 102.992 225.433 103.286 226.374 103.704C227.315 104.116 228.403 104.677 229.573 105.377C230.735 106.089 231.971 106.939 233.194 107.94C234.411 108.947 235.486 110.003 236.413 111.01C237.327 112.031 238.1 112.997 238.691 113.847C239.289 114.697 239.739 115.403 240.015 115.917C240.297 116.424 240.445 116.712 240.425 116.719H240.418Z" fill="#263238"/>
<path d="M236.386 126.855C236.48 126.862 235.533 137.101 234.263 149.704C232.993 162.321 231.884 172.533 231.79 172.519C231.696 172.512 232.644 162.28 233.92 149.663C235.19 137.053 236.299 126.834 236.393 126.848L236.386 126.855Z" fill="#263238"/>
<path d="M303.528 107.892C303.474 107.892 303.353 107.097 303.091 105.815C302.829 104.533 302.392 102.786 301.734 100.908C301.075 99.0302 300.316 97.3991 299.725 96.2409C299.133 95.0827 298.724 94.3836 298.771 94.3562C298.791 94.3425 298.918 94.5002 299.127 94.8017C299.335 95.1033 299.617 95.5487 299.947 96.1175C300.598 97.2552 301.405 98.8932 302.07 100.785C302.735 102.683 303.138 104.465 303.34 105.767C303.441 106.418 303.508 106.946 303.528 107.316C303.555 107.686 303.562 107.885 303.528 107.892Z" fill="#263238"/>
<path d="M305.235 143.673C305.235 143.673 305.154 143.317 305.067 142.666C304.98 142.015 304.879 141.076 304.771 139.904C304.55 137.574 304.314 134.339 304.193 130.768C304.072 127.191 304.079 123.956 304.14 121.612C304.173 120.44 304.207 119.495 304.247 118.837C304.287 118.186 304.321 117.822 304.341 117.822C304.368 117.822 304.382 118.186 304.382 118.843C304.382 119.563 304.382 120.495 304.382 121.619C304.382 123.963 304.415 127.191 304.536 130.761C304.657 134.332 304.852 137.553 305.013 139.89C305.087 141.007 305.154 141.939 305.201 142.659C305.242 143.31 305.255 143.673 305.228 143.68L305.235 143.673Z" fill="#263238"/>
<path d="M263.95 137.69C256.787 138.115 249.59 137.978 242.441 137.279V140.13H263.95V137.69Z" fill="white"/>
<g opacity="0.3">
<path d="M285.338 90.2991C285.338 90.2991 285.379 90.443 285.419 90.7309C285.466 91.0393 285.526 91.4642 285.607 91.9919C285.741 93.1021 285.93 94.7264 286.084 96.7824C286.407 100.901 286.689 106.754 286.783 113.669V113.936L286.554 113.82C282.267 111.695 277.456 109.379 272.457 106.823C262.922 101.957 254.294 97.55 248.018 94.3494C244.913 92.7458 242.4 91.4436 240.633 90.5321C239.78 90.0867 239.114 89.7303 238.631 89.4767C238.416 89.3602 238.248 89.2711 238.113 89.1957C237.999 89.1272 237.938 89.0929 237.945 89.0861C237.945 89.0861 238.012 89.1066 238.133 89.1614C238.268 89.2231 238.449 89.3122 238.664 89.415C239.148 89.6549 239.833 89.9839 240.694 90.4088C242.474 91.2997 245.007 92.5607 248.132 94.1233C254.415 97.3032 263.063 101.676 272.611 106.5C277.611 109.05 282.408 111.373 286.689 113.518L286.46 113.669C286.386 106.768 286.151 100.915 285.889 96.7961C285.762 94.7332 285.607 93.1158 285.499 91.9987C285.439 91.4642 285.399 91.0393 285.365 90.7309C285.338 90.443 285.325 90.2923 285.331 90.2923L285.338 90.2991Z" fill="white"/>
</g>
<g opacity="0.3">
<path d="M234.001 149.505C234.001 149.505 233.873 149.498 233.645 149.443C233.376 149.375 233.047 149.3 232.643 149.197C231.723 148.957 230.48 148.635 228.968 148.244C225.863 147.435 221.576 146.325 216.832 145.153C212.082 143.981 207.774 142.974 204.65 142.247C203.124 141.891 201.875 141.596 200.954 141.384C200.551 141.281 200.222 141.199 199.953 141.137C199.724 141.076 199.603 141.041 199.61 141.028C199.61 141.014 199.738 141.028 199.966 141.069C200.235 141.117 200.571 141.178 200.981 141.254C201.861 141.418 203.131 141.679 204.704 142.008C207.842 142.672 212.162 143.646 216.913 144.817C221.664 145.989 225.944 147.141 229.028 148.011C230.574 148.45 231.817 148.813 232.677 149.073C233.073 149.197 233.403 149.3 233.665 149.382C233.887 149.457 234.008 149.498 234.001 149.512V149.505Z" fill="white"/>
</g>
<path d="M314.219 204.497C318.224 204.483 321.799 201.557 323.68 197.959C325.568 194.361 326.039 190.173 326.227 186.096C326.717 175.308 325.414 164.432 322.383 154.09L304.845 157.216L309.623 205.388L314.219 204.504V204.497Z" fill="#FFBE9D"/>
<path d="M243.288 210.494L300.384 208.369L314.233 140.13L254.093 143.536L243.288 210.494Z" fill="#263238"/>
<path d="M272.679 142.364L273.539 140.623L278.095 140.281C278.095 140.281 279.251 137.231 285.762 136.923C291.601 136.642 291.836 139.637 291.836 139.637H294.981V141.096L272.672 142.357L272.679 142.364Z" fill="#455A64"/>
<path d="M304.516 188.501L308.844 187.212C309.657 186.973 310.517 186.931 311.35 187.103C312.365 187.308 313.299 187.809 314.031 188.549C315.462 189.988 317.774 192.366 318.103 193.072C318.587 194.107 318.587 195.902 318.103 196.567C317.619 197.232 319.165 200.624 318.97 201.755C318.775 202.886 318.486 204.024 318.103 204.49C317.713 204.963 318.103 206.573 317.135 207.8C316.168 209.02 315.301 209.774 315.301 209.774C315.301 209.774 303.414 210.342 302.252 209.774C301.089 209.205 299.06 207.039 299.06 207.039C299.06 207.039 297.998 205.059 299.638 204.867L292.871 202.221C292.058 201.906 291.574 200.981 291.89 200.152C291.998 199.864 292.186 199.617 292.488 199.487C292.488 199.487 289.451 198.507 288.745 198.191C287.341 197.561 286.81 194.223 289.713 194.655C291.252 194.881 293.321 195.34 293.321 195.34C293.321 195.34 292.213 193.497 293.765 192.407C294.706 191.742 298.939 192.551 298.939 192.551L304.503 188.501H304.516Z" fill="#FFBE9D"/>
<path d="M306.021 206.703C306.021 206.799 304.402 206.724 302.507 206.169C300.598 205.634 299.214 204.764 299.268 204.675C299.315 204.592 300.726 205.298 302.601 205.826C304.469 206.374 306.035 206.6 306.021 206.703Z" fill="#EB996E"/>
<path d="M303.434 202.393C303.408 202.488 300.941 201.927 297.918 201.138C294.894 200.35 292.461 199.637 292.488 199.542C292.515 199.446 294.981 200.008 298.005 200.796C301.029 201.584 303.461 202.297 303.434 202.393Z" fill="#EB996E"/>
<path d="M304.845 198.102C304.825 198.198 302.164 197.643 298.905 196.869C295.646 196.094 293.019 195.382 293.046 195.286C293.066 195.19 295.727 195.745 298.986 196.519C302.245 197.294 304.866 198.006 304.845 198.102Z" fill="#EB996E"/>
<path d="M309.24 192.578C309.253 192.626 308.669 192.811 307.714 193.072C307.197 193.209 306.632 193.353 306.034 193.51C305.712 193.593 305.383 193.675 305.04 193.764C304.677 193.86 304.287 193.901 303.898 193.874C303.508 193.853 303.132 193.771 302.782 193.689C302.439 193.606 302.11 193.531 301.781 193.456C301.183 193.312 300.618 193.168 300.094 193.044C299.133 192.798 298.549 192.626 298.556 192.571C298.562 192.517 299.174 192.613 300.141 192.798C300.666 192.9 301.237 193.017 301.848 193.133C302.493 193.25 303.192 193.462 303.911 193.517C304.63 193.579 305.295 193.319 305.947 193.195C306.552 193.065 307.123 192.942 307.647 192.825C308.615 192.626 309.22 192.524 309.233 192.571L309.24 192.578Z" fill="#EB996E"/>
<path d="M310.006 194.902C310.04 194.874 310.201 195.025 310.335 195.354C310.463 195.676 310.544 196.183 310.382 196.711C310.221 197.239 309.872 197.609 309.589 197.794C309.301 197.986 309.085 198.013 309.072 197.972C309.018 197.89 309.778 197.506 310.053 196.601C310.329 195.697 309.925 194.943 310.013 194.902H310.006Z" fill="#EB996E"/>
<path d="M309.757 199.583C309.845 199.542 310.113 200.028 310.073 200.693C310.039 201.358 309.717 201.81 309.636 201.762C309.549 201.714 309.697 201.255 309.724 200.672C309.757 200.09 309.663 199.617 309.757 199.576V199.583Z" fill="#EB996E"/>
<path d="M309.831 204.675C309.919 204.64 310.1 204.969 310.013 205.401C309.932 205.833 309.636 206.066 309.569 205.997C309.495 205.936 309.61 205.661 309.67 205.326C309.737 204.99 309.737 204.695 309.831 204.668V204.675Z" fill="#EB996E"/>
<path d="M311.121 192.297C311.115 192.345 310.678 192.318 309.979 192.236C309.583 192.181 309.173 192.133 308.756 192.071C308.292 191.996 307.815 191.92 307.298 191.996C306.834 192.064 306.377 192.352 306.008 192.592C305.638 192.846 305.309 193.133 305 193.318C304.375 193.702 303.911 193.737 303.905 193.702C303.884 193.641 304.315 193.524 304.866 193.113C305.41 192.722 306.088 191.9 307.258 191.646C307.54 191.612 307.809 191.605 308.071 191.626C308.346 191.653 308.568 191.708 308.803 191.749C309.22 191.831 309.623 191.907 310.019 191.989C310.712 192.133 311.128 192.249 311.121 192.297Z" fill="#EB996E"/>
<path d="M317.995 204.723C317.995 204.723 318.096 204.408 318.298 203.852C318.486 203.297 318.788 202.482 318.775 201.433C318.775 200.912 318.674 200.35 318.52 199.747C318.378 199.144 318.11 198.548 317.962 197.821C317.787 197.081 318.009 196.3 318.11 195.58C318.21 194.854 318.049 194.086 317.72 193.374C317.391 192.661 316.94 192.024 316.484 191.42C316.02 190.824 315.57 190.242 315.119 189.721C314.226 188.672 313.258 187.87 312.311 187.48C311.37 187.075 310.51 187.034 309.945 187.117C309.374 187.192 309.085 187.35 309.072 187.315C309.072 187.302 309.139 187.26 309.273 187.192C309.415 187.123 309.63 187.041 309.925 186.979C310.503 186.849 311.404 186.849 312.405 187.247C313.413 187.631 314.441 188.446 315.361 189.508C315.832 190.036 316.289 190.612 316.759 191.208C317.223 191.811 317.693 192.469 318.043 193.223C318.392 193.977 318.567 194.827 318.452 195.622C318.338 196.403 318.137 197.095 318.284 197.753C318.412 198.411 318.681 199.048 318.809 199.665C318.956 200.282 319.044 200.871 319.03 201.419C319.01 202.516 318.661 203.345 318.432 203.887C318.19 204.435 318.022 204.716 318.002 204.709L317.995 204.723Z" fill="#EB996E"/>
<path d="M278.021 170.963L231.138 178.557L233.221 153.597L207.15 148.457L203.978 185.403L203.427 193.874C203.057 199.61 205.631 205.134 210.234 208.458C214.413 211.48 219.749 212.303 224.627 210.685L234.7 207.334L283.833 189.508" fill="#FFBE9D"/>
<path d="M306.391 165.823C306.579 164.994 305.887 164.226 305.054 164.226C302.413 164.212 295.277 164.253 292.757 164.987C289.639 165.891 278.028 170.97 278.028 170.97L282.953 189.515L300.78 189.707C300.78 189.707 307.291 186.657 307.372 185.334C307.412 184.656 307.211 182.86 307.211 182.86L309.173 181.784C312.102 179.886 310.228 176.254 310.228 176.254C310.228 176.254 312.244 175.102 312.351 173.019C312.465 170.819 310.779 169.955 310.779 169.955C310.779 169.955 311.585 167.022 310.087 166.234C308.588 165.446 306.041 166.46 306.041 166.46C306.216 166.316 306.337 166.097 306.398 165.83L306.391 165.823Z" fill="#FFBE9D"/>
<path d="M307.412 166.125C307.412 166.125 307.224 166.214 306.868 166.323C306.512 166.426 305.981 166.549 305.329 166.659C304.019 166.899 302.198 167.098 300.189 167.317C298.179 167.536 296.372 167.79 295.095 168.105C293.812 168.414 293.093 168.818 293.066 168.763C293.052 168.743 293.227 168.626 293.556 168.441C293.892 168.27 294.39 168.057 295.035 167.858C296.318 167.468 298.139 167.18 300.155 166.954C302.164 166.734 303.985 166.57 305.295 166.399C306.606 166.234 307.405 166.063 307.419 166.118L307.412 166.125Z" fill="#EB996E"/>
<path d="M310.765 169.832C310.785 169.873 310.322 170.154 309.515 170.483C308.709 170.819 307.56 171.169 306.263 171.45C304.973 171.724 303.79 171.902 302.937 172.019C302.083 172.128 301.553 172.176 301.539 172.128C301.519 172.012 303.622 171.635 306.189 171.1C307.473 170.826 308.615 170.518 309.428 170.25C310.241 169.983 310.738 169.784 310.765 169.832Z" fill="#EB996E"/>
<path d="M310.261 176.274C310.295 176.357 308.628 177.097 306.444 177.597C304.261 178.104 302.446 178.173 302.44 178.084C302.433 177.981 304.214 177.755 306.371 177.254C308.528 176.761 310.228 176.178 310.268 176.281L310.261 176.274Z" fill="#EB996E"/>
<path d="M309.166 181.778C309.2 181.867 307.923 182.463 306.236 182.881C304.55 183.299 303.145 183.361 303.139 183.265C303.125 183.162 304.496 182.943 306.156 182.531C307.815 182.127 309.132 181.682 309.166 181.778Z" fill="#EB996E"/>
<path d="M299.873 178.488C299.886 178.529 299.691 178.652 299.329 178.687C298.972 178.721 298.448 178.639 297.978 178.303C297.514 177.967 297.266 177.487 297.178 177.131C297.091 176.775 297.138 176.542 297.178 176.542C297.272 176.514 297.373 177.433 298.173 178.015C298.979 178.598 299.853 178.392 299.859 178.488H299.873Z" fill="#EB996E"/>
<path d="M299.496 184.231C299.51 184.327 298.798 184.375 298.193 183.813C297.581 183.258 297.541 182.532 297.635 182.539C297.736 182.518 297.904 183.087 298.428 183.546C298.932 184.019 299.51 184.129 299.503 184.231H299.496Z" fill="#EB996E"/>
<path d="M297.434 172.567C297.474 172.663 296.977 172.82 296.52 172.464C296.063 172.114 296.076 171.587 296.177 171.6C296.278 171.587 296.392 171.936 296.728 172.183C297.051 172.443 297.413 172.471 297.427 172.567H297.434Z" fill="#EB996E"/>
<path d="M278.021 170.963C278.021 170.963 278.068 170.929 278.162 170.887C278.27 170.833 278.411 170.771 278.585 170.689C278.982 170.511 279.533 170.264 280.238 169.942C281.683 169.298 283.793 168.379 286.454 167.262C287.784 166.707 289.256 166.104 290.862 165.494C291.668 165.206 292.495 164.857 293.422 164.685C294.336 164.507 295.283 164.411 296.258 164.329C298.206 164.171 300.269 164.103 302.426 164.075C302.964 164.075 303.508 164.068 304.059 164.062H304.892C305.161 164.048 305.511 164.089 305.779 164.247C306.33 164.534 306.727 165.206 306.539 165.898C306.471 166.049 306.398 166.076 306.33 166.138C306.263 166.186 306.196 166.227 306.129 166.261C305.994 166.337 305.86 166.399 305.726 166.453C305.45 166.57 305.181 166.673 304.879 166.755C304.792 166.782 304.697 166.721 304.671 166.632C304.65 166.542 304.704 166.447 304.792 166.419C305.517 166.207 306.25 166.035 307.016 165.912C307.775 165.795 308.561 165.713 309.368 165.83C309.764 165.898 310.194 166.022 310.517 166.337C310.839 166.645 311.007 167.077 311.088 167.488C311.236 168.331 311.135 169.167 310.94 169.99L310.853 169.784C311.236 170.003 311.565 170.305 311.84 170.668C312.539 171.593 312.694 172.841 312.351 173.91C311.995 174.986 311.215 175.822 310.308 176.391L310.376 176.158C310.839 177.158 311.081 178.241 310.94 179.324C310.819 180.414 310.12 181.366 309.26 181.915H309.247C308.581 182.285 307.93 182.641 307.278 182.991L307.365 182.826C307.419 183.306 307.459 183.779 307.493 184.252C307.506 184.491 307.52 184.724 307.526 184.964C307.526 185.081 307.526 185.204 307.526 185.328C307.506 185.485 307.453 185.615 307.379 185.725C307.096 186.15 306.727 186.431 306.364 186.712C306.001 186.986 305.625 187.226 305.255 187.466C303.757 188.391 302.265 189.145 300.827 189.83C300.807 189.837 300.787 189.844 300.767 189.844C295.371 189.762 290.916 189.693 287.791 189.638C286.259 189.604 285.05 189.577 284.203 189.563C283.806 189.549 283.497 189.542 283.262 189.529C283.047 189.522 282.94 189.508 282.94 189.501C282.94 189.494 283.047 189.488 283.262 189.481C283.497 189.481 283.806 189.481 284.203 189.467C285.05 189.467 286.259 189.467 287.791 189.467C290.916 189.488 295.371 189.515 300.767 189.542L300.706 189.556C302.124 188.871 303.609 188.103 305.087 187.185C305.457 186.952 305.82 186.712 306.169 186.445C306.512 186.177 306.875 185.89 307.096 185.547C307.157 185.465 307.177 185.375 307.19 185.3C307.19 185.19 307.19 185.081 307.19 184.964C307.19 184.738 307.17 184.505 307.157 184.272C307.123 183.806 307.076 183.333 307.022 182.86C307.016 182.792 307.049 182.723 307.11 182.696C307.755 182.339 308.407 181.983 309.072 181.62H309.058C309.851 181.106 310.47 180.27 310.584 179.276C310.711 178.296 310.476 177.241 310.053 176.322C310.013 176.233 310.046 176.137 310.12 176.089C310.947 175.568 311.693 174.766 312.002 173.8C312.311 172.841 312.163 171.696 311.545 170.881C311.303 170.559 310.987 170.271 310.678 170.093C310.604 170.051 310.57 169.962 310.591 169.887C310.772 169.126 310.873 168.304 310.738 167.55C310.664 167.18 310.523 166.823 310.268 166.584C310.019 166.344 309.663 166.227 309.3 166.166C308.561 166.056 307.795 166.131 307.056 166.248C306.317 166.364 305.578 166.536 304.879 166.741L304.792 166.405C305.054 166.337 305.329 166.234 305.584 166.124C305.712 166.07 305.84 166.008 305.961 165.946C306.075 165.898 306.189 165.768 306.236 165.782C306.236 165.556 306.25 165.281 306.122 165.062C306.015 164.836 305.826 164.651 305.605 164.534C305.376 164.411 305.154 164.377 304.872 164.384H304.046C303.495 164.384 302.95 164.384 302.413 164.391C300.263 164.418 298.2 164.473 296.264 164.617C295.297 164.692 294.356 164.788 293.462 164.952C292.575 165.11 291.742 165.453 290.943 165.734C289.337 166.33 287.865 166.919 286.528 167.461C283.88 168.557 281.757 169.435 280.272 170.045C279.56 170.339 278.995 170.572 278.599 170.737L278.162 170.908C278.061 170.942 278.014 170.963 278.007 170.956L278.021 170.963Z" fill="#EB996E"/>
<path d="M231.326 178.516C231.387 178.612 229.479 179.557 227.859 181.565C226.213 183.553 225.655 185.643 225.548 185.595C225.507 185.588 225.595 185.054 225.897 184.245C226.199 183.436 226.757 182.36 227.59 181.339C228.424 180.318 229.358 179.564 230.083 179.119C230.809 178.666 231.306 178.488 231.326 178.522V178.516Z" fill="#EB996E"/>
<path d="M292.548 30.6613C291.581 18.1128 281.327 8.42896 268.983 8.40155H267.753C254.529 9.16227 247.769 21.0391 248.885 34.4991L251.169 88.4693C251.21 89.374 251.734 90.1826 252.54 90.5664L282.22 104.773L281.306 76.4485C281.306 76.4485 294.02 74.4611 294.208 61.4945C294.295 55.2305 293.449 42.3257 292.548 30.6544V30.6613Z" fill="#FFBE9D"/>
<path d="M281.407 76.4351C281.407 76.4351 273.29 76.9148 264.763 71.4321C264.763 71.4321 268.66 80.7664 281.347 79.6287L281.407 76.4351Z" fill="#EB996E"/>
<path d="M288.039 38.714C288.073 39.6941 287.287 40.5233 286.286 40.5781C285.284 40.633 284.451 39.886 284.418 38.9059C284.384 37.9259 285.17 37.0966 286.171 37.0418C287.173 36.987 288.006 37.7409 288.039 38.714Z" fill="#263238"/>
<path d="M289.8 37.0007C289.571 37.2405 288.201 36.1988 286.245 36.1988C284.297 36.1714 282.859 37.1926 282.65 36.9458C282.55 36.8362 282.778 36.4044 283.403 35.9384C284.021 35.4792 285.069 35.0338 286.286 35.0406C287.502 35.0475 288.523 35.5066 289.115 35.9795C289.713 36.4524 289.914 36.891 289.807 36.9938L289.8 37.0007Z" fill="#263238"/>
<path d="M268.842 39.3174C268.875 40.2974 268.089 41.1267 267.088 41.1815C266.087 41.2363 265.253 40.4893 265.22 39.5093C265.186 38.5292 265.972 37.7 266.974 37.6451C267.975 37.5903 268.808 38.3442 268.842 39.3174Z" fill="#263238"/>
<path d="M270.602 37.3297C270.374 37.5696 269.003 36.5279 267.048 36.5348C265.099 36.5073 263.661 37.5285 263.453 37.2818C263.352 37.1721 263.574 36.7404 264.205 36.2743C264.823 35.8152 265.872 35.3697 267.088 35.3765C268.304 35.3834 269.326 35.8426 269.917 36.3155C270.515 36.7883 270.716 37.2269 270.609 37.3297H270.602Z" fill="#263238"/>
<path d="M277.658 52.1194C277.651 52.0029 278.86 51.7973 280.829 51.5437C281.327 51.4958 281.804 51.393 281.884 51.0435C282.005 50.6734 281.797 50.1251 281.555 49.5357C281.091 48.3021 280.601 47.0137 280.09 45.6567C278.054 40.1398 276.583 35.6028 276.798 35.5206C277.019 35.4384 278.847 39.8451 280.883 45.3689C281.374 46.7327 281.844 48.028 282.287 49.2684C282.476 49.8441 282.798 50.502 282.543 51.2628C282.408 51.6397 282.039 51.9207 281.723 52.0029C281.4 52.0989 281.125 52.1057 280.876 52.1194C278.894 52.2222 277.671 52.2291 277.658 52.1194Z" fill="#263238"/>
<path d="M271.913 53.483C272.228 53.4624 272.228 55.6281 274.043 57.1632C275.85 58.7052 278.115 58.4722 278.128 58.7737C278.155 58.9108 277.624 59.1918 276.67 59.2192C275.736 59.2466 274.372 58.9382 273.263 57.9993C272.161 57.0536 271.684 55.7994 271.617 54.9085C271.536 54.0038 271.778 53.4692 271.919 53.483H271.913Z" fill="#263238"/>
<path d="M271.12 29.5237C270.925 30.0651 268.976 29.8047 266.685 30.0788C264.387 30.3118 262.539 30.9903 262.236 30.5037C262.102 30.2707 262.424 29.7636 263.17 29.2358C263.909 28.715 265.092 28.2215 266.47 28.0639C267.847 27.9131 269.104 28.1393 269.937 28.4888C270.777 28.8383 271.2 29.2633 271.12 29.5168V29.5237Z" fill="#263238"/>
<path d="M289.094 31.2303C288.752 31.6826 287.408 31.2098 285.788 31.1824C284.169 31.1001 282.798 31.477 282.482 31.0042C282.348 30.7711 282.563 30.3188 283.161 29.8939C283.752 29.469 284.74 29.1195 285.849 29.1606C286.958 29.2017 287.925 29.6129 288.483 30.079C289.054 30.545 289.242 31.011 289.088 31.2303H289.094Z" fill="#263238"/>
<path d="M250.786 44.1007C250.571 44.0047 242.058 41.4484 242.32 50.3098C242.582 59.1712 251.25 57.0809 251.257 56.8274C251.263 56.5738 250.786 44.1007 250.786 44.1007Z" fill="#FFBE9D"/>
<path d="M249.268 53.5515C249.227 53.5241 249.12 53.6612 248.865 53.7914C248.616 53.9148 248.193 54.0107 247.736 53.8462C246.808 53.531 245.989 52.0644 245.901 50.4744C245.854 49.6657 246.002 48.8981 246.257 48.2539C246.506 47.596 246.902 47.1299 247.359 47.034C247.816 46.9106 248.152 47.1848 248.267 47.4315C248.387 47.6782 248.34 47.8564 248.387 47.8701C248.414 47.8907 248.569 47.7125 248.488 47.3492C248.448 47.1711 248.34 46.9655 248.132 46.801C247.917 46.6365 247.608 46.5543 247.285 46.6022C246.614 46.6708 246.029 47.315 245.747 48.0277C245.424 48.7405 245.243 49.6108 245.296 50.5155C245.404 52.2974 246.351 53.9422 247.615 54.278C248.233 54.4219 248.737 54.2163 248.992 54.0039C249.254 53.7777 249.295 53.5789 249.261 53.5652L249.268 53.5515Z" fill="#EB996E"/>
<path d="M256.484 17.7565L292.723 18.572C291.594 16.0226 289.585 13.9803 287.401 12.2943C282.691 8.6552 276.905 6.37989 270.992 6.27023C265.085 6.16743 253.051 13.5074 248.77 17.6605C245.343 20.9844 245.364 23.8628 245.364 23.8628C244.819 28.6533 247.447 34.1017 248.495 38.81C249.032 41.2361 250.074 48.576 250.074 48.576C252.07 48.5692 252.809 46.9449 252.506 44.9369L252.13 37.035C252.13 37.035 258.924 32.1142 255.705 23.1021C255.188 22.3825 254.086 19.0929 256.478 17.7565H256.484Z" fill="#263238"/>
<path d="M264.098 45.7868C263.984 45.8074 263.869 45.7251 263.842 45.5949C263.816 45.4647 263.889 45.3413 264.01 45.3139C264.125 45.2934 264.239 45.3756 264.266 45.5058C264.293 45.636 264.219 45.7594 264.098 45.7868Z" fill="#EB996E"/>
<path d="M267.827 44.9299C267.713 44.9505 267.592 44.8545 267.565 44.7038C267.538 44.553 267.605 44.4159 267.726 44.3885C267.84 44.3679 267.961 44.4639 267.988 44.6147C268.015 44.7654 267.948 44.9025 267.827 44.9299Z" fill="#EB996E"/>
<path d="M270.34 44.8684C270.219 44.8821 270.105 44.7382 270.085 44.5394C270.058 44.3407 270.139 44.1693 270.253 44.1556C270.374 44.1419 270.488 44.2858 270.508 44.4846C270.535 44.6833 270.454 44.8547 270.34 44.8684Z" fill="#EB996E"/>
<path d="M265.925 48.1783C265.805 48.1783 265.71 48.1166 265.71 48.0344C265.71 47.959 265.805 47.8973 265.925 47.8973C266.046 47.8973 266.141 47.959 266.141 48.0413C266.141 48.1166 266.046 48.1783 265.925 48.1783Z" fill="#EB996E"/>
<path d="M269.346 47.3766C269.225 47.3903 269.124 47.2806 269.11 47.1436C269.097 47.0065 269.184 46.89 269.305 46.8763C269.426 46.8694 269.527 46.9722 269.541 47.1093C269.554 47.2464 269.467 47.3629 269.346 47.3766Z" fill="#EB996E"/>
<path d="M287.166 45.2452C287.052 45.2658 286.931 45.1767 286.91 45.0465C286.884 44.9094 286.957 44.786 287.072 44.7586C287.186 44.7381 287.307 44.8272 287.327 44.9574C287.354 45.0944 287.28 45.2178 287.166 45.2452Z" fill="#EB996E"/>
<path d="M289.706 45.0123C289.585 45.0261 289.477 44.9095 289.464 44.7588C289.451 44.608 289.531 44.4709 289.652 44.4641C289.773 44.4504 289.881 44.5669 289.894 44.7176C289.907 44.8684 289.827 45.0055 289.706 45.0123Z" fill="#EB996E"/>
<path d="M284.922 45.307C284.807 45.3275 284.693 45.2658 284.673 45.163C284.653 45.0602 284.733 44.9574 284.848 44.93C284.962 44.9095 285.076 44.9711 285.096 45.0739C285.117 45.1767 285.036 45.2795 284.922 45.307Z" fill="#EB996E"/>
<path d="M286.796 47.9043C286.689 47.9523 286.555 47.8906 286.501 47.7604C286.447 47.6302 286.487 47.4863 286.595 47.4383C286.702 47.3903 286.837 47.452 286.89 47.5822C286.944 47.7125 286.904 47.8564 286.796 47.9043Z" fill="#EB996E"/>
<path d="M288.973 47.466C288.859 47.4318 288.785 47.329 288.812 47.2262C288.839 47.1302 288.953 47.0754 289.068 47.1028C289.182 47.1371 289.256 47.2399 289.229 47.3358C289.202 47.4318 289.088 47.4866 288.973 47.4592V47.466Z" fill="#EB996E"/>
<path d="M248.528 18.1607C247.601 14.9259 248.528 11.321 250.564 8.66191C252.601 6.00966 255.933 4.44024 259.233 4.57731C260.926 4.64584 262.606 5.13929 264.293 4.94739C267.431 4.59787 269.843 2.03471 272.752 0.787404C277.281 -1.1521 283.047 0.609217 285.782 4.77606C286.884 6.45513 287.609 8.5317 289.296 9.58711C290.754 10.4986 292.595 10.4232 294.235 10.9304C297.554 11.9515 299.826 15.5427 299.651 19.0722C299.476 22.6016 297.057 25.8296 293.865 27.2139C290.673 28.5983 286.877 28.2077 283.853 26.4943C281.118 24.9455 278.672 22.2932 275.541 22.3892C272.302 22.4851 269.473 25.6034 266.295 24.9523C264.629 24.6165 263.345 23.3075 262.122 22.1013C260.899 20.8952 259.495 19.6684 257.801 19.5656C256.108 19.4628 255.221 21.8409 255.826 23.4583L248.522 18.1607" fill="#263238"/>
<path d="M292.017 13.8774C292.017 13.8774 292.004 13.9254 291.957 14.0076C291.91 14.0899 291.849 14.2132 291.749 14.364C291.554 14.6724 291.225 15.1042 290.707 15.5702C290.196 16.0294 289.477 16.516 288.55 16.8449C287.63 17.1739 286.474 17.3109 285.264 17.0437C284.061 16.7832 282.785 16.139 281.797 15.0288C280.809 13.9185 280.218 12.4382 279.297 11.1361C278.84 10.485 278.263 9.89561 277.544 9.51867C276.818 9.14859 275.985 8.96355 275.138 8.97726C274.291 8.99782 273.438 9.23083 272.672 9.65574C271.906 10.0944 271.281 10.7454 270.851 11.561C270.414 12.3697 270.098 13.2675 269.574 14.0556C269.07 14.8574 268.19 15.4605 267.256 15.4948C266.322 15.5496 265.462 15.1933 264.729 14.7478C263.983 14.3023 263.365 13.7061 262.808 13.1235C261.692 11.9722 260.583 10.8277 259.213 10.5124C257.855 10.1834 256.525 10.6906 255.571 11.3828C254.596 12.0955 253.971 13.0344 253.568 13.9048C253.165 14.7889 252.957 15.6045 252.822 16.2829C252.688 16.9614 252.627 17.4891 252.58 17.8524C252.54 18.2156 252.52 18.4075 252.506 18.4006C252.506 18.4006 252.5 18.3527 252.5 18.2567C252.5 18.1608 252.5 18.0237 252.513 17.8386C252.533 17.4754 252.574 16.934 252.688 16.2487C252.802 15.5633 252.997 14.7272 253.393 13.8157C253.79 12.9111 254.422 11.9242 255.423 11.1703C256.404 10.437 257.801 9.87505 259.273 10.2109C260.758 10.5398 261.914 11.7392 263.029 12.8768C263.594 13.4525 264.185 14.0213 264.897 14.4394C265.596 14.8574 266.409 15.1795 267.236 15.1247C268.062 15.0836 268.822 14.5765 269.292 13.8294C269.782 13.0961 270.098 12.212 270.548 11.3622C270.992 10.5056 271.691 9.7791 272.504 9.31993C273.324 8.86761 274.231 8.62088 275.131 8.60032C276.032 8.58662 276.919 8.77851 277.698 9.18971C278.478 9.60091 279.089 10.2451 279.559 10.9168C280.507 12.2737 281.071 13.7403 282.012 14.8095C282.939 15.8717 284.156 16.5091 285.318 16.7695C286.481 17.0437 287.596 16.9272 288.49 16.6256C289.397 16.3241 290.102 15.8717 290.62 15.44C291.655 14.549 291.977 13.8226 292.017 13.8568V13.8774Z" fill="#455A64"/>
<path d="M298.589 14.0077C298.589 14.0077 298.69 14.2544 298.737 14.7204C298.784 15.1865 298.764 15.8787 298.556 16.7011C298.341 17.5166 297.911 18.4487 297.198 19.3122C296.486 20.1757 295.492 20.9227 294.336 21.4367C291.991 22.4853 289.612 22.3893 288.013 22.1632C287.2 22.0467 286.555 21.8959 286.111 21.7794C285.668 21.6629 285.432 21.5738 285.439 21.5532C285.453 21.4916 286.434 21.7451 288.04 21.9165C289.632 22.0741 291.937 22.1221 294.188 21.1146C295.303 20.6143 296.264 19.9084 296.95 19.0997C297.642 18.291 298.079 17.407 298.314 16.6325C298.791 15.0563 298.509 14.0077 298.589 14.0077Z" fill="#455A64"/>
</svg>
