<svg width="353" height="250" viewBox="13 0 353 210" fill="none" xmlns="http://www.w3.org/2000/svg">
<g clip-path="url(#clip0_1246_11555)">
<circle cx="54" cy="42" r="40" fill="#B8DFFF"/>
<path d="M60.1113 22V62H52.8652V29.0508H52.6309L43.2754 35.0273V28.3867L53.2168 22H60.1113Z" fill="#F0F7FF"/>
<path d="M299.583 205.967L302.81 218.439L339 218.099C339 218.099 334.053 214.323 315.862 214.606L314.097 205.967H299.572H299.583Z" fill="#FFBE9D"/>
<path d="M260.121 65.078L232.97 67.6631L221.941 70.8151C217.23 72.1644 212.913 74.6588 209.383 78.0716L173.844 112.472L167.357 59.0347L149.605 60.588L152.573 129.377C155.215 137.745 162.928 143.618 171.922 143.641C177.251 143.652 182.333 141.384 186.223 137.711L211.53 113.73L209.012 145.387L200.31 165.059L262.426 200.434C262.426 200.434 269.722 164.015 273.635 138.822C276.805 118.436 278.413 74.0465 278.413 74.0465L260.121 65.1007V65.078Z" fill="#006FCC"/>
<path d="M276.805 73.3888C276.805 73.3888 290.544 78.525 293.86 89.3757C296.806 98.9906 306.632 153.097 306.632 153.097L316.38 210.355L295.963 211.137L272.454 113.549L276.794 73.3888H276.805Z" fill="#006FCC"/>
<path d="M208.495 143.958C208.337 143.947 209.248 132.983 210.529 119.479C211.811 105.975 212.98 95.0335 213.149 95.0562C213.306 95.0675 212.396 106.032 211.114 119.535C209.832 133.039 208.663 143.969 208.495 143.958Z" fill="#263238"/>
<path d="M253.702 117.052C253.702 117.052 253.657 117.245 253.522 117.585C253.353 117.993 253.151 118.481 252.903 119.082C252.634 119.728 252.285 120.522 251.813 121.395C251.341 122.279 250.857 123.311 250.183 124.365C249.857 124.898 249.508 125.465 249.16 126.043C248.8 126.622 248.361 127.189 247.945 127.801C247.125 129.037 246.113 130.239 245.067 131.531C242.897 134.048 240.323 136.645 237.355 139.048C234.353 141.429 231.261 143.368 228.349 144.933C226.865 145.659 225.471 146.384 224.088 146.906C223.402 147.178 222.762 147.473 222.121 147.699C221.48 147.915 220.862 148.13 220.266 148.323C219.096 148.754 217.983 148.992 217.028 149.253C216.072 149.525 215.24 149.684 214.554 149.808C213.925 149.922 213.396 150.012 212.969 150.08C212.609 150.137 212.418 150.16 212.407 150.137C212.407 150.114 212.587 150.058 212.947 149.967C213.363 149.865 213.88 149.74 214.498 149.582C215.173 149.434 216.005 149.241 216.938 148.935C217.882 148.641 218.973 148.38 220.12 147.926C220.704 147.711 221.311 147.495 221.952 147.269C222.582 147.03 223.223 146.724 223.897 146.452C225.246 145.908 226.629 145.182 228.091 144.445C230.969 142.881 234.016 140.942 236.984 138.584C239.929 136.202 242.493 133.64 244.651 131.168C245.697 129.898 246.709 128.708 247.541 127.506C247.968 126.905 248.406 126.35 248.766 125.783C249.126 125.216 249.486 124.66 249.823 124.139C250.52 123.107 251.026 122.098 251.521 121.236C252.026 120.386 252.397 119.615 252.701 118.98C252.993 118.401 253.229 117.925 253.421 117.54C253.589 117.211 253.69 117.041 253.713 117.052H253.702Z" fill="#263238"/>
<g opacity="0.2">
<path d="M215.701 149.514C213.722 148.947 212.688 146.487 213.205 144.48C213.711 142.461 215.397 140.931 217.252 140.035C219.108 139.139 221.165 138.765 223.166 138.266C231.846 136.135 239.929 131.554 246.259 125.205C246.843 124.615 247.687 123.957 248.406 124.366C249.384 124.899 248.766 126.407 248.046 127.257C239.322 137.518 227.787 145.319 215.071 149.571" fill="black"/>
</g>
<path d="M277.716 136.622C277.716 136.622 277.536 136.214 277.3 135.454C277.064 134.695 276.76 133.595 276.389 132.223C275.658 129.479 274.714 125.681 273.77 121.452C272.825 117.223 272.072 113.379 271.566 110.59C271.319 109.195 271.128 108.061 271.015 107.279C270.903 106.497 270.858 106.054 270.892 106.043C270.936 106.043 271.049 106.463 271.24 107.234C271.442 108.129 271.69 109.229 271.971 110.51C272.612 113.413 273.432 117.177 274.343 121.327C275.287 125.477 276.131 129.218 276.794 132.121C277.075 133.402 277.322 134.502 277.525 135.398C277.682 136.18 277.761 136.611 277.716 136.622Z" fill="#263238"/>
<path d="M152.753 65.7242C152.595 65.7355 152.359 64.5337 152.236 63.0257C152.112 61.5177 152.134 60.2932 152.303 60.2818C152.46 60.2705 152.697 61.4724 152.82 62.9803C152.944 64.4883 152.921 65.7129 152.753 65.7242Z" fill="#263238"/>
<path d="M157.947 65.883C157.79 65.883 157.587 64.6017 157.508 63.0144C157.43 61.4157 157.497 60.1231 157.655 60.1118C157.812 60.1005 158.014 61.393 158.093 62.9804C158.172 64.5791 158.104 65.8716 157.947 65.883Z" fill="#263238"/>
<path d="M163.107 65.5542C162.95 65.5542 162.736 64.1256 162.635 62.3569C162.534 60.5767 162.59 59.1368 162.748 59.1255C162.905 59.1255 163.119 60.5541 163.22 62.3228C163.321 64.1029 163.265 65.5429 163.107 65.5542Z" fill="#263238"/>
<path d="M173.091 120.68C172.934 120.669 173.012 118.549 173.282 115.941C173.552 113.345 173.889 111.247 174.058 111.27C174.215 111.281 174.136 113.401 173.867 116.009C173.597 118.606 173.26 120.703 173.091 120.68Z" fill="#263238"/>
<path d="M299.325 205.173C299.482 205.15 299.842 206.431 300.111 208.041C300.392 209.651 300.482 210.989 300.325 211.012C300.168 211.035 299.808 209.754 299.538 208.143C299.257 206.533 299.167 205.196 299.325 205.173Z" fill="#263238"/>
<path d="M306.036 205.162C306.194 205.139 306.52 206.296 306.767 207.758C307.003 209.221 307.071 210.434 306.913 210.457C306.756 210.48 306.43 209.323 306.182 207.849C305.946 206.386 305.879 205.173 306.036 205.151V205.162Z" fill="#263238"/>
<path d="M312.4 204.516C312.568 204.504 312.793 205.831 313.074 207.452C313.344 209.085 313.558 210.412 313.4 210.457C313.243 210.502 312.771 209.21 312.501 207.554C312.22 205.899 312.254 204.527 312.411 204.516H312.4Z" fill="#263238"/>
<path d="M287.823 80.0558C287.823 80.1692 286.395 80.0785 284.181 80.5434C281.988 80.9969 278.986 82.1421 276.389 84.421C273.804 86.7 272.263 89.5459 271.521 91.6775C270.768 93.8204 270.656 95.2604 270.543 95.2491C270.509 95.2491 270.498 94.8862 270.566 94.24C270.633 93.5937 270.791 92.6639 271.128 91.5528C271.78 89.3305 273.309 86.3485 275.996 83.9788C278.683 81.6092 281.82 80.4867 284.091 80.1352C285.237 79.9538 286.171 79.9084 286.811 79.9424C287.452 79.9651 287.812 80.0218 287.801 80.0558H287.823Z" fill="#263238"/>
<path d="M296.222 103.333C296.244 103.412 294.963 103.968 292.838 104.784C290.713 105.589 287.756 106.644 284.451 107.687C281.145 108.73 278.121 109.569 275.917 110.125C273.714 110.68 272.331 110.952 272.32 110.873C272.297 110.794 273.635 110.374 275.816 109.716C278.143 109.002 281.067 108.106 284.293 107.12C287.497 106.077 290.398 105.147 292.725 104.388C294.884 103.685 296.222 103.254 296.244 103.333H296.222Z" fill="#FAFAFA"/>
<path d="M304.878 142.802C304.89 142.881 303.552 143.244 301.359 143.765C299.167 144.287 296.143 144.967 292.781 145.682C289.42 146.396 286.384 147.008 284.169 147.428C281.954 147.847 280.583 148.063 280.56 147.983C280.538 147.904 281.887 147.541 284.079 147.019C286.272 146.498 289.307 145.818 292.669 145.103C296.03 144.389 299.077 143.777 301.292 143.357C303.507 142.938 304.878 142.722 304.89 142.802H304.878Z" fill="#FAFAFA"/>
<path d="M314.693 192.202C314.693 192.293 313.401 192.327 311.321 192.372C309.241 192.429 306.363 192.52 303.203 192.701C300.033 192.882 297.166 193.132 295.097 193.313C293.029 193.495 291.736 193.619 291.725 193.529C291.725 193.449 292.984 193.188 295.052 192.894C297.121 192.599 299.988 192.293 303.17 192.1C306.351 191.919 309.241 191.896 311.321 191.941C313.412 191.998 314.693 192.111 314.693 192.179V192.202Z" fill="#FAFAFA"/>
<path d="M224.594 145.761C224.56 145.829 223.672 145.432 222.255 144.763C220.637 143.981 218.793 143.096 216.747 142.11C214.7 141.135 212.845 140.262 211.226 139.491C209.81 138.81 208.944 138.38 208.978 138.3C209.012 138.221 209.933 138.527 211.384 139.105C212.845 139.684 214.835 140.545 216.994 141.577C219.152 142.609 221.075 143.618 222.435 144.4C223.796 145.171 224.616 145.704 224.583 145.772L224.594 145.761Z" fill="#FAFAFA"/>
<path d="M269.835 153.505C269.835 153.505 269.34 153.357 268.508 152.995C267.564 152.575 266.383 152.065 264.967 151.441C261.987 150.126 257.85 148.335 253.241 146.475C248.631 144.616 244.415 143.04 241.346 141.917C239.907 141.384 238.692 140.942 237.726 140.579C236.871 140.262 236.41 140.058 236.421 140.024C236.433 139.99 236.927 140.103 237.804 140.364C238.681 140.613 239.94 141.01 241.492 141.52C244.595 142.541 248.845 144.06 253.465 145.931C258.086 147.802 262.201 149.65 265.147 151.067C266.619 151.77 267.8 152.36 268.609 152.79C269.419 153.221 269.857 153.471 269.835 153.505Z" fill="#FAFAFA"/>
<path d="M273.365 121.281C273.365 121.281 273.14 121.281 272.735 121.225C272.263 121.157 271.667 121.066 270.937 120.953C269.295 120.681 267.069 120.318 264.348 119.876C258.783 118.957 251.093 117.721 242.582 116.451C234.072 115.193 226.348 114.138 220.76 113.401C218.028 113.039 215.78 112.732 214.138 112.517C213.407 112.415 212.812 112.324 212.339 112.256C211.935 112.188 211.71 112.143 211.721 112.12C211.721 112.098 211.946 112.109 212.362 112.132C212.845 112.177 213.441 112.222 214.172 112.279C215.746 112.426 218.017 112.664 220.816 112.982C226.427 113.617 234.162 114.592 242.672 115.862C251.183 117.132 258.873 118.436 264.427 119.456C267.204 119.966 269.441 120.397 270.993 120.715C271.712 120.873 272.297 120.998 272.769 121.1C273.174 121.191 273.387 121.247 273.376 121.27L273.365 121.281Z" fill="#FAFAFA"/>
<path d="M270.813 87.2554C270.79 87.4141 258.626 85.7134 243.639 83.4571C228.653 81.2008 216.533 79.2393 216.555 79.0805C216.578 78.9218 228.743 80.6225 243.729 82.8789C258.704 85.1352 270.835 87.0967 270.813 87.2554Z" fill="#FAFAFA"/>
<path d="M207.089 117.018C207.01 117.052 206.37 115.635 205.358 113.333C204.278 110.896 202.918 107.789 201.4 104.365C199.86 100.952 198.466 97.8568 197.364 95.4304C196.33 93.1401 195.7 91.7228 195.779 91.6888C195.813 91.6661 196.015 92.0062 196.363 92.6185C196.701 93.2308 197.173 94.1378 197.746 95.2603C198.882 97.5053 200.377 100.635 201.94 104.138C203.503 107.642 204.829 110.85 205.74 113.197C206.201 114.365 206.549 115.318 206.786 115.987C207.022 116.656 207.123 117.03 207.089 117.041V117.018Z" fill="#FAFAFA"/>
<path d="M182.872 140.919C182.715 140.953 181.163 134.105 179.41 125.624C177.656 117.143 176.363 110.238 176.52 110.215C176.678 110.181 178.229 117.03 179.983 125.511C181.737 133.992 183.03 140.885 182.872 140.919Z" fill="#FAFAFA"/>
<path d="M172.866 103.719C172.9 103.877 168.178 105.034 162.332 106.292C156.474 107.562 151.707 108.458 151.674 108.299C151.64 108.141 156.362 106.984 162.208 105.726C168.065 104.456 172.832 103.56 172.866 103.719Z" fill="#FAFAFA"/>
<path d="M169.336 72.7085C169.348 72.7879 168.291 73.026 166.559 73.3208C164.839 73.6156 162.445 73.9671 159.791 74.2732C157.138 74.5793 154.732 74.7834 152.978 74.8855C151.235 74.9875 150.145 74.9989 150.145 74.9195C150.145 74.8401 151.213 74.6814 152.944 74.4773C154.889 74.2505 157.183 73.9898 159.724 73.695C162.265 73.4002 164.558 73.1394 166.503 72.924C168.235 72.7312 169.314 72.6405 169.336 72.7199V72.7085Z" fill="#FAFAFA"/>
<path d="M178.476 18.8516C178.802 19.4866 187.234 63.2635 187.234 63.2635L167.323 64.2046L159.611 26.573L178.465 18.863L178.476 18.8516Z" fill="#455A64"/>
<path d="M187.234 63.2523L189.517 62.2886L180.905 19.1466L178.206 18.9652L187.234 63.2523Z" fill="#263238"/>
<path d="M170.473 28.4213C170.54 28.9882 170.135 29.5098 169.573 29.5778C169.01 29.6458 168.493 29.2377 168.425 28.6707C168.358 28.1038 168.763 27.5823 169.325 27.5142C169.888 27.4462 170.405 27.8544 170.473 28.4213Z" fill="#263238"/>
<path d="M166.368 59.1365L166.076 53.4107L174.575 49.8732L171.259 41.925C169.64 38.2174 165.232 36.6981 161.702 38.6256C160.567 39.2492 159.375 39.9068 158.296 40.4964C155.867 41.823 154.102 44.1247 153.461 46.8458C152.348 51.5285 151.381 61.2794 151.483 60.8486" fill="#FFBE9D"/>
<path d="M143.601 205.048C143.601 205.048 108.614 214.81 107.22 215.309C105.118 216.058 105.466 223.847 108.749 223.722C110.3 223.666 135.619 224.675 138.823 224.471C142.028 224.266 151.674 220.434 151.674 220.434L143.613 205.048H143.601Z" fill="#06274B"/>
<path d="M129.031 218.507C128.851 218.53 128.615 216.67 127.49 214.72C126.388 212.758 124.904 211.613 125.017 211.477C125.073 211.341 126.816 212.339 127.996 214.425C129.199 216.511 129.177 218.518 129.031 218.507Z" fill="#263238"/>
<path d="M132.673 216.84C132.505 216.874 132.145 215.207 131.212 213.359C130.301 211.511 129.177 210.23 129.312 210.105C129.413 209.992 130.773 211.148 131.74 213.098C132.718 215.037 132.82 216.84 132.673 216.84Z" fill="#263238"/>
<path d="M136.102 215.922C135.923 215.922 136.057 214.153 135.282 212.192C134.54 210.219 133.258 209.017 133.382 208.892C133.449 208.756 135.023 209.845 135.833 211.976C136.665 214.096 136.249 215.967 136.102 215.922Z" fill="#263238"/>
<path d="M135.473 211.364C135.406 211.375 135.102 210.4 135.102 208.733C135.102 207.906 135.203 206.919 135.462 205.853C135.585 205.32 135.765 204.776 135.979 204.221C136.091 203.937 136.226 203.62 136.541 203.359C136.867 203.064 137.463 203.121 137.744 203.416C138.07 203.699 138.171 204.096 138.205 204.413C138.239 204.742 138.261 205.037 138.25 205.343C138.25 205.955 138.16 206.534 138.036 207.067C137.778 208.144 137.362 209.051 136.957 209.765C136.136 211.194 135.439 211.931 135.383 211.885C135.304 211.829 135.889 211.012 136.586 209.572C136.935 208.858 137.283 207.974 137.508 206.953C137.62 206.443 137.677 205.899 137.677 205.343C137.665 204.799 137.677 204.119 137.351 203.858C137.182 203.722 137.036 203.71 136.89 203.824C136.732 203.937 136.609 204.187 136.507 204.436C136.294 204.958 136.114 205.49 135.979 205.989C135.709 206.998 135.574 207.951 135.518 208.745C135.417 210.343 135.574 211.341 135.484 211.352L135.473 211.364Z" fill="#263238"/>
<path d="M135.518 211.001C135.507 210.933 136.35 210.638 137.778 210.638C138.486 210.638 139.341 210.717 140.262 210.944C140.712 211.069 141.207 211.182 141.69 211.477C142.174 211.726 142.668 212.395 142.477 213.087C142.331 213.745 141.769 214.198 141.218 214.346C140.656 214.504 140.116 214.448 139.644 214.346C138.688 214.119 137.935 213.643 137.373 213.223C136.249 212.339 135.709 211.658 135.743 211.613C135.799 211.534 136.462 212.123 137.609 212.883C138.183 213.257 138.902 213.654 139.756 213.824C140.184 213.903 140.645 213.926 141.049 213.801C141.465 213.688 141.803 213.37 141.904 212.962C142.005 212.565 141.769 212.203 141.387 211.976C141.016 211.738 140.543 211.602 140.116 211.477C139.251 211.228 138.441 211.114 137.755 211.057C136.384 210.955 135.529 211.103 135.518 211.012V211.001Z" fill="#263238"/>
<path d="M123.658 218.892C123.49 218.87 123.658 217.362 122.972 215.706C122.32 214.04 121.15 213.076 121.262 212.94C121.318 212.792 122.781 213.631 123.523 215.48C124.277 217.316 123.816 218.949 123.67 218.881L123.658 218.892Z" fill="#263238"/>
<path d="M148.065 220.514C148.065 220.514 147.604 220.774 146.715 221.16C145.816 221.5 144.501 221.976 142.825 222.373C139.475 223.223 134.708 223.711 129.469 223.654C124.23 223.598 119.508 223.359 116.079 223.212C114.46 223.121 113.1 223.053 112.02 222.997C111.065 222.929 110.536 222.872 110.536 222.838C110.536 222.793 111.065 222.77 112.032 222.77C113.111 222.77 114.471 222.793 116.09 222.804C119.632 222.872 124.309 222.963 129.469 223.065C134.686 223.121 139.396 222.713 142.736 221.976C146.075 221.285 148.031 220.412 148.076 220.525L148.065 220.514Z" fill="#263238"/>
<path d="M149.099 221.319C149.054 221.398 148.099 220.831 146.48 220.117C144.883 219.425 142.488 218.597 139.858 219.006C137.227 219.414 135.349 221.194 134.135 222.441C132.91 223.722 132.19 224.573 132.123 224.516C132.066 224.471 132.662 223.53 133.832 222.158C134.427 221.477 135.169 220.684 136.148 219.969C137.114 219.255 138.362 218.643 139.756 218.427C142.578 217.996 145.063 218.938 146.648 219.743C148.256 220.57 149.133 221.262 149.099 221.319Z" fill="#263238"/>
<path d="M180.736 195.309C180.736 195.309 213.835 217.169 215.026 218.076C216.814 219.436 214.768 225.899 211.676 224.788C210.214 224.255 182.434 216.466 179.454 215.298C176.475 214.13 168.425 207.52 168.425 207.52L180.736 195.331V195.309Z" fill="#06274B"/>
<path d="M190.562 212.6C190.416 212.566 191.001 210.638 192.777 209.028C194.531 207.395 196.487 206.976 196.51 207.123C196.566 207.293 194.812 207.928 193.17 209.459C191.507 210.967 190.72 212.668 190.562 212.6Z" fill="#263238"/>
<path d="M187.594 209.89C187.459 209.833 188.1 208.155 189.618 206.601C191.124 205.037 192.777 204.356 192.833 204.493C192.912 204.651 191.461 205.524 190.034 207.01C188.595 208.484 187.751 209.958 187.594 209.878V209.89Z" fill="#263238"/>
<path d="M184.615 207.962C184.469 207.962 184.626 206.057 186.065 204.288C187.482 202.508 189.303 201.953 189.326 202.1C189.404 202.259 187.819 203.019 186.515 204.663C185.188 206.284 184.784 208.007 184.615 207.962Z" fill="#263238"/>
<path d="M186.582 203.812C186.492 203.767 186.953 202.871 187.336 201.318C187.527 200.547 187.684 199.606 187.729 198.551C187.752 198.03 187.74 197.474 187.695 196.907C187.673 196.635 187.628 196.363 187.515 196.204C187.414 196.057 187.268 196.023 187.066 196.102C186.684 196.25 186.492 196.907 186.312 197.418C186.144 197.951 186.043 198.483 185.986 199.005C185.885 200.037 185.964 200.989 186.065 201.783C186.301 203.37 186.605 204.334 186.515 204.357C186.459 204.379 185.998 203.461 185.66 201.851C185.492 201.046 185.368 200.059 185.447 198.948C185.481 198.393 185.582 197.815 185.762 197.236C185.852 196.941 185.953 196.658 186.088 196.363C186.223 196.068 186.436 195.728 186.83 195.558C187.189 195.365 187.774 195.49 187.988 195.864C188.213 196.216 188.235 196.556 188.257 196.862C188.302 197.463 188.302 198.03 188.257 198.585C188.179 199.674 187.976 200.649 187.729 201.431C187.223 203.007 186.639 203.846 186.582 203.812Z" fill="#263238"/>
<path d="M186.638 203.461C186.593 203.552 185.818 203.155 184.491 202.826C183.828 202.667 183.018 202.531 182.119 202.497C181.669 202.497 181.186 202.474 180.758 202.588C180.32 202.69 179.994 202.962 179.971 203.37C179.938 203.79 180.174 204.198 180.533 204.425C180.893 204.674 181.332 204.787 181.759 204.844C182.625 204.946 183.423 204.787 184.086 204.606C185.402 204.221 186.211 203.869 186.245 203.96C186.267 204.016 185.548 204.504 184.21 205.003C183.547 205.241 182.692 205.468 181.703 205.377C181.219 205.332 180.691 205.218 180.207 204.901C179.724 204.595 179.331 203.982 179.387 203.313C179.42 202.588 180.095 202.112 180.623 202.021C181.174 201.896 181.68 201.93 182.141 201.953C183.086 202.01 183.918 202.202 184.603 202.418C185.964 202.86 186.672 203.404 186.638 203.461Z" fill="#263238"/>
<path d="M207.46 223.564C207.46 223.564 206.898 223.223 206.651 222.271C206.37 221.341 206.549 219.901 207.269 218.643C207.617 218.008 208.011 217.464 208.382 216.976C208.742 216.489 209.124 216.058 209.506 215.763C209.888 215.457 210.293 215.332 210.563 215.321C210.844 215.309 210.979 215.377 210.979 215.411C210.979 215.502 210.383 215.457 209.776 216.08C209.461 216.375 209.158 216.795 208.82 217.294C208.483 217.792 208.112 218.325 207.786 218.926C207.112 220.105 206.92 221.319 207.055 222.18C207.179 223.042 207.539 223.496 207.46 223.564Z" fill="#263238"/>
<path d="M195.576 214.606C195.419 214.618 195.475 212.928 196.746 211.409C198.005 209.878 199.646 209.527 199.657 209.686C199.725 209.844 198.32 210.4 197.195 211.794C196.037 213.155 195.756 214.652 195.576 214.618V214.606Z" fill="#263238"/>
<path d="M171.832 208.677C171.832 208.677 172.371 209.017 173.282 209.686C174.215 210.332 175.575 211.25 177.363 212.203C179.139 213.167 181.343 214.164 183.85 215.117C186.357 216.058 189.168 216.953 192.136 217.815C198.095 219.55 203.48 221.126 207.37 222.305C209.236 222.883 210.788 223.36 211.968 223.734C213.048 224.085 213.643 224.289 213.632 224.335C213.632 224.369 213.003 224.233 211.901 223.961C210.698 223.643 209.135 223.224 207.246 222.713C203.323 221.636 197.915 220.117 191.956 218.393C188.977 217.52 186.155 216.613 183.636 215.638C181.118 214.652 178.915 213.609 177.149 212.588C175.373 211.568 174.024 210.593 173.136 209.89C172.248 209.164 171.798 208.722 171.82 208.699L171.832 208.677Z" fill="#263238"/>
<path d="M170.595 209.13C170.584 209.062 171.618 208.676 173.406 208.382C175.148 208.109 177.802 207.962 180.365 209.243C181.635 209.878 182.636 210.842 183.344 211.817C184.064 212.804 184.536 213.779 184.896 214.606C185.593 216.273 185.885 217.35 185.818 217.384C185.728 217.418 185.301 216.386 184.525 214.788C183.738 213.234 182.501 210.955 180.106 209.765C177.723 208.574 175.193 208.62 173.462 208.79C171.708 208.971 170.629 209.221 170.606 209.13H170.595Z" fill="#263238"/>
<path d="M258.311 22.1286L260.469 66.223C260.84 73.7176 254.904 79.999 247.462 79.999C240.514 79.999 234.791 74.4886 234.454 67.4929C234.296 64.1708 234.15 61.4043 234.116 61.0641C234.116 61.0641 222.93 60.5652 221.581 49.4878C220.929 44.1361 220.479 33.0133 220.187 22.9336C219.872 12.117 227.866 2.8763 238.524 1.68579L239.58 1.5724C251.093 0.971477 258.03 10.4956 258.3 22.1173L258.311 22.1286Z" fill="#FFBE9D"/>
<path d="M234.083 60.9167C234.083 60.9167 241.087 60.7126 247.967 55.2136C247.967 55.2136 245.449 63.5699 234.375 63.7853L234.083 60.9054V60.9167Z" fill="#EB996E"/>
<path d="M223.684 29.8725C223.751 30.7116 224.504 31.3465 225.37 31.3012C226.236 31.2558 226.899 30.5302 226.831 29.6911C226.764 28.8521 226.011 28.2172 225.145 28.2625C224.279 28.3079 223.616 29.0335 223.684 29.8725Z" fill="#263238"/>
<path d="M223.155 28.1264C223.368 28.3079 224.459 27.2874 226.156 27.106C227.843 26.9019 229.181 27.6389 229.338 27.4121C229.417 27.3101 229.181 26.9586 228.596 26.6185C228.023 26.2783 227.078 25.9949 226.021 26.1196C224.965 26.2443 224.133 26.7318 223.661 27.1854C223.188 27.6502 223.053 28.0357 223.155 28.1151V28.1264Z" fill="#263238"/>
<path d="M240.278 28.4326C240.345 29.2716 241.098 29.9065 241.964 29.8612C242.83 29.8158 243.493 29.0902 243.426 28.2512C243.358 27.4121 242.605 26.7772 241.739 26.8225C240.873 26.8679 240.21 27.5935 240.278 28.4326Z" fill="#263238"/>
<path d="M239.794 26.5958C240.007 26.7772 241.109 25.7568 242.796 25.5754C244.482 25.3713 245.82 26.1083 245.977 25.8815C246.056 25.7795 245.82 25.428 245.235 25.0878C244.662 24.7477 243.717 24.4642 242.661 24.5889C241.604 24.7137 240.772 25.2012 240.3 25.6547C239.828 26.1196 239.693 26.5051 239.794 26.5845V26.5958Z" fill="#263238"/>
<path d="M235.038 39.9182C235.038 39.8161 233.97 39.7594 232.239 39.7254C231.8 39.7254 231.384 39.6914 231.283 39.3966C231.148 39.0905 231.283 38.603 231.429 38.0701C231.722 36.9702 232.025 35.8251 232.34 34.6119C233.599 29.7024 234.454 25.6774 234.262 25.632C234.06 25.5867 232.891 29.521 231.632 34.4418C231.328 35.655 231.047 36.8115 230.777 37.9113C230.665 38.4215 230.451 39.0111 230.743 39.6461C230.89 39.9635 231.238 40.1563 231.519 40.2016C231.8 40.2583 232.048 40.2357 232.261 40.2243C233.981 40.1223 235.049 40.0202 235.038 39.9182Z" fill="#263238"/>
<path d="M240.142 40.5418C239.861 40.5532 240.064 42.4013 238.636 43.898C237.208 45.3946 235.241 45.3946 235.252 45.6554C235.241 45.7688 235.724 45.9615 236.556 45.8935C237.365 45.8368 238.523 45.44 239.389 44.5329C240.255 43.6258 240.547 42.5034 240.536 41.7324C240.525 40.95 240.266 40.5192 240.142 40.5418Z" fill="#263238"/>
<path d="M238.624 19.9741C238.838 20.4163 240.502 20.0081 242.514 20.0308C244.527 20.0081 246.191 20.4163 246.404 19.9741C246.494 19.7587 246.168 19.3619 245.483 18.9764C244.797 18.6022 243.729 18.2847 242.526 18.2847C241.323 18.2847 240.255 18.6022 239.569 18.9764C238.872 19.3505 238.546 19.7587 238.647 19.9741H238.624Z" fill="#263238"/>
<path d="M223.233 23.1263C223.571 23.4778 224.695 22.9449 226.089 22.7748C227.483 22.5481 228.697 22.7521 228.933 22.31C229.035 22.1059 228.798 21.7317 228.248 21.4256C227.697 21.1194 226.808 20.9154 225.853 21.0514C224.897 21.1875 224.099 21.6297 223.661 22.0832C223.211 22.5367 223.087 22.9562 223.245 23.1263H223.233Z" fill="#263238"/>
<path d="M258.311 30.4399C258.491 30.3378 265.619 27.3445 266.203 34.9525C266.788 42.5604 259.098 41.5854 259.064 41.3699C259.031 41.1545 258.3 30.4399 258.3 30.4399H258.311Z" fill="#FFBE9D"/>
<path d="M261.155 38.2971C261.155 38.2971 261.29 38.3765 261.526 38.4672C261.751 38.5466 262.133 38.5919 262.504 38.4105C263.28 38.0477 263.853 36.7211 263.786 35.3492C263.752 34.6576 263.561 34.0113 263.269 33.4784C262.999 32.9455 262.605 32.5827 262.201 32.5373C261.796 32.4806 261.526 32.7414 261.459 32.9568C261.369 33.1723 261.436 33.331 261.391 33.3423C261.369 33.365 261.223 33.2289 261.256 32.9115C261.279 32.7527 261.346 32.5713 261.515 32.4126C261.684 32.2539 261.942 32.1518 262.223 32.1632C262.808 32.1632 263.37 32.6507 263.685 33.2289C264.033 33.8072 264.269 34.5328 264.303 35.3152C264.371 36.8572 263.707 38.3425 262.639 38.7507C262.122 38.9321 261.661 38.8074 261.425 38.6486C261.178 38.4785 261.121 38.3085 261.144 38.2971H261.155Z" fill="#EB996E"/>
<path d="M262.471 29.7138C261.29 29.5664 259.424 30.8476 259.053 31.9815C258.682 33.1153 258.704 34.3512 258.345 35.4963C257.973 36.6301 256.984 37.73 255.804 37.5939C254.994 37.4918 254.342 36.8116 254.05 36.0406C253.757 35.2696 253.746 34.4192 253.757 33.6028C253.814 30.0086 254.162 26.4257 253.915 22.8429C253.668 19.26 252.757 15.6204 250.565 12.7858C248.372 9.95128 244.718 8.10315 241.233 8.78344C238.917 9.23697 236.916 10.6996 234.622 11.2892C231.913 11.9808 228.9 11.3232 226.719 9.56578C226.438 9.33901 225.178 8.69273 225.178 8.69273C225.156 8.51132 225.156 6.91263 225.718 6.26635C229.844 1.43626 238.018 -0.683985 244.257 0.189059C250.508 1.05076 256.681 4.74703 259.93 10.2121C263.179 15.6657 263.269 23.7499 262.471 29.7252" fill="#263238"/>
<path d="M139.621 204.64C139.621 204.64 220.805 150.942 224.133 149.82C227.461 148.697 235.488 143.391 243.527 145.625C251.565 147.858 258.761 155.126 262.369 165.739C265.967 176.351 266.248 200.105 266.248 200.105C266.248 200.105 259.874 218.824 247.417 222.736C246.382 223.065 245.292 223.337 244.167 223.552C228.956 226.602 213.475 219.539 204.964 206.466L203.154 203.688C203.154 203.688 150.043 223.359 149.211 223.087L139.632 204.64H139.621Z" fill="#263238"/>
<path d="M111.942 141.996C111.942 141.996 102.014 145.579 101.969 156.804C101.891 178.313 145.063 202.032 145.063 202.032L202.524 163.641V159.605C202.524 159.605 128.558 132.778 111.942 141.996Z" fill="#263238"/>
<path d="M240.064 189.855C240.064 189.855 239.918 189.934 239.614 190.059C239.288 190.184 238.85 190.365 238.287 190.592C237.084 191.057 235.364 191.726 233.138 192.587C228.619 194.3 222.109 196.783 214.014 199.855C205.886 202.917 196.161 206.545 185.233 210.559C174.316 214.561 162.208 218.96 149.29 223.371L149.054 223.45L148.941 223.223C146.918 219.312 144.77 215.196 142.6 211.012C141.499 208.88 140.397 206.76 139.362 204.787L139.239 204.549L139.464 204.402C163.838 188.8 185.649 174.832 201.389 164.752C209.247 159.752 215.588 155.715 219.995 152.915C222.177 151.543 223.874 150.477 225.043 149.74C225.606 149.389 226.044 149.128 226.359 148.924C226.662 148.742 226.82 148.663 226.82 148.663C226.82 148.663 226.685 148.777 226.393 148.969C226.078 149.173 225.651 149.457 225.1 149.831C223.942 150.591 222.255 151.69 220.108 153.096C215.734 155.931 209.427 160.024 201.602 165.081C185.885 175.195 164.119 189.209 139.778 204.878L139.88 204.493C140.903 206.465 142.004 208.586 143.118 210.717C145.287 214.901 147.424 219.028 149.458 222.94L149.11 222.792C162.028 218.393 174.136 214.017 185.064 210.048C195.981 206.046 205.728 202.463 213.879 199.47C222.008 196.465 228.54 194.05 233.071 192.372C235.308 191.556 237.051 190.909 238.254 190.467C238.827 190.263 239.277 190.104 239.603 189.991C239.906 189.889 240.064 189.844 240.064 189.844V189.855Z" fill="#455A64"/>
<path d="M173.417 183.03C173.417 183.03 172.866 182.701 171.922 182.009C170.977 181.317 169.639 180.297 167.987 179.016C164.693 176.453 160.218 172.814 155.406 168.653C150.594 164.48 146.356 160.569 143.343 157.677C141.836 156.237 140.633 155.047 139.812 154.208C138.992 153.38 138.553 152.904 138.587 152.87C138.609 152.836 139.104 153.255 139.97 154.038C140.903 154.888 142.14 156.011 143.624 157.36C146.704 160.172 150.976 164.027 155.788 168.199C160.6 172.36 165.03 176.045 168.245 178.687C169.797 179.957 171.078 181.023 172.057 181.828C172.956 182.576 173.439 182.996 173.417 183.03Z" fill="#455A64"/>
<path d="M128.165 150.035C128.142 149.888 130.706 149.638 133.696 150.545C136.698 151.43 138.711 153.04 138.621 153.153C138.531 153.312 136.428 151.963 133.528 151.112C130.638 150.239 128.154 150.216 128.154 150.035H128.165Z" fill="#455A64"/>
<path d="M133.112 146.645C133.168 146.509 135 147.326 136.518 149.23C138.047 151.124 138.452 153.108 138.306 153.131C138.137 153.187 137.508 151.385 136.057 149.605C134.629 147.802 133.01 146.804 133.112 146.645Z" fill="#455A64"/>
<path d="M108.782 214.765C108.749 214.697 109.468 214.561 110.266 215.219C111.053 215.853 111.717 217.112 111.93 218.586C112.144 220.071 111.818 221.432 111.402 222.294C110.997 223.178 110.547 223.586 110.503 223.541C110.424 223.484 110.739 222.997 111.02 222.135C111.312 221.284 111.548 220.026 111.346 218.665C111.143 217.316 110.604 216.148 109.985 215.525C109.378 214.878 108.771 214.856 108.782 214.765Z" fill="#263238"/>
</g>
<defs>
<clipPath id="clip0_1246_11555">
<rect width="353" height="300" fill="white"/>
</clipPath>
</defs>
</svg>
