<svg width="316" height="56" viewBox="0 0 316 56" fill="none" xmlns="http://www.w3.org/2000/svg">
<path d="M26.3772 35.1012C26.4923 38.6827 26.6073 42.0999 26.6073 42.0999L27.8646 35.3477L29.0972 41.9849L29.4095 35.0109C28.9247 34.4605 28.4234 33.8526 27.9057 33.1873C27.9057 33.1873 27.3798 33.9676 26.3772 35.093V35.1012Z" fill="url(#paint0_linear_1246_12124)"/>
<path d="M31.9323 22.0488C32.5158 22.0734 33.1896 22.1227 33.9045 22.1802C35.8192 20.7098 38.0215 19.297 39.2953 18.9109C39.2953 18.9109 36.6821 19.338 35.6138 19.6995C34.8413 19.9623 32.5075 20.7838 30.3627 22.1145C30.8229 22.0488 31.3489 22.0159 31.9323 22.0488Z" fill="url(#paint1_linear_1246_12124)"/>
<path d="M26.0487 22.3199C25.4077 21.8845 24.6681 21.4409 23.871 21.1124C21.6112 20.1595 16.5081 18.9109 16.5081 18.9109C17.1655 19.3216 19.6554 20.1513 21.9317 22.0324H21.981C23.6656 21.9667 25.0051 22.0652 26.0487 22.3199Z" fill="url(#paint2_linear_1246_12124)"/>
<path d="M33.9045 22.18C33.2718 22.6646 32.6719 23.1575 32.146 23.6175C31.8337 23.8968 31.5543 24.1514 31.3078 24.3897C31.2996 24.3979 31.2913 24.3979 31.2913 24.4061C31.2913 24.4143 31.2831 24.4143 31.2749 24.4143C31.2338 24.4554 31.1599 24.5129 31.1106 24.5539C30.8394 24.8743 30.4203 25.3672 30.3463 25.4822C30.2888 25.5725 30.2395 25.6711 30.1902 25.7779C29.3356 27.4043 29.541 28.1108 29.6314 28.5379C29.6478 28.6119 29.6314 28.7104 29.615 28.8008C29.5821 29.1787 29.5656 29.5319 29.5492 29.8522C29.541 29.9262 29.541 30.0083 29.5328 30.0823C29.5246 30.304 29.5163 30.5094 29.5081 30.6737C29.4917 31.0351 29.4835 31.2487 29.4835 31.2487L29.4177 34.7152C29.4095 34.8138 29.4095 34.9123 29.4013 35.0191C29.278 34.8877 29.163 34.748 29.0397 34.6002C28.7275 34.2305 28.407 33.8362 28.07 33.4173C28.0207 33.3434 27.9632 33.2777 27.9057 33.2037H27.8975C27.8728 33.2448 27.7742 33.3927 27.6016 33.6145C27.4044 33.8773 27.1086 34.247 26.7306 34.6988C26.6155 34.8302 26.5005 34.9616 26.3772 35.1013C26.3772 35.0109 26.369 34.9123 26.369 34.822C26.3608 34.633 26.3526 34.4523 26.3444 34.2634C26.3444 34.1566 26.3444 34.0498 26.3444 33.943C26.3279 33.6145 26.3197 33.2859 26.3115 33.023C26.2704 31.6184 26.2211 30.2958 26.1882 29.2526C26.18 29.1047 26.18 28.9733 26.1718 28.8419C26.18 28.809 26.18 28.7762 26.18 28.7433C26.2129 27.9054 26.0567 26.6404 25.8102 25.8354C25.6459 25.5315 25.4651 25.2357 25.2103 25.0222C25.1446 24.9647 25.0788 24.9072 24.9967 24.8497C24.9227 24.7675 24.8405 24.6854 24.7584 24.6032L24.4954 24.3404C24.3146 24.1596 24.1092 23.9707 23.8955 23.7818C23.575 23.4861 23.2217 23.1739 22.8272 22.8207C22.6957 22.6975 22.5643 22.5743 22.4246 22.451C22.2684 22.3114 22.1041 22.1718 21.9397 22.0321H21.989C23.6654 21.9664 25.0131 22.065 26.0567 22.3196C27.2401 23.1246 28.0454 23.905 28.0454 23.905C28.3823 23.5764 28.7521 23.2561 29.1465 22.9521C29.541 22.6564 29.9519 22.3771 30.371 22.1143C30.7243 22.065 31.127 22.0321 31.5543 22.0321C31.6776 22.0321 31.809 22.0321 31.9405 22.0403C32.2364 22.0568 32.5486 22.0814 32.8773 22.0978C33.2143 22.1225 33.5594 22.1471 33.9127 22.18H33.9045Z" fill="url(#paint3_linear_1246_12124)"/>
<path d="M39.6487 22.763C39.394 22.7302 36.4521 22.3934 33.9128 22.1798C32.9021 22.9602 31.9653 23.7488 31.2914 24.4059C31.3243 24.4059 31.2503 24.4059 31.2914 24.4141C33.4198 22.7302 38.2846 22.648 39.6651 22.7548L39.6487 22.763Z" fill="url(#paint4_linear_1246_12124)"/>
<path d="M22.4164 22.4589C22.2603 22.311 22.0959 22.1714 21.9316 22.0317C19.0719 22.1385 16.2039 22.5903 16.2039 22.5903C16.2039 22.5903 19.3677 22.7053 21.0112 23.0257C22.5315 23.3214 24.0682 24.1428 24.9885 24.8493C24.3804 24.1921 23.5176 23.461 22.4164 22.4589Z" fill="url(#paint5_linear_1246_12124)"/>
<path d="M30.3629 22.1138C28.6536 22.3602 27.8154 23.0995 27.8154 23.0995C27.3717 22.7545 26.7883 22.4998 26.0487 22.3191C27.232 23.1241 28.0373 23.9045 28.0373 23.9045C28.7112 23.2309 29.5247 22.6313 30.3629 22.1138Z" fill="url(#paint6_linear_1246_12124)"/>
<path d="M38.7613 18.1633C37.6026 18.1633 35.6632 18.1715 33.3952 18.1798C32.9761 18.1715 32.5488 18.1798 32.1132 18.1798C29.2206 18.1798 25.95 18.188 23.1068 18.1962H21.8741C20.132 18.1962 18.62 18.2044 17.5434 18.2044H15.7191V42.5191H40.0432V18.1633H38.7613ZM39.7802 42.2645H15.9821V18.4673H17.3134C18.3406 18.459 19.8444 18.459 21.5947 18.459C21.9892 18.4508 22.3918 18.4508 22.8109 18.459C25.8186 18.4508 29.3521 18.4426 32.4255 18.4344H33.6992C35.9837 18.4344 37.9066 18.4262 38.9914 18.4262H39.7802V42.2645Z" fill="url(#paint7_linear_1246_12124)"/>
<path d="M42.5331 25.9995C42.4838 25.4984 42.4016 25.0055 42.2866 24.5209C41.8839 22.6398 41.1114 20.9065 40.0432 19.3786C39.961 19.2554 39.8706 19.1322 39.7802 19.009C39.6323 18.8118 39.4844 18.6147 39.3282 18.4258C39.2543 18.3354 39.1803 18.245 39.0981 18.1629C36.8547 15.5671 33.7074 13.7764 30.1574 13.2917C29.6643 13.2178 29.1713 13.1767 28.6618 13.1603C28.4974 13.1521 28.3331 13.1521 28.1687 13.1521C27.4785 13.1521 26.8046 13.2014 26.139 13.2917C25.687 13.3575 25.2351 13.4478 24.7913 13.5546C21.7837 14.2693 19.1458 15.9286 17.1983 18.204C17.1243 18.2861 17.0503 18.3765 16.9764 18.4668C16.8449 18.6229 16.7216 18.779 16.5984 18.9351C16.5984 18.9433 16.5984 18.9515 16.5902 18.9515C16.3765 19.239 16.1711 19.5347 15.9821 19.8386C15.8917 19.9701 15.8013 20.1179 15.7191 20.2576C14.5358 22.2537 13.8126 24.5537 13.7222 27.0181C13.7058 27.207 13.7058 27.4041 13.7058 27.6013C13.7058 27.7984 13.7058 27.9791 13.7222 28.1681C13.7222 28.3159 13.7304 28.4556 13.7387 28.6034C13.7633 28.9484 13.7962 29.2852 13.8455 29.622C14.1167 31.5524 14.7659 33.3514 15.7191 34.9532C15.8013 35.1011 15.8917 35.2407 15.9821 35.3721C18.2583 38.9372 22.0549 41.4344 26.4513 41.9519L26.5992 41.9765H26.632C27.0511 42.0258 27.4785 42.0505 27.9058 42.0505C27.988 42.0587 28.0701 42.0587 28.1523 42.0587H28.1687C28.6947 42.0587 29.2206 42.034 29.7383 41.9765C33.8471 41.533 37.4382 39.3561 39.7802 36.2018C39.8706 36.0786 39.961 35.9554 40.0432 35.8321C41.1197 34.296 41.8921 32.5382 42.2948 30.6488C42.4016 30.197 42.4756 29.737 42.5249 29.2688C42.5906 28.7184 42.6235 28.1681 42.6235 27.6013C42.6235 27.0345 42.5906 26.5252 42.5331 25.9995ZM42.114 30.2792C41.7606 32.1274 41.0457 33.8442 40.0432 35.3639C39.961 35.4953 39.8706 35.6268 39.7802 35.75C38.6051 37.434 37.0766 38.8386 35.2934 39.8654C35.277 39.8819 35.2687 39.8901 35.2523 39.8901C33.4773 40.9251 31.4558 41.5822 29.3028 41.7465C29.237 41.7547 29.1631 41.763 29.0973 41.763C29.0809 41.763 29.0645 41.7712 29.048 41.7712C28.8097 41.7876 28.5714 41.7958 28.3249 41.7958H28.1687C28.0044 41.7958 27.84 41.7958 27.6757 41.7876C27.3963 41.7794 27.1169 41.763 26.8457 41.7301C26.7882 41.7301 26.7307 41.7301 26.6814 41.7137C26.6485 41.7137 26.6156 41.7137 26.591 41.7055C24.5201 41.4755 22.5808 40.8019 20.8797 39.7751C20.8551 39.7586 20.8222 39.7422 20.7976 39.7258C18.8253 38.5265 17.1654 36.8589 15.9821 34.8711C15.8917 34.7232 15.8013 34.5671 15.7191 34.4193C14.848 32.8421 14.2728 31.0842 14.0674 29.2195C14.0509 29.1702 14.0509 29.1127 14.0427 29.0552C14.0016 28.6199 13.977 28.1845 13.9687 27.7409V27.437C13.9934 25.0302 14.6262 22.763 15.7191 20.7833C15.8013 20.6354 15.8917 20.4794 15.9821 20.3315C16.2368 19.8961 16.5244 19.4772 16.8285 19.0747C16.8449 19.0501 16.8613 19.0254 16.886 19.0008C17.0257 18.8201 17.1654 18.6393 17.3133 18.4668C17.3873 18.3765 17.4612 18.2861 17.5434 18.204C19.5074 15.9779 22.1617 14.376 25.1693 13.7271C25.6213 13.6285 26.0815 13.5546 26.5499 13.5053C27.084 13.4396 27.6182 13.4067 28.1687 13.4067H28.2345C28.7522 13.4067 29.2535 13.4396 29.7547 13.4971C33.3212 13.8914 36.4932 15.6164 38.7612 18.1629C38.8352 18.245 38.9091 18.3354 38.9913 18.4258C39.2707 18.7543 39.5337 19.0993 39.7802 19.4526C39.8706 19.5758 39.961 19.7072 40.0432 19.8386C41.0457 21.3583 41.7606 23.0916 42.114 24.9398C42.2126 25.4327 42.2783 25.9338 42.3194 26.443C42.3523 26.8209 42.3687 27.207 42.3687 27.6013C42.3687 28.0284 42.3523 28.4556 42.3112 28.8745C42.2701 29.351 42.2044 29.8192 42.114 30.2792Z" fill="url(#paint8_linear_1246_12124)"/>
<path d="M27.9222 21.9662C28.8072 21.9662 29.5246 21.249 29.5246 20.3644C29.5246 19.4797 28.8072 18.7626 27.9222 18.7626C27.0372 18.7626 26.3197 19.4797 26.3197 20.3644C26.3197 21.249 27.0372 21.9662 27.9222 21.9662Z" fill="url(#paint9_linear_1246_12124)"/>
<path d="M29.6314 28.538C29.6479 28.6119 29.6314 28.7105 29.615 28.8009C29.6232 28.7188 29.6232 28.6284 29.6314 28.538Z" fill="url(#paint10_linear_1246_12124)"/>
<path d="M35.3509 39.9396L35.2523 39.8904C34.9811 39.7671 34.1347 39.3236 32.9102 38.3625C32.7048 38.2146 32.4829 38.0339 32.2528 37.845C32.5569 37.5821 32.8609 37.311 33.165 37.0317C33.3129 37.2617 33.469 37.4917 33.6334 37.7218C34.1182 38.4364 34.6688 39.1511 35.2933 39.8657C35.3098 39.8904 35.3262 39.915 35.3509 39.9396Z" fill="url(#paint11_linear_1246_12124)"/>
<path d="M24.0929 34.6083C23.1561 36.6044 20.6579 39.9148 20.6579 39.9148C23.2054 38.3541 25.1447 36.473 26.3692 35.1012C26.2952 32.7847 26.213 30.4108 26.1637 28.8418C26.0651 30.345 25.005 32.6533 24.0847 34.6083H24.0929Z" fill="url(#paint12_linear_1246_12124)"/>
<g filter="url(#filter0_d_1246_12124)">
<path d="M44.9573 36.5639C44.7519 34.6253 44.1273 32.5799 43.059 30.3209C42.8865 29.9677 42.7139 29.6227 42.5249 29.2695C42.4592 29.138 42.3852 29.0066 42.3112 28.8752C42.0976 28.4891 41.8757 28.103 41.6456 27.7252C41.4813 27.4541 41.3169 27.1912 41.1444 26.9284C40.7992 26.3862 40.4294 25.8523 40.0432 25.3266C39.961 25.2033 39.8706 25.0801 39.7802 24.9651C39.2214 24.2176 38.6298 23.4783 37.997 22.7472C37.9477 22.6815 37.8902 22.624 37.8327 22.5583C37.2656 21.9093 36.674 21.2768 36.0494 20.6443C35.844 20.4308 35.6386 20.2254 35.4249 20.02C35.3592 19.9543 35.2934 19.8968 35.2277 19.8311C34.7264 19.3464 34.2169 18.8864 33.6992 18.4346C33.6006 18.3443 33.4938 18.2621 33.3952 18.18C31.7023 16.726 29.952 15.4692 28.1688 14.4014C27.8976 14.2453 27.6346 14.0892 27.3635 13.9414C27.0923 13.7853 26.8211 13.6374 26.5499 13.506C26.4102 13.4321 26.2787 13.3581 26.139 13.2924C25.7199 13.0788 25.2926 12.8735 24.8653 12.6845C22.4904 11.6577 20.4525 11.1156 18.4638 10.9759C17.149 10.9102 16.015 11.0088 15.0042 11.2963C14.4536 11.4442 13.903 11.6742 13.3032 12.0027C12.7855 12.3067 12.2924 12.6928 11.824 13.161C11.3967 13.6374 11.0433 14.1467 10.7721 14.6971C10.4845 15.3049 10.2955 15.8635 10.1887 16.4139C9.96682 17.4325 9.94217 18.5332 10.1065 19.8722C10.3859 21.8272 11.0598 23.7905 12.2349 26.0659C12.6375 26.8298 13.0895 27.6019 13.5908 28.3741C13.6401 28.448 13.6894 28.5302 13.7387 28.6041C13.8373 28.752 13.9359 28.8998 14.0427 29.0477C14.0592 29.0888 14.0838 29.1134 14.1085 29.1463C14.5933 29.8609 15.1357 30.5838 15.7191 31.3231C15.7438 31.3477 15.7602 31.3806 15.7849 31.4052C15.8506 31.4874 15.9164 31.5613 15.9821 31.6434C17.2394 33.196 18.6282 34.6828 20.1073 36.071C20.7647 36.6871 21.4386 37.2868 22.1289 37.8536C22.3507 38.0507 22.5808 38.2396 22.8109 38.4204C23.5341 39.0036 24.2736 39.5622 25.0214 40.0879C25.5474 40.4575 26.0651 40.7943 26.5746 41.1229C26.6403 41.164 26.706 41.1968 26.7636 41.2461L27.2073 41.5172L27.6757 41.7883L28.0209 41.9854C28.0209 41.9854 28.1113 42.0347 28.1523 42.0593C28.2756 42.1333 28.3989 42.199 28.5221 42.2647C28.6783 42.3551 28.8426 42.4372 28.9988 42.5194C29.5165 42.7904 30.0342 43.0369 30.5519 43.2669C32.8199 44.2772 34.8579 44.844 36.7808 45.0083C37.1095 45.033 37.4218 45.0412 37.7258 45.0412C38.6051 45.0412 39.394 44.9508 40.1172 44.7537C40.6349 44.6222 41.1608 44.4169 41.7442 44.113C42.2455 43.8255 42.7139 43.4722 43.1577 43.0286C43.5768 42.5851 43.9219 42.1004 44.1931 41.5829C44.4807 41.0079 44.6779 40.4657 44.793 39.9482C45.0313 38.9543 45.0806 37.8453 44.9573 36.5639ZM43.9876 39.7593C43.889 40.2275 43.7165 40.704 43.4617 41.2133C43.2316 41.6568 42.9276 42.0758 42.5742 42.4619C42.188 42.8315 41.7771 43.1519 41.3498 43.3901C40.8403 43.6612 40.3719 43.8419 39.9117 43.9569C39.016 44.1951 38.0134 44.269 36.8466 44.1869C35.014 44.039 33.0665 43.4887 30.8888 42.5194C30.708 42.4372 30.519 42.3551 30.3382 42.2647C30.141 42.1743 29.9356 42.0758 29.7383 41.9772C29.5904 41.9033 29.4507 41.8293 29.3028 41.7472L29.1056 41.6486C29.1056 41.6486 29.0398 41.6158 29.0152 41.5993C28.9412 41.5583 28.8673 41.5172 28.8015 41.4843C28.5386 41.3365 28.2756 41.1886 28.0044 41.0243C27.6511 40.819 27.2895 40.5972 26.9279 40.3672C26.7964 40.285 26.6732 40.2029 26.5417 40.1125C26.1966 39.8907 25.8514 39.6607 25.4981 39.4143C24.816 38.9379 24.1339 38.4286 23.4765 37.8864C23.1725 37.6646 22.8849 37.4264 22.589 37.1635C21.9316 36.6296 21.2907 36.0628 20.6661 35.4714C19.1376 34.0338 17.716 32.4895 16.4258 30.8877L15.9821 30.3209C15.8917 30.2059 15.8013 30.0909 15.7191 29.9759C15.3 29.4256 14.9138 28.8834 14.5605 28.3495C14.3879 28.0948 14.2235 27.8402 14.0674 27.5855L13.9688 27.4377C13.8866 27.298 13.7962 27.1584 13.7223 27.0187C13.4511 26.5751 13.1963 26.1234 12.9662 25.6798C11.8322 23.4947 11.183 21.6136 10.9201 19.7654C10.7639 18.525 10.7886 17.5146 10.9858 16.5782C11.0844 16.0935 11.257 15.5925 11.5117 15.0585C11.75 14.5821 12.0623 14.1303 12.4239 13.7196C12.8265 13.3171 13.2621 12.9803 13.7058 12.7174C14.24 12.4217 14.733 12.2245 15.2179 12.0931C15.9574 11.8795 16.7792 11.7727 17.6914 11.7727C17.9214 11.7727 18.1598 11.781 18.4145 11.7974C20.3045 11.9288 22.2521 12.4545 24.5284 13.4321C24.6188 13.4731 24.701 13.5142 24.7913 13.5553C24.9146 13.6128 25.0461 13.6703 25.1694 13.7278C25.6378 13.9578 26.1144 14.196 26.5828 14.4506C26.854 14.5985 27.1169 14.7464 27.3881 14.9024C28.9988 15.8307 30.5765 16.9232 32.1132 18.18C32.22 18.2621 32.3187 18.3443 32.4255 18.4346C33.0829 18.9768 33.7321 19.5518 34.3731 20.1515C34.5374 20.3075 34.7018 20.4554 34.8579 20.6115C35.0305 20.7758 35.203 20.9483 35.3674 21.1125C35.8029 21.5479 36.222 21.9833 36.6247 22.4269C36.7315 22.5501 36.8466 22.6733 36.9534 22.7965C37.9888 23.963 38.9338 25.154 39.7802 26.3698C39.8706 26.5012 39.961 26.6326 40.0432 26.7641C40.2733 27.0927 40.4869 27.4212 40.6924 27.7498C40.8567 28.0127 41.0129 28.2755 41.169 28.5466C41.5059 29.1216 41.8264 29.6966 42.114 30.2799C42.1798 30.4031 42.2373 30.5263 42.2948 30.6495C42.303 30.6577 42.3112 30.6659 42.3112 30.6741C43.3467 32.851 43.9383 34.806 44.1438 36.6543C44.2588 37.8371 44.2095 38.8475 43.9876 39.7593Z" fill="url(#paint13_linear_1246_12124)"/>
</g>
<g filter="url(#filter1_d_1246_12124)">
<path d="M44.2177 15.4934C44.0698 14.9512 43.8397 14.3926 43.5192 13.8012C43.2152 13.2755 42.8289 12.7826 42.3523 12.3226C41.8839 11.8954 41.3662 11.5422 40.8156 11.2629C40.2075 10.9836 39.6487 10.7865 39.1064 10.6797C38.0792 10.4579 36.978 10.4333 35.6468 10.5976C33.691 10.8769 31.7187 11.5504 29.4507 12.7333C29.1877 12.873 28.9248 13.0126 28.6618 13.1605C28.5221 13.2426 28.3742 13.3248 28.2345 13.4069C27.9469 13.5794 27.651 13.7519 27.3634 13.9408C27.1005 14.1051 26.8457 14.2694 26.5828 14.4501C25.7692 15.0005 24.9474 15.6084 24.1093 16.282C23.345 16.8898 22.6054 17.5305 21.8741 18.1959C21.7837 18.2781 21.6851 18.3684 21.5947 18.4588C21.1016 18.9188 20.6168 19.387 20.1484 19.8717C19.9512 20.0606 19.7704 20.2495 19.5896 20.4385C19.5403 20.4877 19.491 20.5452 19.4417 20.5945C18.8993 21.1778 18.3652 21.7692 17.8639 22.3688C17.7735 22.4674 17.6831 22.566 17.6174 22.6646C17.0339 23.3464 16.4916 24.0364 15.9821 24.7428C15.8917 24.8578 15.8013 24.981 15.7191 25.1043C15.6205 25.2357 15.5219 25.3753 15.4233 25.515C14.9302 26.2214 14.4782 26.9032 14.0674 27.585C14.0263 27.6343 14.0016 27.6918 13.9688 27.7411C13.8784 27.8807 13.7962 28.0286 13.7222 28.1682C13.6729 28.2339 13.6318 28.3079 13.5907 28.3736C13.073 29.269 12.6293 30.1561 12.2348 31.0351C11.2241 33.3105 10.6571 35.3394 10.4927 37.2616C10.4023 38.5348 10.4927 39.6274 10.7475 40.5967C10.8789 41.1224 11.0926 41.6481 11.3966 42.2231C11.676 42.7242 12.0376 43.2006 12.4731 43.6442C12.9169 44.0632 13.4017 44.4082 13.9194 44.6792C14.5029 44.9667 15.037 45.1557 15.5547 45.2707C16.2122 45.4268 16.9106 45.5089 17.6667 45.5089C18.0775 45.5089 18.4966 45.4843 18.9404 45.4432C20.8797 45.2296 22.9259 44.6053 25.1858 43.5374C25.8349 43.2253 26.4759 42.8885 27.1169 42.5188C27.2648 42.4367 27.4045 42.3546 27.5524 42.2642C27.6675 42.1985 27.7907 42.1246 27.9058 42.0506C27.9469 42.0342 27.9797 42.0096 28.0208 41.9849C28.1277 41.9192 28.2263 41.8535 28.3249 41.796C28.4892 41.6892 28.6454 41.5906 28.8015 41.4838C28.859 41.4428 28.9165 41.4099 28.9741 41.3688L29.122 41.2703C30.4121 40.4077 31.6777 39.4384 32.9103 38.3623C33.1486 38.157 33.3869 37.9352 33.6334 37.7216C34.258 37.1466 34.8825 36.547 35.4906 35.9144C37.1177 34.2387 38.5476 32.4972 39.7802 30.7229C39.8706 30.5915 39.961 30.4683 40.0432 30.3368C40.4458 29.7454 40.8156 29.1458 41.169 28.5461C41.3333 28.275 41.4895 27.9957 41.6456 27.7247C41.8839 27.2975 42.1058 26.8704 42.3194 26.4432C42.3934 26.2953 42.4673 26.1475 42.5331 25.9996C42.6399 25.786 42.7385 25.5643 42.8371 25.3507C43.8561 22.9767 44.3985 20.9478 44.5382 18.9516C44.6121 17.6373 44.5053 16.5037 44.2177 15.4934ZM43.7164 18.9024C43.5932 20.652 43.1412 22.451 42.2866 24.521C42.2373 24.6607 42.1797 24.8003 42.114 24.94C42.114 24.9646 42.0893 24.9975 42.0811 25.0221C41.7935 25.6628 41.4812 26.2953 41.1443 26.9279C40.9964 27.1989 40.8485 27.4782 40.6923 27.7493C40.4869 28.1107 40.2733 28.464 40.0432 28.8254C39.961 28.965 39.8706 29.1047 39.7802 29.2443C38.4325 31.339 36.7972 33.3762 34.899 35.3394C34.3319 35.9309 33.7485 36.4895 33.165 37.0316C32.861 37.3109 32.5569 37.582 32.2529 37.8448C31.2421 38.7156 30.2149 39.5206 29.1713 40.2517C29.048 40.3338 28.933 40.416 28.8097 40.4981C28.5385 40.6788 28.2756 40.8595 28.0044 41.0238C27.7414 41.1963 27.4703 41.3606 27.2073 41.5167C27.084 41.5906 26.969 41.6563 26.8457 41.7303C26.78 41.7631 26.7225 41.8042 26.6567 41.837C26.6403 41.8453 26.6238 41.8617 26.5992 41.8699C26.5499 41.8945 26.5006 41.9274 26.4513 41.952C26.2623 42.0588 26.0733 42.1574 25.8843 42.2642C25.7281 42.3463 25.5556 42.4367 25.3912 42.5188C25.2104 42.6174 25.0214 42.7078 24.8324 42.7981C22.6547 43.8249 20.699 44.4246 18.8582 44.6217C17.6667 44.7367 16.6559 44.6875 15.7437 44.4739C15.2836 44.3671 14.8069 44.1946 14.2975 43.9482C13.8537 43.7099 13.4264 43.406 13.0484 43.0528C12.6704 42.6749 12.3581 42.256 12.1116 41.837C11.8486 41.3278 11.6596 40.8595 11.5446 40.3913C11.3063 39.5042 11.2323 38.4938 11.3145 37.3273C11.4706 35.5037 12.013 33.5569 12.9909 31.3719C13.2456 30.7886 13.5332 30.2136 13.8455 29.6222C13.9112 29.4908 13.9852 29.3593 14.0674 29.2197C14.0756 29.195 14.0838 29.1704 14.1084 29.1458C14.2481 28.8829 14.4043 28.62 14.5604 28.349C14.9138 27.7493 15.3 27.1496 15.7191 26.5253C15.8013 26.4021 15.8917 26.2707 15.9821 26.1393C16.0149 26.09 16.056 26.0325 16.0889 25.9832C16.8696 24.8742 17.716 23.7899 18.6363 22.7385C18.7678 22.566 18.9075 22.4017 19.0637 22.2374C19.3841 21.8678 19.7046 21.5145 20.0415 21.1613C20.1319 21.0628 20.2223 20.9642 20.3209 20.8738C20.551 20.6192 20.7894 20.381 21.0359 20.1345C21.6111 19.5595 22.2028 18.9927 22.8109 18.4588C22.9095 18.3684 23.0081 18.2781 23.1067 18.1959C23.5998 17.7523 24.1093 17.3334 24.6187 16.9227C25.5638 16.167 26.4841 15.5016 27.3881 14.9019C27.651 14.7294 27.914 14.5651 28.1687 14.4008C28.7029 14.0723 29.2288 13.7766 29.7547 13.4973C29.7794 13.4808 29.804 13.4726 29.8287 13.4562C29.9437 13.3987 30.0506 13.3412 30.1574 13.2919C32.2036 12.2651 33.995 11.6572 35.7536 11.4108C36.2877 11.3451 36.789 11.3122 37.2492 11.3122C37.8573 11.3122 38.4079 11.3697 38.9338 11.4847C39.4186 11.5833 39.9199 11.7558 40.454 12.0022C40.9307 12.2405 41.3826 12.5526 41.7935 12.9223C42.1962 13.3165 42.5413 13.7519 42.8043 14.2037C43.0919 14.7294 43.2973 15.2223 43.4288 15.7152C43.6918 16.6434 43.7822 17.6866 43.7164 18.9024Z" fill="url(#paint14_linear_1246_12124)"/>
</g>
<g filter="url(#filter2_d_1246_12124)">
<path d="M33.1651 37.0317C32.861 37.311 32.557 37.5821 32.2529 37.8449C31.4229 37.1303 30.4533 36.2102 29.4096 35.0274V34.7152L29.4836 31.2487C29.4836 31.2487 29.4918 31.0352 29.5082 30.6737C29.5164 30.5094 29.5247 30.3041 29.5329 30.0823C29.5411 30.0083 29.5411 29.9344 29.5493 29.8523C29.5658 29.5319 29.5822 29.1787 29.6151 28.8008C29.6315 28.7105 29.6479 28.6119 29.6315 28.538C29.7301 28.9651 30.4286 32.793 33.1651 37.0317Z" fill="url(#paint15_linear_1246_12124)"/>
</g>
<path d="M80.9213 19.8594C81.4226 19.8594 81.8581 20.0401 82.2115 20.3933C82.5648 20.7465 82.7456 21.1737 82.7456 21.683C82.7456 22.1923 82.5813 22.5701 82.2526 22.9151C81.9239 23.2601 81.5294 23.4491 81.0775 23.5066H73.4598C72.7037 23.5559 72.0792 23.7448 71.5861 24.0569C71.0931 24.3691 70.7069 24.7552 70.4275 25.2152C70.1481 25.667 69.9591 26.1598 69.8604 26.6938C69.7618 27.2277 69.7125 27.7042 69.7125 28.1313V34.5714C69.7125 35.0807 69.5318 35.5079 69.1784 35.8611C68.825 36.2143 68.3977 36.395 67.8882 36.395C67.3787 36.395 66.9514 36.2225 66.5981 35.8611C66.2447 35.5079 66.0639 35.0807 66.0639 34.5714V28.1313C66.0639 27.3509 66.1625 26.5624 66.368 25.7656C66.5734 24.9688 66.8693 24.2212 67.2801 23.5148H54.8469C54.3374 23.5148 53.9101 23.3423 53.5568 22.9809C53.2034 22.6276 53.0226 22.2005 53.0226 21.6912C53.0226 21.1819 53.1952 20.7547 53.5568 20.4015C53.9101 20.0483 54.3374 19.8676 54.8469 19.8676H80.9213V19.8594Z" fill="url(#paint16_linear_1246_12124)"/>
<path d="M116.167 34.5549C116.167 35.0642 115.986 35.4914 115.632 35.8446C115.279 36.1978 114.852 36.3785 114.342 36.3785C113.833 36.3785 113.405 36.206 113.052 35.8446C112.699 35.4914 112.518 35.0642 112.518 34.5549V33.6842C112.493 32.9284 112.312 32.3042 111.984 31.8113C111.655 31.3184 111.261 30.9323 110.809 30.6531C110.357 30.3738 109.864 30.1848 109.329 30.0863C108.795 29.9877 108.319 29.9384 107.891 29.9384H94.7433C93.9626 29.9384 93.1737 29.8398 92.3766 29.6345C91.5795 29.4291 90.8317 29.1334 90.125 28.7227V34.5549C90.125 35.0642 89.9442 35.4914 89.5908 35.8446C89.2375 36.1978 88.8102 36.3785 88.3007 36.3785C87.7912 36.3785 87.3639 36.206 87.0105 35.8446C86.6572 35.4914 86.4764 35.0642 86.4764 34.5549V21.6747C86.4764 21.1736 86.6489 20.7382 87.0105 20.385C87.3639 20.0318 87.7912 19.8511 88.3007 19.8511C88.8102 19.8511 89.2375 20.0318 89.5908 20.385C89.9442 20.7382 90.125 21.1654 90.125 21.6747V22.3154C90.125 23.1204 90.2811 23.7858 90.6016 24.3033C90.9139 24.8208 91.3083 25.2233 91.7767 25.519C92.2451 25.8065 92.7464 26.0119 93.2723 26.1269C93.8065 26.2419 94.2913 26.2994 94.7515 26.2994H107.9C108.68 26.2994 109.469 26.398 110.266 26.6033C111.063 26.8087 111.811 27.1126 112.518 27.5151V21.6829C112.518 21.1818 112.69 20.7464 113.052 20.3932C113.405 20.04 113.833 19.8593 114.342 19.8593C114.852 19.8593 115.279 20.04 115.632 20.3932C115.986 20.7464 116.167 21.1736 116.167 21.6829V34.5631V34.5549Z" fill="url(#paint17_linear_1246_12124)"/>
<path d="M127.803 23.4979C126.915 23.4979 126.209 23.654 125.658 23.9743C125.116 24.2865 124.688 24.6726 124.368 25.1326C124.056 25.5844 123.834 26.0854 123.727 26.6276C123.612 27.1697 123.554 27.6708 123.554 28.1226C123.554 28.5744 123.612 29.0755 123.727 29.6176C123.842 30.1598 124.056 30.6609 124.368 31.1127C124.68 31.5645 125.116 31.9505 125.658 32.2709C126.2 32.5831 126.915 32.7473 127.803 32.7473H148.684C149.185 32.7473 149.62 32.9281 149.974 33.2813C150.327 33.6345 150.508 34.0617 150.508 34.5709C150.508 35.0802 150.327 35.5074 149.974 35.8606C149.62 36.2138 149.193 36.3946 148.684 36.3946H126.587C125.551 36.3946 124.631 36.1399 123.817 35.6388C123.012 35.1377 122.322 34.4806 121.755 33.692C121.188 32.8952 120.752 32.008 120.448 31.0223C120.144 30.0366 119.996 29.0755 119.996 28.1473C119.996 27.219 120.152 26.2251 120.473 25.2476C120.785 24.2783 121.253 23.3911 121.853 22.5943C122.461 21.7975 123.193 21.1486 124.047 20.6393C124.91 20.1382 125.88 19.8835 126.965 19.8835H148.684C149.185 19.8835 149.62 20.0643 149.974 20.4175C150.327 20.7707 150.508 21.1979 150.508 21.7071C150.508 22.2164 150.327 22.6436 149.974 22.9968C149.62 23.35 149.193 23.5308 148.684 23.5308H127.803V23.4979ZM148.38 26.833C148.733 27.1862 148.914 27.6133 148.914 28.1226C148.914 28.6319 148.733 29.0591 148.38 29.4123C148.026 29.7655 147.599 29.9462 147.089 29.9462H128.214C127.704 29.9462 127.277 29.7737 126.923 29.4123C126.57 29.0591 126.389 28.6319 126.389 28.1226C126.389 27.6133 126.562 27.1862 126.923 26.833C127.277 26.4797 127.704 26.299 128.214 26.299H147.089C147.591 26.299 148.026 26.4715 148.38 26.833Z" fill="url(#paint18_linear_1246_12124)"/>
<path d="M183.929 34.5554C183.929 35.0647 183.748 35.4919 183.395 35.8451C183.041 36.1983 182.614 36.379 182.105 36.379C181.85 36.379 181.628 36.3297 181.422 36.2311C181.217 36.1326 181.028 36.0011 180.855 35.8533C180.708 35.7054 180.592 35.574 180.51 35.4754C179.475 34.1858 178.407 33.1754 177.305 32.4443C176.204 31.7132 175.054 31.1546 173.838 30.7768C172.621 30.3989 171.339 30.1607 169.992 30.0785C168.644 29.9882 167.19 29.9471 165.653 29.9471H157.92V34.5718C157.92 35.0811 157.739 35.5083 157.37 35.8615C157 36.2147 156.581 36.3954 156.096 36.3954C155.586 36.3954 155.159 36.2229 154.806 35.8615C154.452 35.5083 154.272 35.0811 154.272 34.5718V24.8377C154.272 24.082 154.411 23.4002 154.691 22.7923C154.97 22.1845 155.323 21.667 155.751 21.2398C156.178 20.8127 156.671 20.4759 157.23 20.2377C157.789 19.9994 158.339 19.8762 158.898 19.8762H178.686C179.393 19.8762 180.067 20.0077 180.691 20.2705C181.324 20.5334 181.874 20.8948 182.359 21.3466C182.836 21.7984 183.222 22.3323 183.493 22.9402C183.764 23.5481 183.912 24.2052 183.912 24.9117C183.912 25.421 183.732 25.8481 183.378 26.2013C183.025 26.5546 182.598 26.7353 182.088 26.7353C181.579 26.7353 181.151 26.5628 180.798 26.2013C180.445 25.8481 180.264 25.421 180.264 24.9117C180.264 24.5338 180.132 24.2217 179.869 23.967C179.606 23.7124 179.294 23.5645 178.941 23.5152H159.079C158.75 23.5152 158.487 23.5974 158.282 23.7616C158.076 23.9259 157.953 24.1231 157.904 24.3531V26.3245H165.636C167.863 26.3245 169.869 26.4478 171.66 26.7024C173.451 26.9571 175.078 27.3678 176.533 27.9346C177.988 28.5014 179.286 29.2489 180.436 30.1689C181.587 31.0889 182.614 32.2225 183.526 33.5615C183.781 33.89 183.904 34.235 183.904 34.5883L183.929 34.5554Z" fill="url(#paint19_linear_1246_12124)"/>
<path d="M190.938 35.6969C190.56 36.1487 190.092 36.3787 189.533 36.3787C189.024 36.3787 188.596 36.2062 188.243 35.8448C187.89 35.4916 187.709 35.0644 187.709 34.5551C187.709 34.1033 187.832 33.7337 188.087 33.4544L197.299 21.067C197.726 20.4838 198.293 20.0156 199 19.6459C199.706 19.2763 200.462 19.0956 201.276 19.0956C202.032 19.0956 202.755 19.2599 203.437 19.5884C204.119 19.917 204.678 20.3688 205.105 20.952L214.317 33.2655C214.465 33.4462 214.597 33.6351 214.695 33.8569C214.794 34.0705 214.843 34.3087 214.843 34.5551C214.843 35.0644 214.671 35.4916 214.309 35.8448C213.948 36.198 213.528 36.3787 213.019 36.3787C212.411 36.3787 211.934 36.1405 211.581 35.6559L202.747 23.8764C202.566 23.671 202.353 23.4574 202.081 23.211C201.818 22.9728 201.547 22.8496 201.268 22.8496C200.988 22.8496 200.717 22.9728 200.454 23.211C200.191 23.4492 199.978 23.671 199.83 23.8764L190.922 35.6969H190.938ZM198.934 32.288C198.934 31.6308 199.164 31.0722 199.616 30.6204C200.068 30.1686 200.627 29.9386 201.284 29.9386C201.942 29.9386 202.5 30.1686 202.952 30.6204C203.404 31.0722 203.634 31.6308 203.634 32.288C203.634 32.9451 203.404 33.5037 202.952 33.9555C202.5 34.4073 201.942 34.6373 201.284 34.6373C200.627 34.6373 200.068 34.4073 199.616 33.9555C199.164 33.5037 198.934 32.9451 198.934 32.288Z" fill="#7AC5FF"/>
<path d="M243.169 19.8593C243.876 19.8593 244.542 19.9907 245.158 20.2536C245.774 20.5164 246.317 20.8779 246.785 21.3297C247.253 21.7815 247.615 22.3154 247.886 22.9233C248.149 23.5311 248.281 24.1883 248.281 24.8947C248.281 25.6012 248.149 26.2583 247.886 26.8662C247.623 27.4741 247.253 27.9998 246.785 28.4598C246.317 28.9116 245.774 29.273 245.158 29.5359C244.542 29.7987 243.876 29.9302 243.169 29.9302H222.288V34.5549C222.288 35.0642 222.108 35.4914 221.738 35.8446C221.368 36.1978 220.949 36.3785 220.464 36.3785C219.955 36.3785 219.527 36.206 219.174 35.8446C218.821 35.4914 218.64 35.0642 218.64 34.5549V21.6747C218.64 21.1736 218.812 20.7382 219.174 20.385C219.527 20.0318 219.955 19.8511 220.464 19.8511H243.169V19.8593ZM222.288 23.4983V26.2994H243.325C243.703 26.2994 244.04 26.168 244.328 25.9051C244.616 25.6422 244.763 25.3055 244.763 24.9029C244.763 24.5251 244.616 24.1965 244.328 23.9172C244.04 23.6379 243.703 23.4983 243.325 23.4983H222.288Z" fill="#7AC5FF"/>
<path d="M276.599 19.8593C277.305 19.8593 277.971 19.9907 278.587 20.2536C279.204 20.5164 279.746 20.8779 280.214 21.3297C280.683 21.7815 281.044 22.3154 281.316 22.9233C281.579 23.5311 281.71 24.1883 281.71 24.8947C281.71 25.6012 281.579 26.2583 281.316 26.8662C281.053 27.4741 280.683 27.9998 280.214 28.4598C279.746 28.9116 279.204 29.273 278.587 29.5359C277.971 29.7987 277.305 29.9302 276.599 29.9302H255.718V34.5549C255.718 35.0642 255.537 35.4914 255.167 35.8446C254.797 36.1978 254.378 36.3785 253.894 36.3785C253.384 36.3785 252.957 36.206 252.603 35.8446C252.25 35.4914 252.069 35.0642 252.069 34.5549V21.6747C252.069 21.1736 252.242 20.7382 252.603 20.385C252.957 20.0318 253.384 19.8511 253.894 19.8511H276.599V19.8593ZM255.718 23.4983V26.2994H276.755C277.133 26.2994 277.47 26.168 277.757 25.9051C278.045 25.6422 278.193 25.3055 278.193 24.9029C278.193 24.5251 278.045 24.1965 277.757 23.9172C277.47 23.6379 277.133 23.4983 276.755 23.4983H255.718Z" fill="#7AC5FF"/>
<path d="M300.775 26.4473C301.761 26.4473 302.632 26.4063 303.388 26.3159C304.144 26.2256 304.957 25.9791 305.812 25.5766C306.675 25.1741 307.653 24.5662 308.746 23.7612C309.847 22.9562 311.219 21.8308 312.855 20.3933C313.282 20.0401 313.717 19.8594 314.145 19.8594C314.646 19.8594 315.082 20.0401 315.435 20.3933C315.788 20.7465 315.969 21.1737 315.969 21.683C315.969 21.9623 315.903 22.2251 315.764 22.4798C315.624 22.7344 315.451 22.948 315.254 23.1205C313.66 24.5334 312.238 25.6998 310.989 26.6281C309.74 27.5481 308.557 28.2792 307.447 28.8295C306.338 29.3717 305.253 29.7578 304.185 29.9878C303.125 30.2178 301.983 30.3328 300.775 30.3328C299.485 30.3328 298.301 30.226 297.233 30.0124C296.156 29.7988 295.08 29.4128 293.995 28.8542C292.91 28.2956 291.744 27.5563 290.511 26.6363C289.27 25.7163 287.848 24.5498 286.23 23.1287C286.024 22.9562 285.86 22.7344 285.72 22.488C285.58 22.2333 285.515 21.9705 285.515 21.6912C285.515 21.1901 285.687 20.7547 286.049 20.4015C286.402 20.0483 286.829 19.8676 287.339 19.8676C287.594 19.8676 287.816 19.9169 288.021 20.0154C288.226 20.114 288.424 20.2455 288.629 20.3933C290.248 21.8062 291.604 22.9234 292.705 23.7284C293.806 24.5334 294.792 25.1413 295.663 25.5438C296.534 25.9463 297.364 26.2009 298.145 26.2995C298.926 26.3981 299.813 26.4473 300.799 26.4473H300.775ZM298.424 34.555C298.424 33.8978 298.655 33.3393 299.107 32.8875C299.559 32.4357 300.117 32.2057 300.775 32.2057C301.432 32.2057 301.991 32.4357 302.443 32.8875C302.895 33.3393 303.125 33.8978 303.125 34.555C303.125 35.2121 302.895 35.7707 302.443 36.2225C301.991 36.6743 301.432 36.9043 300.775 36.9043C300.117 36.9043 299.559 36.6743 299.107 36.2225C298.655 35.7707 298.424 35.2121 298.424 34.555Z" fill="url(#paint20_linear_1246_12124)"/>
<defs>
<filter id="filter0_d_1246_12124" x="0" y="0.956421" width="55.0226" height="54.0847" filterUnits="userSpaceOnUse" color-interpolation-filters="sRGB">
<feFlood flood-opacity="0" result="BackgroundImageFix"/>
<feColorMatrix in="SourceAlpha" type="matrix" values="0 0 0 0 0 0 0 0 0 0 0 0 0 0 0 0 0 0 127 0" result="hardAlpha"/>
<feOffset/>
<feGaussianBlur stdDeviation="5"/>
<feColorMatrix type="matrix" values="0 0 0 0 0.827451 0 0 0 0 0.921569 0 0 0 0 0.956863 0 0 0 0.75 0"/>
<feBlend mode="normal" in2="BackgroundImageFix" result="effect1_dropShadow_1246_12124"/>
<feBlend mode="normal" in="SourceGraphic" in2="effect1_dropShadow_1246_12124" result="shape"/>
</filter>
<filter id="filter1_d_1246_12124" x="0.458551" y="0.491089" width="54.1023" height="55.0178" filterUnits="userSpaceOnUse" color-interpolation-filters="sRGB">
<feFlood flood-opacity="0" result="BackgroundImageFix"/>
<feColorMatrix in="SourceAlpha" type="matrix" values="0 0 0 0 0 0 0 0 0 0 0 0 0 0 0 0 0 0 127 0" result="hardAlpha"/>
<feOffset/>
<feGaussianBlur stdDeviation="5"/>
<feColorMatrix type="matrix" values="0 0 0 0 0.827451 0 0 0 0 0.921569 0 0 0 0 0.956863 0 0 0 0.75 0"/>
<feBlend mode="normal" in2="BackgroundImageFix" result="effect1_dropShadow_1246_12124"/>
<feBlend mode="normal" in="SourceGraphic" in2="effect1_dropShadow_1246_12124" result="shape"/>
</filter>
<filter id="filter2_d_1246_12124" x="19.4096" y="18.538" width="23.7554" height="29.307" filterUnits="userSpaceOnUse" color-interpolation-filters="sRGB">
<feFlood flood-opacity="0" result="BackgroundImageFix"/>
<feColorMatrix in="SourceAlpha" type="matrix" values="0 0 0 0 0 0 0 0 0 0 0 0 0 0 0 0 0 0 127 0" result="hardAlpha"/>
<feOffset/>
<feGaussianBlur stdDeviation="5"/>
<feColorMatrix type="matrix" values="0 0 0 0 0.827451 0 0 0 0 0.921569 0 0 0 0 0.956863 0 0 0 0.75 0"/>
<feBlend mode="normal" in2="BackgroundImageFix" result="effect1_dropShadow_1246_12124"/>
<feBlend mode="normal" in="SourceGraphic" in2="effect1_dropShadow_1246_12124" result="shape"/>
</filter>
<linearGradient id="paint0_linear_1246_12124" x1="26.3772" y1="37.6477" x2="29.4095" y2="37.6477" gradientUnits="userSpaceOnUse">
<stop stop-color="#2BC4F3"/>
<stop offset="0.5" stop-color="#00AEEE"/>
<stop offset="1" stop-color="#0095DA"/>
</linearGradient>
<linearGradient id="paint1_linear_1246_12124" x1="30.3627" y1="20.5456" x2="39.2953" y2="20.5456" gradientUnits="userSpaceOnUse">
<stop stop-color="#2BC4F3"/>
<stop offset="0.5" stop-color="#00AEEE"/>
<stop offset="1" stop-color="#0095DA"/>
</linearGradient>
<linearGradient id="paint2_linear_1246_12124" x1="16.5081" y1="20.6113" x2="26.0487" y2="20.6113" gradientUnits="userSpaceOnUse">
<stop stop-color="#2BC4F3"/>
<stop offset="0.5" stop-color="#00AEEE"/>
<stop offset="1" stop-color="#0095DA"/>
</linearGradient>
<linearGradient id="paint3_linear_1246_12124" x1="21.9315" y1="28.5544" x2="33.9045" y2="28.5544" gradientUnits="userSpaceOnUse">
<stop stop-color="#5B57A5"/>
<stop offset="0.5" stop-color="#2E3092"/>
<stop offset="1" stop-color="#474374"/>
</linearGradient>
<linearGradient id="paint4_linear_1246_12124" x1="31.2668" y1="23.297" x2="39.6487" y2="23.297" gradientUnits="userSpaceOnUse">
<stop stop-color="#2BC4F3"/>
<stop offset="0.5" stop-color="#00AEEE"/>
<stop offset="1" stop-color="#0095DA"/>
</linearGradient>
<linearGradient id="paint5_linear_1246_12124" x1="16.2039" y1="23.4364" x2="24.9885" y2="23.4364" gradientUnits="userSpaceOnUse">
<stop stop-color="#2BC4F3"/>
<stop offset="0.5" stop-color="#00AEEE"/>
<stop offset="1" stop-color="#0095DA"/>
</linearGradient>
<linearGradient id="paint6_linear_1246_12124" x1="26.0487" y1="23.0091" x2="30.3629" y2="23.0091" gradientUnits="userSpaceOnUse">
<stop stop-color="#2BC4F3"/>
<stop offset="0.5" stop-color="#00AEEE"/>
<stop offset="1" stop-color="#0095DA"/>
</linearGradient>
<linearGradient id="paint7_linear_1246_12124" x1="41.2348" y1="17.0872" x2="24.9619" y2="33.2759" gradientUnits="userSpaceOnUse">
<stop stop-color="#2BC4F3"/>
<stop offset="0.5" stop-color="#00AEEE"/>
<stop offset="1" stop-color="#0095DA"/>
</linearGradient>
<linearGradient id="paint8_linear_1246_12124" x1="39.9939" y1="15.8546" x2="23.7292" y2="32.0351" gradientUnits="userSpaceOnUse">
<stop stop-color="#2BC4F3"/>
<stop offset="0.5" stop-color="#00AEEE"/>
<stop offset="1" stop-color="#0095DA"/>
</linearGradient>
<linearGradient id="paint9_linear_1246_12124" x1="26.3197" y1="20.3644" x2="29.5328" y2="20.3644" gradientUnits="userSpaceOnUse">
<stop stop-color="#2BC4F3"/>
<stop offset="0.5" stop-color="#00AEEE"/>
<stop offset="1" stop-color="#0095DA"/>
</linearGradient>
<linearGradient id="paint10_linear_1246_12124" x1="29.615" y1="28.6695" x2="29.6397" y2="28.6695" gradientUnits="userSpaceOnUse">
<stop stop-color="#2BC4F3"/>
<stop offset="0.5" stop-color="#00AEEE"/>
<stop offset="1" stop-color="#0095DA"/>
</linearGradient>
<linearGradient id="paint11_linear_1246_12124" x1="32.2528" y1="38.4857" x2="35.3509" y2="38.4857" gradientUnits="userSpaceOnUse">
<stop stop-color="#2BC4F3"/>
<stop offset="0.5" stop-color="#00AEEE"/>
<stop offset="1" stop-color="#0095DA"/>
</linearGradient>
<linearGradient id="paint12_linear_1246_12124" x1="20.6579" y1="34.3783" x2="26.3774" y2="34.3783" gradientUnits="userSpaceOnUse">
<stop stop-color="#2BC4F3"/>
<stop offset="0.5" stop-color="#00AEEE"/>
<stop offset="1" stop-color="#0095DA"/>
</linearGradient>
<linearGradient id="paint13_linear_1246_12124" x1="9.99969" y1="27.9962" x2="45.0231" y2="27.9962" gradientUnits="userSpaceOnUse">
<stop stop-color="#B7E9F7"/>
<stop offset="1" stop-color="#E4F5FD"/>
</linearGradient>
<linearGradient id="paint14_linear_1246_12124" x1="27.5113" y1="10.4908" x2="27.5113" y2="45.5089" gradientUnits="userSpaceOnUse">
<stop stop-color="#B7E9F7"/>
<stop offset="1" stop-color="#E4F5FD"/>
</linearGradient>
<linearGradient id="paint15_linear_1246_12124" x1="29.4096" y1="33.1873" x2="33.1651" y2="33.1873" gradientUnits="userSpaceOnUse">
<stop stop-color="#2BC4F3"/>
<stop offset="0.5" stop-color="#00AEEE"/>
<stop offset="1" stop-color="#0095DA"/>
</linearGradient>
<linearGradient id="paint16_linear_1246_12124" x1="53.0226" y1="28.1149" x2="82.7374" y2="28.1149" gradientUnits="userSpaceOnUse">
<stop stop-color="#2BC4F3"/>
<stop offset="0.5" stop-color="#00AEEE"/>
<stop offset="1" stop-color="#0095DA"/>
</linearGradient>
<linearGradient id="paint17_linear_1246_12124" x1="86.4928" y1="10.4948" x2="116.167" y2="10.4948" gradientUnits="userSpaceOnUse">
<stop stop-color="#2BC4F3"/>
<stop offset="0.5" stop-color="#00AEEE"/>
<stop offset="1" stop-color="#0095DA"/>
</linearGradient>
<linearGradient id="paint18_linear_1246_12124" x1="119.996" y1="10.4944" x2="150.5" y2="10.4944" gradientUnits="userSpaceOnUse">
<stop stop-color="#2BC4F3"/>
<stop offset="0.5" stop-color="#00AEEE"/>
<stop offset="1" stop-color="#0095DA"/>
</linearGradient>
<linearGradient id="paint19_linear_1246_12124" x1="154.296" y1="10.4953" x2="183.929" y2="10.4953" gradientUnits="userSpaceOnUse">
<stop stop-color="#2BC4F3"/>
<stop offset="0.5" stop-color="#00AEEE"/>
<stop offset="1" stop-color="#0095DA"/>
</linearGradient>
<linearGradient id="paint20_linear_1246_12124" x1="285.498" y1="28.386" x2="315.969" y2="28.386" gradientUnits="userSpaceOnUse">
<stop stop-color="#2BC4F3"/>
<stop offset="0.5" stop-color="#00AEEE"/>
<stop offset="1" stop-color="#0095DA"/>
</linearGradient>
</defs>
</svg>
