<svg width="500" height="500" viewBox="0 0 500 500" fill="none" xmlns="http://www.w3.org/2000/svg">
<path d="M164.7 43.293H43.21V219.383H164.7V43.293Z" fill="#E0E0E0"/>
<path d="M158.62 43.293H37.13V219.383H158.62V43.293Z" fill="#F5F5F5"/>
<path d="M143.52 62.3633H52.22V200.313H143.52V62.3633Z" fill="white"/>
<path d="M143.52 200.31C143.52 200.31 143.52 200.07 143.52 199.63C143.52 199.19 143.52 198.53 143.52 197.68C143.52 195.94 143.52 193.41 143.52 190.11C143.52 183.5 143.52 173.86 143.44 161.69C143.44 137.37 143.35 102.92 143.29 62.36L143.59 62.66H52.3L52.63 62.33C52.63 114.33 52.63 162.33 52.57 200.33L52.3 200.06L118.76 200.2L137.12 200.27H141.94H143.6C143.6 200.27 143.07 200.27 141.99 200.27H137.22L118.92 200.33L52.3 200.47H52V200.21C52 162.28 52 114.3 51.93 62.26V62H52.27H143.56H143.87V62.3C143.81 102.94 143.75 137.46 143.72 161.83C143.72 173.97 143.65 183.59 143.64 190.18C143.64 193.45 143.64 195.97 143.64 197.69C143.64 198.52 143.64 199.16 143.64 199.61C143.64 200.06 143.52 200.31 143.52 200.31Z" fill="#E0E0E0"/>
<path d="M159 43.293C158.371 44.4015 157.644 45.4523 156.83 46.433C155.42 48.323 153.42 50.893 151.13 53.663C148.84 56.433 146.71 58.903 145.13 60.663C144.325 61.6555 143.428 62.5696 142.45 63.393C143.138 62.33 143.914 61.3265 144.77 60.393L150.62 53.293L156.47 46.193C157.224 45.1519 158.071 44.1813 159 43.293Z" fill="#E0E0E0"/>
<path d="M144 199.863C148.539 207.082 153.88 213.764 159.92 219.783L144 199.863Z" fill="white"/>
<path d="M159.91 219.783C158.902 219.038 157.974 218.19 157.14 217.253C155.022 215.104 153.019 212.844 151.14 210.483C149.255 208.123 147.489 205.67 145.85 203.133C145.12 202.111 144.5 201.015 144 199.863C144.817 200.809 145.566 201.811 146.24 202.863C147.58 204.733 149.46 207.313 151.66 210.063C153.86 212.813 155.95 215.203 157.49 216.923C158.37 217.812 159.18 218.768 159.91 219.783Z" fill="#E0E0E0"/>
<path d="M37.11 219.243L53 199.613L37.11 219.243Z" fill="white"/>
<path d="M53 199.612C53.14 199.722 49.7 204.212 45.3 209.612C40.9 215.012 37.23 219.342 37.09 219.222C36.95 219.102 40.4 214.622 44.79 209.222C49.18 203.822 52.88 199.492 53 199.612Z" fill="#E0E0E0"/>
<path d="M37.13 43.2916C37.27 43.1716 40.73 47.2916 44.85 52.5216C48.97 57.7516 52.2 62.0516 52.06 62.1616C51.92 62.2716 48.46 58.1616 44.33 52.9316C40.2 47.7016 37 43.4016 37.13 43.2916Z" fill="#E0E0E0"/>
<path d="M112.24 131.512C112.242 132.997 111.803 134.45 110.979 135.687C110.155 136.923 108.983 137.887 107.611 138.457C106.239 139.027 104.728 139.177 103.271 138.889C101.814 138.6 100.474 137.886 99.4231 136.836C98.3718 135.786 97.6556 134.448 97.365 132.991C97.0744 131.533 97.2226 130.023 97.7907 128.65C98.3588 127.277 99.3214 126.104 100.557 125.278C101.792 124.452 103.244 124.012 104.73 124.012C106.72 124.012 108.629 124.802 110.037 126.208C111.445 127.614 112.237 129.522 112.24 131.512Z" fill="#E0E0E0"/>
<path d="M116.27 105.083C116.27 106.192 115.941 107.277 115.325 108.199C114.708 109.122 113.832 109.841 112.807 110.266C111.782 110.69 110.654 110.801 109.566 110.585C108.477 110.368 107.478 109.834 106.693 109.05C105.909 108.265 105.374 107.265 105.158 106.177C104.941 105.089 105.052 103.961 105.477 102.936C105.902 101.911 106.621 101.035 107.543 100.418C108.466 99.8017 109.55 99.4727 110.66 99.4727C112.148 99.4727 113.575 100.064 114.627 101.116C115.679 102.168 116.27 103.595 116.27 105.083Z" fill="#E0E0E0"/>
<path d="M94.43 113.711C94.4419 114.516 94.2139 115.307 93.7751 115.983C93.3363 116.658 92.7064 117.188 91.9657 117.504C91.225 117.821 90.4068 117.91 89.6153 117.76C88.8239 117.61 88.0948 117.228 87.521 116.663C86.9472 116.098 86.5545 115.374 86.3929 114.585C86.2314 113.796 86.3082 112.977 86.6136 112.231C86.9191 111.486 87.4394 110.848 88.1083 110.4C88.7772 109.951 89.5645 109.711 90.37 109.711C91.4365 109.711 92.4601 110.13 93.2198 110.879C93.9795 111.627 94.4142 112.645 94.43 113.711Z" fill="#E0E0E0"/>
<path d="M116.81 156.27C116.457 156.621 116.008 156.861 115.52 156.957C115.031 157.054 114.525 157.003 114.065 156.812C113.605 156.621 113.212 156.298 112.935 155.884C112.659 155.47 112.511 154.983 112.511 154.485C112.511 153.987 112.659 153.5 112.935 153.086C113.212 152.671 113.605 152.348 114.065 152.158C114.525 151.967 115.031 151.916 115.52 152.013C116.008 152.109 116.457 152.348 116.81 152.7C117.045 152.934 117.231 153.212 117.359 153.518C117.486 153.825 117.551 154.153 117.551 154.485C117.551 154.817 117.486 155.145 117.359 155.451C117.231 155.758 117.045 156.036 116.81 156.27Z" fill="#E0E0E0"/>
<path d="M82.62 136.29C82.62 137.094 82.3816 137.879 81.9351 138.547C81.4885 139.215 80.8538 139.735 80.1114 140.042C79.3689 140.349 78.5521 140.429 77.7643 140.272C76.9764 140.114 76.253 139.727 75.6856 139.158C75.1182 138.589 74.7323 137.865 74.5768 137.076C74.4213 136.288 74.5031 135.472 74.8119 134.73C75.1208 133.988 75.6427 133.355 76.3117 132.91C76.9806 132.465 77.7666 132.229 78.57 132.23C79.1027 132.23 79.6302 132.336 80.1222 132.54C80.6142 132.744 81.0611 133.043 81.4373 133.42C81.8135 133.797 82.1116 134.245 82.3146 134.738C82.5175 135.23 82.6213 135.758 82.62 136.29Z" fill="#E0E0E0"/>
<path d="M104.73 131.51C104.99 131.4 107.49 136.23 110.34 142.31C113.19 148.39 115.28 153.41 115.03 153.53C114.78 153.65 112.27 148.81 109.42 142.73C106.57 136.65 104.48 131.63 104.73 131.51Z" fill="#E0E0E0"/>
<path d="M104.13 132.272C104.13 132.552 98.69 133.592 91.9 134.602C85.11 135.612 79.56 136.192 79.52 135.922C79.48 135.652 85 134.602 91.75 133.602C98.5 132.602 104.09 132.002 104.13 132.272Z" fill="#E0E0E0"/>
<path d="M103.61 128.67C103.44 128.87 99.96 126.03 96.46 121.75C92.96 117.47 90.83 113.52 91.05 113.39C91.27 113.26 93.77 116.92 97.24 121.11C100.71 125.3 103.81 128.45 103.61 128.67Z" fill="#E0E0E0"/>
<path d="M110.66 105.081V105.271L110.53 105.991L109.95 108.641C109.44 110.861 108.69 113.931 107.83 117.311C106.1 124.061 104.65 129.521 104.39 129.461C104.13 129.401 105.12 123.821 106.86 117.061C107.72 113.681 108.58 110.631 109.27 108.451C109.61 107.361 109.91 106.451 110.15 105.881C110.241 105.649 110.345 105.422 110.46 105.201L110.58 105.031C110.58 105.031 110.68 105.031 110.65 105.031L110.66 105.081Z" fill="#E0E0E0"/>
<path d="M70.36 275.18C71.8517 274.274 73.4598 273.574 75.14 273.1L76.14 268.37L84.14 268.23L85.29 272.92C86.9854 273.336 88.6168 273.978 90.14 274.83L94.14 272.18L99.89 277.73L97.39 281.86C98.2896 283.355 98.9857 284.962 99.46 286.64L104.19 287.64L104.33 295.64L99.64 296.79C99.2214 298.485 98.5791 300.116 97.73 301.64L100.38 305.64L94.83 311.39L90.7 308.88C89.2136 309.8 87.6088 310.514 85.93 311L84.93 315.73L76.93 315.87L75.78 311.18C74.1095 310.748 72.5026 310.099 71 309.25L67 311.9L61.25 306.34L63.75 302.22C62.8491 300.726 62.1497 299.118 61.67 297.44L56.94 296.44L56.8 288.44L61.5 287.29C61.9133 285.596 62.5524 283.965 63.4 282.44L60.76 278.44L66.31 272.69L70.44 275.2L70.36 275.18ZM74.62 285.82C73.4427 287.04 72.6533 288.581 72.3517 290.248C72.0501 291.916 72.2498 293.636 72.9256 295.19C73.6013 296.745 74.7228 298.064 76.1482 298.981C77.5735 299.898 79.2388 300.372 80.9334 300.342C82.628 300.313 84.2759 299.782 85.6686 298.816C87.0614 297.85 88.1365 296.493 88.758 294.916C89.3795 293.339 89.5195 291.614 89.1603 289.957C88.8011 288.301 87.9588 286.788 86.74 285.61C85.1038 284.033 82.9088 283.169 80.6366 283.209C78.3643 283.248 76.2005 284.187 74.62 285.82Z" fill="#F5F5F5"/>
<path d="M74.62 285.821C75.071 285.272 75.608 284.799 76.21 284.421C77.8671 283.345 79.8468 282.879 81.81 283.101C83.2679 283.258 84.6624 283.782 85.8637 284.623C87.0649 285.464 88.0337 286.595 88.68 287.911C89.0631 288.669 89.3262 289.482 89.46 290.321C89.6228 291.192 89.6397 292.084 89.51 292.961C89.2658 294.822 88.4305 296.555 87.127 297.905C85.8236 299.256 84.121 300.151 82.27 300.461C81.396 300.606 80.5041 300.606 79.63 300.461C78.7895 300.357 77.97 300.124 77.2 299.771C75.7622 299.11 74.529 298.074 73.63 296.771C72.6759 295.407 72.1346 293.797 72.0708 292.134C72.0069 290.471 72.4233 288.824 73.27 287.391C73.6249 286.77 74.0812 286.212 74.62 285.741C74.1946 286.299 73.8006 286.88 73.44 287.481C72.5013 289.148 72.1492 291.081 72.44 292.971C72.6588 294.354 73.2224 295.66 74.0787 296.768C74.9351 297.876 76.0567 298.751 77.34 299.311C78.0729 299.643 78.8517 299.862 79.65 299.961C80.4778 300.076 81.3187 300.056 82.14 299.901C83.8805 299.615 85.4842 298.78 86.7179 297.519C87.9517 296.259 88.7511 294.637 89 292.891C89.1353 292.067 89.1353 291.226 89 290.401C88.8766 289.606 88.6338 288.834 88.28 288.111C87.6225 286.768 86.6221 285.623 85.38 284.791C84.2984 284.066 83.0622 283.603 81.77 283.441C79.8741 283.209 77.9545 283.609 76.31 284.581C75.16 285.281 74.66 285.871 74.62 285.821Z" fill="#F5F5F5"/>
<path d="M70.36 275.182L70.09 275.033L69.3 274.582L66.19 272.742H66.28L60.76 278.522V278.362L63.42 282.362L63.47 282.432V282.513C62.6288 284.027 61.9964 285.648 61.59 287.332V287.423H61.49L56.8 288.582L56.94 288.413C56.99 290.923 57.04 293.593 57.1 296.413L56.94 296.223L61.67 297.223H61.79V297.342C62.2651 299.003 62.9578 300.594 63.85 302.073L63.92 302.182L63.85 302.293L61.35 306.423V306.152L67.11 311.693H66.82L70.82 309.043L71 309.003L71.12 309.062C72.6266 309.9 74.2372 310.536 75.91 310.953H76.05V311.092C76.41 312.562 76.8 314.163 77.2 315.783L76.96 315.603L84.96 315.453L84.73 315.652C85.04 314.152 85.37 312.543 85.73 310.923V310.772H85.87C87.5292 310.307 89.1172 309.617 90.59 308.723L90.72 308.652L90.85 308.723L95 311.203H94.69L100.25 305.453V305.753L97.6 301.753L97.52 301.633L97.59 301.503C98.4297 299.997 99.0653 298.386 99.48 296.712V296.573H99.62L104.32 295.423L104.14 295.652C104.087 292.919 104.043 290.252 104.01 287.652L104.19 287.872L99.46 286.872H99.33V286.742C98.8363 285.076 98.1234 283.482 97.21 282.003L97.15 281.893L97.21 281.783C98.08 280.373 98.91 279.003 99.73 277.663V277.913L94 272.323H94.23L90.23 274.962H90.14L90 275.003C88.4891 274.156 86.8713 273.517 85.19 273.103H85.1V273.013C84.68 271.303 84.31 269.763 83.96 268.312L84.1 268.423L76.1 268.533L76.21 268.443C75.8 270.333 75.47 271.883 75.21 273.163V273.212C73.9493 273.569 72.7241 274.041 71.55 274.622L70.69 275.073L70.41 275.223L70.67 275.033C70.86 274.923 71.13 274.752 71.52 274.552C72.6591 273.912 73.8623 273.392 75.11 273.003V273.062L76.11 268.332V268.242H76.2L84.2 268.062H84.31V268.173C84.67 269.623 85.05 271.172 85.48 272.862L85.36 272.742C87.0686 273.166 88.7155 273.808 90.26 274.652H90L94 271.992L94.12 271.913L94.23 272.022L99.99 277.562L100.11 277.673L100.02 277.812C99.21 279.153 98.38 280.523 97.53 281.943V281.723C98.4418 283.233 99.1512 284.857 99.64 286.552L99.47 286.402L104.2 287.402H104.38V287.582C104.427 290.182 104.477 292.849 104.53 295.582V295.772H104.35L99.71 297.003L99.88 296.823C99.4785 298.537 98.8461 300.189 98 301.733V301.483L100.64 305.483L100.75 305.643L100.62 305.783L95 311.582L94.86 311.723L94.69 311.622L90.56 309.112H90.81C89.3017 310.026 87.677 310.733 85.98 311.212L86.15 311.033C85.81 312.653 85.48 314.263 85.15 315.763V315.953H85L77 316.092H76.81V315.913C76.41 314.293 76.02 312.682 75.66 311.212L75.84 311.393C74.1243 310.967 72.4731 310.315 70.93 309.453H71.17L67.17 312.103L67.02 312.203L66.89 312.073L61 306.503L60.88 306.383L60.97 306.233C61.84 304.793 62.7 303.382 63.48 302.112V302.332C62.5672 300.821 61.8641 299.193 61.39 297.492L61.54 297.633L56.81 296.633H56.66V296.473C56.66 293.673 56.58 291.003 56.54 288.473V288.332H56.67L61.37 287.193L61.25 287.312C61.6763 285.607 62.3287 283.965 63.19 282.432V282.582L60.56 278.533V278.453L60.63 278.383L66.21 272.663V272.612H66.27L69.27 274.513L70.05 275.003L70.36 275.182Z" fill="#F5F5F5"/>
<path d="M400.83 198.111C401.852 197.494 402.951 197.016 404.1 196.691L404.77 193.461L410.22 193.371L411.01 196.571C412.166 196.857 413.279 197.294 414.32 197.871L417.08 196.071L421 199.861L419.29 202.671C419.908 203.692 420.386 204.792 420.71 205.941L423.94 206.611L424.04 212.071L420.83 212.851C420.55 214.009 420.113 215.123 419.53 216.161L421.34 218.921L417.55 222.851L414.73 221.141C413.711 221.754 412.614 222.228 411.47 222.551L410.79 225.781L405.34 225.881L404.55 222.681C403.394 222.391 402.281 221.951 401.24 221.371L398.48 223.181L394.56 219.391L396.27 216.571C395.65 215.554 395.173 214.457 394.85 213.311L391.62 212.641L391.52 207.181L394.73 206.391C395.013 205.235 395.451 204.121 396.03 203.081L394.22 200.331L398 196.401L400.82 198.111H400.83ZM403.74 205.381C402.938 206.214 402.401 207.267 402.197 208.405C401.993 209.543 402.13 210.717 402.593 211.777C403.055 212.837 403.821 213.736 404.795 214.361C405.768 214.986 406.905 215.308 408.061 215.287C409.217 215.266 410.341 214.903 411.291 214.243C412.241 213.584 412.974 212.657 413.398 211.581C413.822 210.505 413.917 209.327 413.672 208.197C413.426 207.067 412.852 206.035 412.02 205.231C410.902 204.154 409.401 203.565 407.849 203.593C406.297 203.621 404.819 204.264 403.74 205.381Z" fill="#F5F5F5"/>
<path d="M403.74 205.381C404.047 204.991 404.415 204.653 404.83 204.381C405.962 203.651 407.311 203.333 408.65 203.481C409.577 203.578 410.468 203.894 411.25 204.401C412.147 204.991 412.872 205.809 413.35 206.771C413.605 207.289 413.783 207.841 413.88 208.411C413.975 209.007 413.975 209.615 413.88 210.211C413.707 211.479 413.14 212.661 412.26 213.591C411.368 214.51 410.204 215.12 408.94 215.331C408.344 215.431 407.736 215.431 407.14 215.331C406.565 215.264 406.005 215.106 405.48 214.861C404.503 214.424 403.66 213.733 403.04 212.861C402.505 212.101 402.162 211.222 402.04 210.301C401.844 208.968 402.112 207.609 402.8 206.451C403.043 206.03 403.354 205.651 403.72 205.331C403.72 205.331 403.37 205.711 402.92 206.521C402.292 207.66 402.063 208.977 402.27 210.261C402.409 211.141 402.751 211.976 403.27 212.701C403.87 213.526 404.677 214.178 405.61 214.591C406.11 214.82 406.643 214.968 407.19 215.031C407.753 215.121 408.327 215.121 408.89 215.031C410.082 214.821 411.177 214.24 412.02 213.371C412.859 212.502 413.398 211.388 413.56 210.191C413.655 209.625 413.655 209.047 413.56 208.481C413.476 207.939 413.311 207.413 413.07 206.921C412.616 206 411.926 205.217 411.07 204.651C410.157 204.045 409.091 203.71 407.995 203.686C406.9 203.661 405.82 203.947 404.88 204.511C404.485 204.781 404.105 205.072 403.74 205.381Z" fill="#F5F5F5"/>
<path d="M400.83 198.11L400.65 198.01L400.11 197.7L398 196.45H398.06L394.29 200.4V200.29L396.11 203.04V203.09C395.537 204.125 395.103 205.231 394.82 206.38V206.45H394.75L391.55 207.25L391.64 207.13C391.64 208.85 391.71 210.67 391.75 212.58L391.65 212.46L394.88 213.12H394.96V213.2C395.287 214.334 395.761 215.42 396.37 216.43L396.42 216.5L396.37 216.58L394.67 219.4V219.21L398.6 223H398.41L401.16 221.19L401.24 221.14H401.33C402.358 221.714 403.457 222.148 404.6 222.43H404.7V222.53C404.95 223.53 405.22 224.63 405.49 225.73L405.32 225.61L410.78 225.51L410.62 225.64L411.29 222.41V222.31H411.39C412.522 221.991 413.605 221.52 414.61 220.91L414.7 220.86L414.79 220.91L417.6 222.62H417.4L421.19 218.69V218.9L419.38 216.14L419.33 216.06L419.38 215.97C419.953 214.942 420.387 213.842 420.67 212.7V212.61H420.76L423.97 211.83L423.85 211.99C423.85 210.13 423.82 208.31 423.76 206.53L423.88 206.68L420.65 206.01H420.56V205.92C420.236 204.787 419.765 203.701 419.16 202.69L419.11 202.61L419.16 202.54C419.75 201.54 420.32 200.64 420.87 199.72V199.9L416.95 196.1H417.11L414.35 197.9H414.28H414.22C413.19 197.321 412.087 196.883 410.94 196.6H410.88V196.54C410.6 195.37 410.35 194.32 410.11 193.33L410.21 193.41L404.75 193.48L404.82 193.42C404.54 194.71 404.32 195.76 404.13 196.64C403.268 196.897 402.431 197.232 401.63 197.64L401 198L400.8 198.1C400.864 198.062 400.931 198.028 401 198C401.13 197.92 401.32 197.8 401.58 197.66C402.374 197.244 403.208 196.909 404.07 196.66C404.25 195.78 404.46 194.72 404.72 193.43V193.37H404.78L410.23 193.25H410.31V193.32L411.11 196.52L411.03 196.44C412.196 196.728 413.319 197.168 414.37 197.75H414.24L417 196L417.08 195.94L417.16 196.01L421.09 199.8L421.17 199.87L421.11 199.97L419.41 202.79V202.64C420.032 203.672 420.517 204.782 420.85 205.94L420.73 205.83L423.96 206.5H424.08V206.63C424.08 208.4 424.14 210.22 424.18 212.08V212.21H424.05L420.85 213L420.97 212.88C420.687 214.052 420.243 215.18 419.65 216.23V216.06L421.46 218.82L421.53 218.93L421.44 219.03L417.67 223L417.58 223.1L417.46 223.03L414.64 221.32H414.81C413.777 221.94 412.667 222.424 411.51 222.76L411.63 222.63L410.96 225.86V225.99H410.83L405.37 226.08H405.24V225.95C404.97 224.84 404.7 223.75 404.45 222.74L404.57 222.86C403.399 222.572 402.272 222.128 401.22 221.54H401.39L398.63 223.34L398.52 223.41L398.44 223.32C397.07 222.01 395.75 220.72 394.51 219.53L394.43 219.45L394.49 219.34L396.2 216.53V216.68C395.583 215.648 395.105 214.538 394.78 213.38L394.88 213.47L391.65 212.8H391.55V212.7C391.55 210.78 391.52 208.96 391.46 207.24V207.15H391.56L394.76 206.38L394.68 206.46C394.971 205.297 395.415 204.177 396 203.13V203.23L394.2 200.46V200.41H394.25L398.06 196.5L400.14 197.8L400.67 198.14C400.723 198.127 400.776 198.117 400.83 198.11Z" fill="#F5F5F5"/>
<path d="M374.82 117.07C377.221 115.621 379.803 114.498 382.5 113.73L384.08 106.13L396.92 105.91L398.77 113.44C401.491 114.116 404.11 115.148 406.56 116.51L413.05 112.25L422.28 121.17L418.28 127.81C419.731 130.206 420.854 132.786 421.62 135.48L429.22 137.07L429.44 149.9L421.9 151.75C421.232 154.472 420.203 157.092 418.84 159.54L423.09 166.03L414.17 175.27L407.54 171.27C405.14 172.721 402.558 173.844 399.86 174.61L398.28 182.21L385.44 182.43L383.6 174.9C380.879 174.226 378.259 173.194 375.81 171.83L369.32 176.09L360.08 167.17L364.08 160.53C362.632 158.134 361.512 155.554 360.75 152.86L353.15 151.27L352.92 138.44L360.46 136.59C361.128 133.869 362.157 131.249 363.52 128.8L359.27 122.31L368.19 113.07L374.82 117.07ZM381.67 134.17C379.778 136.129 378.51 138.605 378.025 141.285C377.54 143.965 377.861 146.729 378.947 149.227C380.033 151.724 381.835 153.844 384.126 155.317C386.416 156.79 389.092 157.551 391.815 157.504C394.539 157.456 397.186 156.602 399.424 155.05C401.662 153.497 403.389 151.316 404.387 148.782C405.385 146.248 405.609 143.475 405.031 140.814C404.453 138.152 403.099 135.722 401.14 133.83C399.84 132.573 398.305 131.584 396.622 130.921C394.94 130.257 393.143 129.932 391.335 129.964C389.526 129.995 387.742 130.383 386.084 131.105C384.425 131.827 382.925 132.868 381.67 134.17Z" fill="#EBEBEB"/>
<path d="M381.67 134.172C382.392 133.285 383.258 132.525 384.23 131.922C386.893 130.192 390.074 129.439 393.23 129.792C395.409 130.025 397.502 130.769 399.34 131.962C401.457 133.342 403.163 135.266 404.28 137.532C405.514 140.041 405.977 142.86 405.61 145.632C405.217 148.618 403.877 151.399 401.787 153.567C399.698 155.736 396.969 157.178 394 157.682C392.599 157.93 391.168 157.953 389.76 157.752C388.406 157.585 387.087 157.207 385.85 156.632C383.546 155.596 381.563 153.959 380.11 151.892C378.574 149.7 377.703 147.111 377.602 144.436C377.501 141.761 378.174 139.114 379.54 136.812C380.108 135.818 380.838 134.926 381.7 134.172C381.022 135.068 380.391 136 379.81 136.962C378.33 139.649 377.791 142.754 378.28 145.782C378.632 148.004 379.533 150.103 380.903 151.887C382.272 153.672 384.065 155.087 386.12 156.002C387.299 156.522 388.55 156.859 389.83 157.002C391.159 157.184 392.509 157.157 393.83 156.922C396.638 156.444 399.22 155.081 401.199 153.032C403.178 150.983 404.45 148.355 404.83 145.532C405.025 144.204 405.004 142.854 404.77 141.532C404.58 140.255 404.188 139.016 403.61 137.862C402.635 135.836 401.166 134.087 399.338 132.776C397.51 131.466 395.382 130.636 393.15 130.362C390.111 129.977 387.03 130.622 384.4 132.192C383.456 132.804 382.545 133.465 381.67 134.172Z" fill="#EBEBEB"/>
<path d="M374.82 117.062C374.671 117.007 374.53 116.933 374.4 116.842L373.12 116.102L368.12 113.152H368.28L359.42 122.442V122.192L363.7 128.662L363.78 128.782L363.71 128.902C362.377 131.34 361.368 133.942 360.71 136.642V136.792H360.55L353 138.682L353.21 138.402C353.29 142.402 353.38 146.732 353.47 151.242L353.22 150.942L360.82 152.512H361.02L361.07 152.702C361.838 155.365 362.951 157.917 364.38 160.292L364.49 160.462L364.38 160.642L360.38 167.282L360.33 166.842L369.57 175.752H369.12L375.6 171.492L375.79 171.362L375.99 171.472C378.412 172.809 381.002 173.817 383.69 174.472L383.91 174.522L383.97 174.752L385.82 182.282L385.44 181.992L398.27 181.762L397.9 182.072C398.4 179.672 398.9 177.072 399.48 174.472L399.53 174.242L399.76 174.172C402.418 173.416 404.964 172.31 407.33 170.882L407.53 170.752L407.74 170.882L414.37 174.882L413.88 174.942L422.8 165.712L422.75 166.192L418.51 159.702L418.38 159.512L418.49 159.302C419.828 156.884 420.837 154.297 421.49 151.612L421.55 151.382L421.77 151.332L429.31 149.492L429.03 149.862C428.95 145.482 428.877 141.202 428.81 137.022L429.1 137.372L421.51 135.782H421.3L421.24 135.572C420.5 132.916 419.41 130.371 418 128.002L417.89 127.832L418 127.652L422 121.022L422.06 121.432C418.81 118.292 415.75 115.322 412.84 112.492H413.21L406.71 116.722L406.57 116.822L406.42 116.732C403.994 115.381 401.402 114.352 398.71 113.672H398.55V113.512C397.88 110.772 397.29 108.302 396.72 105.972L396.95 106.152L384.12 106.322L384.29 106.182C383.63 109.182 383.1 111.692 382.66 113.762V113.842H382.59C380.565 114.405 378.6 115.162 376.72 116.102L375.33 116.822C375.187 116.918 375.033 116.995 374.87 117.052C375.008 116.947 375.151 116.85 375.3 116.762C375.6 116.582 376.04 116.312 376.66 115.982C378.525 114.986 380.489 114.188 382.52 113.602L382.43 113.692C382.85 111.622 383.35 109.122 383.96 106.082V105.952H384.1L396.94 105.672H397.12V105.852L398.99 113.382L398.8 113.192C401.548 113.86 404.195 114.893 406.67 116.262H406.37L412.85 111.992L413.05 111.862L413.23 112.032L422.48 120.932L422.67 121.112L422.53 121.332C421.23 123.492 419.9 125.702 418.53 127.972V127.622C419.999 130.047 421.139 132.656 421.92 135.382L421.65 135.132L429.25 136.702L429.53 136.762V137.052C429.61 141.219 429.69 145.499 429.77 149.892V150.192L429.48 150.262L422 152.122L422.28 151.842C421.599 154.597 420.556 157.25 419.18 159.732V159.332L423.44 165.812L423.61 166.082L423.39 166.302L414.48 175.542L414.26 175.772L413.99 175.602L407.36 171.602H407.76C405.335 173.072 402.725 174.216 400 175.002L400.28 174.702C399.74 177.312 399.2 179.902 398.7 182.302L398.63 182.612H398.32L385.48 182.832H385.17L385.1 182.532L383.2 175.002L383.48 175.282C380.727 174.6 378.077 173.554 375.6 172.172H376L369.51 176.412L369.26 176.572L369.05 176.372L359.83 167.442L359.62 167.242L359.77 167.002L363.77 160.382V160.732C362.309 158.303 361.179 155.69 360.41 152.962L360.66 153.192L353.06 151.602L352.82 151.552V151.302C352.75 146.792 352.68 142.502 352.62 138.462V138.242L352.84 138.182L360.38 136.362L360.19 136.552C360.873 133.812 361.919 131.175 363.3 128.712V128.952C361.78 126.602 360.36 124.412 359.07 122.442L358.99 122.312L359.1 122.192L368.1 113.012L368.17 112.932L368.26 112.992C370.38 114.302 372.01 115.322 373.14 115.992L374.4 116.782C374.68 117.002 374.82 117.052 374.82 117.062Z" fill="#EBEBEB"/>
<path d="M85.74 234.703L86.84 236.543C88.0898 238.606 89.9002 240.27 92.06 241.343L93.98 242.293L92.14 243.403C90.0757 244.646 88.4102 246.454 87.34 248.613L86.34 250.543L85.23 248.703C83.9925 246.634 82.1832 244.967 80.02 243.903L78.09 242.903L79.93 241.803C81.9971 240.559 83.6632 238.747 84.73 236.583L85.74 234.703Z" fill="#E0E0E0"/>
<path d="M339 86.9102L339.55 87.8302C340.169 88.8661 341.076 89.6998 342.16 90.2302L343.16 90.7102L342.24 91.2602C341.209 91.8851 340.376 92.7902 339.84 93.8702L339.36 94.8702L338.81 93.9501C338.185 92.9189 337.28 92.0866 336.2 91.5502L335.2 91.0802L336.12 90.5201C337.153 89.9019 337.986 88.9993 338.52 87.9202L339 86.9102Z" fill="#E0E0E0"/>
<path d="M322.48 58.4727L324.19 61.3027C326.095 64.48 328.872 67.0447 332.19 68.6927L335.19 70.1527L332.36 71.8527C329.186 73.762 326.622 76.5373 324.97 79.8527L323.51 82.8527L321.78 80.0027C319.877 76.8231 317.1 74.2579 313.78 72.6127L310.78 71.1427L313.61 69.4427C316.787 67.5372 319.352 64.7609 321 61.4427L322.48 58.4727Z" fill="#E0E0E0"/>
<path d="M371 417.57L371.56 418.49C372.181 419.521 373.083 420.353 374.16 420.89L375.16 421.36L374.24 421.92C373.205 422.536 372.371 423.439 371.84 424.52L371.36 425.52L370.81 424.6C370.188 423.567 369.282 422.733 368.2 422.2L367.2 421.72L368.12 421.17C369.151 420.545 369.984 419.64 370.52 418.56L371 417.57Z" fill="#E0E0E0"/>
<path d="M428.76 255.152L430.46 257.982C432.368 261.158 435.144 263.722 438.46 265.372L441.46 266.832L438.63 268.542C435.453 270.445 432.891 273.223 431.25 276.542L429.78 279.542L428.08 276.712C426.172 273.537 423.396 270.973 420.08 269.322L417.08 267.862L419.91 266.152C423.087 264.249 425.649 261.472 427.29 258.152L428.76 255.152Z" fill="#E0E0E0"/>
<path d="M440.43 460.049C440.43 460.189 353.82 460.309 247.01 460.309C140.2 460.309 53.57 460.189 53.57 460.049C53.57 459.909 140.16 459.789 247.01 459.789C353.86 459.789 440.43 459.909 440.43 460.049Z" fill="#263238"/>
<path d="M170.07 245.469C160.64 249.219 154.72 255.329 148.56 263.389C137.41 277.999 72.33 349.469 72.12 350.999C63.78 377.939 102.52 402.649 127.25 382.499C140.05 372.079 179.57 318.789 179.57 318.789L177.68 242.449L170.07 245.469Z" fill="#E0E0E0"/>
<path d="M356.91 243.64C349.22 237.05 324.91 233.07 324.91 233.07L321 234.28C323.07 244.84 336 310.82 336 312.34C336 313.86 442.07 382.14 442.07 382.14L454.17 334.66C454.17 334.66 364.61 250.24 356.91 243.64Z" fill="#E0E0E0"/>
<path d="M176.84 243.129L219.56 231.789L233.42 213.969L297.78 215.999L308.57 228.189L346.3 238.589L343.48 423.689L354.83 459.769H157.63L173.38 409.049L165.9 321.919L176.84 243.129Z" fill="#E0E0E0"/>
<path d="M312.62 95.999C299.06 79.419 280.85 69.879 259.43 69.519C247.35 69.319 242.35 71.839 233.65 74.179C224.95 76.519 217.1 81.179 211.91 88.559C205.75 97.309 200.57 107.109 199.4 117.749C198.21 128.679 197.01 139.679 197.83 150.649C198.65 161.619 201.63 172.649 208.09 181.549L235.99 186.399C251.39 186.919 266.99 187.399 281.99 183.919C296.99 180.439 311.59 172.319 319.62 159.169C330.82 140.939 326.18 112.609 312.62 95.999Z" fill="#263238"/>
<path d="M216.53 197.301C216.59 197.361 216.08 197.991 214.87 198.761C213.124 199.832 211.158 200.496 209.12 200.701C206.049 201.036 202.951 200.41 200.25 198.911C196.97 196.929 194.58 193.758 193.58 190.058C192.579 186.359 193.045 182.416 194.88 179.051C196.459 176.4 198.82 174.304 201.64 173.051C203.504 172.206 205.534 171.789 207.58 171.831C209.01 171.891 209.77 172.171 209.75 172.261C209.75 172.591 206.5 171.901 202.15 174.111C199.657 175.397 197.595 177.386 196.22 179.831C194.672 182.855 194.304 186.347 195.188 189.628C196.071 192.908 198.143 195.743 201 197.581C203.417 199.003 206.2 199.681 209 199.531C213.91 199.251 216.38 197.001 216.53 197.301Z" fill="#E0E0E0"/>
<path d="M339.66 176.999C338.97 170.709 335.66 164.519 330.22 161.299C324.78 158.079 317.15 158.419 312.61 162.829L308.22 168.049C301.35 170.979 297.03 178.789 297.87 186.209C298.381 189.923 299.938 193.414 302.361 196.274C304.784 199.134 307.971 201.245 311.55 202.359C315.153 203.376 318.958 203.45 322.598 202.575C326.238 201.699 329.593 199.904 332.34 197.359C335.039 194.754 337.102 191.562 338.371 188.032C339.641 184.502 340.081 180.727 339.66 176.999Z" fill="#263238"/>
<path d="M334.13 195.839C333.93 195.739 335.86 193.959 335.63 190.279C335.4 186.599 332.81 182.029 329.25 177.739C326.131 174.054 322.336 170.999 318.07 168.739C314.8 166.989 312.55 166.349 312.62 166.119C312.69 165.889 315.02 166.289 318.5 167.869C323.051 169.953 327.079 173.028 330.29 176.869C332.077 178.955 333.593 181.261 334.8 183.729C335.888 185.74 336.504 187.973 336.6 190.259C336.636 191.827 336.201 193.37 335.35 194.689C334.72 195.579 334.18 195.889 334.13 195.839Z" fill="#455A64"/>
<path d="M320.63 204.069C320.18 204.069 322.08 195.609 319.39 185.649C316.85 175.649 311.07 169.219 311.45 168.979C311.56 168.869 313.15 170.299 315.14 173.119C320.286 180.588 322.65 189.626 321.82 198.659C321.47 202.079 320.78 204.109 320.63 204.069Z" fill="#455A64"/>
<path d="M297.63 105.84C297.541 103.246 296.482 100.779 294.661 98.927C292.841 97.0754 290.393 95.974 287.8 95.8403L250.61 81.0703L240.89 82.2003C219.03 82.2803 203.96 106.39 203.81 124.09C203.65 143.76 204.24 167.78 207.36 182.28C213.65 211.44 236.36 213.94 236.36 213.94C236.283 219.305 236.736 224.664 237.71 229.94L265.56 316L298.75 230.35L297.63 105.84Z" fill="#FFBE9D"/>
<path d="M251.09 175.461C250.87 173.965 250.108 172.602 248.95 171.631C247.893 170.723 246.566 170.188 245.174 170.108C243.783 170.028 242.404 170.409 241.25 171.191C240.047 172.116 239.114 173.345 238.546 174.751C237.978 176.158 237.797 177.691 238.02 179.191C238.66 180.088 239.485 180.838 240.438 181.39C241.392 181.942 242.453 182.283 243.55 182.391C243.883 182.409 244.217 182.409 244.55 182.391C246.283 182.379 247.949 181.719 249.22 180.541C249.898 179.892 250.419 179.098 250.743 178.217C251.067 177.337 251.186 176.394 251.09 175.461Z" fill="#EB996E"/>
<path d="M218.27 144.239C218.314 145.223 218.742 146.15 219.461 146.823C220.181 147.496 221.135 147.86 222.12 147.839C222.602 147.852 223.082 147.768 223.531 147.593C223.98 147.417 224.389 147.153 224.734 146.817C225.079 146.48 225.353 146.077 225.54 145.633C225.726 145.188 225.822 144.711 225.82 144.229C225.776 143.245 225.35 142.318 224.633 141.644C223.916 140.97 222.964 140.602 221.98 140.619C221.497 140.605 221.016 140.689 220.565 140.865C220.115 141.041 219.705 141.306 219.359 141.643C219.013 141.981 218.738 142.385 218.551 142.831C218.364 143.276 218.269 143.755 218.27 144.239Z" fill="#263238"/>
<path d="M211.05 135C211.55 135.47 214.29 133.2 218.35 133C222.41 132.8 225.49 134.66 225.91 134.14C226.11 133.9 225.59 133.04 224.24 132.14C222.413 131.022 220.288 130.492 218.15 130.62C216.04 130.732 214.021 131.51 212.38 132.84C211.19 133.89 210.81 134.8 211.05 135Z" fill="#263238"/>
<path d="M236.56 165.761C236.56 165.531 234.02 165.231 229.9 164.931C228.9 164.881 227.9 164.731 227.66 164.031C227.42 163.331 227.74 162.151 228.18 160.921C229.02 158.361 229.89 155.671 230.81 152.861C234.45 141.391 237.02 131.981 236.56 131.861C236.1 131.741 232.77 140.861 229.13 152.371C228.26 155.201 227.42 157.891 226.63 160.471C226.3 161.671 225.7 163.041 226.32 164.571C226.488 164.929 226.735 165.244 227.044 165.492C227.353 165.74 227.714 165.914 228.1 166.001C228.686 166.119 229.283 166.169 229.88 166.151C234 166.111 236.56 166.001 236.56 165.761Z" fill="#263238"/>
<path d="M236.39 213.94C250.25 213.391 263.686 209.005 275.2 201.27C275.2 201.27 266.2 222.27 236.61 221.14L236.39 213.94Z" fill="#7B4B45"/>
<path d="M248.66 167.907C248 167.907 248.23 172.307 244.66 175.647C241.09 178.987 236.35 178.757 236.35 179.367C236.35 179.647 237.44 180.167 239.42 180.117C242.018 180.021 244.498 179.008 246.42 177.257C248.249 175.578 249.357 173.256 249.51 170.777C249.51 168.927 249 167.867 248.66 167.907Z" fill="#263238"/>
<path d="M211.86 119.708C212.6 120.708 215.67 119.828 219.32 119.928C222.97 120.028 226.02 120.828 226.77 119.928C227.11 119.478 226.66 118.528 225.34 117.598C223.551 116.447 221.467 115.839 219.34 115.848C217.226 115.789 215.141 116.349 213.34 117.458C212 118.318 211.54 119.248 211.86 119.708Z" fill="#263238"/>
<path d="M265.5 143.159C265.53 144.144 265.173 145.102 264.506 145.827C263.839 146.552 262.914 146.987 261.93 147.039C261.447 147.09 260.958 147.043 260.493 146.902C260.028 146.76 259.596 146.527 259.223 146.215C258.85 145.904 258.544 145.521 258.321 145.088C258.099 144.656 257.966 144.184 257.93 143.699C257.905 142.715 258.264 141.76 258.93 141.036C259.596 140.312 260.518 139.876 261.5 139.819C261.984 139.765 262.474 139.81 262.94 139.95C263.406 140.091 263.839 140.324 264.212 140.636C264.586 140.948 264.893 141.332 265.114 141.766C265.335 142.199 265.467 142.673 265.5 143.159Z" fill="#263238"/>
<path d="M266.67 133.559C266.21 134.059 263.32 131.989 259.25 132.069C255.18 132.149 252.25 134.239 251.8 133.749C251.57 133.529 252.04 132.629 253.32 131.659C255.071 130.406 257.167 129.725 259.32 129.709C261.434 129.668 263.507 130.298 265.24 131.509C266.46 132.449 266.9 133.329 266.67 133.559Z" fill="#263238"/>
<path d="M269 124.828C268.21 125.768 265.06 124.828 261.29 124.888C257.52 124.948 254.29 125.628 253.59 124.668C253.25 124.208 253.74 123.278 255.12 122.378C257.006 121.261 259.169 120.7 261.36 120.758C263.545 120.74 265.689 121.348 267.54 122.508C268.9 123.428 269.35 124.368 269 124.828Z" fill="#263238"/>
<path d="M292.58 155.26C292.46 153.07 294.71 147.77 296.86 147.31C302.58 146.1 313.02 145.99 313.92 160.65C315.15 180.65 294.78 177.8 294.7 177.23C294.62 176.66 293 162.83 292.58 155.26Z" fill="#FFBE9D"/>
<path d="M299.78 169.557C299.87 169.487 300.15 169.787 300.78 170.017C301.634 170.323 302.574 170.283 303.4 169.907C305.47 169.007 307.05 165.527 306.92 161.907C306.867 160.186 306.429 158.498 305.64 156.967C305.412 156.352 305.039 155.801 304.551 155.362C304.063 154.923 303.476 154.609 302.84 154.447C302.433 154.366 302.01 154.429 301.645 154.627C301.28 154.824 300.995 155.142 300.84 155.527C300.61 156.107 300.76 156.527 300.66 156.527C300.56 156.527 300.2 156.217 300.32 155.387C300.393 154.88 300.645 154.415 301.03 154.077C301.557 153.627 302.239 153.401 302.93 153.447C304.48 153.447 305.93 154.797 306.77 156.327C307.727 158.014 308.259 159.909 308.32 161.847C308.44 165.847 306.6 169.797 303.76 170.847C303.231 171.036 302.665 171.104 302.106 171.045C301.547 170.986 301.008 170.803 300.53 170.507C299.85 170.047 299.72 169.597 299.78 169.557Z" fill="#EB996E"/>
<path d="M298.38 146.81L292.58 152.65C270.58 131.6 227.58 78.8903 230.01 82.0303C230.01 82.0303 245.07 75.8403 261.43 78.6203C277.79 81.4003 308.8 89.6203 308.32 108.88C307.84 128.14 298.38 146.81 298.38 146.81Z" fill="#263238"/>
<path d="M297.21 197.298C297.15 197.358 297.66 197.988 298.87 198.758C300.615 199.831 302.581 200.494 304.62 200.698C307.69 201.028 310.788 200.403 313.49 198.908C316.767 196.923 319.152 193.751 320.151 190.052C321.149 186.353 320.683 182.412 318.85 179.048C317.275 176.398 314.917 174.301 312.1 173.048C310.235 172.204 308.206 171.787 306.16 171.828C305.408 171.772 304.655 171.921 303.98 172.258C303.98 172.588 307.23 171.898 311.59 174.108C314.083 175.394 316.145 177.382 317.52 179.828C319.066 182.859 319.43 186.356 318.541 189.64C317.652 192.924 315.574 195.761 312.71 197.598C310.292 199.019 307.51 199.697 304.71 199.548C299.83 199.248 297.36 196.998 297.21 197.298Z" fill="#E0E0E0"/>
<path d="M326.8 142.938C326.74 142.541 326.636 142.152 326.49 141.778C326.127 140.689 325.672 139.632 325.13 138.618C323.057 134.905 320.197 131.69 316.75 129.198C312.5 125.898 306.6 123.198 299.88 121.078C293.16 118.958 285.62 117.198 278.2 113.998C271.194 111.079 264.549 107.358 258.4 102.908C253.375 99.2646 248.689 95.1747 244.4 90.6884C241.523 87.648 238.825 84.4426 236.32 81.0884L234.32 78.3284C234.108 77.9896 233.856 77.6773 233.57 77.3984C233.725 77.7524 233.92 78.0878 234.15 78.3984C234.57 79.0584 235.15 80.0484 236.01 81.2784C238.405 84.7409 241.038 88.0322 243.89 91.1284C248.129 95.729 252.801 99.9115 257.84 103.618C264.031 108.166 270.746 111.953 277.84 114.898C285.35 118.118 292.96 119.798 299.63 121.898C306.3 123.998 312.12 126.528 316.35 129.688C319.762 132.071 322.642 135.136 324.81 138.688C326.25 141.378 326.7 142.998 326.8 142.938Z" fill="#455A64"/>
<path d="M321 146.1C321.053 144.601 320.787 143.108 320.22 141.72C318.712 137.89 316.089 134.602 312.69 132.28C308.5 129.16 302.53 127.22 295.96 125.72C288.808 124.298 281.835 122.088 275.17 119.13C268.547 116.091 262.324 112.249 256.64 107.69C252.006 103.955 247.752 99.7714 243.94 95.2001C241.378 92.109 239.013 88.8592 236.86 85.4702C236.17 84.3302 235.6 83.4002 235.16 82.6602C234.984 82.3 234.762 81.9639 234.5 81.6602C234.614 82.0292 234.776 82.3821 234.98 82.7102L236.51 85.6202C238.551 89.1176 240.848 92.46 243.38 95.6202C251.798 106.082 262.539 114.436 274.75 120.02C281.476 123.01 288.522 125.221 295.75 126.61C302.3 128.05 308.15 129.87 312.27 132.83C315.611 135.038 318.243 138.163 319.85 141.83C320.363 143.215 320.748 144.645 321 146.1Z" fill="#455A64"/>
<g opacity="0.3">
<path d="M338.84 341.118C338.465 339.422 337.501 337.913 336.12 336.858C333.95 335.498 330.98 336.458 329.12 338.208C327.26 339.958 326.12 342.328 324.66 344.438C322.315 347.743 319.161 350.391 315.5 352.128C311.839 353.865 307.793 354.633 303.75 354.358C298.12 353.898 292.8 351.408 287.18 350.938C280.47 350.378 272.74 352.138 266.42 354.428L266.82 367.668C266.57 370.258 269.62 371.308 272.22 371.098C274.82 370.888 277.53 369.868 279.93 370.888C281.57 371.578 282.69 373.078 283.93 374.368C286.935 377.396 290.815 379.405 295.022 380.11C299.229 380.815 303.552 380.181 307.38 378.298C310.3 376.778 312.94 374.498 316.2 373.948C319.2 373.438 322.25 374.488 325.25 374.098C329.16 373.578 332.37 370.688 334.66 367.468C337.31 363.681 339.063 359.34 339.787 354.775C340.511 350.21 340.188 345.54 338.84 341.118Z" fill="black"/>
</g>
<g opacity="0.3">
<path d="M156.84 262.31C158.6 259.85 159.3 256.15 157.24 253.93C152.43 258.31 144.59 259 141.1 264.49C139.36 267.22 139.1 270.6 138.91 273.84C137.697 293.4 136.77 312.976 136.13 332.57L137.05 337.57C142.63 323.03 148.217 308.486 153.81 293.94C155.3 290.07 156.68 285.34 154.11 282.08C152.63 280.2 150.11 279.28 148.89 277.21C147.37 274.59 148.6 271.21 150.54 268.85C152.48 266.49 155.07 264.77 156.84 262.31Z" fill="black"/>
</g>
<path d="M112.56 260.051L72.12 351.001L123.56 375.461L152.6 286.351L112.56 260.051Z" fill="#E0E0E0"/>
<path d="M112.56 260.051C112.56 260.051 112.64 260.051 112.77 260.161L113.37 260.521L115.64 261.961L124.06 267.401L152.74 286.131L152.88 286.231V286.341C152.59 287.551 152.23 288.571 151.88 289.691C151.53 290.811 151.18 291.901 150.83 293.031C150.1 295.271 149.36 297.561 148.62 299.881C143.33 316.171 138.45 330.881 134.91 341.541L130.67 354.131C130.17 355.591 129.77 356.741 129.49 357.551L129.18 358.431C129.146 358.535 129.102 358.635 129.05 358.731C129.064 358.626 129.087 358.522 129.12 358.421L129.39 357.521C129.65 356.701 130.02 355.521 130.48 354.071C131.48 351.071 132.84 346.741 134.56 341.421L148.12 299.721L150.33 292.871C150.69 291.751 151.05 290.641 151.4 289.541C151.57 288.991 151.74 288.441 151.9 287.901L152.15 287.101L152.26 286.721V286.531V286.441V286.371H152.46L152.38 286.591L123.8 267.701L115.46 262.141L113.24 260.621L112.67 260.221L112.56 260.051Z" fill="#263238"/>
<path d="M133.18 357.067C133.272 355.869 133.449 354.68 133.71 353.507C134.12 351.187 134.63 348.237 135.19 344.967C135.75 341.697 136.19 338.737 136.56 336.407C136.693 335.214 136.907 334.031 137.2 332.867C137.254 333.198 137.254 333.536 137.2 333.867C137.2 334.487 137.07 335.377 136.94 336.487C136.7 338.687 136.28 341.737 135.73 345.087C135.18 348.437 134.57 351.437 134.1 353.617C133.86 354.697 133.65 355.617 133.49 356.177C133.422 356.485 133.318 356.784 133.18 357.067Z" fill="#263238"/>
<path d="M162.29 287.359C162.33 287.455 162.353 287.556 162.36 287.659C162.36 287.889 162.45 288.189 162.52 288.559C162.64 289.349 162.84 290.559 163.05 292.019C163.26 293.479 163.46 295.389 163.72 297.529C163.98 299.669 164.21 302.129 164.49 304.829C165.56 315.649 166.79 330.629 168.1 347.169C169.41 363.709 170.57 378.699 171.55 389.529C171.8 392.229 172.04 394.679 172.24 396.829C172.44 398.979 172.66 400.829 172.83 402.339C173 403.849 173.16 404.989 173.26 405.809C173.26 406.189 173.34 406.489 173.36 406.719C173.371 406.822 173.371 406.926 173.36 407.029C173.326 406.932 173.303 406.832 173.29 406.729L173.14 405.829C173.01 405.039 172.82 403.829 172.61 402.369C172.4 400.909 172.19 398.999 171.93 396.869C171.67 394.739 171.45 392.259 171.16 389.559C170.09 378.739 168.86 363.759 167.56 347.209C166.26 330.659 165.08 315.689 164.1 304.859C163.85 302.159 163.62 299.709 163.41 297.559C163.2 295.409 162.99 293.559 162.83 292.049C162.67 290.539 162.5 289.409 162.39 288.579C162.39 288.199 162.32 287.899 162.29 287.669C162.279 287.566 162.279 287.462 162.29 287.359Z" fill="#263238"/>
<path d="M266.27 352.569C266.186 352.467 266.112 352.356 266.05 352.239C265.91 351.989 265.72 351.649 265.47 351.239C264.96 350.319 264.22 349.019 263.28 347.349L255.28 332.969L229.14 285.469L215.29 260.169L215.15 259.929L215.41 259.829L225.41 256.029V256.429L208.91 245.549L208.76 245.449L208.87 245.309L216.71 235.189L218.81 232.519C219.04 232.229 219.23 232.009 219.36 231.829L219.56 231.609C219.56 231.609 219.51 231.699 219.4 231.859L218.89 232.569L216.89 235.299L209.17 245.509V245.269L225.73 256.059L226.1 256.289L225.69 256.449L215.69 260.279L215.81 259.939L229.7 285.219L255.7 332.799L263.53 347.249C264.43 348.939 265.14 350.249 265.63 351.189L266.17 352.189C266.215 352.313 266.249 352.44 266.27 352.569Z" fill="#263238"/>
<path d="M266.27 352.567C266.307 352.439 266.357 352.315 266.42 352.197C266.53 351.927 266.69 351.577 266.9 351.127L268.79 347.027L275.79 332.027C281.79 319.337 290.09 301.867 299.24 282.557L312 255.867L312.13 256.187L302.13 252.357L301.72 252.207L302.09 251.967L318.65 241.187V241.417L310.93 231.207L308.93 228.477L308.42 227.777C308.354 227.703 308.3 227.619 308.26 227.527C308.33 227.594 308.394 227.668 308.45 227.747L309 228.427L311.11 231.107L318.95 241.227L319.06 241.357L318.91 241.457L302.41 252.337V251.947L312.41 255.737L312.65 255.837L312.54 256.067C308.64 264.267 304.36 273.297 299.86 282.777L276.27 332.167C273.27 338.467 270.79 343.567 269.07 347.117C268.22 348.857 267.56 350.217 267.07 351.167C266.85 351.617 266.67 351.957 266.54 352.217C266.462 352.343 266.371 352.46 266.27 352.567Z" fill="#263238"/>
<path d="M237.55 230.418C237.55 230.418 262.55 277.158 298.75 230.418L265.86 330.808L237.55 230.418Z" fill="#455A64"/>
<path d="M274 453.359C273.965 453.259 273.945 453.154 273.94 453.049L273.82 452.129C273.71 451.279 273.57 450.129 273.38 448.569C273.03 445.449 272.52 440.989 271.9 435.489C270.72 424.429 269.17 409.149 267.96 392.219C266.75 375.289 266.21 359.919 265.96 348.799C265.85 343.239 265.79 338.749 265.79 335.639C265.79 334.109 265.79 332.909 265.79 332.059V331.119C265.781 331.015 265.781 330.912 265.79 330.809C265.803 330.911 265.803 331.016 265.79 331.119C265.79 331.359 265.79 331.669 265.79 332.049C265.79 332.909 265.85 334.109 265.89 335.629C265.96 338.779 266.08 343.259 266.22 348.789C266.54 359.909 267.15 375.259 268.34 392.179C269.53 409.099 271.04 424.389 272.13 435.449C272.68 440.959 273.13 445.449 273.44 448.549C273.59 450.069 273.7 451.269 273.78 452.119C273.78 452.499 273.84 452.809 273.85 453.049C273.918 453.142 273.968 453.247 274 453.359Z" fill="#263238"/>
<g opacity="0.3">
<path d="M316.77 242.617L318.74 245.017L308.67 251.757L318.45 255.327L273.85 336.627L312.22 255.967L302.21 252.157L316.77 242.617Z" fill="black"/>
</g>
<path d="M346.08 276.688C346.093 276.811 346.093 276.934 346.08 277.057C346.08 277.337 346.08 277.698 346.08 278.158C346.08 279.158 346.08 280.568 346.08 282.378C346.08 286.078 346.08 291.378 346.02 297.908C345.94 311.007 345.76 329.117 345.44 349.117C345.12 369.117 344.73 387.227 344.31 400.327C344.1 406.877 343.92 412.177 343.74 415.837L343.53 420.057C343.53 420.518 343.53 420.877 343.46 421.147C343.477 421.274 343.477 421.401 343.46 421.527C343.449 421.401 343.449 421.274 343.46 421.147C343.46 420.877 343.46 420.517 343.46 420.047C343.46 419.047 343.52 417.637 343.57 415.837C343.66 412.137 343.8 406.838 343.98 400.318C344.3 387.218 344.64 369.107 344.98 349.107C345.32 329.107 345.52 311.027 345.71 297.897C345.81 291.367 345.88 286.078 345.94 282.378C345.94 280.568 346 279.148 346.02 278.158C346.02 277.698 346.02 277.337 346.02 277.057L346.08 276.688Z" fill="#263238"/>
<path d="M233.78 337.938C233.771 337.865 233.771 337.791 233.78 337.718C233.78 337.558 233.78 337.358 233.78 337.098C233.78 336.528 233.78 335.738 233.78 334.718C233.78 332.628 233.73 329.628 233.69 325.838L233.85 325.998L184.29 326.098L184.55 325.838V331.998C184.55 333.998 184.55 335.998 184.55 337.998L184.3 337.748L219.59 337.858L230.03 337.938H232.85H233.59H233.86C233.784 337.952 233.706 337.952 233.63 337.938H232.92H230.15L219.77 338.008L184.3 338.128H184V325.858L184.26 325.598L233.82 325.708H233.97V325.858C233.97 329.688 233.9 332.718 233.88 334.858C233.88 335.858 233.88 336.638 233.88 337.208C233.88 337.448 233.88 337.648 233.88 337.798C233.851 337.847 233.817 337.894 233.78 337.938Z" fill="#263238"/>
<g opacity="0.3">
<path d="M186.94 337.938C186.94 337.938 210.08 347.047 231.36 337.938H186.94Z" fill="black"/>
</g>
<path d="M222.6 307.57H222.91C223.889 307.57 224.827 307.959 225.519 308.651C226.211 309.343 226.6 310.282 226.6 311.26V325.84H218.9V311.26C218.9 310.775 218.996 310.294 219.182 309.846C219.368 309.398 219.641 308.99 219.984 308.648C220.328 308.305 220.736 308.033 221.185 307.848C221.634 307.663 222.115 307.569 222.6 307.57Z" fill="#455A64"/>
<path d="M222.75 321.738H226.6V342.288C226.6 342.779 226.405 343.249 226.058 343.596C225.711 343.943 225.241 344.138 224.75 344.138H224.6C224.109 344.138 223.639 343.943 223.292 343.596C222.945 343.249 222.75 342.779 222.75 342.288V321.738Z" fill="#455A64"/>
<path d="M226.82 346.938C226.91 347.365 226.953 347.801 226.95 348.237C227 349.077 227.04 350.297 227.07 351.797C227.07 354.797 227.07 358.947 226.78 363.517C226.64 365.807 226.45 367.987 226.25 369.957C226.175 371.736 225.855 373.496 225.3 375.188C225.083 375.76 224.75 376.282 224.322 376.719C223.893 377.156 223.378 377.5 222.81 377.728C222.491 377.85 222.151 377.908 221.81 377.897C221.59 377.897 221.47 377.897 221.47 377.897C221.894 377.851 222.311 377.75 222.71 377.598C223.755 377.093 224.557 376.193 224.94 375.098C225.428 373.429 225.7 371.705 225.75 369.967C225.93 367.967 226.1 365.818 226.24 363.538C226.52 358.978 226.63 354.838 226.68 351.848C226.68 350.428 226.68 349.237 226.73 348.297C226.715 347.842 226.745 347.387 226.82 346.938Z" fill="#263238"/>
<path d="M216.87 367.898C216.627 364.905 216.557 361.9 216.66 358.898C216.587 355.895 216.687 352.89 216.96 349.898C217.204 352.892 217.277 355.897 217.18 358.898C217.253 361.902 217.149 364.907 216.87 367.898Z" fill="#263238"/>
<path d="M276.56 288.188C279.405 286.455 282.469 285.11 285.67 284.188L287.54 275.188L302.77 274.918L304.97 283.858C308.198 284.655 311.305 285.879 314.21 287.498L318.02 282.408H321.9L332.9 292.988L328.13 300.858C329.862 303.703 331.208 306.767 332.13 309.968L341.13 311.848L341.4 327.078L332.46 329.268C331.663 332.496 330.438 335.603 328.82 338.508L333.87 346.208L323.29 357.208L319.14 357.008L315.42 352.438C312.575 354.158 309.51 355.487 306.31 356.388L304.43 365.388L289.2 365.658L287.01 356.708C283.782 355.914 280.675 354.693 277.77 353.078L270.07 358.078H266.18L259 347.588L263.78 339.718C262.038 336.878 260.692 333.813 259.78 330.608L250.78 328.738L250.52 313.508L259.46 311.318C260.252 308.087 261.473 304.976 263.09 302.068L258.09 294.378L264.78 283.378H268.67L276.54 288.148L276.56 288.188ZM284.68 308.478C282.435 310.803 280.93 313.742 280.355 316.922C279.781 320.103 280.162 323.382 281.452 326.346C282.741 329.31 284.88 331.825 287.599 333.572C290.318 335.32 293.494 336.222 296.725 336.165C299.957 336.108 303.099 335.093 305.753 333.25C308.408 331.407 310.457 328.818 311.64 325.81C312.824 322.803 313.089 319.512 312.402 316.354C311.714 313.195 310.106 310.312 307.78 308.068C304.661 305.062 300.476 303.417 296.145 303.494C291.814 303.571 287.691 305.364 284.68 308.478Z" fill="#407BFF"/>
<g opacity="0.3">
<path d="M276.56 288.188C279.405 286.455 282.469 285.11 285.67 284.188L287.54 275.188L302.77 274.918L304.97 283.858C308.198 284.655 311.305 285.879 314.21 287.498L318.02 282.408H321.9L332.9 292.988L328.13 300.858C329.862 303.703 331.208 306.767 332.13 309.968L341.13 311.848L341.4 327.078L332.46 329.268C331.663 332.496 330.438 335.603 328.82 338.508L333.87 346.208L323.29 357.208L319.14 357.008L315.42 352.438C312.575 354.158 309.51 355.487 306.31 356.388L304.43 365.388L289.2 365.658L287.01 356.708C283.782 355.914 280.675 354.693 277.77 353.078L270.07 358.078H266.18L259 347.588L263.78 339.718C262.038 336.878 260.692 333.813 259.78 330.608L250.78 328.738L250.52 313.508L259.46 311.318C260.252 308.087 261.473 304.976 263.09 302.068L258.09 294.378L264.78 283.378H268.67L276.54 288.148L276.56 288.188ZM284.68 308.478C282.435 310.803 280.93 313.742 280.355 316.922C279.781 320.103 280.162 323.382 281.452 326.346C282.741 329.31 284.88 331.825 287.599 333.572C290.318 335.32 293.494 336.222 296.725 336.165C299.957 336.108 303.099 335.093 305.753 333.25C308.408 331.407 310.457 328.818 311.64 325.81C312.824 322.803 313.089 319.512 312.402 316.354C311.714 313.195 310.106 310.312 307.78 308.068C304.661 305.062 300.476 303.417 296.145 303.494C291.814 303.571 287.691 305.364 284.68 308.478Z" fill="black"/>
</g>
<path d="M272.67 288.149C275.515 286.416 278.579 285.071 281.78 284.149L283.65 275.149L298.89 274.879L301.08 283.819C304.308 284.616 307.415 285.84 310.32 287.459L318.02 282.409L329 292.999L324.22 300.869C325.957 303.712 327.302 306.776 328.22 309.979L337.22 311.859L337.48 327.089L328.54 329.279C327.742 332.505 326.521 335.612 324.91 338.519L329.91 346.219L319.33 357.219L311.46 352.449C308.615 354.169 305.55 355.498 302.35 356.399L300.48 365.399L285.25 365.669L283.05 356.719C279.822 355.925 276.715 354.704 273.81 353.089L266.11 358.089L255.11 347.509L259.88 339.639C258.146 336.795 256.8 333.731 255.88 330.529L246.88 328.659L246.62 313.429L255.56 311.229C256.357 308.001 257.582 304.893 259.2 301.989L254.2 294.299L264.78 283.299L272.65 288.069L272.67 288.149ZM280.79 308.439C278.55 310.767 277.05 313.708 276.481 316.889C275.911 320.07 276.298 323.348 277.591 326.309C278.885 329.27 281.027 331.781 283.748 333.525C286.469 335.269 289.645 336.167 292.876 336.105C296.107 336.043 299.247 335.025 301.899 333.18C304.551 331.334 306.597 328.743 307.777 325.734C308.957 322.726 309.218 319.436 308.528 316.279C307.838 313.122 306.227 310.241 303.9 307.999C302.354 306.51 300.53 305.34 298.531 304.556C296.533 303.772 294.4 303.39 292.254 303.431C290.108 303.472 287.991 303.935 286.024 304.794C284.057 305.654 282.278 306.892 280.79 308.439Z" fill="#407BFF"/>
<path d="M332.86 293.08C332.86 293.23 331.99 293.34 330.92 293.34C329.85 293.34 328.97 293.23 328.97 293.08C328.97 292.93 329.84 292.82 330.92 292.82C332 292.82 332.86 292.94 332.86 293.08Z" fill="#263238"/>
<path d="M328.21 300.827C328.21 300.977 327.37 301.077 326.34 301.077C325.31 301.077 324.46 300.937 324.46 300.797C324.46 300.657 325.31 300.537 326.34 300.547C327.37 300.557 328.22 300.687 328.21 300.827Z" fill="#263238"/>
<path d="M340.62 311.93C340.62 312.08 339.86 312.23 338.9 312.28C337.94 312.33 337.16 312.28 337.16 312.12C337.16 311.96 337.92 311.82 338.87 311.77C339.82 311.72 340.61 311.79 340.62 311.93Z" fill="#263238"/>
<path d="M340.52 327.179C340.52 327.319 339.8 327.419 338.93 327.389C338.06 327.359 337.34 327.229 337.35 327.079C337.36 326.929 338.07 326.839 338.94 326.869C339.81 326.899 340.53 326.999 340.52 327.179Z" fill="#263238"/>
<path d="M328.79 338.769C328.79 338.909 327.94 338.939 326.93 338.839C325.92 338.739 325.12 338.539 325.13 338.399C325.14 338.259 325.98 338.219 326.99 338.329C328 338.439 328.8 338.629 328.79 338.769Z" fill="#263238"/>
<path d="M333.6 346.208C333.6 346.358 332.77 346.498 331.73 346.518C330.69 346.538 329.85 346.448 329.85 346.308C329.85 346.168 330.68 346.028 331.72 345.998C332.76 345.968 333.59 346.068 333.6 346.208Z" fill="#263238"/>
<path d="M306.19 356.648C306.19 356.788 305.28 356.758 304.19 356.648C303.1 356.538 302.24 356.498 302.19 356.348C302.821 356.08 303.516 356.004 304.19 356.128C305.35 356.238 306.21 356.508 306.19 356.648Z" fill="#263238"/>
<path d="M305.14 284.001C305.14 284.151 304.29 284.241 303.26 284.221C302.23 284.201 301.38 284.051 301.39 283.911C301.4 283.771 302.23 283.671 303.27 283.701C304.31 283.731 305.14 283.881 305.14 284.001Z" fill="#263238"/>
<path d="M264.35 285.91C261.775 288.898 258.941 291.652 255.88 294.14C257.106 292.592 258.465 291.153 259.94 289.84C261.295 288.407 262.771 287.092 264.35 285.91Z" fill="white"/>
<path d="M285.82 302.25C284.359 302.892 282.954 303.654 281.62 304.53C278.421 306.701 275.999 309.838 274.709 313.483C273.419 317.128 273.329 321.09 274.45 324.79C274.943 326.309 275.554 327.787 276.28 329.21C275.992 328.883 275.744 328.524 275.54 328.14C274.944 327.112 274.462 326.022 274.1 324.89C272.855 321.123 272.898 317.05 274.221 313.31C275.544 309.57 278.073 306.376 281.41 304.23C282.4 303.575 283.46 303.032 284.57 302.61C284.968 302.433 285.389 302.312 285.82 302.25Z" fill="white"/>
<path d="M292.45 301.44C292.45 301.59 291.93 301.74 291.28 301.78C290.63 301.82 290.09 301.78 290.08 301.59C290.07 301.4 290.6 301.3 291.25 301.26C291.9 301.22 292.44 301.3 292.45 301.44Z" fill="white"/>
<path d="M284 277.789C284.166 278.681 284.166 279.597 284 280.489C283.985 281.396 283.798 282.292 283.45 283.129C283.275 282.238 283.275 281.321 283.45 280.429C283.464 279.522 283.651 278.626 284 277.789Z" fill="white"/>
<path d="M316.07 284.428C316.16 284.538 315.48 285.259 314.54 286.029C313.6 286.799 312.77 287.348 312.68 287.238C312.59 287.128 313.27 286.409 314.21 285.629C315.15 284.849 316 284.318 316.07 284.428Z" fill="white"/>
<path d="M335.17 313.628C334.245 313.679 333.318 313.553 332.44 313.258C331.524 313.126 330.639 312.828 329.83 312.378C330.755 312.327 331.682 312.453 332.56 312.748C333.477 312.878 334.362 313.177 335.17 313.628Z" fill="white"/>
<path d="M253.3 313.277C252.603 313.892 251.756 314.313 250.846 314.497C249.935 314.681 248.991 314.623 248.11 314.327C248.11 314.177 249.33 314.277 250.74 313.987C252.15 313.697 253.22 313.147 253.3 313.277Z" fill="white"/>
<path d="M259.49 341.93C259.322 342.826 258.983 343.682 258.49 344.45C258.143 345.142 257.748 345.811 257.31 346.45L257.09 346.31C257.27 346.14 257.4 346.06 257.43 346.09C257.46 346.12 257.43 346.26 257.29 346.48L256.67 347.56L257.07 346.33C257.356 345.605 257.69 344.9 258.07 344.22C258.398 343.375 258.88 342.599 259.49 341.93Z" fill="white"/>
<path d="M286.91 363.82C286.386 362.95 286.017 361.996 285.82 361C285.448 360.042 285.244 359.027 285.22 358C286.117 359.813 286.689 361.769 286.91 363.78V363.82Z" fill="white"/>
<path d="M338.33 308.879C338.33 308.879 335.26 302.879 330.93 302.509C326.6 302.139 286.12 313.079 286.12 313.079C286.12 313.079 287.06 318.979 291.57 318.749C296.08 318.519 306.4 315.999 306.4 315.999L287.4 324.069C287.4 324.069 290.4 331.409 298.4 329.179C306.4 326.949 320.11 324.239 320.11 324.239L295.24 335.159C295.24 335.159 297.07 341.809 303.66 339.679C308.545 338.24 313.548 337.236 318.61 336.679L303.11 343.589C303.11 343.589 303.62 349.159 310.58 348.179C317.54 347.199 330.18 345.009 330.18 345.009C332.679 349.339 335.571 353.43 338.82 357.229C349.62 369.469 355.96 362.229 355.96 362.229L365.74 365.749C366.13 363.749 371.23 332.429 371.23 332.429L351.82 329.999C351.82 329.999 344.23 313.239 342.91 311.549C341.746 310.147 340.124 309.201 338.33 308.879Z" fill="#FFBE9D"/>
<path d="M328.57 309.407C328.57 309.547 323.34 311.267 316.79 313.247C310.24 315.227 304.9 316.717 304.85 316.587C304.8 316.457 310.09 314.727 316.64 312.747C323.19 310.767 328.53 309.267 328.57 309.407Z" fill="#7B4B45"/>
<path d="M329.6 320.309C329.183 320.572 328.745 320.799 328.29 320.989L324.65 322.689C321.57 324.099 317.29 325.999 312.55 328.069C307.81 330.139 303.49 331.969 300.35 333.249C298.78 333.889 297.5 334.389 296.61 334.719C296.161 334.92 295.692 335.071 295.21 335.169C295.629 334.915 296.071 334.701 296.53 334.529L300.21 332.909L312.34 327.589L324.5 322.349L328.21 320.809C328.653 320.59 329.119 320.423 329.6 320.309Z" fill="#7B4B45"/>
<path d="M336.46 330.609C333.431 331.934 330.333 333.096 327.18 334.089C324.084 335.253 320.93 336.255 317.73 337.089C320.755 335.761 323.85 334.596 327 333.599C330.101 332.444 333.258 331.446 336.46 330.609Z" fill="#7B4B45"/>
<path d="M339.34 342.928C336.231 344.469 332.81 345.277 329.34 345.288C329.34 345.138 331.62 344.838 334.34 344.178C337.06 343.518 339.28 342.788 339.34 342.928Z" fill="#7B4B45"/>
<path d="M358.1 343.487L351.46 329.597L344.85 315.727C345.1 315.527 348.26 321.727 351.93 329.377C355.6 337.027 358.39 343.387 358.1 343.487Z" fill="#7B4B45"/>
<path d="M179.96 180.668L147.74 245.828L154.5 248.798L185.81 182.858L179.96 180.668Z" fill="#455A64"/>
<path d="M195.82 185.668C214.415 185.668 229.49 170.594 229.49 151.998C229.49 133.403 214.415 118.328 195.82 118.328C177.225 118.328 162.15 133.403 162.15 151.998C162.15 170.594 177.225 185.668 195.82 185.668Z" fill="#FFBE9D"/>
<path d="M229.45 153.559C229.247 152.864 229.156 152.142 229.18 151.419C229.18 151.065 229.16 150.675 229.12 150.249C229.07 149.819 228.99 149.359 228.92 148.849C228.783 147.686 228.573 146.534 228.29 145.399C227.587 142.284 226.432 139.288 224.86 136.509C222.82 132.837 220.106 129.584 216.86 126.919C212.935 123.687 208.308 121.42 203.35 120.299C202.002 119.997 200.636 119.783 199.26 119.659C198.56 119.659 197.85 119.509 197.14 119.499H194.98C194.62 119.499 194.26 119.499 193.89 119.499L192.8 119.619C192.08 119.709 191.34 119.759 190.6 119.879C189.121 120.15 187.661 120.517 186.23 120.979C184.756 121.435 183.316 121.993 181.92 122.649C181.22 122.999 180.54 123.399 179.85 123.769C179.153 124.142 178.485 124.567 177.85 125.039C176.512 125.954 175.236 126.956 174.03 128.039C172.843 129.169 171.731 130.375 170.7 131.649C168.578 134.266 166.89 137.207 165.7 140.359C163.169 146.875 162.818 154.036 164.7 160.769C165.601 164.018 167.019 167.1 168.9 169.899C169.809 171.269 170.812 172.575 171.9 173.809C172.999 174.988 174.175 176.094 175.42 177.119C176.015 177.643 176.646 178.125 177.31 178.559C177.96 178.999 178.6 179.459 179.26 179.869C180.593 180.648 181.976 181.339 183.4 181.939C184.785 182.53 186.208 183.028 187.66 183.429C188.38 183.619 189.11 183.739 189.82 183.899L190.9 184.119C191.25 184.189 191.62 184.209 191.98 184.249L194.12 184.479C194.83 184.479 195.54 184.479 196.25 184.479C197.634 184.492 199.017 184.408 200.39 184.229C206.589 183.366 212.421 180.784 217.227 176.776C222.033 172.767 225.62 167.492 227.58 161.549C227.968 160.444 228.282 159.315 228.52 158.169C228.64 157.679 228.77 157.219 228.85 156.799C228.93 156.379 228.97 155.989 229.03 155.639C229.071 154.915 229.226 154.203 229.49 153.529C229.627 154.244 229.647 154.977 229.55 155.699C229.55 156.059 229.55 156.459 229.49 156.889C229.43 157.319 229.36 157.799 229.28 158.319C229.13 159.509 228.886 160.686 228.55 161.839C227.693 165.028 226.344 168.065 224.55 170.839C221.91 174.976 218.413 178.499 214.295 181.169C210.177 183.84 205.534 185.596 200.68 186.319C199.22 186.534 197.746 186.647 196.27 186.659C195.52 186.659 194.76 186.659 194 186.659L191.71 186.449C191.32 186.449 190.93 186.399 190.55 186.329L189.39 186.109C188.62 185.949 187.84 185.829 187.07 185.639C185.505 185.22 183.969 184.702 182.47 184.089C180.935 183.493 179.442 182.795 178 181.999C177.28 181.569 176.59 181.079 175.88 180.609C175.18 180.144 174.512 179.633 173.88 179.079C172.531 177.983 171.255 176.801 170.06 175.539C168.885 174.218 167.802 172.818 166.82 171.349C164.773 168.335 163.229 165.008 162.25 161.499C160.163 154.254 160.515 146.524 163.25 139.499C164.547 136.095 166.391 132.927 168.71 130.119C169.825 128.746 171.035 127.453 172.33 126.249C173.631 125.101 175.008 124.042 176.45 123.079C177.145 122.583 177.874 122.135 178.63 121.739C179.38 121.339 180.11 120.919 180.87 120.559C182.375 119.865 183.925 119.274 185.51 118.789C187.057 118.314 188.634 117.943 190.23 117.679C191.01 117.559 191.81 117.509 192.59 117.419L193.76 117.309C194.15 117.309 194.54 117.309 194.92 117.309H197.23C197.99 117.309 198.74 117.449 199.49 117.519C200.959 117.664 202.416 117.915 203.85 118.269C208.614 119.441 213.072 121.62 216.924 124.659C220.776 127.699 223.932 131.528 226.18 135.889C227.714 138.831 228.773 141.996 229.32 145.269C229.549 146.45 229.686 147.646 229.73 148.849C229.73 149.369 229.8 149.849 229.81 150.289C229.82 150.729 229.81 151.119 229.75 151.479C229.762 152.184 229.661 152.886 229.45 153.559Z" fill="#263238"/>
<path d="M206 157.76C205.966 159.546 205.236 161.247 203.966 162.502C202.696 163.758 200.986 164.467 199.2 164.48C198.327 164.524 197.453 164.393 196.631 164.095C195.809 163.796 195.055 163.336 194.414 162.741C193.773 162.147 193.257 161.43 192.898 160.632C192.538 159.835 192.342 158.974 192.32 158.1C192.351 156.315 193.079 154.614 194.347 153.358C195.616 152.103 197.325 151.393 199.11 151.38C199.984 151.334 200.859 151.464 201.682 151.762C202.505 152.06 203.26 152.52 203.902 153.115C204.545 153.71 205.061 154.427 205.421 155.225C205.782 156.023 205.978 156.885 206 157.76Z" fill="#263238"/>
<path d="M208.93 140.461C208.06 141.321 202.93 137.341 195.61 137.141C188.29 136.941 182.73 140.481 181.96 139.551C181.58 139.141 182.49 137.551 184.89 135.911C188.158 133.797 192.001 132.749 195.89 132.911C199.724 133.006 203.427 134.323 206.46 136.671C208.64 138.431 209.36 140.071 208.93 140.461Z" fill="#263238"/>
<path d="M176.83 172.781C176.65 173.031 174.38 171.861 171.69 168.781C168.194 164.719 165.985 159.708 165.346 154.387C164.707 149.066 165.665 143.675 168.1 138.901C169.99 135.291 171.92 133.621 172.15 133.821C172.38 134.021 171.15 136.091 169.79 139.651C167.982 144.23 167.343 149.187 167.929 154.076C168.516 158.964 170.31 163.629 173.15 167.651C175.29 170.811 177.09 172.471 176.83 172.781Z" fill="white"/>
<path d="M185.68 178.41C185.62 178.76 185.29 179.04 184.74 179.14C184.055 179.214 183.365 179.072 182.764 178.735C182.164 178.399 181.684 177.883 181.39 177.26C181.284 177.074 181.241 176.859 181.266 176.647C181.291 176.434 181.384 176.236 181.53 176.08C182.1 175.63 183.1 175.96 184.04 176.46C184.98 176.96 185.76 177.69 185.68 178.41Z" fill="white"/>
<path d="M128 241.768C128 241.768 142.59 209.188 144.59 207.558C146.59 205.928 167.07 191.298 167.07 191.298C167.07 191.298 170.74 190.888 173.17 192.298C175.09 193.448 179.63 200.628 181.43 203.568C181.673 203.961 181.83 204.402 181.89 204.86C181.951 205.319 181.913 205.785 181.78 206.228L179.4 212.708C179.4 212.708 181.88 216.618 181.17 219.338C180.665 221.114 179.886 222.802 178.86 224.338C178.86 224.338 181.04 228.338 179.52 232.078C178 235.818 173.85 237.388 173.85 237.388C173.85 237.388 172.11 244.128 171.85 245.458C171.59 246.788 164.17 249.528 163.41 249.298C162.65 249.068 157.41 246.708 157.41 246.708C157.41 246.708 154.59 257.708 151.41 260.078C149.251 261.557 146.768 262.497 144.17 262.818L141.96 278.688L116.57 262.578L128 241.768Z" fill="#FFBE9D"/>
<path d="M161.08 233.199C163.259 233.788 165.397 234.52 167.48 235.389C170.97 236.699 173.82 237.699 173.78 237.829C171.553 237.39 169.378 236.72 167.29 235.829C165.148 235.133 163.071 234.253 161.08 233.199Z" fill="#7B4B45"/>
<path d="M161.72 219.41C162.614 219.464 163.5 219.618 164.36 219.87C165.98 220.23 168.2 220.8 170.62 221.54C173.04 222.28 175.2 223.03 176.75 223.63C177.605 223.904 178.429 224.266 179.21 224.71C178.329 224.545 177.465 224.297 176.63 223.97C175.05 223.47 172.88 222.77 170.47 222.04C168.06 221.31 165.86 220.68 164.27 220.23C163.398 220.031 162.545 219.757 161.72 219.41Z" fill="#7B4B45"/>
<path d="M159.49 208.508C160.472 208.418 161.462 208.438 162.44 208.568C164.794 208.764 167.132 209.115 169.44 209.618C171.763 210.118 174.052 210.769 176.29 211.568C177.234 211.857 178.142 212.25 179 212.738C178.043 212.526 177.101 212.252 176.18 211.918C174.44 211.388 172.04 210.708 169.33 210.118C166.62 209.528 164.16 209.118 162.33 208.928C161.375 208.855 160.426 208.714 159.49 208.508Z" fill="#7B4B45"/>
<path d="M174.3 210.88C173.71 209.317 173.561 207.622 173.87 205.98C173.078 206.025 172.286 205.903 171.544 205.62C170.803 205.338 170.13 204.901 169.57 204.34C168.28 205.75 166.57 207.7 165.24 209.11L174.3 210.88Z" fill="#455A64"/>
<path d="M368.53 324.46L423 305.34L457.68 337.94C482 370.83 454.2 399.13 428 394.78C408.68 391.57 356.4 370.83 356.4 370.83L368.53 324.46Z" fill="#E0E0E0"/>
<path d="M356.37 370.829C356.37 370.829 356.37 370.749 356.37 370.609L356.52 369.959C356.66 369.359 356.87 368.519 357.13 367.459C357.69 365.249 358.5 362.089 359.5 358.149L367.78 326.329L367.83 326.109H368.06L382.06 328.379L424.06 335.299L436.77 337.459L440.22 338.069L441.11 338.239C441.214 338.25 441.315 338.277 441.41 338.319H441.1L440.2 338.189L436.73 337.679L424 335.679L382 328.909L368 326.619L368.29 326.429C364.9 339.169 361.95 350.249 359.84 358.199C358.77 362.119 357.92 365.269 357.32 367.469L356.62 369.949C356.55 370.209 356.48 370.419 356.43 370.589C356.427 370.673 356.406 370.754 356.37 370.829Z" fill="#263238"/>
<path d="M434 330C434 330.14 429.15 331.12 423.11 332.19C417.07 333.26 412.11 334 412.11 333.86C412.11 333.72 417 332.7 423 331.63C429 330.56 434 329.82 434 330Z" fill="#263238"/>
<path d="M248.44 460.078H98.35C96.6364 460.079 94.9768 459.479 93.6596 458.382C92.3424 457.286 91.4509 455.763 91.14 454.078L72.56 351.458C72.37 350.404 72.4134 349.32 72.6873 348.284C72.9613 347.248 73.459 346.285 74.1454 345.462C74.8318 344.64 75.6903 343.977 76.6604 343.522C77.6304 343.067 78.6885 342.83 79.76 342.828H229.86C231.572 342.828 233.231 343.428 234.546 344.525C235.862 345.621 236.751 347.144 237.06 348.828L255.65 451.438C255.844 452.494 255.803 453.58 255.529 454.619C255.256 455.658 254.758 456.624 254.07 457.448C253.382 458.273 252.521 458.936 251.548 459.39C250.575 459.845 249.514 460.08 248.44 460.078Z" fill="#263238"/>
<path d="M240.76 450.277H327.76C330.256 450.277 332.649 451.269 334.414 453.033C336.179 454.798 337.17 457.192 337.17 459.687V460.077H240.76V450.277Z" fill="#263238"/>
<path d="M228.28 342.828C228.42 342.828 233.75 369.018 240.18 401.388C246.61 433.758 251.72 460.018 251.57 460.048C251.42 460.078 246.1 433.858 239.67 401.488C233.24 369.118 228.14 342.858 228.28 342.828Z" fill="#455A64"/>
<path d="M159.12 403.117C158.844 402.103 158.268 401.195 157.47 400.512C156.671 399.829 155.685 399.402 154.64 399.287H155.08C153.988 399.069 152.854 399.212 151.849 399.693C150.845 400.174 150.023 400.968 149.508 401.956C148.993 402.944 148.812 404.072 148.992 405.171C149.172 406.27 149.704 407.281 150.508 408.053C151.311 408.824 152.343 409.314 153.449 409.449C154.555 409.585 155.675 409.358 156.64 408.803C157.606 408.248 158.366 407.395 158.806 406.371C159.246 405.348 159.342 404.209 159.08 403.127L159.12 403.117Z" fill="#455A64"/>
</svg>
