<svg width="200" height="190" viewBox="0 0 200 190" fill="none" xmlns="http://www.w3.org/2000/svg">
<g id="Emails-pana">
<g id="freepik--background-complete--inject-135">
<path id="Vector" d="M73.6278 182.959C73.0086 182.427 71.6331 180.743 72.6946 178.798C73.0838 178.085 73.9108 177.731 74.6582 177.416C75.4273 177.156 76.1522 176.779 76.8076 176.299C77.9752 175.303 78.2936 173.641 79.072 172.312C79.9565 170.792 81.615 169.654 83.3708 169.733C85.3742 169.822 87.0504 171.466 87.7934 173.335C88.5364 175.205 88.5807 177.287 88.5983 179.308C88.5983 180.429 88.5541 181.687 87.7359 182.445C86.9177 183.202 85.843 183.149 84.8214 183.118L73.8533 182.777" fill="#F5F5F5"/>
<path id="Vector_2" d="M94.6 152.747H65.76L70.9566 183.783C71.0651 184.429 71.354 185.031 71.79 185.52C72.2259 186.008 72.7911 186.363 73.42 186.543L73.5173 186.57C73.6057 186.592 73.6898 186.623 73.7782 186.636C73.9706 186.675 74.1658 186.699 74.362 186.707V186.734L74.5035 186.711H87.3601C87.5963 186.713 87.8321 186.689 88.0633 186.641C88.814 186.525 89.5062 186.166 90.0335 185.619C90.5608 185.071 90.8941 184.366 90.9822 183.61L93.4855 162.228L93.6004 161.378L94.5911 152.907L94.6 152.747ZM89.1601 172.543H86.2014L86.4977 163.535H89.9297L89.1601 172.543ZM90.2171 163.535H93.052L91.995 172.543H89.4476L90.2171 163.535ZM81.7611 182.529L81.5797 174.705H85.8476L85.5866 182.529H81.7611ZM77.1527 174.705H81.2923L81.4736 182.529H77.7586L77.1527 174.705ZM77.4711 182.529H73.9994C73.6721 180.416 73.2431 177.655 72.7743 174.705H76.8652L77.4711 182.529ZM77.0023 172.543L76.3035 163.535H81.0535L81.2613 172.543H77.0023ZM81.5488 172.543L81.3409 163.535H86.2323L85.9316 172.543H81.5488ZM81.2923 161.378L81.1021 153.035H86.5773L86.2898 161.378H81.2923ZM81.0048 161.378H76.1178L75.4721 153.035H80.7792L81.0048 161.378ZM75.848 161.378H70.6824C70.4966 160.226 70.3242 159.136 70.1694 158.152C69.6298 154.781 69.4308 153.514 69.3158 153.035H75.1846L75.848 161.378ZM76.0161 163.535L76.7149 172.543H72.4559C72.3143 171.63 72.1684 170.704 72.0136 169.778C71.6775 167.651 71.3458 165.529 71.0318 163.535H76.0161ZM72.1374 172.543H69.3556L67.8475 163.535H70.7222C71.1689 166.318 71.6598 169.419 72.1374 172.543ZM72.478 174.705C72.9202 177.412 73.3183 180.079 73.703 182.529H71.0274L69.7006 174.705H72.478ZM85.8608 182.529L86.1218 174.705H88.9699L88.3021 182.529H85.8608ZM86.564 161.378L86.8382 153.035H90.8186L90.111 161.378H86.564ZM69.0416 153.035C69.1522 153.638 69.6785 156.921 70.3684 161.378H67.4937L66.1006 153.035H69.0416ZM90.823 182.529H88.6117L89.2751 174.705H91.7562L90.823 182.529ZM93.2997 161.378H90.394L91.1061 153.035H94.2771L93.2997 161.378Z" fill="#E0E0E0"/>
<path id="Vector_3" d="M169.165 12.9539L125.011 20.4512L130.056 50.2686L174.21 42.7713L169.165 12.9539Z" fill="#EBEBEB"/>
<path id="Vector_4" d="M169.17 12.9648C169.068 13.131 168.953 13.2881 168.825 13.4345L167.777 14.7193L163.867 19.4112L150.816 34.8294L150.71 34.9579L150.564 34.8782L150.21 34.6788L132.351 24.7013L126.978 21.6354L125.523 20.7847C125.348 20.6925 125.182 20.5842 125.028 20.4613C125.213 20.5275 125.392 20.6105 125.563 20.7094L127.053 21.4936L132.506 24.4487L150.418 34.3244L150.767 34.5193L150.515 34.568L163.659 19.2252L167.666 14.6174L168.772 13.3813C168.892 13.2307 169.025 13.0913 169.17 12.9648Z" fill="#FAFAFA"/>
<path id="Vector_5" d="M130.074 50.2788C129.977 50.2212 132.604 45.5692 135.943 39.8937C139.282 34.2182 142.068 29.6548 142.165 29.7035C142.263 29.7522 139.636 34.4087 136.297 40.0886C132.957 45.7686 130.149 50.3364 130.074 50.2788Z" fill="#FAFAFA"/>
<path id="Vector_6" d="M156.764 26.855C156.839 26.7708 160.807 30.2754 165.61 34.6749C170.412 39.0744 174.3 42.6985 174.212 42.8049C174.123 42.9112 170.169 39.3889 165.366 34.9894C160.563 30.5899 156.689 26.9303 156.764 26.855Z" fill="#FAFAFA"/>
<path id="Vector_7" d="M34.7512 92.794L12.3416 94.7881L13.6854 109.921L36.0951 107.926L34.7512 92.794Z" fill="#F5F5F5"/>
<path id="Vector_8" d="M34.7441 92.7979C34.6905 92.8782 34.6265 92.9512 34.554 93.0149L33.979 93.6219L31.834 95.815L24.6871 103.015L24.6296 103.072L24.5588 103.028L24.3908 102.913L15.8463 97.2062L13.2679 95.434L12.5735 94.9511C12.4904 94.8973 12.4119 94.8366 12.3391 94.7694C12.4288 94.8104 12.5147 94.8593 12.5956 94.9156L13.3121 95.3587L15.9259 97.0556L24.5058 102.713L24.6738 102.824H24.5456L31.7323 95.6688L33.9436 93.52L34.5451 92.9441C34.6079 92.8906 34.6744 92.8418 34.7441 92.7979Z" fill="#E0E0E0"/>
<path id="Vector_9" d="M13.6792 109.923C13.635 109.892 15.1342 107.668 17.0315 104.956C18.9288 102.245 20.5077 100.083 20.5696 100.105C20.6315 100.127 19.1146 102.36 17.2173 105.071C15.32 107.783 13.7234 109.954 13.6792 109.923Z" fill="#E0E0E0"/>
<path id="Vector_10" d="M27.9819 99.2535C28.0261 99.2137 29.8747 101.128 32.1082 103.52C34.3416 105.913 36.1283 107.889 36.0885 107.928C36.0487 107.968 34.2001 106.054 31.9622 103.662C29.7244 101.269 27.9421 99.2934 27.9819 99.2535Z" fill="#E0E0E0"/>
<path id="Vector_11" d="M193.945 76.4754C193.945 76.4754 193.945 76.3558 193.998 76.1343C194.051 75.9128 194.091 75.5805 194.162 75.1596C194.308 74.3001 194.525 73.0551 194.799 71.4601C195.36 68.2701 196.161 63.7023 197.138 58.142L197.209 58.2439L170.585 53.4855L170.713 53.3969C169.537 59.9363 168.422 66.1479 167.423 71.7126L167.343 71.5975L186.502 75.0887L191.99 76.0989L193.45 76.3735L193.826 76.4489L193.958 76.4799H193.835L193.468 76.4223L192.026 76.1742L186.564 75.2216L167.321 71.8145H167.219V71.7126C168.214 66.1479 169.32 59.9319 170.488 53.3925L170.51 53.2861H170.62L197.236 58.0888H197.324V58.1774L194.887 71.5354C194.595 73.1171 194.365 74.3532 194.206 75.2039C194.127 75.6159 194.069 75.9349 194.025 76.1609C193.981 76.3868 193.945 76.4754 193.945 76.4754Z" fill="#E0E0E0"/>
<path id="Vector_12" d="M197.223 58.1604C197.13 58.2447 197.03 58.3189 196.922 58.3819L196.037 58.9756L192.734 61.1289L181.774 68.1557C181.474 68.1025 181.69 68.1557 181.62 68.1246V68.1025L181.584 68.0538L181.513 67.9607L181.368 67.7702L181.084 67.3936C180.894 67.1411 180.709 66.893 180.518 66.6493L179.417 65.1872L177.338 62.427L173.827 57.7439L171.474 54.5761L170.842 53.69C170.766 53.5914 170.696 53.4878 170.634 53.3799C170.723 53.4674 170.804 53.5622 170.877 53.6634L171.54 54.5052L173.951 57.6332L177.489 62.2852L179.581 65.0366L180.682 66.4942L181.248 67.243L181.531 67.6196L181.677 67.8056L181.748 67.9031L181.783 67.9474V67.974C181.721 67.974 181.934 68.005 181.642 67.974L192.628 61.0004L195.971 58.9092L196.882 58.3465C197.108 58.218 197.223 58.156 197.223 58.1604Z" fill="#E0E0E0"/>
<path id="Vector_13" d="M178.002 63.1581C178.042 63.2069 175.671 65.174 172.695 67.5488C169.718 69.9235 167.295 71.8109 167.259 71.7622C167.224 71.7135 169.59 69.7508 172.566 67.376C175.543 65.0012 177.962 63.1094 178.002 63.1581Z" fill="#E0E0E0"/>
<path id="Vector_14" d="M194.078 76.7243C194.025 76.7553 192.482 74.0261 190.633 70.6367C188.784 67.2474 187.329 64.4739 187.382 64.434C187.435 64.3941 188.979 67.1322 190.827 70.5215C192.676 73.9109 194.131 76.6933 194.078 76.7243Z" fill="#E0E0E0"/>
<path id="Vector_15" d="M75.7903 110.999V116.147H53.6772C52.9957 116.147 52.3422 115.876 51.8603 115.393C51.3784 114.911 51.1077 114.256 51.1077 113.573C51.1077 112.89 51.3784 112.236 51.8603 111.753C52.3422 111.27 52.9957 110.999 53.6772 110.999" fill="#E0E0E0"/>
<path id="Vector_16" d="M68.4709 112.075H75.7903V115.066H68.4709C68.0862 115.066 67.7172 114.913 67.4451 114.64C67.1731 114.368 67.0203 113.998 67.0203 113.613V113.524C67.0214 113.139 67.1748 112.771 67.4467 112.499C67.7186 112.228 68.0869 112.075 68.4709 112.075Z" fill="#FAFAFA"/>
<path id="Vector_17" d="M75.7903 105.846V110.998H53.6772C52.9957 110.998 52.3422 110.727 51.8603 110.244C51.3784 109.762 51.1077 109.107 51.1077 108.424C51.1077 107.741 51.3782 107.086 51.86 106.603C52.3418 106.119 52.9953 105.847 53.6772 105.846H75.7903Z" fill="#F5F5F5"/>
<path id="Vector_18" d="M68.4709 106.927H75.7903V109.917H68.4709C68.0862 109.917 67.7172 109.764 67.4451 109.492C67.1731 109.219 67.0203 108.85 67.0203 108.464V108.376C67.0214 107.991 67.1748 107.622 67.4467 107.351C67.7186 107.079 68.0869 106.927 68.4709 106.927Z" fill="#E0E0E0"/>
<path id="Vector_19" d="M59.8292 97.5879L56.322 105.846H58.5776L60.1387 101.438L59.8292 97.5879Z" fill="#E0E0E0"/>
<path id="Vector_20" d="M70.6072 90.1133L71.9649 105.846H60.4926L59.2322 90.1133H70.6072Z" fill="#EBEBEB"/>
<path id="Vector_21" d="M69.4884 91.3634L70.6737 104.544L62.0628 104.655L60.8997 91.2881L69.4884 91.3634Z" fill="#FAFAFA"/>
<path id="Vector_22" d="M67.6616 93.1885L68.3339 102.258H63.7432L62.9338 93.1885H67.6616Z" fill="#E0E0E0"/>
</g>
<g id="freepik--Floor--inject-135">
<path id="Vector_23" d="M200 186.733C200 186.8 155.225 186.848 100.004 186.848C44.7835 186.848 0 186.795 0 186.733C0 186.671 44.7658 186.618 100.004 186.618C155.243 186.618 200 186.671 200 186.733Z" fill="#263238"/>
</g>
<g id="freepik--Screen--inject-135">
<g id="freepik--new-email--inject-135">
<path id="Vector_24" d="M129.084 0.105469H9.77441V81.1839H129.084V0.105469Z" fill="#FAFAFA"/>
<path id="Vector_25" d="M129.632 81.2474H10.137V0.0449219H129.632V81.2474ZM129.543 0.106949H10.221V81.1854H129.539" fill="#FAFAFA"/>
<path id="Vector_26" d="M129.632 81.2474H10.137V0.0449219H129.632V81.2474ZM129.543 0.106949H10.221V81.1854H129.539" fill="#FAFAFA"/>
<path id="Vector_27" d="M129.583 0.0927734H10.1855V8.12973H129.583V0.0927734Z" fill="#407BFF"/>
<g id="Group" style="mix-blend-mode:multiply">
<path id="Vector_28" d="M129.583 68.7793H10.1855V81.2468H129.583V68.7793Z" fill="#EBEBEB"/>
</g>
<path id="Vector_29" d="M32.8473 74.8133H33.8335L34.1431 75.4601H34.3554L33.3691 73.3955H33.3116L32.3342 75.4601H32.5465L32.8473 74.8133ZM33.3382 73.7854L33.7406 74.6183H32.9401L33.3382 73.7854Z" fill="#263238"/>
<path id="Vector_30" d="M34.5012 75.8994H32.166V76.0632H34.5012V75.8994Z" fill="#263238"/>
<path id="Vector_31" d="M18.3409 73.2812H18.1817C17.9588 73.298 17.7505 73.3988 17.5987 73.5632C17.4469 73.7276 17.3629 73.9434 17.3635 74.1674C17.4731 74.8208 17.7557 75.4328 18.1817 75.9396C18.1817 75.9396 18.2436 76.0459 18.3409 75.9396C18.7688 75.434 19.0516 74.8214 19.1591 74.1674C19.1597 73.9434 19.0757 73.7276 18.9239 73.5632C18.7721 73.3988 18.5638 73.298 18.3409 73.2812ZM18.2613 74.7034C18.1651 74.7034 18.071 74.6749 17.991 74.6213C17.911 74.5678 17.8487 74.4916 17.8119 74.4026C17.775 74.3135 17.7654 74.2155 17.7842 74.121C17.803 74.0265 17.8493 73.9396 17.9173 73.8715C17.9854 73.8033 18.072 73.7569 18.1664 73.7381C18.2608 73.7193 18.3586 73.7289 18.4475 73.7658C18.5364 73.8027 18.6124 73.8652 18.6658 73.9453C18.7193 74.0255 18.7478 74.1197 18.7478 74.2161C18.7484 74.2803 18.7362 74.3439 18.712 74.4033C18.6877 74.4627 18.6519 74.5166 18.6066 74.562C18.5613 74.6074 18.5075 74.6433 18.4482 74.6676C18.3889 74.6918 18.3254 74.704 18.2613 74.7034Z" fill="#263238"/>
<path id="Vector_32" d="M29.2737 75.341C29.2737 75.4738 29.2211 75.6011 29.1274 75.695C29.0336 75.7889 28.9065 75.8416 28.774 75.8416C28.6414 75.8416 28.5143 75.7889 28.4206 75.695C28.3269 75.6011 28.2742 75.4738 28.2742 75.341V73.7238C28.2742 73.6381 28.3082 73.5558 28.3688 73.4952C28.4293 73.4345 28.5115 73.4004 28.5971 73.4004C28.6827 73.4004 28.7648 73.4345 28.8254 73.4952C28.8859 73.5558 28.9199 73.6381 28.9199 73.7238V75.0973C28.9132 75.1401 28.8915 75.179 28.8586 75.2071C28.8258 75.2352 28.784 75.2507 28.7408 75.2507C28.6976 75.2507 28.6558 75.2352 28.623 75.2071C28.5902 75.179 28.5684 75.1401 28.5617 75.0973V74.0384H28.4423V75.0486V75.0973C28.4529 75.1686 28.4886 75.2336 28.5429 75.2808C28.5973 75.3279 28.6667 75.354 28.7386 75.3543C28.8102 75.3531 28.8792 75.3267 28.9334 75.2797C28.9876 75.2328 29.0235 75.1682 29.0349 75.0973V75.0707C29.0345 75.0633 29.0345 75.056 29.0349 75.0486V73.7194C29.0349 73.6019 28.9883 73.4892 28.9054 73.4061C28.8224 73.323 28.7099 73.2764 28.5927 73.2764C28.4754 73.2764 28.3629 73.323 28.2799 73.4061C28.197 73.4892 28.1504 73.6019 28.1504 73.7194V75.4074C28.1635 75.5623 28.2342 75.7066 28.3484 75.8118C28.4627 75.917 28.6122 75.9753 28.7673 75.9753C28.9225 75.9753 29.072 75.917 29.1863 75.8118C29.3005 75.7066 29.3712 75.5623 29.3843 75.4074V74.0384H29.2649L29.2737 75.341Z" fill="#263238"/>
<path id="Vector_33" d="M23.9575 74.118L23.5152 73.1787L23.073 74.118L22.0381 74.2686L22.7855 74.9997L22.5732 76.032L23.4887 75.5446L24.413 76.032L24.2361 74.9997L24.9924 74.2598L23.9575 74.118ZM24.2184 75.7573L23.4887 75.3718L22.7634 75.7573L22.8961 74.9864V74.9465L22.3123 74.3749L23.1349 74.2598L23.4976 73.5243L23.8602 74.2598L24.6695 74.3794L24.1123 74.9243L24.0813 74.9509L24.2184 75.7573Z" fill="#263238"/>
<path id="Vector_34" d="M42.1571 72.0449H42.0066V76.852H42.1571V72.0449Z" fill="#263238"/>
<path id="Vector_35" d="M39.2201 73.7285H37.3096V75.7665H39.2201V73.7285Z" fill="#263238"/>
<path id="Vector_36" d="M37.9155 73.25V73.4093H38.6187V73.25H39.2201V73.5643H37.3096V73.25H37.9155Z" fill="#263238"/>
<path id="Vector_37" d="M38.6187 73.0947H37.9155V73.2496H38.6187V73.0947Z" fill="#263238"/>
<path id="Vector_38" d="M38.6187 73.25H37.9155V73.4049H38.6187V73.25Z" fill="#263238"/>
<path id="Vector_39" d="M46.482 74.8227L47.0658 74.2334L47.1365 74.3043L46.482 74.9644L45.823 74.3043L45.8938 74.2334L46.482 74.8227Z" fill="#263238"/>
<path id="Vector_40" d="M118.447 4.1995H120.101V4.11098H118.447H120.101V4.02246H118.447V4.1995Z" fill="#263238"/>
<path id="Vector_41" d="M126.704 3.34476L126.58 3.2207L125.815 3.98718L125.05 3.2207L124.926 3.34476L125.691 4.11124L124.926 4.87772L125.05 5.00177L125.815 4.23529L126.58 5.00177L126.704 4.87772L125.939 4.11124L126.704 3.34476Z" fill="#263238"/>
<path id="Vector_42" d="M121.587 5.02857H123.44V3.19434H121.609L121.587 5.02857ZM121.764 3.36713H123.241V4.85135H121.764V3.36713Z" fill="#263238"/>
<path id="Vector_43" d="M126.885 26.4677C126.884 26.2991 126.818 26.1373 126.701 26.016C126.585 25.8947 126.425 25.8232 126.257 25.8164H123.789C123.55 25.8164 123.321 25.9116 123.151 26.0811C122.982 26.2506 122.887 26.4805 122.887 26.7202C122.887 26.9599 122.982 27.1898 123.151 27.3593C123.321 27.5288 123.55 27.6241 123.789 27.6241H125.775V27.4468H123.882C123.786 27.4468 123.692 27.4279 123.603 27.3912C123.515 27.3544 123.434 27.3006 123.366 27.2327C123.299 27.1648 123.245 27.0842 123.208 26.9956C123.171 26.9069 123.153 26.8118 123.153 26.7158C123.153 26.6198 123.171 26.5247 123.208 26.436C123.245 26.3474 123.299 26.2668 123.366 26.1989C123.434 26.131 123.515 26.0771 123.603 26.0404C123.692 26.0037 123.786 25.9848 123.882 25.9848H126.244C126.369 25.9848 126.49 26.0347 126.579 26.1236C126.667 26.2125 126.717 26.3331 126.717 26.4588C126.717 26.5846 126.667 26.7051 126.579 26.794C126.49 26.8829 126.369 26.9329 126.244 26.9329H124.241C124.182 26.9184 124.129 26.8851 124.091 26.8379C124.052 26.7907 124.03 26.7323 124.028 26.6715C124.029 26.6097 124.051 26.55 124.09 26.5024C124.13 26.4548 124.184 26.4223 124.245 26.4101H125.784V26.2329H124.241C124.123 26.2329 124.011 26.2796 123.928 26.3626C123.845 26.4457 123.798 26.5584 123.798 26.6759C123.798 26.7934 123.845 26.9061 123.928 26.9892C124.011 27.0723 124.123 27.119 124.241 27.119H126.266C126.433 27.111 126.591 27.0389 126.706 26.9176C126.821 26.7963 126.885 26.6352 126.885 26.4677Z" fill="#263238"/>
<path id="Vector_44" d="M15.6121 2.74707V4.96233H15.3556L14.0288 3.32304V4.96233H13.7148V2.74707H13.9714L15.2981 4.38636V2.74707H15.6121Z" fill="white"/>
<path id="Vector_45" d="M17.7392 4.21314H16.4124C16.4316 4.34858 16.499 4.47249 16.6022 4.56206C16.7054 4.65162 16.8375 4.70078 16.9741 4.70049C17.0639 4.70351 17.1534 4.68729 17.2366 4.65291C17.3197 4.61853 17.3945 4.56678 17.4561 4.50112L17.6242 4.69606C17.5402 4.78598 17.4379 4.85667 17.3242 4.90332C17.2104 4.94996 17.088 4.97145 16.9652 4.96632C16.8499 4.97309 16.7345 4.95584 16.6262 4.91568C16.5178 4.87551 16.419 4.81329 16.3359 4.73295C16.2528 4.65261 16.1872 4.55588 16.1433 4.44888C16.0994 4.34187 16.078 4.2269 16.0807 4.11123C16.0764 3.99971 16.095 3.88849 16.1354 3.78447C16.1758 3.68045 16.237 3.58584 16.3154 3.5065C16.3938 3.42717 16.4876 3.3648 16.591 3.32326C16.6944 3.28172 16.8052 3.26189 16.9166 3.26501C17.0281 3.26167 17.1392 3.28175 17.2426 3.32396C17.346 3.36617 17.4394 3.42957 17.5168 3.5101C17.5943 3.59062 17.6541 3.68649 17.6924 3.79154C17.7307 3.8966 17.7466 4.00851 17.7392 4.1201C17.7413 4.15107 17.7413 4.18216 17.7392 4.21314ZM16.4124 3.99604H17.4782C17.4661 3.86284 17.4047 3.73899 17.3061 3.64881C17.2075 3.55863 17.0788 3.50863 16.9453 3.50863C16.8118 3.50863 16.6831 3.55863 16.5845 3.64881C16.4859 3.73899 16.4245 3.86284 16.4124 3.99604Z" fill="white"/>
<path id="Vector_46" d="M20.6273 3.2793L20.0081 4.94517H19.7207L19.2386 3.68247L18.7521 4.94517H18.4646L17.8455 3.2793H18.1329L18.615 4.60845L19.1148 3.2793H19.3713L19.8622 4.60845L20.3575 3.2793H20.6273Z" fill="white"/>
<path id="Vector_47" d="M23.4137 4.67449V4.94475H21.8171V2.72949H23.3695V2.99975H22.1311V3.67762H23.2324V3.94345H22.1311V4.65677L23.4137 4.67449Z" fill="white"/>
<path id="Vector_48" d="M26.6378 3.98662V4.94361H26.3327V4.02206C26.3327 3.6942 26.1779 3.5347 25.8904 3.5347C25.8192 3.5313 25.7482 3.54375 25.6824 3.57116C25.6165 3.59857 25.5576 3.64026 25.5098 3.69323C25.462 3.7462 25.4265 3.80912 25.4059 3.87747C25.3853 3.94582 25.3801 4.0179 25.3907 4.08852V4.94361H25.0899V4.02206C25.0899 3.6942 24.9351 3.5347 24.6477 3.5347C24.5765 3.5313 24.5054 3.54375 24.4396 3.57116C24.3738 3.59857 24.3149 3.64026 24.2671 3.69323C24.2193 3.7462 24.1838 3.80912 24.1632 3.87747C24.1426 3.94582 24.1374 4.0179 24.1479 4.08852V4.94361H23.8472V3.27773H24.1346V3.52584C24.2023 3.43902 24.2899 3.36989 24.39 3.32437C24.4902 3.27885 24.5998 3.25829 24.7096 3.26444C24.8251 3.25553 24.9408 3.2795 25.0433 3.33359C25.1458 3.38767 25.2309 3.46968 25.2889 3.57015C25.3624 3.4702 25.4594 3.39 25.5713 3.33666C25.6832 3.28333 25.8065 3.25852 25.9302 3.26444C26.0271 3.25262 26.1255 3.26328 26.2176 3.2956C26.3098 3.32792 26.3933 3.38104 26.4617 3.45084C26.5301 3.52064 26.5815 3.60526 26.6121 3.69816C26.6426 3.79107 26.6514 3.88976 26.6378 3.98662Z" fill="white"/>
<path id="Vector_49" d="M28.5041 3.93855V4.94428H28.221V4.72718C28.1569 4.80991 28.0731 4.87517 27.9773 4.91698C27.8815 4.95878 27.7767 4.97579 27.6726 4.96643C27.2967 4.96643 27.0579 4.76263 27.0579 4.47464C27.0579 4.18666 27.2303 3.98729 27.7257 3.98729H28.2033V3.92526C28.2033 3.67272 28.0574 3.52651 27.7611 3.52651C27.5707 3.52414 27.3851 3.58663 27.2348 3.70373L27.1109 3.47778C27.3096 3.33281 27.5507 3.25801 27.7964 3.26511C28.2475 3.26511 28.5041 3.48221 28.5041 3.93855ZM28.2033 4.43477V4.20438H27.7611C27.4647 4.20438 27.3807 4.31957 27.3807 4.46135C27.3807 4.60313 27.5178 4.73161 27.7478 4.73161C27.8448 4.73437 27.9404 4.70745 28.0218 4.65441C28.1032 4.60138 28.1665 4.52476 28.2033 4.43477Z" fill="white"/>
<path id="Vector_50" d="M29.0083 2.76403C29.0083 2.73747 29.0136 2.71118 29.0239 2.6867C29.0342 2.66221 29.0492 2.64003 29.0682 2.62146C29.0872 2.60289 29.1096 2.5883 29.1343 2.57854C29.159 2.56879 29.1854 2.56407 29.2119 2.56466C29.2378 2.56347 29.2638 2.56749 29.2881 2.57647C29.3125 2.58546 29.3348 2.59923 29.3538 2.61698C29.3728 2.63474 29.388 2.6561 29.3986 2.67984C29.4092 2.70357 29.4149 2.72918 29.4155 2.75517C29.4155 2.80922 29.394 2.86106 29.3559 2.89928C29.3177 2.9375 29.2659 2.95897 29.2119 2.95897C29.1579 2.95897 29.1061 2.9375 29.0679 2.89928C29.0298 2.86106 29.0083 2.80922 29.0083 2.75517V2.76403ZM29.0614 3.27797H29.3624V4.94384H29.0614V3.27797Z" fill="white"/>
<path id="Vector_51" d="M29.937 2.61426H30.238V4.94471H29.937V2.61426Z" fill="white"/>
<path id="Vector_52" d="M13.8519 10.8679H13.1001V10.5977H14.9134V10.8679H14.1615V12.7952H13.8519V10.8679Z" fill="#263238"/>
<path id="Vector_53" d="M14.8867 11.9626C14.8796 11.786 14.9255 11.6113 15.0183 11.461C15.1111 11.3107 15.2466 11.1916 15.4075 11.1191C15.5684 11.0465 15.7472 11.0239 15.9211 11.0539C16.0949 11.084 16.2558 11.1655 16.3831 11.2879C16.5103 11.4103 16.5982 11.568 16.6353 11.7408C16.6724 11.9136 16.657 12.0935 16.5913 12.2575C16.5255 12.4215 16.4122 12.562 16.2661 12.6611C16.12 12.7601 15.9476 12.8131 15.7712 12.8132C15.6558 12.822 15.5399 12.8063 15.431 12.7672C15.322 12.728 15.2226 12.6663 15.1391 12.586C15.0556 12.5057 14.99 12.4087 14.9465 12.3013C14.903 12.1938 14.8826 12.0784 14.8867 11.9626ZM16.3108 11.9626C16.3108 11.8887 16.2963 11.8155 16.268 11.7472C16.2398 11.679 16.1984 11.6169 16.1463 11.5647C16.0941 11.5124 16.0322 11.471 15.9641 11.4427C15.8959 11.4144 15.8229 11.3999 15.7491 11.3999C15.6753 11.3999 15.6023 11.4144 15.5342 11.4427C15.466 11.471 15.4041 11.5124 15.3519 11.5647C15.2998 11.6169 15.2584 11.679 15.2302 11.7472C15.202 11.8155 15.1874 11.8887 15.1874 11.9626C15.1874 12.0365 15.202 12.1096 15.2302 12.1779C15.2584 12.2462 15.2998 12.3082 15.3519 12.3604C15.4041 12.4127 15.466 12.4541 15.5342 12.4824C15.6023 12.5107 15.6753 12.5252 15.7491 12.5252C15.8229 12.5252 15.8959 12.5107 15.9641 12.4824C16.0322 12.4541 16.0941 12.4127 16.1463 12.3604C16.1984 12.3082 16.2398 12.2462 16.268 12.1779C16.2963 12.1096 16.3108 12.0365 16.3108 11.9626Z" fill="#263238"/>
<path id="Vector_54" d="M17.7394 11.3465C17.7388 11.3184 17.7439 11.2905 17.7543 11.2644C17.7648 11.2383 17.7804 11.2147 17.8003 11.1948C17.8201 11.1749 17.8438 11.1593 17.8698 11.1488C17.8959 11.1383 17.9238 11.1332 17.9518 11.1338C17.9797 11.1332 18.0074 11.1383 18.0332 11.1488C18.059 11.1594 18.0824 11.1751 18.1019 11.195C18.1214 11.2149 18.1366 11.2387 18.1466 11.2647C18.1566 11.2908 18.1611 11.3186 18.1599 11.3465C18.1611 11.3746 18.1566 11.4026 18.1466 11.4289C18.1367 11.4552 18.1216 11.4792 18.1022 11.4995C18.0827 11.5198 18.0594 11.5359 18.0335 11.5469C18.0077 11.558 17.9799 11.5636 17.9518 11.5636C17.9236 11.5636 17.8956 11.558 17.8695 11.547C17.8434 11.536 17.8198 11.52 17.8 11.4998C17.7802 11.4795 17.7647 11.4556 17.7543 11.4293C17.7439 11.4029 17.7388 11.3748 17.7394 11.3465ZM17.7394 12.6181C17.7388 12.5898 17.7439 12.5616 17.7543 12.5353C17.7647 12.509 17.7802 12.485 17.8 12.4648C17.8198 12.4446 17.8434 12.4285 17.8695 12.4176C17.8956 12.4066 17.9236 12.401 17.9518 12.401C18.0105 12.401 18.0668 12.4243 18.1083 12.4659C18.1498 12.5074 18.1731 12.5637 18.1731 12.6225C18.1731 12.6812 18.1498 12.7376 18.1083 12.7791C18.0668 12.8207 18.0105 12.844 17.9518 12.844C17.9209 12.8451 17.8901 12.8393 17.8617 12.827C17.8333 12.8147 17.808 12.7962 17.7876 12.7728C17.7673 12.7495 17.7524 12.7219 17.744 12.692C17.7357 12.6622 17.7341 12.6309 17.7394 12.6003V12.6181Z" fill="#263238"/>
<path id="Vector_55" d="M13.5468 19.1001C13.5473 18.9499 13.5781 18.8013 13.6374 18.6633C13.6968 18.5253 13.7834 18.4008 13.8921 18.2973C14.0008 18.1937 14.1293 18.1134 14.2699 18.061C14.4105 18.0086 14.5602 17.9853 14.71 17.9925C14.8656 17.9861 15.0207 18.0133 15.1649 18.0721C15.3091 18.131 15.439 18.2202 15.5459 18.3336L15.3424 18.533C15.2636 18.448 15.1676 18.3808 15.0609 18.3357C14.9541 18.2906 14.8391 18.2688 14.7233 18.2716C14.5835 18.2723 14.4461 18.3078 14.3233 18.3749C14.2006 18.4419 14.0964 18.5384 14.0201 18.6557C13.9437 18.773 13.8977 18.9075 13.886 19.047C13.8743 19.1865 13.8973 19.3268 13.953 19.4552C14.0088 19.5837 14.0955 19.6962 14.2053 19.7828C14.3152 19.8694 14.4447 19.9274 14.5824 19.9514C14.7201 19.9755 14.8617 19.965 14.9943 19.9208C15.1269 19.8766 15.2466 19.8001 15.3424 19.6982L15.5459 19.8976C15.4386 20.012 15.3081 20.102 15.1631 20.1616C15.0182 20.2212 14.8622 20.2491 14.7056 20.2432C14.5531 20.2499 14.4009 20.2251 14.2584 20.1703C14.116 20.1155 13.9863 20.0319 13.8776 19.9246C13.7688 19.8173 13.6834 19.6887 13.6264 19.5469C13.5695 19.405 13.5424 19.2529 13.5468 19.1001Z" fill="#263238"/>
<path id="Vector_56" d="M15.7227 19.366C15.72 19.2506 15.7413 19.1358 15.7853 19.029C15.8293 18.9222 15.8949 18.8257 15.9781 18.7457C16.0613 18.6657 16.1602 18.6039 16.2685 18.5643C16.3768 18.5246 16.4921 18.508 16.6072 18.5154C16.7444 18.5065 16.8815 18.5357 17.0032 18.5998C17.1249 18.6639 17.2266 18.7604 17.2971 18.8787L17.0672 19.0293C17.0198 18.9551 16.9544 18.8942 16.877 18.8523C16.7996 18.8104 16.7128 18.789 16.6249 18.7901C16.4783 18.8029 16.3417 18.8702 16.2423 18.9789C16.1428 19.0876 16.0876 19.2297 16.0876 19.3771C16.0876 19.5246 16.1428 19.6667 16.2423 19.7753C16.3417 19.884 16.4783 19.9514 16.6249 19.9642C16.7128 19.9652 16.7996 19.9438 16.877 19.9019C16.9544 19.8601 17.0198 19.7992 17.0672 19.7249L17.2971 19.8667C17.2275 19.9824 17.1277 20.0769 17.0085 20.1402C16.8893 20.2034 16.7552 20.2329 16.6205 20.2256C16.5036 20.235 16.386 20.2196 16.2755 20.1803C16.1649 20.141 16.064 20.0787 15.9792 19.9975C15.8944 19.9163 15.8277 19.8181 15.7835 19.7093C15.7393 19.6004 15.7186 19.4835 15.7227 19.366Z" fill="#263238"/>
<path id="Vector_57" d="M18.3718 18.7326C18.3726 18.6908 18.3858 18.6501 18.4097 18.6157C18.4336 18.5813 18.4671 18.5548 18.5059 18.5394C18.5448 18.5239 18.5874 18.5204 18.6283 18.5291C18.6692 18.5378 18.7067 18.5584 18.7359 18.5883C18.7652 18.6182 18.785 18.6561 18.7929 18.6972C18.8007 18.7383 18.7963 18.7808 18.78 18.8195C18.7638 18.8581 18.7366 18.891 18.7018 18.9142C18.667 18.9374 18.6261 18.9497 18.5842 18.9497C18.556 18.9498 18.528 18.9441 18.5019 18.9331C18.4758 18.9222 18.4522 18.9061 18.4324 18.8859C18.4126 18.8657 18.3971 18.8417 18.3867 18.8154C18.3762 18.7891 18.3712 18.7609 18.3718 18.7326ZM18.3718 19.9998C18.3726 19.9579 18.3858 19.9172 18.4097 19.8829C18.4336 19.8485 18.4671 19.8219 18.5059 19.8065C18.5448 19.7911 18.5874 19.7875 18.6283 19.7962C18.6692 19.8049 18.7067 19.8255 18.7359 19.8554C18.7652 19.8853 18.785 19.9232 18.7929 19.9643C18.8007 20.0054 18.7963 20.048 18.78 20.0866C18.7638 20.1252 18.7366 20.1581 18.7018 20.1813C18.667 20.2045 18.6261 20.2169 18.5842 20.2169C18.5558 20.2175 18.5275 20.2123 18.5011 20.2015C18.4748 20.1908 18.4509 20.1748 18.431 20.1544C18.4111 20.1341 18.3956 20.1098 18.3854 20.0832C18.3752 20.0566 18.3706 20.0282 18.3718 19.9998Z" fill="#263238"/>
<path id="Vector_58" d="M13.2151 27.4468L13.3301 27.1987C13.5339 27.3675 13.7909 27.4586 14.0554 27.4557C14.4357 27.4557 14.5994 27.305 14.5994 27.1145C14.5994 26.5784 13.2726 26.9151 13.2726 26.0999C13.2726 25.7588 13.5335 25.4708 14.1129 25.4708C14.3624 25.4678 14.6076 25.5354 14.8205 25.6657L14.7144 25.9183C14.5353 25.8014 14.3266 25.7384 14.1129 25.7366C13.7414 25.7366 13.5777 25.8961 13.5777 26.0866C13.5777 26.6227 14.9045 26.286 14.9045 27.0968C14.9045 27.4335 14.6348 27.7215 14.0554 27.7215C13.7522 27.7288 13.4556 27.6319 13.2151 27.4468Z" fill="#263238"/>
<path id="Vector_59" d="M16.855 26.029V27.6949H16.5675V27.4468C16.5029 27.5341 16.4179 27.6044 16.3201 27.6515C16.2222 27.6986 16.1143 27.7211 16.0058 27.717C15.9085 27.7269 15.8103 27.7148 15.7182 27.6817C15.6262 27.6485 15.5428 27.5952 15.474 27.5255C15.4053 27.4558 15.353 27.3715 15.3211 27.2789C15.2891 27.1863 15.2783 27.0878 15.2894 26.9904V26.029H15.5901V26.955C15.5901 27.2828 15.7537 27.4468 16.0324 27.4468C16.1042 27.4506 16.176 27.4386 16.2427 27.4115C16.3094 27.3844 16.3694 27.343 16.4183 27.2902C16.4673 27.2374 16.504 27.1744 16.526 27.1057C16.5479 27.0371 16.5546 26.9644 16.5454 26.8929V26.0068L16.855 26.029Z" fill="#263238"/>
<path id="Vector_60" d="M19.1635 26.854C19.1691 26.9666 19.1513 27.0792 19.1112 27.1845C19.0711 27.2899 19.0097 27.3858 18.9307 27.4662C18.8517 27.5466 18.7569 27.6097 18.6524 27.6515C18.5478 27.6933 18.4358 27.7129 18.3232 27.709C18.2089 27.7137 18.0951 27.6903 17.9919 27.6408C17.8886 27.5914 17.7989 27.5175 17.7306 27.4255V27.6869H17.4387V25.3564H17.7395V26.2736C17.8095 26.1869 17.8987 26.1177 18 26.0716C18.1013 26.0254 18.212 26.0036 18.3232 26.0077C18.4353 26.0026 18.5472 26.0211 18.6518 26.0619C18.7563 26.1027 18.8512 26.1649 18.9303 26.2446C19.0094 26.3243 19.0711 26.4196 19.1112 26.5246C19.1514 26.6295 19.1692 26.7417 19.1635 26.854ZM18.8584 26.854C18.8532 26.744 18.8159 26.6379 18.7511 26.5489C18.6863 26.46 18.5969 26.392 18.4939 26.3534C18.3909 26.3149 18.2789 26.3075 18.1718 26.3321C18.0646 26.3567 17.967 26.4123 17.8911 26.492C17.8152 26.5716 17.7643 26.6718 17.7447 26.7802C17.7251 26.8885 17.7376 27.0003 17.7808 27.1016C17.824 27.2028 17.8959 27.2892 17.9876 27.3499C18.0793 27.4107 18.1868 27.4431 18.2967 27.4432C18.3733 27.4453 18.4495 27.4312 18.5203 27.402C18.5912 27.3727 18.6551 27.329 18.7081 27.2734C18.761 27.2179 18.8017 27.1519 18.8276 27.0797C18.8535 27.0074 18.864 26.9305 18.8584 26.854Z" fill="#263238"/>
<path id="Vector_61" d="M19.0042 28.2267L19.1014 27.9918C19.1709 28.0458 19.2568 28.074 19.3447 28.0716C19.5039 28.0716 19.5924 27.9697 19.5924 27.7792V26.007H19.8931V27.7482C19.9018 27.8211 19.8943 27.895 19.871 27.9647C19.8478 28.0343 19.8094 28.098 19.7586 28.1509C19.7078 28.2039 19.646 28.245 19.5774 28.2711C19.5089 28.2972 19.4355 28.3077 19.3624 28.302C19.2381 28.3148 19.1129 28.2884 19.0042 28.2267ZM19.5393 25.524C19.5393 25.4975 19.5446 25.4712 19.5548 25.4467C19.5651 25.4222 19.5802 25.4001 19.5991 25.3815C19.6181 25.3629 19.6406 25.3483 19.6652 25.3386C19.6899 25.3288 19.7162 25.3241 19.7427 25.3247C19.7698 25.3228 19.7969 25.3266 19.8223 25.3359C19.8478 25.3451 19.8711 25.3596 19.8906 25.3784C19.9102 25.3971 19.9256 25.4198 19.936 25.4449C19.9463 25.4699 19.9513 25.4969 19.9506 25.524C19.9506 25.5781 19.9292 25.6299 19.891 25.6682C19.8529 25.7064 19.8011 25.7279 19.7472 25.7279C19.6932 25.7279 19.6414 25.7064 19.6033 25.6682C19.5651 25.6299 19.5437 25.5781 19.5437 25.524H19.5393Z" fill="#263238"/>
<path id="Vector_62" d="M21.9633 26.965H20.6365C20.6563 27.1084 20.7301 27.2387 20.8428 27.3293C20.9554 27.4199 21.0984 27.464 21.2424 27.4524C21.3316 27.4554 21.4204 27.4391 21.5028 27.4047C21.5852 27.3703 21.6593 27.3186 21.72 27.253L21.8881 27.448C21.8043 27.5381 21.702 27.609 21.5882 27.6556C21.4745 27.7023 21.3519 27.7237 21.2291 27.7182C21.1138 27.725 20.9984 27.7078 20.8901 27.6676C20.7818 27.6274 20.6829 27.5652 20.5998 27.4849C20.5167 27.4045 20.4511 27.3078 20.4072 27.2008C20.3633 27.0938 20.342 26.9788 20.3446 26.8631C20.3403 26.7516 20.3589 26.6404 20.3993 26.5364C20.4397 26.4324 20.501 26.3377 20.5793 26.2584C20.6577 26.1791 20.7515 26.1167 20.8549 26.0752C20.9583 26.0336 21.0691 26.0138 21.1805 26.0169C21.2879 26.018 21.394 26.0407 21.4925 26.0838C21.5909 26.1268 21.6797 26.1892 21.7536 26.2674C21.8275 26.3455 21.8849 26.4377 21.9224 26.5386C21.96 26.6394 21.9769 26.7468 21.9721 26.8543C21.9723 26.8914 21.9693 26.9284 21.9633 26.965ZM20.6365 26.748H21.7068C21.69 26.6176 21.6264 26.4979 21.5279 26.4111C21.4295 26.3244 21.3028 26.2765 21.1716 26.2765C21.0405 26.2765 20.9138 26.3244 20.8153 26.4111C20.7168 26.4979 20.6532 26.6176 20.6365 26.748Z" fill="#263238"/>
<path id="Vector_63" d="M22.2326 26.8538C22.2306 26.7387 22.2523 26.6244 22.2966 26.5181C22.3408 26.4119 22.4066 26.3159 22.4897 26.2364C22.5728 26.1569 22.6715 26.0955 22.7795 26.0561C22.8875 26.0167 23.0025 26.0002 23.1172 26.0076C23.2515 25.9993 23.3855 26.0279 23.5048 26.0904C23.624 26.1529 23.724 26.2468 23.7938 26.362L23.5638 26.5082C23.5165 26.434 23.451 26.373 23.3737 26.3312C23.2963 26.2893 23.2095 26.2679 23.1216 26.269C22.975 26.2817 22.8384 26.3491 22.739 26.4578C22.6395 26.5665 22.5843 26.7086 22.5843 26.856C22.5843 27.0035 22.6395 27.1455 22.739 27.2542C22.8384 27.3629 22.975 27.4303 23.1216 27.4431C23.2095 27.4441 23.2963 27.4227 23.3737 27.3808C23.451 27.339 23.5165 27.2781 23.5638 27.2038L23.7938 27.35C23.7235 27.4651 23.6235 27.5591 23.5045 27.6222C23.3855 27.6853 23.2517 27.7153 23.1172 27.7089C23.0019 27.7157 22.8864 27.6984 22.7781 27.6582C22.6698 27.6181 22.571 27.5559 22.4879 27.4755C22.4048 27.3952 22.3392 27.2984 22.2952 27.1914C22.2513 27.0844 22.23 26.9695 22.2326 26.8538Z" fill="#263238"/>
<path id="Vector_64" d="M25.1342 27.5977C25.0307 27.6785 24.9026 27.7207 24.7715 27.7173C24.7006 27.7256 24.6287 27.7179 24.5611 27.6947C24.4936 27.6715 24.4321 27.6334 24.3812 27.5833C24.3303 27.5331 24.2912 27.4721 24.2669 27.4049C24.2426 27.3376 24.2337 27.2657 24.2408 27.1945V26.2774H23.9622V26.0293H24.2408V25.666H24.5415V26.0293H25.0192V26.2774H24.5415V27.1635C24.5369 27.1998 24.5403 27.2366 24.5515 27.2713C24.5627 27.3061 24.5815 27.3379 24.6064 27.3646C24.6313 27.3913 24.6618 27.4121 24.6957 27.4256C24.7296 27.4391 24.7661 27.4449 24.8025 27.4427C24.8888 27.444 24.973 27.4159 25.0413 27.3629L25.1342 27.5977Z" fill="#263238"/>
<path id="Vector_65" d="M26.2 26.2284C26.2 26.1696 26.2233 26.1133 26.2648 26.0717C26.3063 26.0302 26.3626 26.0068 26.4213 26.0068C26.48 26.0068 26.5363 26.0302 26.5778 26.0717C26.6193 26.1133 26.6426 26.1696 26.6426 26.2284C26.6426 26.2871 26.6193 26.3435 26.5778 26.385C26.5363 26.4265 26.48 26.4499 26.4213 26.4499C26.3626 26.4499 26.3063 26.4265 26.2648 26.385C26.2233 26.3435 26.2 26.2871 26.2 26.2284ZM26.2 27.4999C26.2009 27.4581 26.2141 27.4174 26.2379 27.383C26.2618 27.3486 26.2953 27.3221 26.3342 27.3066C26.3731 27.2912 26.4156 27.2876 26.4565 27.2963C26.4975 27.305 26.5349 27.3256 26.5642 27.3555C26.5934 27.3854 26.6132 27.4233 26.6211 27.4645C26.6289 27.5056 26.6245 27.5481 26.6083 27.5867C26.5921 27.6253 26.5648 27.6583 26.53 27.6815C26.4952 27.7046 26.4543 27.717 26.4125 27.717C26.3842 27.717 26.3562 27.7114 26.3301 27.7004C26.304 27.6895 26.2804 27.6734 26.2606 27.6532C26.2409 27.633 26.2253 27.609 26.2149 27.5827C26.2045 27.5563 26.1994 27.5282 26.2 27.4999Z" fill="#263238"/>
<path id="Vector_66" d="M53.7352 12.4012C53.7352 12.4632 46.6944 12.5163 38.0084 12.5163C29.3223 12.5163 22.2771 12.4632 22.2771 12.4012C22.2771 12.3392 29.3179 12.2861 38.0084 12.2861C46.6988 12.2861 53.7352 12.3392 53.7352 12.4012Z" fill="#263238"/>
<path id="Vector_67" d="M67.7815 19.5916C67.7815 19.6536 57.6095 19.7067 45.0315 19.7067C32.4536 19.7067 22.2771 19.6536 22.2771 19.5916C22.2771 19.5297 32.4491 19.4766 45.0315 19.4766C57.6139 19.4766 67.7815 19.5253 67.7815 19.5916Z" fill="#263238"/>
<path id="Vector_68" d="M50.9578 26.7251C50.8903 26.7442 50.82 26.7517 50.75 26.7472H50.1485L47.9372 26.7827C46.0752 26.7827 43.5145 26.8181 40.6752 26.8181C37.8359 26.8181 35.2708 26.8181 33.4088 26.7827L31.1975 26.7472H30.596C30.526 26.7523 30.4556 26.7448 30.3882 26.7251C30.4569 26.7129 30.5273 26.7129 30.596 26.7251H31.1975L33.4088 26.6897C35.2708 26.6897 37.8315 26.6543 40.6752 26.6543C43.519 26.6543 46.0752 26.6543 47.9372 26.6897L50.1485 26.7251H50.75C50.8187 26.7134 50.889 26.7134 50.9578 26.7251Z" fill="#263238"/>
<path id="Vector_69" d="M128.305 30.6063C128.305 30.6683 101.871 30.7214 69.2716 30.7214C36.6724 30.7214 10.2207 30.6683 10.2207 30.6063C10.2207 30.5443 36.6459 30.4912 69.2539 30.4912C101.862 30.4912 128.305 30.5443 128.305 30.6063Z" fill="#E0E0E0"/>
<path id="Vector_70" d="M128.305 22.826C128.305 22.888 101.862 22.9411 69.2497 22.9411C36.6372 22.9411 10.1943 22.888 10.1943 22.826C10.1943 22.7641 36.6284 22.7109 69.2497 22.7109C101.871 22.7109 128.305 22.7596 128.305 22.826Z" fill="#E0E0E0"/>
<path id="Vector_71" d="M128.305 15.994C128.305 16.0604 101.871 16.1091 69.2716 16.1091C36.6724 16.1091 10.2207 16.0604 10.2207 15.994C10.2207 15.9276 36.6459 15.8789 69.2539 15.8789C101.862 15.8789 128.305 15.932 128.305 15.994Z" fill="#E0E0E0"/>
<path id="Vector_72" d="M24.8599 40.1004C23.6147 40.2143 22.3637 40.2528 21.1139 40.2155C19.8626 40.2528 18.6102 40.2144 17.3635 40.1004C18.6098 39.9807 19.8625 39.9408 21.1139 39.9809C22.3638 39.9409 23.615 39.9808 24.8599 40.1004Z" fill="#263238"/>
<path id="Vector_73" d="M49.516 45.7235C49.516 45.7854 42.3204 45.8386 33.4398 45.8386C24.5591 45.8386 17.3635 45.7854 17.3635 45.7235C17.3635 45.6615 24.5591 45.6084 33.4398 45.6084C42.3204 45.6084 49.516 45.6615 49.516 45.7235Z" fill="#263238"/>
<path id="Vector_74" d="M10.221 0.106333L129.53 0H129.632V0.106333C129.632 24.7843 129.632 52.2668 129.632 81.1848V81.3088H129.517L10.221 81.2778H10.1282V81.1848C10.1857 31.82 10.221 0.863951 10.221 0.106333C10.221 0.863951 10.2564 31.82 10.3139 81.1848L10.221 81.0917H129.53L129.415 81.2069C129.415 52.2978 129.415 24.8153 129.415 0.128485L129.521 0.234817L10.221 0.106333Z" fill="#263238"/>
</g>
</g>
<g id="freepik--Desk--inject-135">
<path id="Vector_75" d="M78.0242 65H136.138C136.64 65 137.121 65.1998 137.476 65.5554C137.831 65.911 138.03 66.3933 138.03 66.8963V103.125C138.03 104.234 137.591 105.298 136.808 106.082C136.025 106.866 134.963 107.307 133.855 107.307H80.3063C79.199 107.307 78.1371 106.866 77.3542 106.082C76.5712 105.298 76.1313 104.234 76.1313 103.125V66.8963C76.1313 66.3933 76.3308 65.911 76.6858 65.5554C77.0407 65.1998 77.5222 65 78.0242 65Z" fill="#407BFF"/>
<path id="Vector_76" d="M133.855 107.307H133.988C134.077 107.307 134.205 107.307 134.377 107.271C134.884 107.201 135.374 107.041 135.823 106.797C136.557 106.391 137.151 105.773 137.531 105.025C137.773 104.554 137.924 104.041 137.973 103.514C138.008 102.951 137.973 102.34 137.973 101.698C137.973 96.5449 137.951 89.1016 137.937 79.8995C137.937 77.6015 137.937 75.1943 137.937 72.6777C137.937 71.4224 137.937 70.142 137.937 68.8365V66.8649C137.931 66.544 137.839 66.2306 137.672 65.9566C137.505 65.6827 137.269 65.458 136.987 65.3054C136.698 65.1567 136.377 65.0835 136.053 65.0927H128.699H119.827H80.3151H78.3293C78.1182 65.0811 77.9064 65.09 77.6969 65.1193C77.2913 65.1904 76.9232 65.401 76.656 65.7148C76.3888 66.0286 76.2392 66.4259 76.233 66.8383C76.233 68.5706 76.233 70.2941 76.233 72.0043V82.1014C76.233 88.7251 76.233 95.1094 76.233 101.197C76.233 101.95 76.233 102.721 76.233 103.452C76.2975 104.176 76.5531 104.87 76.9735 105.463C77.394 106.055 77.9642 106.525 78.6257 106.824C79.281 107.105 79.9929 107.228 80.7043 107.183H89.0763H104.113L125.868 107.218H131.786L125.868 107.24L104.113 107.276H89.0763H80.7264C79.9864 107.322 79.2459 107.194 78.5637 106.903C77.8669 106.591 77.2662 106.098 76.8237 105.475C76.3812 104.851 76.1132 104.121 76.0473 103.359C76.0075 102.593 76.0473 101.848 76.0251 101.086C76.0251 94.9987 76.0251 88.6143 76.0251 81.9907C76.0251 78.6826 76.0251 75.3168 76.0251 71.8935C76.0251 70.1834 76.0251 68.4599 76.0251 66.7231C76.0326 66.2574 76.2018 65.8089 76.5037 65.4547C76.8056 65.1006 77.2213 64.8629 77.6792 64.7826C77.9018 64.7505 78.1269 64.7402 78.3515 64.7515H80.3195H119.831H136.058C136.414 64.7405 136.768 64.8214 137.084 64.9864C137.394 65.1562 137.654 65.405 137.837 65.7077C138.02 66.0103 138.12 66.356 138.128 66.7098V68.6858C138.128 69.9943 138.128 71.2747 138.128 72.5271C138.128 75.0377 138.128 77.445 138.128 79.7488C138.128 88.951 138.097 96.3943 138.088 101.547C138.088 102.194 138.088 102.796 138.088 103.372C138.041 103.907 137.891 104.428 137.646 104.905C137.254 105.658 136.645 106.276 135.899 106.678C135.443 106.916 134.946 107.067 134.435 107.121C134.245 107.194 134.052 107.256 133.855 107.307Z" fill="#263238"/>
<path id="Vector_77" d="M112.441 107.307H101.69C101.69 107.307 98.3858 112.831 101.69 116.168H112.826C112.826 116.168 107.328 112.548 112.441 107.307Z" fill="#407BFF"/>
<g id="Group_2" opacity="0.3">
<path id="Vector_78" d="M101.69 107.308L101.146 108.402L110.999 109.173C111.448 108.527 111.93 107.905 112.441 107.308H101.69Z" fill="black"/>
</g>
<path id="Vector_79" d="M108.399 104.422C109.073 104.422 109.619 103.875 109.619 103.199C109.619 102.524 109.073 101.977 108.399 101.977C107.724 101.977 107.178 102.524 107.178 103.199C107.178 103.875 107.724 104.422 108.399 104.422Z" fill="#FAFAFA"/>
<path id="Vector_80" d="M135.063 67.3301H79.0989V99.5975H135.063V67.3301Z" fill="#FAFAFA"/>
<path id="Vector_81" d="M135.063 99.593C135.063 99.593 135.063 99.3937 135.063 99.0126C135.063 98.6316 135.063 98.0601 135.063 97.3202C135.063 95.8359 135.063 93.6606 135.041 90.8649C135.041 85.2736 135.014 77.2189 134.992 67.33L135.08 67.4186L79.1209 67.4452L79.2359 67.33C79.2359 78.7475 79.2359 89.6554 79.2359 99.593L79.1254 99.4867L119.371 99.5399L130.932 99.5664H134.028H134.824H135.098H134.837H134.054H130.994L119.455 99.5975L79.1342 99.6462H79.0281V99.5354C79.0281 89.5978 79.0281 78.6899 79.0281 67.2724V67.1572H79.1475L135.107 67.1838H135.195V67.2724C135.195 77.1835 135.16 85.2603 135.151 90.8605C135.151 93.6473 135.151 95.8182 135.129 97.298C135.129 98.0276 135.129 98.5858 135.129 98.9728C135.072 99.4069 135.063 99.593 135.063 99.593Z" fill="#263238"/>
<path id="Vector_82" d="M92.8974 70.0596H79.7268V98.8047H92.8974V70.0596Z" fill="#407BFF"/>
<g id="Group_3" opacity="0.4">
<path id="Vector_83" d="M92.8932 80.9414H79.7271V83.5155H92.8932V80.9414Z" fill="black"/>
</g>
<g id="Group_4" opacity="0.4">
<path id="Vector_84" d="M92.893 86.1914H79.7268V88.7655H92.893V86.1914Z" fill="black"/>
</g>
<g id="Group_5" opacity="0.4">
<path id="Vector_85" d="M92.893 92.4678H79.7268V95.3122H92.893V92.4678Z" fill="black"/>
</g>
<path id="Vector_86" d="M90.6065 84.8613C89.1988 84.9754 87.7859 85.0138 86.3741 84.9764C84.9608 85.0137 83.5464 84.9753 82.1372 84.8613C83.5464 84.7474 84.9608 84.7089 86.3741 84.7463C87.7859 84.7089 89.1988 84.7473 90.6065 84.8613Z" fill="#263238"/>
<path id="Vector_87" d="M90.6065 82.1768C89.1988 82.2908 87.7859 82.3292 86.3741 82.2918C84.9608 82.3291 83.5464 82.2907 82.1372 82.1768C83.5464 82.0628 84.9608 82.0244 86.3741 82.0617C87.7859 82.0243 89.1988 82.0627 90.6065 82.1768Z" fill="#263238"/>
<path id="Vector_88" d="M92.8974 95.3133C92.8974 95.3753 89.9784 95.4284 86.374 95.4284C82.7696 95.4284 79.8462 95.3753 79.8462 95.3133C79.8462 95.2513 82.7696 95.1982 86.374 95.1982C89.9784 95.1982 92.8974 95.2513 92.8974 95.3133Z" fill="#263238"/>
<path id="Vector_89" d="M88.6031 87.5732C87.5294 87.6871 86.4492 87.7256 85.3701 87.6883C84.2911 87.7256 83.2108 87.6871 82.1372 87.5732C83.2108 87.4593 84.2911 87.4208 85.3701 87.4581C86.4492 87.4208 87.5294 87.4593 88.6031 87.5732Z" fill="#263238"/>
<path id="Vector_90" d="M89.514 93.581C88.4405 93.6976 87.36 93.736 86.281 93.6961C85.202 93.736 84.1215 93.6976 83.0481 93.581C84.1217 93.4671 85.202 93.4286 86.281 93.4659C87.36 93.4286 88.4403 93.4671 89.514 93.581Z" fill="#263238"/>
<path id="Vector_91" d="M90.6065 90.5464C89.1988 90.6605 87.7859 90.6989 86.3741 90.6615C84.9608 90.6988 83.5464 90.6604 82.1372 90.5464C83.5463 90.4298 84.9608 90.3914 86.3741 90.4313C87.7859 90.3913 89.1989 90.4297 90.6065 90.5464Z" fill="#263238"/>
<path id="Vector_92" d="M90.6065 96.9971C89.1989 97.1138 87.7859 97.1522 86.3741 97.1121C84.9608 97.1521 83.5463 97.1137 82.1372 96.9971C83.5464 96.8831 84.9608 96.8447 86.3741 96.882C87.7859 96.8446 89.1988 96.883 90.6065 96.9971Z" fill="#263238"/>
<path id="Vector_93" d="M86.1351 71.9996C85.4311 72.0009 84.7479 72.2396 84.1958 72.6772C83.6436 73.1147 83.2544 73.7257 83.091 74.4117C82.9276 75.0978 82.9994 75.819 83.2949 76.4592C83.5903 77.0993 84.0923 77.6213 84.7199 77.9409V76.9795C84.7199 76.5871 84.8755 76.2107 85.1525 75.9331C85.4295 75.6556 85.8053 75.4997 86.197 75.4997C86.5888 75.4997 86.9645 75.6556 87.2415 75.9331C87.5186 76.2107 87.6742 76.5871 87.6742 76.9795V77.8656C88.2787 77.5251 88.7534 76.9935 89.0242 76.3538C89.2949 75.7142 89.3463 75.0028 89.1704 74.3307C88.9945 73.6587 88.6011 73.0641 88.0519 72.6399C87.5027 72.2157 86.8286 71.9858 86.1351 71.9863V71.9996ZM86.197 75.2782C85.9784 75.2782 85.7646 75.2132 85.5828 75.0915C85.4009 74.9698 85.2592 74.7968 85.1755 74.5944C85.0919 74.3921 85.07 74.1693 85.1126 73.9545C85.1553 73.7396 85.2606 73.5423 85.4152 73.3874C85.5698 73.2325 85.7669 73.127 85.9813 73.0842C86.1958 73.0415 86.4181 73.0634 86.6201 73.1473C86.8222 73.2311 86.9949 73.3731 87.1164 73.5552C87.2378 73.7374 87.3027 73.9515 87.3027 74.1706C87.3027 74.4643 87.1862 74.7461 86.9789 74.9538C86.7715 75.1615 86.4903 75.2782 86.197 75.2782Z" fill="#FAFAFA"/>
<path id="Vector_94" d="M86.1969 75.501C85.8051 75.501 85.4294 75.6569 85.1524 75.9344C84.8754 76.2119 84.7197 76.5883 84.7197 76.9808V77.9422C85.1791 78.1766 85.6892 78.2937 86.2047 78.2828C86.7201 78.272 87.2249 78.1337 87.674 77.8802V76.9941C87.6752 76.7988 87.6379 76.6052 87.5642 76.4244C87.4906 76.2436 87.382 76.0791 87.2448 75.9404C87.1076 75.8017 86.9444 75.6915 86.7646 75.6161C86.5847 75.5407 86.3918 75.5016 86.1969 75.501Z" fill="#407BFF"/>
<path id="Vector_95" d="M86.1972 73.0635C85.9785 73.0635 85.7648 73.1284 85.5829 73.2501C85.4011 73.3719 85.2594 73.5448 85.1757 73.7472C85.092 73.9496 85.0701 74.1723 85.1128 74.3872C85.1555 74.602 85.2608 74.7994 85.4154 74.9543C85.57 75.1092 85.767 75.2147 85.9815 75.2575C86.196 75.3002 86.4183 75.2783 86.6203 75.1944C86.8224 75.1106 86.995 74.9686 87.1165 74.7865C87.238 74.6043 87.3029 74.3902 87.3029 74.1711C87.3029 73.8773 87.1864 73.5956 86.979 73.3879C86.7717 73.1802 86.4904 73.0635 86.1972 73.0635Z" fill="#407BFF"/>
<path id="Vector_96" d="M89.293 75.1456C89.2664 75.1456 89.293 74.8664 89.1514 74.3879C88.9628 73.718 88.5586 73.1293 88.0016 72.7132C87.6227 72.4277 87.1816 72.2363 86.7146 72.155C86.1811 72.0587 85.6316 72.1061 85.1224 72.2923C84.559 72.4975 84.0704 72.868 83.7205 73.3556C83.3383 73.8739 83.1322 74.5012 83.1322 75.1456C83.1322 75.7899 83.3383 76.4172 83.7205 76.9355C84.0704 77.4231 84.559 77.7937 85.1224 77.9988C85.6316 78.1849 86.1806 78.2338 86.7146 78.1406C87.1814 78.0556 87.622 77.863 88.0016 77.5779C88.5586 77.1618 88.9628 76.5731 89.1514 75.9032C89.2797 75.4247 89.2664 75.1456 89.293 75.1456C89.2986 75.2134 89.2986 75.2815 89.293 75.3494C89.2911 75.5434 89.2674 75.7366 89.2222 75.9253C89.0625 76.6302 88.662 77.257 88.09 77.6975C87.6116 78.07 87.0384 78.3005 86.4357 78.3627C85.8329 78.425 85.2249 78.3166 84.6806 78.0497C84.1364 77.7829 83.6778 77.3685 83.357 76.8535C83.0363 76.3385 82.8662 75.7437 82.8662 75.1367C82.8662 74.5297 83.0363 73.9349 83.357 73.4199C83.6778 72.9049 84.1364 72.4905 84.6806 72.2236C85.2249 71.9568 85.8329 71.8484 86.4357 71.9107C87.0384 71.9729 87.6116 72.2034 88.09 72.5759C88.662 73.0164 89.0625 73.6432 89.2222 74.3481C89.2677 74.5382 89.2914 74.7329 89.293 74.9285C89.2995 75.0007 89.2995 75.0733 89.293 75.1456Z" fill="#FAFAFA"/>
<path id="Vector_97" d="M134.138 79.6777H92.8975V83.5456H134.138V79.6777Z" fill="#EBEBEB"/>
<path id="Vector_98" d="M134.138 70.0596H92.8975V72.0001H134.138V70.0596Z" fill="#F5F5F5"/>
<path id="Vector_99" d="M122.206 70.6387H94.3568C94.1809 70.6387 94.0383 70.7815 94.0383 70.9577V71.0773C94.0383 71.2535 94.1809 71.3963 94.3568 71.3963H122.206C122.382 71.3963 122.524 71.2535 122.524 71.0773V70.9577C122.524 70.7815 122.382 70.6387 122.206 70.6387Z" fill="#E0E0E0"/>
<path id="Vector_100" d="M126.186 70.6387H124.333C124.157 70.6387 124.015 70.7815 124.015 70.9577V71.0773C124.015 71.2535 124.157 71.3963 124.333 71.3963H126.186C126.362 71.3963 126.505 71.2535 126.505 71.0773V70.9577C126.505 70.7815 126.362 70.6387 126.186 70.6387Z" fill="#E0E0E0"/>
<path id="Vector_101" d="M128.137 70.5859H127.823V70.9002H128.137V70.5859Z" fill="#E0E0E0"/>
<path id="Vector_102" d="M128.137 70.998H127.823V71.3123H128.137V70.998Z" fill="#E0E0E0"/>
<path id="Vector_103" d="M128.624 70.5859H128.31V70.9002H128.624V70.5859Z" fill="#E0E0E0"/>
<path id="Vector_104" d="M128.624 70.998H128.31V71.3123H128.624V70.998Z" fill="#E0E0E0"/>
<path id="Vector_105" d="M134.138 72H92.8975V75.8678H134.138V72Z" fill="#E0E0E0"/>
<path id="Vector_106" d="M95.2059 73.2627H94.0383V74.4324H95.2059V73.2627Z" fill="#407BFF"/>
<path id="Vector_107" d="M113.268 73.8436C113.268 73.9056 109.482 73.9587 104.812 73.9587C100.142 73.9587 96.3604 73.9056 96.3604 73.8436C96.3604 73.7816 100.146 73.7285 104.812 73.7285C109.478 73.7285 113.268 73.7772 113.268 73.8436Z" fill="#263238"/>
<path id="Vector_108" d="M129.189 73.816C128.884 73.9273 128.557 73.9667 128.234 73.931C127.912 73.967 127.587 73.9276 127.283 73.816C127.586 73.7018 127.912 73.6623 128.234 73.7009C128.557 73.6626 128.885 73.7021 129.189 73.816Z" fill="#263238"/>
<path id="Vector_109" d="M134.138 83.5107H92.8975V87.3786H134.138V83.5107Z" fill="#FAFAFA"/>
<path id="Vector_110" d="M95.0644 84.7734H93.8835V85.9431H95.0644V84.7734Z" fill="#407BFF"/>
<path id="Vector_111" d="M113.268 85.3358C113.268 85.4022 109.447 85.4509 104.732 85.4509C100.018 85.4509 96.1965 85.4022 96.1965 85.3358C96.1965 85.2694 100.018 85.2207 104.732 85.2207C109.447 85.2207 113.268 85.2915 113.268 85.3358Z" fill="#263238"/>
<path id="Vector_112" d="M129.358 85.3361C129.051 85.4502 128.722 85.4897 128.398 85.4512C128.067 85.4915 127.732 85.452 127.42 85.3361C127.729 85.2248 128.059 85.1854 128.385 85.221C128.713 85.1831 129.047 85.2225 129.358 85.3361Z" fill="#263238"/>
<path id="Vector_113" d="M134.138 87.3203H92.8975V91.1882H134.138V87.3203Z" fill="#E0E0E0"/>
<path id="Vector_114" d="M95.0644 88.583H93.8835V89.7527H95.0644V88.583Z" fill="#407BFF"/>
<path id="Vector_115" d="M113.268 89.1639C113.268 89.2303 109.447 89.279 104.732 89.279C100.018 89.279 96.1965 89.2303 96.1965 89.1639C96.1965 89.0975 100.018 89.0488 104.732 89.0488C109.447 89.0488 113.268 89.1019 113.268 89.1639Z" fill="#263238"/>
<path id="Vector_116" d="M129.357 89.1328C129.051 89.2444 128.722 89.2837 128.398 89.2479C128.072 89.2835 127.742 89.2441 127.434 89.1328C127.742 89.0215 128.072 88.9822 128.398 89.0177C128.722 88.9819 129.051 89.0213 129.357 89.1328Z" fill="#263238"/>
<path id="Vector_117" d="M134.138 91.1309H92.8975V94.9987H134.138V91.1309Z" fill="#FAFAFA"/>
<path id="Vector_118" d="M95.0644 92.3936H93.8835V93.5632H95.0644V92.3936Z" fill="#407BFF"/>
<path id="Vector_119" d="M113.268 92.9735C113.268 93.0354 109.447 93.0886 104.732 93.0886C100.018 93.0886 96.1965 93.0354 96.1965 92.9735C96.1965 92.9115 100.018 92.8584 104.732 92.8584C109.447 92.8584 113.268 92.9071 113.268 92.9735Z" fill="#263238"/>
<path id="Vector_120" d="M129.357 92.9429C129.051 93.0544 128.722 93.0938 128.398 93.0579C128.072 93.0935 127.742 93.0542 127.434 92.9429C127.741 92.829 128.072 92.7896 128.398 92.8278C128.722 92.7893 129.051 92.8287 129.357 92.9429Z" fill="#263238"/>
<path id="Vector_121" d="M134.138 94.9414H92.8975V98.8093H134.138V94.9414Z" fill="#EBEBEB"/>
<path id="Vector_122" d="M95.0644 96.1992H93.8835V97.3689H95.0644V96.1992Z" fill="#407BFF"/>
<path id="Vector_123" d="M113.268 96.784C113.268 96.846 109.447 96.8991 104.732 96.8991C100.018 96.8991 96.1965 96.846 96.1965 96.784C96.1965 96.7221 100.018 96.6689 104.732 96.6689C109.447 96.6689 113.268 96.7176 113.268 96.784Z" fill="#263238"/>
<path id="Vector_124" d="M129.357 96.749C129.051 96.8632 128.722 96.9026 128.398 96.8641C128.072 96.9023 127.741 96.8629 127.434 96.749C127.742 96.6377 128.072 96.5984 128.398 96.6339C128.722 96.5981 129.051 96.6375 129.357 96.749Z" fill="#263238"/>
<path id="Vector_125" d="M134.138 75.8145H92.8931V79.6823H134.138V75.8145Z" fill="#FAFAFA"/>
<path id="Vector_126" d="M95.2059 77.0771H94.0383V78.2468H95.2059V77.0771Z" fill="#407BFF"/>
<path id="Vector_127" d="M106.015 77.658C106.015 77.7244 103.848 77.7731 101.177 77.7731C98.5055 77.7731 96.3384 77.7244 96.3384 77.658C96.3384 77.5917 98.5055 77.543 101.177 77.543C103.848 77.543 106.015 77.5961 106.015 77.658Z" fill="#263238"/>
<path id="Vector_128" d="M129.189 77.772C128.884 77.8834 128.557 77.9227 128.234 77.8871C127.912 77.923 127.587 77.8836 127.283 77.772C127.586 77.6578 127.912 77.6183 128.234 77.657C128.557 77.6187 128.885 77.6581 129.189 77.772Z" fill="#263238"/>
<path id="Vector_129" d="M129.189 81.525C128.884 81.6363 128.557 81.6757 128.234 81.64C127.912 81.676 127.587 81.6366 127.283 81.525C127.586 81.4107 127.912 81.3713 128.234 81.4099C128.557 81.3716 128.885 81.411 129.189 81.525Z" fill="#263238"/>
<path id="Vector_130" d="M95.2059 80.9404H94.0383V82.1101H95.2059V80.9404Z" fill="#407BFF"/>
<path id="Vector_131" d="M119.65 81.5213C119.65 81.5833 114.431 81.6364 107.996 81.6364C101.561 81.6364 96.3384 81.5833 96.3384 81.5213C96.3384 81.4594 101.557 81.4062 107.996 81.4062C114.436 81.4062 119.65 81.4549 119.65 81.5213Z" fill="#263238"/>
<path id="Vector_132" d="M81.5621 69.1113C81.5621 69.2041 81.5253 69.2931 81.4597 69.3588C81.3942 69.4244 81.3054 69.4613 81.2127 69.4613C81.1664 69.4619 81.1205 69.4533 81.0776 69.4359C81.0347 69.4186 80.9957 69.3929 80.9628 69.3604C80.9299 69.3278 80.9037 69.289 80.8859 69.2463C80.8681 69.2035 80.8589 69.1576 80.8589 69.1113C80.8589 69.0647 80.868 69.0186 80.8858 68.9756C80.9036 68.9326 80.9297 68.8936 80.9625 68.8606C80.9954 68.8277 81.0344 68.8016 81.0773 68.7838C81.1202 68.766 81.1662 68.7568 81.2127 68.7568C81.259 68.7568 81.3047 68.766 81.3474 68.7839C81.3901 68.8018 81.4288 68.8279 81.4613 68.8609C81.4938 68.8939 81.5195 68.933 81.5368 68.976C81.5541 69.019 81.5627 69.0649 81.5621 69.1113Z" fill="#263238"/>
<path id="Vector_133" d="M82.9376 69.1113C82.9376 69.2053 82.9003 69.2954 82.834 69.3619C82.7676 69.4284 82.6776 69.4657 82.5838 69.4657C82.4899 69.4657 82.4 69.4284 82.3336 69.3619C82.2673 69.2954 82.23 69.2053 82.23 69.1113C82.23 69.0173 82.2673 68.9271 82.3336 68.8606C82.4 68.7942 82.4899 68.7568 82.5838 68.7568C82.6776 68.7568 82.7676 68.7942 82.834 68.8606C82.9003 68.9271 82.9376 69.0173 82.9376 69.1113Z" fill="#263238"/>
<path id="Vector_134" d="M84.3087 69.1113C84.3087 69.1576 84.2995 69.2035 84.2817 69.2463C84.2639 69.289 84.2377 69.3278 84.2048 69.3604C84.1719 69.3929 84.1329 69.4186 84.09 69.4359C84.047 69.4533 84.0011 69.4619 83.9549 69.4613C83.8622 69.4613 83.7734 69.4244 83.7078 69.3588C83.6423 69.2931 83.6055 69.2041 83.6055 69.1113C83.6049 69.0649 83.6135 69.019 83.6308 68.976C83.6481 68.933 83.6738 68.8939 83.7063 68.8609C83.7388 68.8279 83.7775 68.8018 83.8202 68.7839C83.8628 68.766 83.9086 68.7568 83.9549 68.7568C84.0014 68.7568 84.0474 68.766 84.0903 68.7838C84.1332 68.8016 84.1722 68.8277 84.2051 68.8606C84.2379 68.8936 84.264 68.9326 84.2818 68.9756C84.2995 69.0186 84.3087 69.0647 84.3087 69.1113Z" fill="#263238"/>
<path id="Vector_135" d="M134.138 98.8044C134.138 98.0955 134.138 86.9129 134.089 68.1187L134.138 68.1718H79.7398L79.8106 68.1054C79.8106 78.9557 79.8106 89.3364 79.8106 98.7911L79.7442 98.7247L134.143 98.7911L79.7442 98.8576H79.6558V98.7911C79.6558 89.3364 79.6558 78.9557 79.6558 68.1054V68.0566H79.7265H134.125H134.178V68.1098C134.16 86.9129 134.143 98.1 134.138 98.8044Z" fill="#263238"/>
<path id="Vector_136" d="M160.74 186.732H157.415L149.998 120H154.359L160.74 186.732Z" fill="#455A64"/>
<path id="Vector_137" d="M139.711 186.732H136.385L128.911 120H133.276L139.711 186.732Z" fill="#455A64"/>
<path id="Vector_138" d="M161.762 120H71.4786H44.5271V116.146H161.762V120Z" fill="#455A64"/>
<path id="Vector_139" d="M68.8604 186.732H72.1862L79.3199 120H74.9547L68.8604 186.732Z" fill="#263238"/>
<path id="Vector_140" d="M40.3257 186.732H43.6515L51.1213 120H46.7562L40.3257 186.732Z" fill="#263238"/>
<path id="Vector_141" d="M80.6467 116.146H44.5271V120H80.6467V116.146Z" fill="#263238"/>
<path id="Vector_142" d="M122.131 114.994H97.1875V116.146H122.131V114.994Z" fill="#263238"/>
</g>
<g id="freepik--Character--inject-135">
<path id="Vector_143" d="M150.449 171.551L152.806 184.537L136.708 187.558C136.513 185.999 144.266 181.356 144.266 181.356L142.418 173.101L150.449 171.551Z" fill="#407BFF"/>
<g id="Group_6" opacity="0.6">
<path id="Vector_144" d="M149.092 179.707C149.255 179.725 149.407 179.802 149.517 179.925C149.627 180.047 149.688 180.207 149.689 180.372C149.676 180.536 149.602 180.69 149.48 180.801C149.358 180.912 149.199 180.972 149.034 180.97C148.861 180.949 148.701 180.866 148.585 180.735C148.47 180.604 148.406 180.436 148.406 180.261C148.435 180.09 148.53 179.937 148.671 179.835C148.812 179.733 148.986 179.69 149.158 179.716" fill="white"/>
</g>
<g id="Group_7" opacity="0.6">
<path id="Vector_145" d="M152.806 184.537L152.519 183.234L137.181 186.619C137.181 186.619 136.522 187.062 136.699 187.559L152.806 184.537Z" fill="white"/>
</g>
<path id="Vector_146" d="M143.983 181.307C143.983 181.387 144.399 181.347 144.837 181.529C145.275 181.71 145.536 182.003 145.602 181.972C145.668 181.941 145.469 181.498 144.938 181.285C144.408 181.072 143.952 181.236 143.983 181.307Z" fill="#263238"/>
<path id="Vector_147" d="M142.422 182.322C142.422 182.402 142.785 182.472 143.117 182.765C143.448 183.057 143.59 183.385 143.665 183.367C143.74 183.35 143.709 182.898 143.294 182.552C142.878 182.207 142.413 182.247 142.422 182.322Z" fill="#263238"/>
<path id="Vector_148" d="M141.843 184.528C141.918 184.528 141.953 184.12 141.67 183.726C141.387 183.331 140.989 183.229 140.967 183.283C140.945 183.336 141.219 183.544 141.445 183.867C141.67 184.191 141.763 184.536 141.843 184.528Z" fill="#263238"/>
<path id="Vector_149" d="M143.784 179.379C143.829 179.441 144.169 179.269 144.62 179.215C145.071 179.162 145.443 179.238 145.469 179.162C145.496 179.087 145.116 178.866 144.585 178.937C144.054 179.007 143.718 179.322 143.784 179.379Z" fill="#263238"/>
<path id="Vector_150" d="M143.784 177.39C144.063 177.414 144.343 177.36 144.594 177.235C144.874 177.128 145.142 176.988 145.39 176.818C145.536 176.716 145.675 176.603 145.806 176.482C145.887 176.415 145.957 176.335 146.013 176.247C146.059 176.18 146.08 176.098 146.072 176.017C146.064 175.936 146.028 175.861 145.969 175.804C145.92 175.757 145.86 175.722 145.795 175.702C145.73 175.682 145.661 175.677 145.593 175.689C145.491 175.708 145.391 175.74 145.297 175.786C145.133 175.861 144.977 175.95 144.828 176.052C144.579 176.227 144.358 176.439 144.174 176.681C143.868 177.097 143.793 177.416 143.824 177.43C143.855 177.443 144.001 177.168 144.328 176.809C144.518 176.602 144.733 176.421 144.97 176.269C145.11 176.18 145.258 176.103 145.412 176.039C145.576 175.959 145.717 175.932 145.779 175.999C145.841 176.065 145.801 176.039 145.779 176.092C145.738 176.157 145.687 176.215 145.629 176.265C145.5 176.384 145.372 176.495 145.248 176.592C145.02 176.762 144.778 176.91 144.523 177.035C144.27 177.138 144.023 177.256 143.784 177.39Z" fill="#263238"/>
<path id="Vector_151" d="M143.917 177.492C144.027 177.233 144.051 176.945 143.983 176.672C143.944 176.37 143.851 176.078 143.709 175.808C143.625 175.651 143.526 175.503 143.413 175.365C143.349 175.267 143.261 175.186 143.157 175.132C143.053 175.077 142.937 175.051 142.82 175.055C142.749 175.07 142.683 175.105 142.631 175.156C142.58 175.207 142.544 175.272 142.528 175.343C142.504 175.445 142.493 175.549 142.497 175.653C142.505 175.839 142.539 176.022 142.599 176.198C142.701 176.493 142.874 176.758 143.103 176.969C143.492 177.328 143.842 177.359 143.842 177.332C143.842 177.306 143.559 177.186 143.24 176.832C143.058 176.626 142.924 176.382 142.847 176.118C142.799 175.966 142.773 175.808 142.771 175.649C142.771 175.472 142.802 175.321 142.869 175.33C142.935 175.339 143.112 175.414 143.2 175.538C143.306 175.664 143.401 175.799 143.483 175.941C143.621 176.184 143.726 176.445 143.793 176.717C143.904 177.168 143.873 177.492 143.917 177.492Z" fill="#263238"/>
<path id="Vector_152" d="M131.671 173.643L134.205 186.597L118.133 189.832C117.921 188.277 125.612 183.514 125.612 183.514L123.653 175.277L131.671 173.643Z" fill="#407BFF"/>
<g id="Group_8" opacity="0.6">
<path id="Vector_153" d="M130.441 181.817C130.605 181.832 130.758 181.908 130.87 182.029C130.981 182.15 131.045 182.308 131.047 182.473C131.038 182.638 130.966 182.793 130.846 182.906C130.725 183.019 130.566 183.081 130.401 183.08C130.225 183.064 130.061 182.981 129.942 182.849C129.824 182.717 129.761 182.544 129.765 182.366C129.791 182.195 129.883 182.042 130.021 181.938C130.159 181.835 130.332 181.79 130.503 181.812" fill="white"/>
</g>
<g id="Group_9" opacity="0.6">
<path id="Vector_154" d="M134.205 186.597L133.896 185.299L118.607 188.888C118.607 188.888 117.952 189.331 118.133 189.831L134.205 186.597Z" fill="white"/>
</g>
<path id="Vector_155" d="M125.338 183.482C125.338 183.562 125.753 183.518 126.191 183.695C126.629 183.872 126.899 184.138 126.965 184.111C127.032 184.085 126.824 183.637 126.289 183.434C125.753 183.23 125.307 183.416 125.338 183.482Z" fill="#263238"/>
<path id="Vector_156" d="M123.79 184.523C123.79 184.603 124.157 184.665 124.488 184.944C124.82 185.223 124.97 185.56 125.046 185.542C125.121 185.524 125.085 185.068 124.665 184.727C124.245 184.386 123.776 184.448 123.79 184.523Z" fill="#263238"/>
<path id="Vector_157" d="M123.241 186.735C123.312 186.735 123.343 186.322 123.055 185.933C122.768 185.543 122.365 185.445 122.348 185.521C122.33 185.596 122.6 185.773 122.83 186.101C123.06 186.429 123.162 186.743 123.241 186.735Z" fill="#263238"/>
<path id="Vector_158" d="M125.099 181.558C125.143 181.62 125.483 181.443 125.93 181.381C126.377 181.319 126.757 181.381 126.784 181.319C126.81 181.257 126.421 181.032 125.899 181.107C125.377 181.182 125.046 181.505 125.099 181.558Z" fill="#263238"/>
<path id="Vector_159" d="M125.094 179.57C125.373 179.593 125.652 179.536 125.899 179.406C126.18 179.291 126.446 179.142 126.691 178.963C126.835 178.86 126.973 178.748 127.102 178.627C127.182 178.558 127.251 178.477 127.306 178.387C127.351 178.32 127.371 178.239 127.363 178.158C127.355 178.077 127.319 178.001 127.262 177.944C127.211 177.897 127.15 177.863 127.084 177.844C127.018 177.825 126.949 177.821 126.881 177.833C126.778 177.852 126.678 177.886 126.585 177.935C126.423 178.013 126.268 178.103 126.121 178.206C125.875 178.385 125.657 178.6 125.475 178.844C125.174 179.264 125.103 179.583 125.134 179.597C125.165 179.61 125.307 179.331 125.63 178.968C125.818 178.759 126.032 178.574 126.266 178.418C126.408 178.33 126.556 178.251 126.709 178.183C126.868 178.104 127.014 178.073 127.071 178.144C127.129 178.214 127.098 178.179 127.071 178.237C127.031 178.302 126.98 178.36 126.921 178.409C126.803 178.527 126.678 178.637 126.545 178.737C126.321 178.908 126.081 179.056 125.829 179.18C125.576 179.295 125.331 179.425 125.094 179.57Z" fill="#263238"/>
<path id="Vector_160" d="M125.209 179.663C125.313 179.402 125.331 179.115 125.262 178.843C125.218 178.541 125.121 178.248 124.975 177.979C124.889 177.822 124.789 177.674 124.674 177.536C124.608 177.439 124.519 177.361 124.415 177.308C124.31 177.255 124.194 177.23 124.077 177.235C124.006 177.252 123.941 177.288 123.89 177.34C123.838 177.391 123.802 177.456 123.785 177.527C123.763 177.629 123.756 177.734 123.763 177.838C123.774 178.023 123.815 178.205 123.882 178.378C123.986 178.67 124.161 178.932 124.391 179.14C124.789 179.495 125.134 179.521 125.138 179.495C125.143 179.468 124.851 179.353 124.533 179.003C124.347 178.799 124.208 178.557 124.126 178.294C124.076 178.142 124.049 177.984 124.046 177.824C124.046 177.651 124.073 177.501 124.139 177.505C124.205 177.51 124.382 177.589 124.475 177.709C124.582 177.834 124.678 177.967 124.762 178.108C124.903 178.349 125.01 178.609 125.081 178.879C125.209 179.348 125.174 179.658 125.209 179.663Z" fill="#263238"/>
<path id="Vector_161" d="M141.047 176.234L134.802 141.383C134.495 139.663 134.648 137.891 135.244 136.248C135.934 134.318 137.202 132.648 138.874 131.465C140.547 130.283 142.542 129.647 144.589 129.643H166.632L181.032 136.036C181.032 137.269 180.778 138.49 180.285 139.62C179.793 140.751 179.071 141.767 178.168 142.604C177.264 143.442 176.197 144.083 175.033 144.488C173.87 144.892 172.636 145.051 171.408 144.954L147.889 143.107L151.276 174.674L141.047 176.234Z" fill="#263238"/>
<path id="Vector_162" d="M122.817 178.077L115.687 141.383C115.383 139.663 115.535 137.892 116.129 136.248C116.819 134.318 118.087 132.648 119.759 131.465C121.432 130.283 123.428 129.647 125.475 129.643H147.517L161.917 136.049V145.725L128.769 143.12L133.108 175.729L122.817 178.077Z" fill="#263238"/>
<path id="Vector_163" d="M133.112 175.72C133.112 175.72 133.081 175.587 133.037 175.33C132.993 175.073 132.94 174.674 132.869 174.2C132.723 173.204 132.524 171.79 132.277 170.053C131.799 166.509 131.144 161.697 130.419 156.359C129.751 151.233 129.141 146.572 128.69 143.12L128.725 143.182C127.146 142.092 125.948 141.118 125.085 140.484L124.099 139.749C123.977 139.671 123.862 139.584 123.754 139.487L123.851 139.54L124.126 139.709C124.36 139.864 124.705 140.099 125.138 140.409C126.023 141.02 127.239 141.977 128.818 143.041L128.849 143.063V143.098C129.313 146.55 129.946 151.206 130.64 156.332C131.339 161.671 131.967 166.522 132.431 170.036C132.648 171.772 132.825 173.186 132.949 174.192C133.002 174.666 133.046 175.042 133.077 175.321C133.101 175.453 133.113 175.586 133.112 175.72Z" fill="#455A64"/>
<path id="Vector_164" d="M112.247 115.074L113.808 112.141C113.898 112.006 114.021 111.897 114.166 111.824C114.311 111.751 114.473 111.717 114.635 111.725L115.334 111.756L116.523 110.644H117.912L118.982 109.931L123.104 110.724L126.501 111.636L124.568 115.464L122.631 115.057L119.376 114.999C118.435 114.982 117.537 114.603 116.868 113.94C116.288 113.371 115.509 113.053 114.697 113.054C114.697 113.054 113.675 115.354 112.247 115.074Z" fill="#FFBE9D"/>
<path id="Vector_165" d="M159.264 70.885L159.33 92.1027L150.242 92.5458L149.976 87.3753C149.976 87.3753 146.748 88.0178 145.916 85.0139C145.385 83.0955 145.518 68.2754 145.518 68.2754L159.264 70.885Z" fill="#FFBE9D"/>
<path id="Vector_166" d="M159.4 87.4995C160.369 86.4938 160.816 85.0937 161.041 83.7158C161.267 82.338 161.302 80.9291 161.607 79.5645C161.921 78.129 162.527 76.7732 162.832 75.3377C163.138 73.9023 163.115 72.2984 162.266 71.1022C162.266 71.1022 161.705 69.4585 159.308 69.33C159.308 69.33 157.269 66.0248 154.257 66.3128C150.166 66.7027 150.055 65.4976 147.234 65.0545C146.902 64.9743 146.557 64.9609 146.219 65.015C145.882 65.069 145.558 65.1896 145.267 65.3696C144.977 65.5496 144.725 65.7856 144.525 66.0638C144.326 66.342 144.184 66.6571 144.107 66.9907C144.107 66.9907 142.661 68.0673 142.594 69.6224V69.6623C142.573 70.4309 142.799 71.1862 143.239 71.8159C143.68 72.4456 144.311 72.9162 145.04 73.1579L145.584 73.3396C146.113 73.4654 146.605 73.7126 147.022 74.0618C147.592 74.6333 147.685 75.5194 147.654 76.3258C147.623 77.1321 147.512 77.965 147.782 78.7227C147.875 78.9796 148.096 79.2632 148.362 79.1923C148.627 79.1214 148.662 78.6695 148.693 78.3416C148.786 77.3935 150.02 76.6713 150.86 77.3669C151.125 77.5671 151.314 77.8522 151.394 78.1747C151.475 78.4972 151.442 78.8376 151.303 79.1391C150.984 79.8037 150.29 80.3265 150.157 81.0708C149.932 82.3158 151.391 83.4057 151.948 84.0836C152.139 84.328 152.352 84.5536 152.585 84.757C153.793 85.7716 154.973 87.1805 156.566 87.7299C157.627 88.0976 158.923 88.0046 159.728 87.2204" fill="#263238"/>
<path id="Vector_167" d="M148.649 91.5093C146.646 92.9447 147.468 96.7904 147.442 98.8063C147.384 103.308 147.809 107.534 148.043 108.239C148.388 109.276 149.635 118.075 149.635 118.075L147.517 129.643C147.517 129.643 150.224 136.559 161.921 136.492L167.751 135.097C169.16 134.759 170.402 133.926 171.25 132.749C172.099 131.571 172.497 130.128 172.372 128.681L171.045 113.126L169.276 100.503C168.834 93.8796 164.672 90.3529 159.378 90.7295L148.649 91.5093Z" fill="#407BFF"/>
<g id="Group_10" opacity="0.5">
<path id="Vector_168" d="M153.43 134.991C152.147 134.326 153.872 121.376 155.362 114.743C155.946 112.156 156.72 109.484 158.556 107.57C160.061 106.109 161.959 105.117 164.018 104.717C165.916 104.327 167.851 104.137 169.789 104.15L171.62 133.631C171.62 133.631 158.936 137.862 153.43 134.991Z" fill="black"/>
</g>
<path id="Vector_169" d="M148.649 91.5098C147.422 91.746 146.268 92.2681 145.28 93.0339C144.292 93.7998 143.498 94.7878 142.962 95.9181C141.489 98.9796 135.045 111.726 135.045 111.726L125.196 111.07L123.228 115.572L136.708 119.2C139.494 119.737 141.927 118.035 143.298 115.519L148.959 105.142L148.649 91.5098Z" fill="#407BFF"/>
<path id="Vector_170" d="M149.613 91.5087C149.613 91.5087 149.366 89.2535 149.689 88.8503C150.012 88.4472 159.786 88.5269 159.786 88.5269L160.303 91.1143L159.215 93.046L149.927 93.8568L149.613 91.5087Z" fill="#407BFF"/>
<path id="Vector_171" d="M136.195 113.95C135.596 113.422 135.227 112.679 135.169 111.881C135.517 112.568 135.859 113.257 136.195 113.95Z" fill="#263238"/>
<path id="Vector_172" d="M150.308 101.619C149.894 102.813 149.408 103.98 148.853 105.115C148.364 106.281 147.808 107.417 147.186 108.517C147.599 107.324 148.085 106.156 148.641 105.022C149.127 103.855 149.684 102.718 150.308 101.619Z" fill="#263238"/>
<path id="Vector_173" d="M160.219 90.7207C160.219 90.7207 160.276 90.8182 160.276 91.0308C160.275 91.1879 160.225 91.3407 160.132 91.4672C160.039 91.5938 159.908 91.6876 159.759 91.7353C158.737 91.7973 157.105 91.8726 155.234 91.9391C153.66 91.9967 152.245 92.0366 151.197 92.0499C150.78 92.0539 150.367 91.9646 149.989 91.7885C149.724 91.6467 149.622 91.5138 149.631 91.5049C149.64 91.496 149.764 91.5979 150.025 91.7043C150.401 91.8429 150.801 91.9046 151.201 91.8859C152.218 91.8283 153.651 91.7663 155.226 91.7087C157.083 91.6423 158.733 91.6024 159.759 91.5935C159.887 91.5559 160.001 91.4804 160.087 91.3769C160.172 91.2734 160.224 91.1467 160.236 91.0131C160.223 90.8315 160.201 90.7207 160.219 90.7207Z" fill="#263238"/>
<path id="Vector_174" d="M143.952 94.3488C144.01 94.3754 142.073 98.2344 139.627 102.966C137.181 107.698 135.156 111.513 135.098 111.477C135.041 111.442 136.978 107.587 139.424 102.855C141.869 98.1236 143.895 94.3178 143.952 94.3488Z" fill="#263238"/>
<path id="Vector_175" d="M147.658 97.1844C147.658 97.1844 147.742 97.1578 147.884 97.2198C147.987 97.2621 148.081 97.3264 148.157 97.4083C148.233 97.4901 148.291 97.5876 148.326 97.6939C148.37 97.8565 148.363 98.0286 148.306 98.187C148.249 98.3454 148.145 98.4826 148.008 98.58C147.844 98.6953 147.646 98.7515 147.446 98.7395C147.252 98.7395 147.061 98.704 146.876 98.6908C146.713 98.6741 146.549 98.695 146.395 98.7518C146.242 98.8086 146.104 98.8999 145.991 99.0186C145.896 99.1166 145.822 99.2324 145.771 99.3594C145.721 99.4864 145.697 99.622 145.699 99.7585C145.722 100.022 145.8 100.277 145.929 100.507C145.929 100.534 145.597 100.326 145.536 99.7674C145.523 99.6069 145.543 99.4455 145.594 99.2931C145.646 99.1407 145.728 99.0006 145.836 98.8813C145.97 98.7333 146.136 98.6189 146.322 98.5473C146.508 98.4757 146.708 98.449 146.907 98.4692C147.305 98.5091 147.663 98.5888 147.902 98.4161C148.009 98.3429 148.093 98.2396 148.143 98.1191C148.192 97.9986 148.205 97.8661 148.18 97.7382C148.137 97.5563 148.027 97.3977 147.871 97.2951C147.729 97.2198 147.654 97.2021 147.658 97.1844Z" fill="#FAFAFA"/>
<path id="Vector_176" d="M160.714 97.3265C160.714 97.3265 160.803 97.3043 160.944 97.3619C161.043 97.4082 161.132 97.4746 161.204 97.557C161.277 97.6394 161.331 97.7359 161.364 97.8404C161.408 98.0025 161.402 98.1743 161.346 98.3327C161.29 98.4911 161.187 98.6285 161.05 98.7265C160.884 98.8363 160.688 98.892 160.489 98.886C160.29 98.886 160.104 98.8461 159.918 98.8328C159.755 98.8167 159.591 98.8383 159.437 98.8959C159.284 98.9535 159.146 99.0456 159.034 99.1651C158.939 99.2631 158.864 99.3789 158.814 99.5059C158.764 99.6329 158.739 99.7685 158.742 99.905C158.762 100.169 158.84 100.424 158.972 100.654C158.972 100.676 158.64 100.468 158.578 99.9139C158.565 99.7538 158.585 99.5928 158.636 99.4405C158.687 99.2882 158.768 99.1478 158.874 99.0278C159.008 98.8786 159.175 98.7632 159.362 98.6908C159.549 98.6185 159.75 98.5912 159.949 98.6113C160.347 98.6512 160.701 98.7309 160.944 98.5581C161.051 98.4857 161.135 98.3832 161.185 98.2634C161.234 98.1437 161.247 98.012 161.223 97.8847C161.177 97.7041 161.067 97.5464 160.913 97.4416C160.789 97.3663 160.71 97.3442 160.714 97.3265Z" fill="#FAFAFA"/>
<path id="Vector_177" d="M160.555 106.786C160.555 106.786 160.555 106.879 160.467 107.003C160.399 107.089 160.314 107.16 160.217 107.211C160.12 107.262 160.014 107.292 159.905 107.3C159.735 107.304 159.569 107.257 159.427 107.163C159.285 107.07 159.176 106.935 159.113 106.777C159.049 106.587 159.049 106.382 159.113 106.192C159.162 106.001 159.242 105.824 159.299 105.651C159.355 105.494 159.374 105.327 159.356 105.161C159.337 104.995 159.282 104.836 159.193 104.694C159.041 104.468 158.808 104.309 158.543 104.251C158.283 104.209 158.017 104.226 157.764 104.3C157.872 104.201 158.002 104.131 158.143 104.094C158.284 104.058 158.432 104.057 158.574 104.092C158.734 104.116 158.888 104.173 159.025 104.26C159.162 104.347 159.28 104.462 159.37 104.597C159.483 104.762 159.555 104.952 159.58 105.151C159.605 105.35 159.583 105.552 159.516 105.74C159.383 106.117 159.219 106.445 159.33 106.719C159.373 106.843 159.453 106.951 159.557 107.03C159.662 107.109 159.787 107.155 159.918 107.162C160.103 107.161 160.281 107.092 160.418 106.967C160.502 106.852 160.542 106.781 160.555 106.786Z" fill="#FAFAFA"/>
<path id="Vector_178" d="M154.841 120.206C154.841 120.206 154.841 120.299 154.753 120.418C154.684 120.505 154.598 120.576 154.501 120.627C154.403 120.678 154.296 120.708 154.186 120.715C154.017 120.72 153.851 120.673 153.709 120.581C153.568 120.488 153.458 120.354 153.395 120.197C153.333 120.005 153.333 119.799 153.395 119.608C153.443 119.417 153.523 119.244 153.581 119.067C153.639 118.911 153.659 118.744 153.641 118.578C153.622 118.413 153.565 118.254 153.474 118.114C153.401 118.002 153.307 117.904 153.196 117.828C153.085 117.752 152.96 117.699 152.829 117.671C152.569 117.628 152.303 117.643 152.05 117.716C152.024 117.716 152.302 117.437 152.86 117.512C153.019 117.536 153.173 117.593 153.31 117.679C153.447 117.766 153.564 117.879 153.656 118.013C153.767 118.179 153.838 118.368 153.864 118.567C153.889 118.765 153.868 118.967 153.802 119.156C153.665 119.537 153.501 119.86 153.612 120.135C153.654 120.259 153.733 120.368 153.838 120.447C153.942 120.526 154.069 120.572 154.2 120.578C154.386 120.579 154.566 120.509 154.704 120.383C154.775 120.268 154.814 120.197 154.841 120.206Z" fill="#FAFAFA"/>
<path id="Vector_179" d="M166.565 100.579C166.565 100.579 166.654 100.579 166.795 100.615C166.899 100.658 166.992 100.723 167.068 100.806C167.145 100.888 167.202 100.986 167.237 101.093C167.282 101.255 167.275 101.427 167.219 101.585C167.163 101.744 167.06 101.881 166.923 101.979C166.758 102.09 166.561 102.144 166.362 102.134C166.163 102.134 165.973 102.099 165.791 102.085C165.629 102.069 165.465 102.091 165.311 102.147C165.158 102.204 165.02 102.295 164.907 102.413C164.811 102.512 164.736 102.628 164.686 102.756C164.636 102.884 164.612 103.02 164.615 103.158C164.633 103.42 164.712 103.675 164.845 103.902C164.845 103.929 164.513 103.72 164.451 103.167C164.438 103.006 164.458 102.845 164.509 102.693C164.56 102.541 164.641 102.4 164.747 102.28C164.881 102.131 165.048 102.016 165.235 101.943C165.422 101.871 165.623 101.844 165.822 101.864C166.22 101.904 166.574 101.984 166.813 101.811C166.921 101.739 167.006 101.637 167.056 101.517C167.106 101.397 167.12 101.265 167.096 101.137C167.05 100.957 166.94 100.799 166.786 100.694C166.64 100.619 166.561 100.597 166.565 100.579Z" fill="#FAFAFA"/>
<path id="Vector_180" d="M152.93 112.465C152.93 112.465 152.864 112.403 152.842 112.248C152.828 112.139 152.838 112.029 152.87 111.924C152.902 111.82 152.956 111.723 153.028 111.641C153.143 111.516 153.295 111.43 153.461 111.395C153.627 111.361 153.8 111.378 153.956 111.446C154.144 111.526 154.299 111.666 154.399 111.844C154.5 112.017 154.567 112.194 154.651 112.363C154.723 112.513 154.828 112.645 154.958 112.749C155.088 112.852 155.24 112.925 155.403 112.961C155.668 113.013 155.943 112.957 156.168 112.806C156.381 112.652 156.558 112.452 156.685 112.221C156.707 112.221 156.685 112.598 156.243 112.943C156.113 113.039 155.964 113.107 155.807 113.142C155.649 113.178 155.486 113.181 155.327 113.151C155.131 113.114 154.946 113.031 154.788 112.908C154.63 112.786 154.502 112.628 154.416 112.447C154.244 112.084 154.129 111.738 153.855 111.623C153.737 111.568 153.606 111.55 153.478 111.569C153.349 111.589 153.23 111.646 153.134 111.734C153.004 111.867 152.927 112.044 152.917 112.23C152.922 112.363 152.948 112.456 152.93 112.465Z" fill="#FAFAFA"/>
<path id="Vector_181" d="M153.572 103.573C153.572 103.573 153.66 103.546 153.797 103.608C153.901 103.65 153.995 103.714 154.071 103.796C154.148 103.878 154.205 103.976 154.24 104.083C154.284 104.245 154.277 104.416 154.221 104.575C154.165 104.733 154.062 104.871 153.926 104.969C153.759 105.08 153.56 105.136 153.36 105.128C153.165 105.128 152.975 105.088 152.793 105.075C152.631 105.061 152.467 105.083 152.313 105.14C152.16 105.198 152.022 105.289 151.909 105.407C151.814 105.505 151.739 105.621 151.689 105.748C151.639 105.875 151.615 106.011 151.617 106.147C151.64 106.411 151.72 106.666 151.851 106.896C151.851 106.918 151.52 106.714 151.458 106.156C151.443 105.996 151.462 105.834 151.513 105.682C151.564 105.529 151.646 105.389 151.754 105.27C151.887 105.121 152.054 105.006 152.24 104.934C152.426 104.863 152.626 104.837 152.824 104.858C153.227 104.898 153.581 104.978 153.82 104.805C153.928 104.732 154.013 104.629 154.062 104.508C154.112 104.388 154.124 104.255 154.098 104.127C154.054 103.947 153.946 103.789 153.793 103.684C153.647 103.608 153.567 103.591 153.572 103.573Z" fill="#FAFAFA"/>
<path id="Vector_182" d="M153.306 124.613C153.306 124.613 153.394 124.613 153.532 124.649C153.635 124.693 153.728 124.758 153.804 124.841C153.88 124.923 153.938 125.021 153.974 125.127C154.018 125.289 154.011 125.461 153.955 125.62C153.899 125.778 153.796 125.915 153.66 126.013C153.492 126.123 153.294 126.179 153.094 126.173C152.899 126.173 152.709 126.133 152.523 126.12C152.36 126.104 152.196 126.126 152.043 126.183C151.889 126.241 151.751 126.333 151.639 126.452C151.543 126.55 151.468 126.665 151.418 126.792C151.368 126.919 151.344 127.055 151.347 127.192C151.37 127.453 151.449 127.707 151.577 127.936C151.577 127.963 151.249 127.755 151.183 127.201C151.17 127.04 151.19 126.879 151.242 126.726C151.293 126.574 151.376 126.434 151.484 126.315C151.617 126.166 151.783 126.05 151.969 125.978C152.155 125.905 152.356 125.878 152.554 125.898C152.952 125.938 153.31 126.018 153.549 125.845C153.657 125.773 153.742 125.671 153.791 125.551C153.841 125.431 153.854 125.299 153.828 125.172C153.785 124.991 153.676 124.833 153.523 124.728C153.381 124.653 153.302 124.631 153.306 124.613Z" fill="#FAFAFA"/>
<path id="Vector_183" d="M140.795 113.4C140.795 113.4 140.883 113.374 141.025 113.436C141.125 113.481 141.214 113.547 141.286 113.629C141.359 113.712 141.413 113.809 141.445 113.914C141.491 114.076 141.485 114.249 141.429 114.407C141.373 114.566 141.269 114.704 141.131 114.8C140.967 114.916 140.769 114.972 140.569 114.96C140.37 114.96 140.184 114.924 139.999 114.911C139.836 114.895 139.672 114.916 139.519 114.973C139.365 115.03 139.227 115.121 139.114 115.239C139.019 115.337 138.944 115.454 138.894 115.582C138.844 115.709 138.819 115.846 138.822 115.983C138.843 116.245 138.921 116.5 139.052 116.728C139.052 116.754 138.72 116.546 138.659 115.988C138.645 115.827 138.664 115.666 138.716 115.513C138.768 115.36 138.851 115.22 138.959 115.102C139.092 114.952 139.258 114.837 139.444 114.764C139.63 114.692 139.831 114.665 140.03 114.685C140.428 114.725 140.786 114.805 141.025 114.632C141.133 114.559 141.217 114.456 141.267 114.335C141.316 114.215 141.329 114.082 141.303 113.954C141.26 113.772 141.15 113.614 140.994 113.511C140.87 113.44 140.795 113.418 140.795 113.4Z" fill="#FAFAFA"/>
<path id="Vector_184" d="M144.134 107.273C144.134 107.273 144.134 107.362 144.076 107.499C144.022 107.594 143.948 107.677 143.86 107.742C143.771 107.807 143.67 107.852 143.563 107.876C143.397 107.906 143.226 107.884 143.072 107.814C142.919 107.743 142.79 107.627 142.705 107.481C142.609 107.306 142.572 107.104 142.599 106.905C142.599 106.706 142.67 106.524 142.701 106.338C142.733 106.175 142.727 106.007 142.684 105.846C142.641 105.686 142.562 105.537 142.453 105.412C142.364 105.308 142.255 105.223 142.133 105.162C142.011 105.1 141.877 105.063 141.741 105.053C141.479 105.053 141.219 105.109 140.98 105.217C140.954 105.217 141.188 104.903 141.75 104.894C141.915 104.89 142.08 104.922 142.232 104.987C142.385 105.052 142.522 105.149 142.634 105.27C142.77 105.417 142.869 105.594 142.923 105.787C142.978 105.979 142.986 106.182 142.948 106.378C142.873 106.772 142.763 107.118 142.909 107.375C142.971 107.49 143.067 107.583 143.182 107.644C143.298 107.704 143.429 107.73 143.559 107.716C143.741 107.686 143.906 107.589 144.023 107.446C144.089 107.344 144.116 107.269 144.134 107.273Z" fill="#FAFAFA"/>
<path id="Vector_185" d="M153.691 96.0777C153.691 96.0777 153.691 96.1663 153.638 96.2992C153.584 96.3951 153.51 96.4785 153.422 96.5442C153.334 96.6098 153.232 96.6561 153.125 96.6802C152.958 96.7106 152.785 96.6886 152.631 96.6172C152.477 96.5459 152.348 96.4286 152.263 96.2815C152.166 96.106 152.129 95.9039 152.157 95.7055C152.157 95.5106 152.227 95.3245 152.258 95.1428C152.291 94.9801 152.287 94.812 152.245 94.6514C152.202 94.4908 152.124 94.3421 152.015 94.2168C151.833 94.0087 151.578 93.8799 151.303 93.858C151.039 93.8547 150.777 93.9107 150.538 94.0219C150.629 93.9079 150.747 93.8183 150.881 93.7611C151.016 93.7039 151.162 93.6809 151.307 93.694C151.47 93.694 151.63 93.7279 151.779 93.7935C151.927 93.8591 152.06 93.955 152.17 94.0751C152.306 94.2217 152.406 94.3984 152.461 94.5908C152.516 94.7832 152.526 94.986 152.488 95.1827C152.409 95.5726 152.298 95.9226 152.448 96.1751C152.51 96.2902 152.604 96.3842 152.719 96.4451C152.834 96.5059 152.965 96.5307 153.094 96.5163C153.278 96.4887 153.445 96.394 153.563 96.2505C153.647 96.1441 153.673 96.0688 153.691 96.0777Z" fill="#FAFAFA"/>
<path id="Vector_186" d="M166.508 95.3147C166.508 95.3147 166.508 95.4034 166.45 95.5407C166.396 95.6359 166.322 95.7187 166.234 95.7835C166.145 95.8484 166.044 95.894 165.937 95.9173C165.771 95.9484 165.599 95.9272 165.446 95.8566C165.292 95.786 165.164 95.6694 165.079 95.523C164.983 95.3475 164.945 95.1454 164.973 94.947C164.973 94.7476 165.044 94.566 165.075 94.3799C165.107 94.2169 165.101 94.0487 165.058 93.8882C165.015 93.7277 164.936 93.5792 164.827 93.4539C164.648 93.2453 164.394 93.1163 164.12 93.0951C163.856 93.0948 163.595 93.1507 163.355 93.259C163.328 93.259 163.567 92.9444 164.124 92.9356C164.286 92.935 164.446 92.9682 164.595 93.033C164.743 93.0978 164.877 93.1929 164.986 93.3122C165.123 93.4586 165.222 93.6354 165.277 93.828C165.331 94.0206 165.34 94.2234 165.3 94.4198C165.225 94.8141 165.115 95.1597 165.265 95.4166C165.327 95.5313 165.421 95.625 165.536 95.6858C165.651 95.7465 165.782 95.7716 165.911 95.7578C166.094 95.7301 166.26 95.6335 166.375 95.4875C166.464 95.3856 166.49 95.3103 166.508 95.3147Z" fill="#FAFAFA"/>
<path id="Vector_187" d="M132.79 115.022C132.79 115.022 132.79 115.11 132.732 115.248C132.678 115.343 132.605 115.425 132.517 115.49C132.43 115.555 132.33 115.6 132.223 115.624C132.057 115.656 131.884 115.635 131.73 115.564C131.575 115.494 131.447 115.377 131.361 115.23C131.264 115.055 131.227 114.853 131.255 114.654C131.255 114.455 131.326 114.273 131.357 114.087C131.39 113.924 131.384 113.755 131.341 113.595C131.298 113.434 131.219 113.286 131.109 113.161C130.93 112.952 130.675 112.823 130.401 112.802C130.138 112.802 129.877 112.858 129.636 112.966C129.61 112.966 129.849 112.651 130.406 112.643C130.568 112.641 130.728 112.674 130.877 112.739C131.025 112.804 131.159 112.9 131.268 113.019C131.404 113.166 131.504 113.342 131.559 113.535C131.613 113.728 131.621 113.93 131.582 114.127C131.507 114.521 131.396 114.867 131.547 115.124C131.609 115.238 131.703 115.331 131.818 115.392C131.933 115.453 132.063 115.478 132.193 115.465C132.377 115.436 132.544 115.34 132.661 115.195C132.728 115.071 132.772 114.995 132.79 115.022Z" fill="#FAFAFA"/>
<path id="Vector_188" d="M153.329 147.773L152.979 186.735H155.191L155.359 148.548C155.359 148.548 155.469 146.803 156.796 146.687C158.123 146.572 178.025 147.573 178.025 147.573L183.889 186.735H186.436L180.687 147.578C180.687 147.578 163.974 141.916 155.668 143.661C155.668 143.661 153.674 143.294 153.563 144.827C153.452 146.359 153.329 147.773 153.329 147.773Z" fill="#E0E0E0"/>
<path id="Vector_189" d="M153.717 143.271C153.717 143.271 157.176 116.245 158.419 111.663C159.012 109.591 160.387 107.832 162.253 106.759C163.309 106.119 164.526 105.796 165.76 105.828L184.119 106.232C184.515 106.24 184.905 106.333 185.262 106.505C185.619 106.677 185.935 106.924 186.189 107.229C186.443 107.534 186.629 107.889 186.734 108.272C186.839 108.655 186.861 109.056 186.799 109.448L180.713 147.577C173.96 147.577 158.158 147.577 158.158 147.577C158.158 147.577 136.536 145.216 133.214 145.07C131.14 144.976 131.003 145.778 130.808 146.647C128.862 145.07 130.025 141.822 132.524 141.977L153.717 143.271Z" fill="#455A64"/>
<path id="Vector_190" d="M186.684 108.083C186.632 108.089 186.58 108.089 186.529 108.083H186.065L184.296 108.105L177.755 108.141H173.235H169.4C168.958 108.141 168.516 108.141 168.073 108.167C167.139 108.264 166.251 108.626 165.514 109.21C164.777 109.793 164.222 110.575 163.912 111.464C163.765 111.936 163.66 112.421 163.598 112.912C163.518 113.413 163.434 113.918 163.35 114.423C163.185 115.439 163.018 116.473 162.85 117.525C161.475 125.85 160.228 133.386 159.312 138.858C158.87 141.578 158.476 143.78 158.22 145.322C158.087 146.07 157.981 146.651 157.91 147.094C157.875 147.284 157.844 147.435 157.822 147.537C157.818 147.589 157.806 147.639 157.786 147.688C157.781 147.636 157.781 147.584 157.786 147.533C157.786 147.417 157.822 147.267 157.848 147.089C157.915 146.673 158.003 146.084 158.118 145.317C158.361 143.771 158.706 141.565 159.135 138.84C160.02 133.368 161.245 125.827 162.594 117.494C162.765 116.454 162.933 115.42 163.098 114.392C163.182 113.883 163.266 113.382 163.346 112.881C163.412 112.377 163.52 111.879 163.668 111.393C163.993 110.464 164.576 109.647 165.349 109.039C166.121 108.43 167.051 108.056 168.029 107.959C168.498 107.924 168.945 107.937 169.387 107.937H173.221H177.741L184.282 107.972L186.051 107.995H186.516L186.684 108.083Z" fill="#263238"/>
<path id="Vector_191" d="M130.769 147.772L129.76 186.734H131.972L132.542 148.61C132.542 148.61 132.569 146.337 134.311 146.527C135.638 146.673 155.734 149.013 155.734 149.013L162.497 186.734H165.044L158.158 147.577L133.528 144.476C133.016 144.401 132.493 144.479 132.025 144.702C131.663 144.884 131.359 145.162 131.144 145.506C130.93 145.85 130.814 146.246 130.808 146.651C130.693 148.18 130.769 147.772 130.769 147.772Z" fill="#EBEBEB"/>
<path id="Vector_192" d="M181.032 106.16C181.032 106.16 168.648 146.553 153.718 143.27L153.965 141.365C153.965 141.365 165.491 143.283 179.055 106.12L181.032 106.16Z" fill="#407BFF"/>
<path id="Vector_193" d="M154.783 142.815C154.843 147.021 155.665 151.181 157.211 155.092C157.653 156.226 158.246 157.422 159.343 157.954C160.44 158.485 161.713 158.206 162.881 157.887C165.773 157.088 168.594 156.051 171.315 154.786C172.31 154.321 173.358 153.762 173.867 152.788C174.477 151.622 174.154 150.209 173.805 148.942C172.69 144.875 171.439 140.846 170.05 136.856C169.763 136.027 168.431 132.819 168.431 132.819" fill="#407BFF"/>
<path id="Vector_194" d="M169.918 137.618C169.93 137.69 169.93 137.763 169.918 137.835C169.918 137.977 169.918 138.185 169.878 138.451C169.804 139.208 169.663 139.957 169.458 140.689C169.153 141.784 168.69 142.829 168.082 143.79C167.334 144.966 166.345 145.97 165.181 146.736C164.019 147.511 162.68 147.98 161.289 148.101C160.155 148.188 159.015 148.018 157.955 147.605C157.242 147.328 156.582 146.931 156.004 146.43C155.848 146.292 155.7 146.144 155.562 145.987C155.511 145.937 155.466 145.88 155.429 145.819C155.429 145.819 155.646 146.023 156.057 146.355C156.647 146.818 157.305 147.187 158.008 147.449C159.049 147.831 160.161 147.982 161.267 147.893C162.619 147.769 163.919 147.312 165.053 146.563C166.189 145.816 167.158 144.84 167.897 143.697C168.501 142.762 168.972 141.746 169.294 140.68C169.512 139.954 169.676 139.214 169.785 138.464C169.878 137.888 169.9 137.618 169.918 137.618Z" fill="#263238"/>
<path id="Vector_195" d="M164.045 148.827C163.971 148.185 163.971 147.537 164.045 146.895C164.05 146.248 164.132 145.604 164.288 144.977C164.363 145.618 164.363 146.267 164.288 146.908C164.283 147.555 164.202 148.199 164.045 148.827Z" fill="#263238"/>
</g>
<g id="freepik--Plant--inject-135">
<path id="Vector_196" d="M30.145 157.554C33.3647 158.68 37.5662 157.674 40.3171 155.658C43.0679 153.642 45.0537 150.753 46.8139 147.825C47.5613 146.575 48.2955 145.273 48.5299 143.837C48.7643 142.402 48.4193 140.78 47.3048 139.85C45.5756 138.388 42.922 139.128 40.9539 140.253C37.887 142.043 35.3005 144.553 33.4175 147.567C31.5344 150.581 30.4114 154.009 30.145 157.554Z" fill="#407BFF"/>
<path id="Vector_197" d="M33.6035 165.276C35.5362 167.833 38.8576 168.971 42.0596 169.117C45.2616 169.264 48.4193 168.382 51.409 167.23C52.4926 166.813 53.6778 166.242 54.0626 165.143C54.1805 164.717 54.1905 164.268 54.0917 163.837C53.9928 163.407 53.7883 163.007 53.4965 162.675C52.9058 162.017 52.1655 161.511 51.3382 161.2C48.3412 160.004 45.0352 159.825 41.9269 160.691C38.8311 161.492 36.1288 163.291 33.6168 165.276" fill="#407BFF"/>
<path id="Vector_198" d="M30.0963 143.731C32.7499 143.784 34.7799 141.445 35.9872 139.061C37.665 135.731 38.222 131.946 37.575 128.273C37.3317 126.908 36.8187 125.437 35.598 124.782C34.3774 124.126 32.7455 124.551 31.7061 125.504C30.6668 126.456 30.1228 127.808 29.6806 129.155C28.2476 133.793 28.5572 139.123 30.0919 143.731" fill="#407BFF"/>
<path id="Vector_199" d="M21.3394 158.502C25.8859 150.753 26.6466 141.272 23.9576 132.695C23.5154 131.303 22.7016 129.709 21.2465 129.615C19.6367 129.514 18.6284 131.312 18.1861 132.863C16.6249 138.313 16.9566 144.094 17.3016 149.752C17.5139 153.235 18.708 156.216 21.3394 158.502Z" fill="#407BFF"/>
<path id="Vector_200" d="M16.6117 161.692C15.7652 159.037 14.3347 156.605 12.4258 154.577C10.5169 152.549 8.17806 150.976 5.58166 149.973C4.37429 149.53 2.83964 149.26 1.93742 150.182C1.0352 151.103 1.3271 152.609 1.89319 153.726C2.80868 155.56 4.29468 157.031 5.77626 158.44C7.10305 159.725 8.51829 161.014 10.2254 161.758C11.9326 162.503 15.0549 162.693 16.6117 161.679" fill="#407BFF"/>
<path id="Vector_201" d="M44.7972 141.782L44.7175 141.853L44.4699 142.043L43.519 142.757L42.8291 143.266C42.577 143.457 42.3205 143.683 42.033 143.913C41.4713 144.383 40.8079 144.892 40.1357 145.53L39.0654 146.505C38.6939 146.846 38.3401 147.231 37.9509 147.612C37.1681 148.366 36.4119 149.247 35.5981 150.156C33.883 152.172 32.3163 154.31 30.9101 156.553C29.5361 158.819 28.3256 161.181 27.288 163.62C26.8457 164.759 26.4035 165.835 26.0718 166.867C25.9037 167.381 25.7179 167.878 25.5808 168.361L25.1872 169.756C24.9174 170.642 24.745 171.466 24.5946 172.18C24.515 172.539 24.431 172.871 24.369 173.177L24.2231 174.027C24.1346 174.523 24.0639 174.913 24.0108 175.197C23.9887 175.321 23.9666 175.423 23.9533 175.503C23.9481 175.538 23.9377 175.572 23.9224 175.604C23.9204 175.569 23.9204 175.534 23.9224 175.498C23.9224 175.418 23.9356 175.316 23.9622 175.192C24.002 174.904 24.0595 174.51 24.1302 174.014C24.17 173.753 24.2143 173.469 24.2629 173.159C24.3115 172.849 24.3956 172.516 24.4663 172.153C24.6256 171.435 24.7715 170.607 25.0324 169.716C25.1518 169.273 25.2801 168.799 25.4128 168.312C25.5455 167.824 25.7268 167.328 25.8949 166.81C26.2133 165.764 26.6555 164.688 27.0978 163.545C29.1251 158.615 31.9393 154.048 35.43 150.023C36.2526 149.114 37.0178 148.25 37.8094 147.488C38.1986 147.107 38.5613 146.722 38.9328 146.385L40.0207 145.415C40.6974 144.781 41.3475 144.281 41.9401 143.82C42.232 143.59 42.493 143.377 42.7495 143.186L43.4527 142.686L44.4301 142.003L44.6866 141.831C44.7618 141.795 44.7927 141.777 44.7972 141.782Z" fill="#263238"/>
<path id="Vector_202" d="M50.8161 163.265C50.7101 163.256 50.605 163.239 50.5021 163.211C50.2987 163.176 50.0068 163.096 49.6176 163.034C45.4765 162.209 41.1916 162.487 37.1919 163.843C33.1923 165.198 29.6183 167.582 26.8278 170.757C26.0923 171.585 25.4127 172.461 24.7934 173.379C24.5634 173.703 24.413 173.964 24.2981 174.137C24.2457 174.229 24.1835 174.315 24.1123 174.394C24.1539 174.297 24.2027 174.204 24.2582 174.115C24.3644 173.938 24.5059 173.672 24.7226 173.335C25.3177 172.4 25.983 171.511 26.7128 170.677C29.1175 167.871 32.1454 165.669 35.5533 164.248C38.9612 162.827 42.6543 162.226 46.336 162.494C47.4461 162.568 48.549 162.727 49.6353 162.968C50.02 163.047 50.3119 163.136 50.5198 163.189C50.6208 163.204 50.7201 163.23 50.8161 163.265Z" fill="#263238"/>
<path id="Vector_203" d="M34.0279 127.87C34.0279 127.87 34.0279 127.91 34.0279 127.99C34.0279 128.069 33.9837 128.194 33.9527 128.34C33.882 128.659 33.7802 129.106 33.6564 129.669C33.3955 130.825 32.993 132.496 32.4933 134.542C31.4893 138.667 30.0343 144.347 28.5129 150.643C27.761 153.797 27.08 156.806 26.4918 159.548C25.9035 162.291 25.4215 164.772 25.0588 166.863C24.8598 167.904 24.7139 168.852 24.5723 169.685C24.4308 170.518 24.3202 171.232 24.2362 171.821C24.1522 172.41 24.077 172.849 24.0239 173.172C24.0018 173.314 23.9797 173.429 23.9664 173.522C23.9607 173.563 23.9503 173.603 23.9355 173.642C23.9333 173.6 23.9333 173.559 23.9355 173.518C23.9355 173.429 23.9355 173.309 23.9709 173.163C24.0151 172.84 24.0726 172.384 24.1433 171.808C24.2141 171.232 24.3158 170.478 24.4441 169.668C24.5723 168.857 24.7139 167.895 24.8863 166.837C25.2313 164.741 25.7089 162.255 26.275 159.508C26.8411 156.762 27.5311 153.749 28.2829 150.594C29.7999 144.298 31.2815 138.632 32.3163 134.507C32.8338 132.46 33.2539 130.799 33.5458 129.633C33.6918 129.071 33.8024 128.628 33.8864 128.304L33.9793 127.963C33.9921 127.93 34.0084 127.899 34.0279 127.87Z" fill="#263238"/>
<path id="Vector_204" d="M23.5863 173.061C23.5747 173.031 23.5659 173 23.5597 172.968L23.4934 172.689C23.4403 172.423 23.3651 172.064 23.2723 171.608C23.0777 170.669 22.83 169.309 22.5337 167.621C21.9499 164.236 21.2777 159.553 20.8354 154.342C20.6275 151.737 20.5125 149.252 20.4639 146.988C20.4152 144.724 20.4639 142.681 20.517 140.971C20.517 140.116 20.5921 139.345 20.6275 138.667C20.6629 137.989 20.7116 137.405 20.7558 136.926C20.8 136.448 20.831 136.098 20.8575 135.827C20.8575 135.712 20.8575 135.619 20.8885 135.544C20.8843 135.511 20.8843 135.479 20.8885 135.446C20.8931 135.479 20.8931 135.511 20.8885 135.544C20.8885 135.624 20.8885 135.717 20.8885 135.832C20.8885 136.102 20.8531 136.47 20.8265 136.931C20.8 137.391 20.7602 137.994 20.7381 138.672C20.716 139.35 20.6629 140.12 20.6541 140.976C20.601 142.686 20.5966 144.724 20.6541 146.983C20.7116 149.243 20.8354 151.724 21.0433 154.325C21.4855 159.526 22.1312 164.205 22.6796 167.581C22.9494 169.269 23.1838 170.633 23.3474 171.568C23.427 172.011 23.489 172.388 23.5332 172.654C23.5332 172.765 23.5641 172.858 23.5774 172.937C23.5914 172.977 23.5945 173.02 23.5863 173.061Z" fill="#263238"/>
<path id="Vector_205" d="M23.931 174.027C23.8859 173.941 23.8475 173.852 23.8161 173.761C23.7364 173.561 23.6391 173.318 23.5153 172.981C23.449 172.808 23.3782 172.622 23.303 172.414C23.2278 172.206 23.1129 171.971 23.0111 171.763L22.675 171.01C22.56 170.739 22.4052 170.473 22.2637 170.181C22.1222 169.889 21.9586 169.592 21.8215 169.295C21.6843 168.998 21.4588 168.675 21.2686 168.342C20.9015 167.678 20.4283 167.013 19.9728 166.287C18.9163 164.762 17.7734 163.299 16.5497 161.905C15.309 160.525 13.9981 159.211 12.6224 157.966C11.9678 157.412 11.3708 156.863 10.7649 156.398L9.90689 155.711L9.08871 155.108C8.57126 154.714 8.08919 154.386 7.6602 154.103C7.2312 153.819 6.86855 153.562 6.55896 153.376L5.85577 152.933C5.76871 152.888 5.68832 152.832 5.61694 152.765C5.70573 152.802 5.79149 152.847 5.87345 152.898L6.60319 153.31C6.9172 153.487 7.29754 153.722 7.72654 154.005C8.15553 154.289 8.65529 154.603 9.17716 154.989L10.0042 155.582L10.8887 156.265C11.499 156.708 12.1049 157.27 12.7639 157.82C14.163 159.061 15.4918 160.378 16.7443 161.767C17.9767 163.172 19.1214 164.652 20.1718 166.198C20.6141 166.929 21.0961 167.602 21.4544 168.276L22.0028 169.242C22.1576 169.556 22.3124 169.862 22.445 170.154C22.5777 170.447 22.7369 170.722 22.8475 170.992C22.9581 171.262 23.0686 171.515 23.1703 171.754L23.4446 172.418C23.5153 172.628 23.5817 172.819 23.6436 172.99L23.9045 173.787C23.921 173.866 23.9299 173.946 23.931 174.027Z" fill="#263238"/>
<path id="Vector_206" d="M43.1077 150.771C43.1077 150.802 42.5593 150.802 41.6748 150.851C39.3674 150.975 37.0871 151.408 34.8949 152.14C34.0546 152.419 33.5416 152.623 33.5283 152.583C33.6345 152.506 33.7505 152.443 33.8733 152.397C34.0944 152.291 34.4305 152.149 34.8463 151.99C35.9364 151.581 37.0595 151.267 38.203 151.05C39.3448 150.83 40.5034 150.71 41.666 150.691C42.1082 150.691 42.4753 150.691 42.723 150.714C42.8534 150.713 42.9832 150.732 43.1077 150.771Z" fill="#263238"/>
<path id="Vector_207" d="M46.5395 167.549C46.0406 166.53 45.4117 165.58 44.6687 164.722C43.8776 163.918 42.9856 163.219 42.0151 162.645C42.3421 162.729 42.6529 162.867 42.935 163.052C44.3615 163.875 45.5068 165.111 46.2211 166.597C46.3756 166.896 46.483 167.217 46.5395 167.549Z" fill="#263238"/>
<path id="Vector_208" d="M34.8461 134.166C34.8859 134.215 34.05 135.052 33.1389 136.169C32.2279 137.285 31.5733 138.282 31.5203 138.247C31.8954 137.442 32.3839 136.696 32.9709 136.031C33.5024 135.322 34.1341 134.693 34.8461 134.166Z" fill="#263238"/>
<path id="Vector_209" d="M32.0998 129.416C32.4431 130.598 32.6494 131.815 32.7145 133.045C32.5082 132.463 32.3687 131.859 32.2988 131.246C32.1601 130.646 32.0933 130.032 32.0998 129.416Z" fill="#263238"/>
<path id="Vector_210" d="M23.595 144.325C23.2179 145.29 22.7746 146.227 22.2682 147.13C21.8246 148.066 21.3162 148.971 20.7468 149.837C21.1249 148.873 21.5682 147.936 22.0736 147.032C22.5173 146.096 23.0256 145.191 23.595 144.325Z" fill="#263238"/>
<path id="Vector_211" d="M18.5312 139.265C18.9685 139.905 19.346 140.584 19.659 141.294C20.0356 141.971 20.3494 142.681 20.5966 143.416C20.1594 142.776 19.7819 142.096 19.4688 141.387C19.0932 140.709 18.7794 139.999 18.5312 139.265Z" fill="#263238"/>
<path id="Vector_212" d="M11.1053 156.575C11.1053 156.637 10.1899 156.46 9.06208 156.384C7.93431 156.309 7.01883 156.349 7.0144 156.287C7.69046 156.126 8.38997 156.087 9.07977 156.172C9.77354 156.184 10.4595 156.321 11.1053 156.575Z" fill="#263238"/>
<path id="Vector_213" d="M16.1738 171.882L18.7036 185.214C18.7848 185.641 19.0121 186.026 19.3462 186.304C19.6804 186.581 20.1006 186.733 20.5345 186.733H28.0132C28.455 186.733 28.8824 186.576 29.2193 186.289C29.5562 186.003 29.7808 185.606 29.853 185.169L32.0643 171.878L16.1738 171.882Z" fill="#263238"/>
<path id="Vector_214" d="M16.9964 176.216H31.2948L32.0511 171.883H16.1738L16.9964 176.216Z" fill="#455A64"/>
<path id="Vector_215" d="M16.9966 176.216L17.2973 177.798H31.0738L31.2949 176.216H16.9966Z" fill="#FAFAFA"/>
</g>
</g>
</svg>
