<svg width="20" height="20" viewBox="0 0 20 20" fill="none" xmlns="http://www.w3.org/2000/svg">
<g id="Icon/calendar">
<path id="Shape" fill-rule="evenodd" clip-rule="evenodd" d="M5.83333 13.3346C5.83333 12.8763 6.20833 12.5013 6.66667 12.5013C7.125 12.5013 7.5 12.8763 7.5 13.3346C7.5 13.793 7.125 14.168 6.66667 14.168C6.20833 14.168 5.83333 13.793 5.83333 13.3346ZM10 12.5013H13.3333C13.7917 12.5013 14.1667 12.8763 14.1667 13.3346C14.1667 13.793 13.7917 14.168 13.3333 14.168H10C9.54167 14.168 9.16667 13.793 9.16667 13.3346C9.16667 12.8763 9.54167 12.5013 10 12.5013ZM15 16.668H5C4.54083 16.668 4.16667 16.2938 4.16667 15.8346V10.8346H15.8333V15.8346C15.8333 16.2938 15.4592 16.668 15 16.668ZM5 5.0013H5.83333V5.83464C5.83333 6.29297 6.20833 6.66797 6.66667 6.66797C7.125 6.66797 7.5 6.29297 7.5 5.83464V5.0013H12.5V5.83464C12.5 6.29297 12.875 6.66797 13.3333 6.66797C13.7917 6.66797 14.1667 6.29297 14.1667 5.83464V5.0013H15C15.4592 5.0013 15.8333 5.37547 15.8333 5.83464V9.16797H4.16667V5.83464C4.16667 5.37547 4.54083 5.0013 5 5.0013ZM15 3.33464H14.1667V2.5013C14.1667 2.04297 13.7917 1.66797 13.3333 1.66797C12.875 1.66797 12.5 2.04297 12.5 2.5013V3.33464H7.5V2.5013C7.5 2.04297 7.125 1.66797 6.66667 1.66797C6.20833 1.66797 5.83333 2.04297 5.83333 2.5013V3.33464H5C3.62167 3.33464 2.5 4.4563 2.5 5.83464V15.8346C2.5 17.213 3.62167 18.3346 5 18.3346H15C16.3783 18.3346 17.5 17.213 17.5 15.8346V5.83464C17.5 4.4563 16.3783 3.33464 15 3.33464Z" fill="#595A70"/>
</g>
</svg>
