<svg width="16" height="17" viewBox="0 0 16 17" fill="none" xmlns="http://www.w3.org/2000/svg">
<g id="Huge-icon/interface/solid/information">
<path id="information" fill-rule="evenodd" clip-rule="evenodd" d="M14.6663 8.50065C14.6663 12.1825 11.6816 15.1673 7.99967 15.1673C4.31778 15.1673 1.33301 12.1825 1.33301 8.50065C1.33301 4.81875 4.31778 1.83398 7.99967 1.83398C11.6816 1.83398 14.6663 4.81875 14.6663 8.50065ZM8.66634 5.16732C8.66634 5.53551 8.36786 5.83398 7.99967 5.83398C7.63148 5.83398 7.33301 5.53551 7.33301 5.16732C7.33301 4.79913 7.63148 4.50065 7.99967 4.50065C8.36786 4.50065 8.66634 4.79913 8.66634 5.16732ZM7.33301 6.66732C7.05687 6.66732 6.83301 6.89118 6.83301 7.16732C6.83301 7.44346 7.05687 7.66732 7.33301 7.66732H7.49967V11.834C7.49967 12.1101 7.72353 12.334 7.99967 12.334C8.27582 12.334 8.49967 12.1101 8.49967 11.834V7.16732C8.49967 6.89118 8.27582 6.66732 7.99967 6.66732H7.33301Z" fill="#8D8FA3"/>
</g>
</svg>
