<svg width="16" height="16" viewBox="0 0 16 16" fill="none" xmlns="http://www.w3.org/2000/svg">
<g id="Huge-icon/interface/outline/notepad">
<path id="Vector" d="M5.33333 6.66634H10.6667M5.33333 9.33301H10.6667M5.33333 11.9997H8M5.33333 2.66634C5.33333 3.40272 5.93029 3.99967 6.66667 3.99967H9.33333C10.0697 3.99967 10.6667 3.40272 10.6667 2.66634M5.33333 2.66634C5.33333 1.92996 5.93029 1.33301 6.66667 1.33301H9.33333C10.0697 1.33301 10.6667 1.92996 10.6667 2.66634M5.33333 2.66634H4.66667C3.19391 2.66634 2 3.86025 2 5.33301V11.9997C2 13.4724 3.19391 14.6663 4.66667 14.6663H11.3333C12.8061 14.6663 14 13.4724 14 11.9997V5.33301C14 3.86025 12.8061 2.66634 11.3333 2.66634H10.6667" stroke="#8D8FA3" stroke-linecap="round"/>
</g>
</svg>
