<svg width="24" height="24" viewBox="0 0 24 24" fill="none" xmlns="http://www.w3.org/2000/svg">
<g id="tabler-icon-progress-x">
<path id="Vector" d="M9.99953 20.7776C9.12914 20.5802 8.29321 20.2535 7.51953 19.8086M14 3.22266C15.9882 3.67673 17.7632 4.79235 19.0347 6.38686C20.3061 7.98138 20.9984 9.96031 20.9984 11.9997C20.9984 14.039 20.3061 16.0179 19.0347 17.6125C17.7632 19.207 15.9882 20.3226 14 20.7767M4.57856 17.094C4.03307 16.3014 3.61876 15.4262 3.35156 14.502M3.12402 10.4995C3.28402 9.54953 3.59202 8.64953 4.02402 7.82453L4.19302 7.51953M6.90723 4.57866C7.84288 3.93456 8.89255 3.47437 10.0002 3.22266M14 14L10 10M10 14L14 10" stroke="#DE3024" stroke-width="2" stroke-linecap="round" stroke-linejoin="round"/>
</g>
</svg>
